<svg xmlns="http://www.w3.org/2000/svg" xmlns:xlink="http://www.w3.org/1999/xlink" width="1205" height="495" viewBox="0 0 1205 495">
  <defs>
    <clipPath id="clip-path">
      <path id="パス_4815" data-name="パス 4815" d="M2983.165,2425.872h-1160a17.5,17.5,0,0,1-17.5-17.5v-450a17.5,17.5,0,0,1,17.5-17.5h1160a17.5,17.5,0,0,1,17.5,17.5v450a17.5,17.5,0,0,1-17.5,17.5Z" fill="none"/>
    </clipPath>
    <radialGradient id="radial-gradient" cx="0.5" cy="0.5" r="0.504" gradientTransform="translate(0.008) scale(0.985 1)" gradientUnits="objectBoundingBox">
      <stop offset="0" stop-color="#f7931e"/>
      <stop offset="1" stop-color="#ede839"/>
    </radialGradient>
  </defs>
  <g id="グループ_563" data-name="グループ 563" transform="translate(-1800.665 -1935.872)">
    <path id="パス_4813" data-name="パス 4813" d="M2983.165,2425.872h-1160a17.5,17.5,0,0,1-17.5-17.5v-450a17.5,17.5,0,0,1,17.5-17.5h1160a17.5,17.5,0,0,1,17.5,17.5v450a17.5,17.5,0,0,1-17.5,17.5Z" fill="#fff52a"/>
    <g id="グループ_552" data-name="グループ 552" opacity="0.4">
      <g id="グループ_551" data-name="グループ 551" clip-path="url(#clip-path)">
        <path id="パス_4814" data-name="パス 4814" d="M2286.078,1519.629l117.1,663.732,116.969-663.732Zm454.034,80.014-336.936,583.718L2919.418,1750.1Zm296.378,353.142-633.314,230.576,673.96-.064Zm-116.99,663.74,117.034-202.709-633.358-230.455Zm-179.277,150.489-337.047-583.653,117.095,663.709Zm-454.019,80.1,116.972-663.754-336.924,583.7Zm-399.287-230.478,516.259-433.276-633.292,230.568Zm-157.723-433.212,673.982-.064L1769.84,1952.913Zm157.641-433.242,516.341,433.178-337.035-583.634Z" fill="url(#radial-gradient)"/>
      </g>
    </g>
    <g id="グループ_157" data-name="グループ 157">
      <rect id="長方形_50" data-name="長方形 50" width="980.348" height="87.52" transform="translate(1912.991 2070.271)" fill="#003562"/>
    </g>
    <g id="期間限定" style="isolation: isolate">
      <path id="パス_4816" data-name="パス 4816" d="M2555.055,2026.731c-4.7.21-16.478.21-20.348.21q-1.375,0-2.709-.046v-.115h19.8v-19.064h-4.393v-2.465h11.017v-29H2532.07v-7.2H2512v7.2h-26.138v29h9.438l-.263,2.492c-1.064,10.1-3.648,17.293-7.855,21.854l-.845-.377a21.219,21.219,0,0,1-5.686-3.73c1.855-1.593,3.775-3.332,5.656-5.127l4.827-4.6-6.507-4.618v-39h-44.411v.113l-1.7-.988-2.733.8h-21.567v-.36h-71.773v.432h-33.5v-2.3h-35.482v7.633h-5.616v18.488h5.616v15.714h-6.48v18.489h4.2a23.613,23.613,0,0,1-2.575,2.27l-6.581,4.936,7.078,4.194a43.426,43.426,0,0,1,5.847,4.36l3.7,3.534,3.79-3.439a54.352,54.352,0,0,0,8.52-10.131,48.95,48.95,0,0,1,3.846,5.832l2.616,5.1,6.874-3.891c.323.21.671.448,1.019.7l1.6,2.62.45-.971q.162.156.285.291l4.978,5.5,3.815-6.36q.424-.706.826-1.457l.489,3.775,4.767.064c6.292.086,10.655-.243,14.219-2.177a11.232,11.232,0,0,0,5.7-7.569v9.891h19.5v-3.024h15.553v-3.672h8.38a14.242,14.242,0,0,1,.389,1.852l.581,4.844h4.88c6.35,0,11.538-.164,15.614-2.224,5.05-2.439,6.389-7.035,6.746-10.406v12.63h18.993v-13.011l4.343,12.8,4.821-1.076c2.521-.563,5.332-1.167,8.3-1.8,4.892-1.05,10.436-2.24,15.668-3.467l1.459-.343a36.19,36.19,0,0,0,8.316,6.039l4.979,2.642,2.519-5.042a19.677,19.677,0,0,1,1.807-2.778,49.048,49.048,0,0,1,5.7,4.76l3.6,3.785,3.964-3.407a38.546,38.546,0,0,0,7.079-8.12c8.076,7.08,18.432,8.225,28.652,8.225h22.638l.784-4.569a27.253,27.253,0,0,1,2.348-6.861l5.12-8.73Zm-231.408,1.358c-.431-.008-.876-.019-1.324-.034q.437-2.244.777-4.659h.547Z" fill="#003562"/>
      <g id="グループ_554" data-name="グループ 554">
        <g id="グループ_553" data-name="グループ 553" style="isolation: isolate">
          <path id="パス_4817" data-name="パス 4817" d="M2289.4,2027.545a50.623,50.623,0,0,1-10.657,14.4,48.366,48.366,0,0,0-6.841-5.112,33.341,33.341,0,0,0,9.506-11.665Zm18.434-2.88h-35.355v-7.489h6.48v-26.714h-5.616v-7.488h5.616v-7.633h7.705v7.633h8.929v-7.633h7.848v7.633h4.9v7.488h-4.9v26.714h4.393Zm-21.17-34.2v4.177h8.929v-4.177Zm0,15.266h8.929v-4.538h-8.929Zm0,11.448h8.929v-4.9h-8.929Zm50.764,15.05c0,4.248-.791,6.48-3.312,7.848s-6.192,1.584-11.52,1.512a31.035,31.035,0,0,0-2.45-8.137c3.1.217,6.553.145,7.561.145,1.08,0,1.44-.361,1.44-1.513V2017.9H2318.2c-.793,8.5-2.593,17.5-6.48,23.978a24.765,24.765,0,0,0-6.77-4.824c.217-.432.5-.792.721-1.224l-5.977,3.384a71.523,71.523,0,0,0-7.705-10.873l6.481-3.528a78.48,78.48,0,0,1,7.777,9.793c4.176-9,4.536-21.17,4.536-30.531v-26.426h26.642Zm-8.281-21.962v-8.857h-10.368v2.664c0,1.872,0,3.96-.072,6.193Zm-10.368-24.842v8.425h10.368v-8.425Z" fill="#fff"/>
          <path id="パス_4818" data-name="パス 4818" d="M2356.432,2003.207v38.523h-8.5v-64.517h27.578v25.994Zm0-19.8v3.817h11.089v-3.817Zm11.089,13.682v-4.1h-11.089v4.1Zm41.188,34.49c0,4.609-.937,7.129-3.816,8.5-2.809,1.441-6.986,1.656-13.178,1.656a31.721,31.721,0,0,0-1.872-6.7h-17.858v3.672h-7.776V2007.6h3.527v-.073l24.195.073v25.49c2.808.071,5.472.071,6.409,0,1.3,0,1.727-.433,1.727-1.584v-28.155h-19.585v-26.138h28.227Zm-24.843-17.713h-11.881v4.321h11.881Zm0,14.906v-4.465h-11.881v4.465Zm4.753-45.365v3.817h11.448v-3.817Zm11.448,13.825v-4.248h-11.448v4.248Z" fill="#fff"/>
          <path id="パス_4819" data-name="パス 4819" d="M2443.625,1980.6c-2.016,6.264-4.465,14.185-6.7,19.8a21.442,21.442,0,0,1,5.544,14.69c.072,4.753-1.008,7.776-3.313,9.361a9.239,9.239,0,0,1-4.248,1.656,36.314,36.314,0,0,1-4.969.144,18.7,18.7,0,0,0-1.943-7.633c1.367.072,2.447.072,3.384.072a3.582,3.582,0,0,0,2.089-.648c.863-.647,1.3-2.016,1.3-4.032,0-3.384-1.081-7.849-5.33-12.673,1.513-4.608,3.168-11.089,4.465-16.13h-6.336v56.525h-7.993v-64.157h16.993l1.225-.36Zm38.883,35.787a126.332,126.332,0,0,1-9.721,8.425,27.268,27.268,0,0,0,11.306,9.433,30.364,30.364,0,0,0-5.544,7.273c-10.586-5.618-16.2-16.346-19.443-30.387h-5.184V2029.7c3.385-.576,6.912-1.224,10.369-1.872l.648,7.489c-8.281,1.944-17.138,3.744-23.906,5.256l-2.808-8.28c2.16-.288,4.68-.721,7.488-1.152v-53.5h33.411v33.483H2466.6a50.043,50.043,0,0,0,2.736,7.633,64.138,64.138,0,0,0,6.481-7.129Zm-28.586-31.322v5.688h16.7v-5.688Zm0,18.721h16.7v-6.049h-16.7Z" fill="#fff"/>
          <path id="パス_4820" data-name="パス 4820" d="M2526.5,2032.01a74.416,74.416,0,0,0,8.209.431c3.889,0,15.77,0,20.594-.215a32.009,32.009,0,0,0-3.025,8.712h-18c-13.25,0-23.115-2.16-29.739-12.384a36.1,36.1,0,0,1-9.577,13.608,52.327,52.327,0,0,0-7.057-5.832c7.778-5.761,11.3-15.7,12.6-28.011l8.929.865c-.433,3.24-.937,6.264-1.584,9.144,2.16,5.761,5.544,9.217,9.792,11.306v-25.419H2502.3v-8.137h39.6v8.137H2526.5v9h19.8v8.064h-19.8Zm-26.715-32.259h-8.424v-18H2517.5v-7.2h9.073v7.2h26.354v18h-8.857v-9.865h-44.284Z" fill="#fff"/>
        </g>
      </g>
    </g>
    <g id="グループ_555" data-name="グループ 555">
      <path id="パス_4821" data-name="パス 4821" d="M1967.86,2087.975l8.46-1.38c.181,1.2.361,3.239.66,4.679.121.84.48,2.82.96,5.52,5.1-.84,9.66-1.56,11.82-1.981,1.92-.359,4.2-.839,5.639-1.259l1.441,7.86c-1.32.119-3.72.48-5.52.72-2.46.42-7.02,1.139-12,1.92.6,3,1.2,6.3,1.861,9.6,5.4-.9,10.319-1.74,13.019-2.28,2.34-.479,4.56-.96,6.119-1.439l1.62,7.919c-1.62.12-4.08.54-6.359.9-2.88.48-7.74,1.26-13.019,2.1.96,4.919,1.8,8.94,2.159,10.8.42,1.8,1.02,3.96,1.56,5.88l-8.639,1.56c-.3-2.22-.481-4.32-.84-6.06-.3-1.74-1.08-5.88-2.04-10.919-6.12,1.02-11.76,1.98-14.34,2.459s-4.619.9-6,1.261l-1.68-8.04c1.62-.06,4.321-.42,6.24-.66,2.76-.36,8.34-1.26,14.4-2.22-.6-3.24-1.26-6.6-1.8-9.659-5.28.84-9.9,1.619-11.76,1.92-1.92.42-3.48.72-5.519,1.26l-1.62-8.281c1.92-.059,3.719-.179,5.579-.42,2.1-.239,6.72-.9,11.88-1.739-.48-2.52-.9-4.5-1.08-5.46C1968.7,2090.794,1968.281,2089.414,1967.86,2087.975Z" fill="#fff"/>
      <path id="パス_4822" data-name="パス 4822" d="M2030.682,2101.834c.42,1.439.96,3.479,1.62,5.819,7.619-1.439,16.019-3.059,18.359-3.6a11.435,11.435,0,0,0,3.06-.96l4.8,3.42a94.508,94.508,0,0,1-12.78,18.779l-6.6-3.3a53.29,53.29,0,0,0,8.879-10.8c-1.44.241-7.44,1.5-13.919,2.82,2.28,8.28,4.859,17.519,5.759,20.639.361,1.02,1.14,3.72,1.62,4.92l-8.16,2.04a34.148,34.148,0,0,0-1.08-5.28c-.9-3.239-3.359-12.6-5.519-20.759-5.04,1.08-9.42,1.98-11.22,2.4l-1.859-7.2c1.92-.179,3.54-.36,5.519-.719.84-.12,3-.481,5.76-1.021-.6-2.34-1.14-4.26-1.56-5.58a21.061,21.061,0,0,0-1.68-4.26l8.04-1.92C2029.962,2098.653,2030.321,2100.273,2030.682,2101.834Z" fill="#fff"/>
      <path id="パス_4823" data-name="パス 4823" d="M2084.2,2116.593l-7.319,2.76a121.651,121.651,0,0,0-5.46-13.86l7.2-2.579C2080.121,2105.974,2083,2113.233,2084.2,2116.593Zm29.039-8.1a48.356,48.356,0,0,1-8.16,17.579,46.839,46.839,0,0,1-20.1,14.88l-6.3-6.42c6.6-1.74,14.939-6.3,19.919-12.539,4.08-5.1,6.96-13.08,7.679-20.579l8.4,2.7C2113.96,2106.033,2113.6,2107.293,2113.24,2108.493Zm-15.779,4.38-7.2,2.521a99.893,99.893,0,0,0-4.86-13.321l7.14-2.34C2093.681,2102.313,2096.621,2110.113,2097.461,2112.873Z" fill="#fff"/>
      <path id="パス_4824" data-name="パス 4824" d="M2146.782,2109.993l-4.38,6.72c-3.42-2.34-9.66-6.42-13.679-8.52l4.38-6.66C2137.122,2103.693,2143.722,2107.833,2146.782,2109.993Zm4.86,13.739c10.2-5.7,18.539-13.919,23.338-22.5l4.621,8.161c-5.58,8.279-14.039,15.9-23.879,21.539a73.04,73.04,0,0,1-20.039,7.439l-4.5-7.92A64.961,64.961,0,0,0,2151.642,2123.732Zm4.379-27.3-4.5,6.66c-3.359-2.34-9.6-6.42-13.559-8.64l4.38-6.6C2146.3,2090.014,2152.9,2094.274,2156.021,2096.434Z" fill="#fff"/>
      <path id="パス_4825" data-name="パス 4825" d="M2227.9,2109.273c-.48,3.54-2.04,13.86-2.94,19.56h3.84c1.56,0,4.32-.061,5.88-.24v7.739c-1.2-.06-4.14-.18-5.76-.18h-31.559c-2.16,0-3.66.06-5.939.18v-7.8a57.339,57.339,0,0,0,5.939.3h19.44c.84-5.1,2.16-13.62,2.34-16.979h-16.2c-1.92,0-4.259.179-6,.3v-7.92c1.56.18,4.32.361,5.94.361h15.359a13.6,13.6,0,0,0,4.441-.66l5.819,2.82A16.73,16.73,0,0,0,2227.9,2109.273Z" fill="#fff"/>
      <path id="パス_4826" data-name="パス 4826" d="M2261.742,2093.914l8.759,1.8c-.539,1.74-1.2,4.68-1.439,6a139.668,139.668,0,0,1-5.1,18.058,82.476,82.476,0,0,1-8.88,17.161l-8.4-3.54a72.333,72.333,0,0,0,9.359-16.68A86.5,86.5,0,0,0,2261.742,2093.914Zm15.239,1.8,7.98-2.58c2.46,4.62,6.6,13.859,8.88,19.679,2.1,5.4,5.279,15,6.959,20.939l-8.879,2.88a185.537,185.537,0,0,0-6.24-21.179A167.985,167.985,0,0,0,2276.981,2095.714Zm19.08,0-4.8,2.1a76.042,76.042,0,0,0-4.68-8.338l4.739-1.981C2292.82,2089.714,2294.921,2093.494,2296.061,2095.714Zm7.2-2.76-4.8,2.04a62.4,62.4,0,0,0-4.8-8.22l4.74-1.98A93.844,93.844,0,0,1,2303.26,2092.954Z" fill="#fff"/>
      <path id="パス_4827" data-name="パス 4827" d="M2327.683,2116.593l-7.32,2.76a121.289,121.289,0,0,0-5.46-13.86l7.2-2.579C2323.6,2105.974,2326.482,2113.233,2327.683,2116.593Zm29.039-8.1a48.384,48.384,0,0,1-8.16,17.579,46.851,46.851,0,0,1-20.1,14.88l-6.3-6.42c6.6-1.74,14.94-6.3,19.919-12.539,4.08-5.1,6.96-13.08,7.68-20.579l8.4,2.7C2357.441,2106.033,2357.081,2107.293,2356.722,2108.493Zm-15.78,4.38-7.2,2.521a99.882,99.882,0,0,0-4.859-13.321l7.139-2.34C2337.162,2102.313,2340.1,2110.113,2340.942,2112.873Z" fill="#fff"/>
      <path id="パス_4828" data-name="パス 4828" d="M2397.283,2094.694c-.059.119-.12.18-.179.3h12.059a19.24,19.24,0,0,0,5.22-.72l6.119,3.78a24.069,24.069,0,0,0-1.98,4.32,62.612,62.612,0,0,1-10.439,20.039c-5.7,6.959-12.96,12.48-24.239,16.919l-7.08-6.359c12.3-3.66,18.96-8.88,24.179-14.82,4.079-4.679,7.56-11.88,8.52-16.38H2392.6a68.39,68.39,0,0,1-15.12,14.52l-6.719-4.98a52.82,52.82,0,0,0,18.718-19.319,28.818,28.818,0,0,0,2.7-6.3l8.759,2.88C2399.563,2090.674,2398,2093.374,2397.283,2094.694Z" fill="#fff"/>
      <path id="パス_4829" data-name="パス 4829" d="M2448.345,2087.975l8.459-1.38c.179,1.2.36,3.239.66,4.679.12.84.48,2.82.96,5.52,5.1-.84,9.659-1.56,11.819-1.981,1.92-.359,4.2-.839,5.64-1.259l1.44,7.86c-1.32.119-3.719.48-5.519.72-2.46.42-7.021,1.139-12,1.92.6,3,1.2,6.3,1.86,9.6,5.4-.9,10.319-1.74,13.02-2.28,2.339-.479,4.559-.96,6.119-1.439l1.62,7.919c-1.62.12-4.08.54-6.36.9-2.879.48-7.74,1.26-13.019,2.1.96,4.919,1.8,8.94,2.159,10.8.421,1.8,1.021,3.96,1.561,5.88l-8.64,1.56c-.3-2.22-.48-4.32-.84-6.06-.3-1.74-1.08-5.88-2.04-10.919-6.12,1.02-11.76,1.98-14.34,2.459s-4.619.9-6,1.261l-1.68-8.04c1.62-.06,4.32-.42,6.24-.66,2.76-.36,8.34-1.26,14.4-2.22-.6-3.24-1.26-6.6-1.8-9.659-5.28.84-9.9,1.619-11.759,1.92-1.92.42-3.48.72-5.52,1.26l-1.62-8.281c1.92-.059,3.72-.179,5.58-.42,2.1-.239,6.719-.9,11.879-1.739-.479-2.52-.9-4.5-1.08-5.46C2449.185,2090.794,2448.765,2089.414,2448.345,2087.975Z" fill="#fff"/>
      <path id="パス_4830" data-name="パス 4830" d="M2511.165,2101.834c.42,1.439.96,3.479,1.62,5.819,7.619-1.439,16.02-3.059,18.36-3.6a11.431,11.431,0,0,0,3.059-.96l4.8,3.42a94.5,94.5,0,0,1-12.779,18.779l-6.6-3.3a53.22,53.22,0,0,0,8.879-10.8c-1.44.241-7.44,1.5-13.919,2.82,2.28,8.28,4.859,17.519,5.76,20.639.36,1.02,1.139,3.72,1.62,4.92l-8.16,2.04a34.378,34.378,0,0,0-1.08-5.28c-.9-3.239-3.36-12.6-5.52-20.759-5.04,1.08-9.42,1.98-11.22,2.4l-1.859-7.2c1.92-.179,3.54-.36,5.52-.719.839-.12,3-.481,5.759-1.021-.6-2.34-1.139-4.26-1.559-5.58a21.062,21.062,0,0,0-1.681-4.26l8.04-1.92C2510.445,2098.653,2510.8,2100.273,2511.165,2101.834Z" fill="#fff"/>
      <path id="パス_4831" data-name="パス 4831" d="M2575.245,2121.873c10.26-6.06,18.06-15.239,21.84-23.339l4.68,8.459c-4.561,8.1-12.54,16.38-22.2,22.2a64.943,64.943,0,0,1-22.259,8.46l-5.039-7.92A61.829,61.829,0,0,0,2575.245,2121.873Zm0-19.38-6.119,6.24a124.839,124.839,0,0,0-15-12.96l5.64-6A121.194,121.194,0,0,1,2575.245,2102.493Z" fill="#fff"/>
      <path id="パス_4832" data-name="パス 4832" d="M2615.867,2113.713c2.7-2.76,7.379-8.64,11.52-13.56,3.539-4.2,7.079-4.859,11.759-.479,4.02,3.779,8.639,8.579,12.24,12.479,4.019,4.26,10.139,10.92,14.759,15.839l-6.6,7.08c-4.02-4.979-9.119-11.159-12.659-15.3-3.481-4.139-8.821-9.959-10.98-12.178-1.92-1.92-3.179-1.8-4.92.359-2.34,3-6.6,8.94-9,12.18-1.38,1.92-2.819,4.019-3.9,5.58l-7.2-7.44A67.463,67.463,0,0,0,2615.867,2113.713Zm40.078-22.859a7.77,7.77,0,1,1,0,15.54,7.77,7.77,0,0,1,0-15.54Zm0,11.58a3.816,3.816,0,0,0,3.84-3.781,3.868,3.868,0,0,0-3.84-3.84,3.817,3.817,0,0,0-3.78,3.84A3.765,3.765,0,0,0,2655.945,2102.434Z" fill="#fff"/>
      <path id="パス_4833" data-name="パス 4833" d="M2689.366,2107.953h32.219c2.819,0,5.459-.239,7.019-.359v9.419c-1.44-.06-4.5-.3-7.019-.3h-32.219c-3.42,0-7.44.12-9.66.3v-9.419C2681.866,2107.773,2686.246,2107.953,2689.366,2107.953Z" fill="#fff"/>
      <path id="パス_4834" data-name="パス 4834" d="M2763.947,2121.873c10.26-6.06,18.06-15.239,21.84-23.339l4.68,8.459c-4.561,8.1-12.54,16.38-22.2,22.2a64.962,64.962,0,0,1-22.259,8.46l-5.04-7.92A61.829,61.829,0,0,0,2763.947,2121.873Zm0-19.38-6.119,6.24a124.839,124.839,0,0,0-15-12.96l5.64-6A121.194,121.194,0,0,1,2763.947,2102.493Z" fill="#fff"/>
      <path id="パス_4835" data-name="パス 4835" d="M2852.866,2094.934v29.939h-7.5v-3h-13.559v18.719h-7.56v-18.719h-13.5v3.3h-7.2v-30.239h20.7v-10.379h7.56v10.379Zm-28.619,19.92v-12.9h-13.5v12.9Zm21.119,0v-12.9h-13.559v12.9Z" fill="#fff"/>
    </g>
    <path id="パス_4836" data-name="パス 4836" d="M2983.165,2425.872h-1160a17.5,17.5,0,0,1-17.5-17.5v-450a17.5,17.5,0,0,1,17.5-17.5h1160a17.5,17.5,0,0,1,17.5,17.5v450a17.5,17.5,0,0,1-17.5,17.5Z" fill="none" stroke="#003562" stroke-miterlimit="10" stroke-width="10"/>
    <g id="グループ_556" data-name="グループ 556">
      <path id="パス_4837" data-name="パス 4837" d="M1944.762,2180.125H1976.1c1.727,0,3.744-.173,5.414-.346v7.892c-1.728-.115-3.744-.231-5.414-.231h-12.155v23.5h15.265a35.159,35.159,0,0,0,5.415-.46v8.352a46.321,46.321,0,0,0-5.415-.288h-37.96a48.215,48.215,0,0,0-5.644.288v-8.352a37.28,37.28,0,0,0,5.644.46h14.631v-23.5h-11.117c-1.555,0-4.033.116-5.472.231v-7.892C1940.787,2179.952,1943.149,2180.125,1944.762,2180.125Z" fill="#003562"/>
      <path id="パス_4838" data-name="パス 4838" d="M2002.421,2179.434h29.031c1.67,0,4.09-.058,5.069-.116-.058,1.326-.173,3.629-.173,5.3v29.838c0,2.016.115,5.068.23,6.8h-8.351c.057-.922.057-1.9.057-3h-26.266c-2.247,0-5.531.173-7.431.346v-8.237c2.016.173,4.608.346,7.2.346h26.555v-23.848h-25.863c-2.42,0-5.531.115-7.143.231v-8.007C1997.467,2179.318,2000.462,2179.434,2002.421,2179.434Z" fill="#003562"/>
      <path id="パス_4839" data-name="パス 4839" d="M2065.146,2186.4a60.764,60.764,0,0,1-5.01,7.258v31.278h-6.625v-23.905a54,54,0,0,1-5.184,4.666,51.1,51.1,0,0,0-3.283-7.085,51.722,51.722,0,0,0,14.112-14.8Zm-.978-12.5a60.983,60.983,0,0,1-15.092,14.459,42.557,42.557,0,0,0-3.4-5.818c4.492-2.765,9.561-7.431,11.98-11.29Zm35.021,36.118H2091.3v8.178c0,3.169-.576,4.781-2.822,5.761-2.131.979-5.012.979-8.929.979a24.051,24.051,0,0,0-2.131-6.106c2.419.115,5.127.115,5.875.115.807-.057,1.037-.288,1.037-.921v-8.006h-12.1a60.477,60.477,0,0,1,6.568,7.2l-5.127,3.629a48.513,48.513,0,0,0-6.624-8.007l4.263-2.822h-8.065V2204.2h21.082v-3.283h-19.7v-5.587h33.351v5.587H2091.3v3.283h7.834Zm-3.11-17.224h-28.513v-19.93h28.513Zm-6.912-15.15H2074.19v2.881h14.977Zm0,7.374H2074.19v3h14.977Z" fill="#003562"/>
      <path id="パス_4840" data-name="パス 4840" d="M2108.864,2180.183c4.839-.4,14.343-1.268,24.885-2.132,5.933-.518,12.211-.863,16.3-1.036l.057,7.373c-3.11.057-8.064.057-11.117.805-6.969,1.844-12.211,9.275-12.211,16.129,0,9.5,8.87,12.9,18.662,13.421l-2.707,7.892c-12.1-.806-23.5-7.258-23.5-19.757a23.049,23.049,0,0,1,8.582-17.8c-5.414.576-17.165,1.844-23.846,3.284l-.749-7.891C2105.523,2180.413,2107.771,2180.3,2108.864,2180.183Zm37.615,17.683-4.378,1.958a44.454,44.454,0,0,0-4.493-8.006l4.262-1.786A71.538,71.538,0,0,1,2146.479,2197.866Zm6.681-2.822-4.319,2.073a50.814,50.814,0,0,0-4.724-7.776l4.205-1.958A85.808,85.808,0,0,1,2153.16,2195.044Z" fill="#003562"/>
      <path id="パス_4841" data-name="パス 4841" d="M2183.919,2179.9c-2.822,4.147-6.855,11.52-9.734,16.588a13.4,13.4,0,0,1,6.624-1.727c4.32,0,6.912,2.707,7.142,7.488.115,2.592-.057,7.2.231,9.619.23,2.247,1.843,3.111,3.744,3.111,5.012,0,8.064-6.452,9.735-13.594l6.221,5.069c-3,9.85-8.353,16.416-17.165,16.416-6.4,0-9.39-3.8-9.62-8.007-.231-3.052-.173-7.775-.346-10.137a3.16,3.16,0,0,0-3.4-3.226c-3.917,0-7.143,4.032-9.216,8.7a121.024,121.024,0,0,0-4.378,12.845l-8.122-2.765c4.262-11.52,16.071-35.022,19.124-40.494.749-1.555,1.843-3.456,2.822-5.876l8.18,3.285C2185.187,2177.993,2184.553,2178.973,2183.919,2179.9Z" fill="#003562"/>
      <path id="パス_4842" data-name="パス 4842" d="M2236.048,2191.185c-.288-.692-.519-1.383-.749-2.017-.461-1.324-.807-2.419-1.153-3.4a134.724,134.724,0,0,1-19.412-.519l-.4-6.624a119.705,119.705,0,0,0,18.03.864c-.576-1.844-1.152-3.686-1.843-5.7l7.718-.864q.432,3.109,1.037,6.048a66.336,66.336,0,0,0,11.348-2.477l.921,6.624a83.946,83.946,0,0,1-10.6,2.131c.288.922.577,1.844.865,2.708.288.806.633,1.67.979,2.592a74.456,74.456,0,0,0,11-2.3l1.151,6.8a77.23,77.23,0,0,1-9.215,1.785,52.338,52.338,0,0,0,2.995,5.127,17.565,17.565,0,0,0,2.592,2.938l-3.514,5.3c-3.226-.633-9.446-1.382-13.652-1.843l.577-5.472c2.419.23,5.529.518,7.257.69-1.209-2.015-2.3-4.031-3.225-5.99a214.2,214.2,0,0,1-25.057-.057l-.4-6.8A147.724,147.724,0,0,0,2236.048,2191.185Zm-14.229,19.3c0,4.262,4.033,5.991,11.636,5.991a75.769,75.769,0,0,0,14.458-1.268l-.4,7.316a88.5,88.5,0,0,1-14,1.094c-11.521,0-18.663-3.4-18.779-11.635-.115-3.687,1.153-6.509,2.478-9.274l7.142,1.382A10.815,10.815,0,0,0,2221.819,2210.481Z" fill="#003562"/>
      <path id="パス_4843" data-name="パス 4843" d="M2275.429,2193.024a97.209,97.209,0,0,0,10.869-1.114l-.038,4.455a114.27,114.27,0,0,1-12.521.96,26.8,26.8,0,0,1-2.189,3.918,13.012,13.012,0,0,1,4.34-.768,5.2,5.2,0,0,1,5.108,2.958c2-.922,3.61-1.576,5.185-2.267,1.5-.652,2.841-1.268,4.263-2l1.92,4.455c-1.229.346-3.264,1.114-4.57,1.613-1.729.692-3.918,1.536-6.261,2.612.039,2.151.115,4.993.154,6.759h-4.609c.115-1.152.154-3,.192-4.685-2.88,1.651-4.417,3.149-4.417,5.069,0,2.112,1.806,2.689,5.57,2.689a62.723,62.723,0,0,0,10.907-1.076l-.153,4.955a96.242,96.242,0,0,1-10.869.653c-6.031,0-10.486-1.459-10.486-6.414,0-4.916,4.61-7.988,8.988-10.254a2.957,2.957,0,0,0-2.689-1.307,9.356,9.356,0,0,0-5.991,2.651,44.192,44.192,0,0,0-3.572,4.224l-4.11-3.072a37.688,37.688,0,0,0,8.488-10.6h-.5c-1.575,0-4.378-.076-6.491-.23v-4.493a50.04,50.04,0,0,0,6.76.461h1.844a21.387,21.387,0,0,0,.767-4.417l5.07.423A36.522,36.522,0,0,1,2275.429,2193.024Z" fill="#003562"/>
      <path id="パス_4844" data-name="パス 4844" d="M2339.338,2217.585c0,2.977-.625,4.561-2.448,5.52s-4.513,1.1-8.5,1.1a19.45,19.45,0,0,0-1.969-5.665c2.545.144,5.329.144,6.144.1s1.153-.336,1.153-1.1v-30.53H2304.2v37.155h-5.568v-42.58h40.708Zm-8.449-22.418h-23.954v-4.8h23.954Zm-16.417,19.729v3.169h-5.282v-19.2h19.539V2214.9Zm0-11.328v6.624h8.976v-6.624Z" fill="#003562"/>
      <path id="パス_4845" data-name="パス 4845" d="M2361.079,2214.9h-9.745v4.225h-5.28v-36.867h15.025Zm-9.745-27.553v8.448h4.417v-8.448Zm4.417,22.466v-9.025h-4.417v9.025Zm28.61-11.234v4.129h4.609v4.944h-4.609v10.465c0,2.737-.528,4.177-2.4,5.04-1.872.817-4.465.96-8.017.96a19.23,19.23,0,0,0-1.824-5.376c2.3.1,4.992.1,5.713.1.768,0,1.008-.191,1.008-.864v-10.321h-16.85V2202.7h16.85v-4.129H2361.9v-4.992h10.848v-4.225h-9.217v-4.992h9.217v-5.04h5.616v5.04h9.6v4.992h-9.6v4.225h10.946v4.992Zm-15.889,9.65c2.208,2.351,4.8,5.52,5.808,7.872l-4.9,2.833a33.779,33.779,0,0,0-5.473-8.066Z" fill="#003562"/>
      <path id="パス_4846" data-name="パス 4846" d="M2401.111,2193.984c-.5,2.574-1.842,10.254-1.842,14.1a18.516,18.516,0,0,0,.153,2.5c.576-1.306,1.19-2.65,1.728-3.918l2.381,1.882c-1.075,3.188-2.343,7.374-2.765,9.41a11.47,11.47,0,0,0-.192,1.8c0,.423.038,1.037.076,1.574l-4.455.308a49.149,49.149,0,0,1-1.5-12.559c0-5.761,1.192-12.252,1.614-15.209.115-1.075.345-2.535.384-3.764l5.376.461C2401.765,2191.373,2401.266,2193.293,2401.111,2193.984Zm9.487,18.781c0,1.69,1.46,2.727,5.377,2.727a45.348,45.348,0,0,0,9.64-1l.076,5.185a54.365,54.365,0,0,1-9.908.73c-6.606,0-9.794-2.343-9.794-6.3a23.436,23.436,0,0,1,.654-4.993l4.416.423A13.044,13.044,0,0,0,2410.6,2212.765Zm13.9-19.664v4.955a103.088,103.088,0,0,1-16.515,0v-4.916A78.982,78.982,0,0,0,2424.5,2193.1Z" fill="#003562"/>
      <path id="パス_4847" data-name="パス 4847" d="M2448.038,2185.183c-.048,1.055-.1,2.208-.144,3.408a58.684,58.684,0,0,0,8.833-1.729l.143,5.953c-2.735.624-6.048,1.1-9.168,1.488-.049,1.44-.049,2.928-.049,4.32v1.776a39.844,39.844,0,0,1,9.217-1.248c7.394,0,13.2,3.841,13.2,10.465,0,5.665-2.975,9.938-10.608,11.858a43.977,43.977,0,0,1-6.289.767l-2.208-6.192a36.951,36.951,0,0,0,5.9-.336c3.889-.72,6.961-2.64,6.961-6.145,0-3.264-2.88-5.184-7.057-5.184a32.327,32.327,0,0,0-9.024,1.345c.1,3.792.191,7.536.191,9.167,0,5.954-2.111,7.538-5.28,7.538-4.656,0-11.232-4.033-11.232-9.121,0-4.176,4.8-8.545,10.7-11.089-.048-1.153-.048-2.3-.048-3.409v-4.032c-.912.048-1.775.1-2.544.1a59.128,59.128,0,0,1-6.721-.239l-.095-5.809a53.238,53.238,0,0,0,6.624.384c.864,0,1.824-.048,2.784-.1.049-1.681.049-3.072.049-3.889a38.88,38.88,0,0,0-.336-4.224h6.624C2448.326,2181.87,2448.134,2183.935,2448.038,2185.183Zm-7.2,30.674c.864,0,1.536-.384,1.536-2.016,0-1.2-.048-3.408-.144-6-2.928,1.585-4.9,3.553-4.9,5.233C2437.333,2214.561,2439.589,2215.857,2440.837,2215.857Zm33.123-22.9-2.88,4.9c-2.305-1.967-8.593-5.568-11.569-7.008l2.64-4.657A100.392,100.392,0,0,1,2473.96,2192.959Z" fill="#003562"/>
      <path id="パス_4848" data-name="パス 4848" d="M2518.023,2185.71v28.419h-5.953v-2.3h-10.656v12.289h-6v-12.289H2485v2.545h-5.713V2185.71h16.13v-6.432h6v6.432ZM2485,2191.183v4.848h10.417v-4.848Zm10.417,15.17v-5.089H2485v5.089Zm6-15.17v4.848h10.656v-4.848Zm10.656,15.17v-5.089h-10.656v5.089Z" fill="#003562"/>
      <path id="パス_4849" data-name="パス 4849" d="M2535.876,2213.024c1.969,3.217,5.569,4.513,10.562,4.705,5.616.24,16.416.1,22.8-.384a29.924,29.924,0,0,0-1.776,5.76c-5.76.289-15.409.384-21.121.145-5.905-.24-9.842-1.585-12.962-5.329-2.112,1.872-4.224,3.744-6.864,5.761l-2.785-5.953a63.039,63.039,0,0,0,6.577-4.416v-10.129h-5.521v-5.233h11.089Zm-3.312-21.553a36.329,36.329,0,0,0-7.728-7.585l4.224-3.456a38.445,38.445,0,0,1,8.016,7.249Zm18.29.1c-.192-1.585-.384-3.216-.529-4.848h-8.352v-5.377h13.2c.721,13.585,3.6,25.154,13.585,30.146a25.593,25.593,0,0,0-4.464,4.369c-5.9-3.5-9.409-9.025-11.522-15.746-2.4,6.866-6.047,12.146-11.28,15.794a31.467,31.467,0,0,0-4.417-4.32c6.721-3.984,10.417-11.138,11.905-20.306Z" fill="#003562"/>
      <path id="パス_4850" data-name="パス 4850" d="M2584.788,2183.886c2.736,0,7.825-.24,10.081-.432a10.329,10.329,0,0,0,3.265-.672l3.84,2.977a11.6,11.6,0,0,0-1.632,2.015,102.538,102.538,0,0,0-4.8,10.322,43.152,43.152,0,0,1,10.417,3.072c.048-.576.1-1.1.145-1.633a31.82,31.82,0,0,0,0-5.232l6.288.72a78.006,78.006,0,0,1-.912,8.881c2.016,1.152,3.744,2.256,5.136,3.216l-2.784,6.673a50,50,0,0,0-4.128-3.36c-2.112,5.424-5.761,9.648-12.193,13.008l-5.089-4.175c7.249-3.12,10.609-7.681,12.193-12.05a33.288,33.288,0,0,0-11.377-3.888c-1.728,4.08-3.744,8.881-5.424,11.521-1.92,2.88-4.225,4.224-7.489,4.224-4.224,0-7.392-2.927-7.392-7.776,0-7.441,6.768-13.106,16.417-13.537,1.344-3.169,2.736-6.433,3.84-8.69-1.919.1-6.048.241-8.256.385-.96.048-2.641.191-3.889.384l-.24-6.193C2582.1,2183.79,2583.732,2183.886,2584.788,2183.886Zm-4.224,28.9c.96,0,1.632-.48,2.5-1.681a53.769,53.769,0,0,0,3.887-7.824c-5.376.816-8.4,4.08-8.4,7.1C2578.548,2211.969,2579.46,2212.785,2580.564,2212.785Z" fill="#003562"/>
      <path id="パス_4851" data-name="パス 4851" d="M2626.952,2197.21c-.038,2.5,0,5.377.231,8.143.538,5.53,1.69,9.333,4.109,9.333,1.806,0,3.342-4.5,4.071-7.567l3.841,4.686c-2.535,6.682-4.954,9.025-8.027,9.025-4.225,0-7.873-3.8-8.948-14.095-.384-3.533-.423-8.027-.423-10.37a23.392,23.392,0,0,0-.307-3.917l5.914.076A31.193,31.193,0,0,0,2626.952,2197.21Zm26.654,16.093-5.031,1.959c-.614-6.184-2.65-15.517-6.836-20.28l4.877-1.574C2650.266,2197.825,2653.184,2207.427,2653.606,2213.3Z" fill="#003562"/>
      <path id="パス_4852" data-name="パス 4852" d="M2672.074,2192.947c-.077.423-.192.922-.307,1.459,2.15-.306,4.3-.729,6.414-1.228v4.8a70.828,70.828,0,0,1-7.49,1.267c-.345,1.651-.729,3.341-1.152,4.916a119.475,119.475,0,0,1-6.106,17.782l-5.339-1.805c2.3-3.841,5.223-11.906,6.644-17.283.269-1.037.576-2.112.807-3.226-.884.038-1.729.077-2.535.077-1.844,0-3.3-.077-4.647-.154l-.115-4.8a38.089,38.089,0,0,0,4.839.308q1.67,0,3.456-.116.231-1.266.346-2.189a19.668,19.668,0,0,0,.115-3.879l5.877.461C2672.573,2190.374,2672.228,2192.1,2672.074,2192.947Zm4.609,20.855c0,1.69,1.152,2.957,5.261,2.957a45.093,45.093,0,0,0,7.989-.806l-.192,4.916a61.623,61.623,0,0,1-7.835.537c-6.452,0-9.947-2.227-9.947-6.106a26.884,26.884,0,0,1,.691-5.147l4.571.461A13.128,13.128,0,0,0,2676.683,2213.8Zm5.838-13.25a67.668,67.668,0,0,1,6.759.345l-.115,4.609a56.165,56.165,0,0,0-6.606-.461,65.718,65.718,0,0,0-7.413.385v-4.494C2677.3,2200.744,2680.063,2200.552,2682.521,2200.552Z" fill="#003562"/>
      <path id="パス_4853" data-name="パス 4853" d="M2708.783,2193.408c-.076.423-.191.922-.306,1.421,2.15-.308,4.339-.729,6.452-1.228v4.8a70.765,70.765,0,0,1-7.49,1.267c-.345,1.652-.729,3.38-1.152,4.955a123.953,123.953,0,0,1-6.106,17.782l-5.339-1.8c2.3-3.879,5.223-11.906,6.644-17.283.269-1.037.538-2.151.807-3.226-.884.038-1.729.077-2.535.077-1.882,0-3.3-.077-4.647-.154l-.115-4.8a37.628,37.628,0,0,0,4.839.308q1.671,0,3.457-.116.23-1.266.345-2.189a19.989,19.989,0,0,0,.115-3.917l5.877.461C2709.321,2190.835,2708.938,2192.563,2708.783,2193.408Zm4.648,20.817c0,1.689,1.152,2.957,5.261,2.957a44.853,44.853,0,0,0,7.989-.769l-.192,4.878a54.989,54.989,0,0,1-7.835.576c-6.452,0-9.947-2.227-9.947-6.106a26.247,26.247,0,0,1,.652-5.147l4.61.423A13.416,13.416,0,0,0,2713.431,2214.225Zm5.838-13.212a67.668,67.668,0,0,1,6.759.345l-.115,4.609a55.773,55.773,0,0,0-6.606-.5,57.308,57.308,0,0,0-7.412.423v-4.5A73.34,73.34,0,0,1,2719.269,2201.013Zm5.684-4.878-3.073,1.344a42.949,42.949,0,0,0-2.995-5.338l3.034-1.268A52.792,52.792,0,0,1,2724.953,2196.135Zm4.609-1.767-3.035,1.306a40.651,40.651,0,0,0-3.111-5.3l3.034-1.228A42.459,42.459,0,0,1,2729.562,2194.368Z" fill="#003562"/>
      <path id="パス_4854" data-name="パス 4854" d="M2750.335,2194.944c-2.5,2-7.565,5.915-10.139,8.1-2.036,1.766-2,2.189.076,3.994,2.881,2.42,10.178,8.181,14.1,11.983l-4.494,4.11c-1.075-1.191-2.188-2.42-3.341-3.572-2.343-2.419-7.988-7.22-11.483-10.216-3.841-3.265-3.533-5.3.306-8.527,3.035-2.458,8.3-6.72,10.87-9.216a26.791,26.791,0,0,0,2.957-3.265l4.494,3.955C2752.486,2193.216,2751.219,2194.215,2750.335,2194.944Z" fill="#003562"/>
      <path id="パス_4855" data-name="パス 4855" d="M2765.848,2212.228c0,2.458,2.342,4.224,7.873,4.224a52.745,52.745,0,0,0,13.48-1.536l.038,5.415a59.158,59.158,0,0,1-13.327,1.306c-8.8,0-13.211-2.957-13.211-8.219a24.788,24.788,0,0,1,.768-5.53l5.031.461A14.138,14.138,0,0,0,2765.848,2212.228Zm7.873-19.7c3.8,0,8.18-.23,11.137-.537v5.108c-2.688.23-7.451.461-11.1.461-4.032,0-7.374-.154-10.485-.422v-5.071A100.517,100.517,0,0,0,2773.721,2192.524Z" fill="#003562"/>
      <path id="パス_4856" data-name="パス 4856" d="M2805.169,2200.014c3.149-1.843,6.491-3.494,8.3-4.532a24.077,24.077,0,0,0,3.572-2.342l2.65,4.455c-1.153.691-2.381,1.343-3.8,2.073a113.79,113.79,0,0,0-10.716,5.685c-3.188,2.112-5.338,4.3-5.338,6.99,0,2.764,2.649,4.224,7.988,4.224a59.288,59.288,0,0,0,12.559-1.421l-.076,5.531a71.355,71.355,0,0,1-12.329.96c-7.643,0-13.443-2.113-13.443-8.718,0-4.225,2.689-7.413,6.376-10.14-1.766-3.264-3.61-7.374-5.339-11.445l4.8-1.959A91.3,91.3,0,0,0,2805.169,2200.014Z" fill="#003562"/>
      <path id="パス_4857" data-name="パス 4857" d="M2825.521,2193.446c3.225-.268,9.563-.844,16.591-1.421,3.955-.345,8.142-.576,10.868-.691l.04,4.916a40,40,0,0,0-7.414.538,11.672,11.672,0,0,0-8.141,10.754c0,6.337,5.914,8.6,12.443,8.948l-1.8,5.262c-8.066-.538-15.67-4.839-15.67-13.173a15.365,15.365,0,0,1,5.722-11.868c-3.61.384-11.445,1.229-15.9,2.189l-.5-5.261C2823.293,2193.6,2824.791,2193.523,2825.521,2193.446Zm25.079,11.791-2.919,1.306a29.673,29.673,0,0,0-2.995-5.338l2.841-1.191A47.676,47.676,0,0,1,2850.6,2205.237Zm4.455-1.882-2.88,1.383a33.8,33.8,0,0,0-3.15-5.185l2.8-1.306A57.649,57.649,0,0,1,2855.055,2203.355Z" fill="#003562"/>
    </g>
    <g id="グループ_562" data-name="グループ 562">
      <g id="グループ_559" data-name="グループ 559">
        <path id="パス_4858" data-name="パス 4858" d="M1995.995,2241.8h-29.537l-2.172,1.34c-6.975,4.3-14.55,7.007-25.326,9.045l-7.328,1.385v31.474h22.109v56.082h-26.234v37.633h91.422v-37.633h-22.934Zm455.424,17.112c-8.861-12.706-21.8-19.423-37.411-19.423s-28.585,6.686-37.475,19.334c-5.45,7.757-9.189,17.5-11.2,29.083-1.994-11.54-5.7-21.25-11.1-28.994-8.861-12.706-21.8-19.423-37.411-19.423s-28.585,6.686-37.474,19.334c-5.451,7.756-9.189,17.5-11.2,29.08-1.994-11.539-5.7-21.248-11.1-28.991-8.862-12.706-21.8-19.423-37.411-19.423s-28.585,6.686-37.475,19.334c-8.585,12.216-12.938,29.334-12.938,50.879,0,21.65,4.332,38.954,12.876,51.429,8.934,13.044,21.915,19.938,37.537,19.938s28.575-6.9,37.467-19.959c5.373-7.888,9.062-17.728,11.048-29.383,2,11.655,5.718,21.5,11.131,29.4,8.934,13.044,21.914,19.938,37.536,19.938s28.575-6.9,37.468-19.959c5.373-7.889,9.062-17.729,11.048-29.386,2,11.657,5.719,21.5,11.132,29.407,8.933,13.044,21.914,19.938,37.536,19.938s28.575-6.9,37.468-19.959c8.48-12.452,12.78-29.749,12.78-51.408C2464.256,2288.218,2459.937,2271.13,2451.419,2258.915ZM2224.665,2339.9c-2.04,4.2-3.835,4.2-5.023,4.2-1.211,0-3.04,0-5.125-4.236-1.987-4.034-4.355-12.542-4.355-30.157,0-9.994.924-33.238,9.48-33.238,8.407,0,9.314,23.244,9.314,33.238C2228.956,2327.368,2226.622,2335.876,2224.665,2339.9Zm97.183,0c-2.04,4.2-3.835,4.2-5.024,4.2-1.211,0-3.04,0-5.125-4.236-1.986-4.034-4.354-12.542-4.354-30.157,0-9.994.924-33.238,9.479-33.238,8.407,0,9.315,23.244,9.315,33.238C2326.139,2327.368,2323.8,2335.876,2321.848,2339.9Zm97.183,0c-2.04,4.2-3.835,4.2-5.023,4.2-1.211,0-3.04,0-5.125-4.236-1.987-4.034-4.355-12.542-4.355-30.157,0-9.994.924-33.238,9.48-33.238,8.407,0,9.314,23.244,9.314,33.238C2423.322,2327.368,2420.988,2335.876,2419.031,2339.9Zm-312.786-80.987c-8.861-12.706-21.8-19.423-37.411-19.423s-28.585,6.686-37.475,19.334c-8.585,12.216-12.938,29.334-12.938,50.879,0,21.65,4.332,38.954,12.877,51.429,8.933,13.044,21.914,19.938,37.536,19.938s28.575-6.9,37.468-19.959c8.48-12.452,12.78-29.749,12.78-51.408C2119.082,2288.218,2114.763,2271.13,2106.245,2258.915Zm-32.388,80.987c-2.04,4.2-3.835,4.2-5.023,4.2-1.211,0-3.04,0-5.125-4.236-1.986-4.034-4.355-12.542-4.355-30.157,0-9.994.924-33.238,9.48-33.238,8.407,0,9.314,23.244,9.314,33.238C2078.148,2327.368,2075.814,2335.876,2073.857,2339.9Zm71.04-8.509c-14.066,0-24.673,10.041-24.673,23.355a22.768,22.768,0,0,0,13.934,21.309c-2.39,2.839-6.255,5.374-11.206,7.214l-8.552,3.18,11.5,29.687,8.125-2.687c23.742-7.848,37.359-25.757,37.359-49.133C2171.387,2340.042,2157.7,2331.393,2144.9,2331.393Z" fill="#003562"/>
        <g id="グループ_557" data-name="グループ 557">
          <path id="パス_4859" data-name="パス 4859" d="M2012.429,2372.262h-78.422v-24.633h26.234v-69.082h-22.109V2258.96l2.035-.385c11.6-2.194,19.838-5.155,27.531-9.9l.6-.372h21.193v99.326h22.934Z" fill="#fff"/>
          <path id="パス_4860" data-name="パス 4860" d="M2068.834,2374.572c-27.5,0-43.913-24.249-43.913-64.867,0-39.894,16.416-63.713,43.913-63.713,27.394,0,43.748,23.819,43.748,63.713C2112.582,2350.323,2096.228,2374.572,2068.834,2374.572Zm0-104.6c-3.952,0-15.98,0-15.98,39.738,0,27.135,5.376,40.893,15.98,40.893,15.814,0,15.814-30.779,15.814-40.893C2084.648,2274.086,2075.623,2269.967,2068.834,2269.967Z" fill="#fff"/>
          <path id="パス_4861" data-name="パス 4861" d="M2129.73,2408.026l-6.888-17.779,2.376-.883c10.4-3.869,16.951-10.4,18.018-17.8-8.388-.488-16.512-6.244-16.512-16.819,0-9.767,7.643-16.855,18.173-16.855,12.517,0,19.99,9.878,19.99,26.425,0,20.391-11.991,36.05-32.9,42.962Z" fill="#fff"/>
          <path id="パス_4862" data-name="パス 4862" d="M2219.642,2374.572c-27.5,0-43.913-24.249-43.913-64.867,0-39.894,16.416-63.713,43.913-63.713,27.393,0,43.748,23.819,43.748,63.713C2263.39,2350.323,2247.035,2374.572,2219.642,2374.572Zm0-104.6c-3.953,0-15.98,0-15.98,39.738,0,27.135,5.376,40.893,15.98,40.893,15.814,0,15.814-30.779,15.814-40.893C2235.456,2274.086,2226.431,2269.967,2219.642,2269.967Z" fill="#fff"/>
          <path id="パス_4863" data-name="パス 4863" d="M2316.824,2374.572c-27.5,0-43.913-24.249-43.913-64.867,0-39.894,16.416-63.713,43.913-63.713,27.394,0,43.748,23.819,43.748,63.713C2360.572,2350.323,2344.218,2374.572,2316.824,2374.572Zm0-104.6c-3.952,0-15.979,0-15.979,39.738,0,27.135,5.376,40.893,15.979,40.893,15.815,0,15.815-30.779,15.815-40.893C2332.639,2274.086,2323.613,2269.967,2316.824,2269.967Z" fill="#fff"/>
          <path id="パス_4864" data-name="パス 4864" d="M2414.008,2374.572c-27.5,0-43.913-24.249-43.913-64.867,0-39.894,16.416-63.713,43.913-63.713,27.393,0,43.748,23.819,43.748,63.713C2457.756,2350.323,2441.4,2374.572,2414.008,2374.572Zm0-104.6c-3.952,0-15.98,0-15.98,39.738,0,27.135,5.376,40.893,15.98,40.893,15.814,0,15.814-30.779,15.814-40.893C2429.822,2274.086,2420.8,2269.967,2414.008,2269.967Z" fill="#fff"/>
        </g>
        <g id="グループ_558" data-name="グループ 558">
          <path id="パス_4865" data-name="パス 4865" d="M1936.507,2350.129h26.234v-74.082h-22.109v-15.016c12.21-2.308,20.624-5.445,28.379-10.228h17.984v99.326h22.934v19.633h-73.422Z" fill="#d11339"/>
          <path id="パス_4866" data-name="パス 4866" d="M2027.421,2309.705c0-40.26,16.334-61.213,41.413-61.213s41.248,21.119,41.248,61.213c0,40.424-16.169,62.367-41.248,62.367S2027.421,2350.129,2027.421,2309.705Zm59.727,0c0-33-7.754-42.238-18.314-42.238s-18.48,9.238-18.48,42.238c0,33.164,7.92,43.393,18.48,43.393S2087.148,2342.869,2087.148,2309.705Z" fill="#d11339"/>
          <path id="パス_4867" data-name="パス 4867" d="M2126.089,2391.707c12.869-4.785,19.964-13.365,19.8-22.6H2144.4c-7.919,0-15.178-5.114-15.178-14.354,0-8.744,7.094-14.355,15.673-14.355,11.22,0,17.49,8.91,17.49,23.925,0,19.3-11.22,33.989-31.184,40.588Z" fill="#d11339"/>
          <path id="パス_4868" data-name="パス 4868" d="M2178.229,2309.705c0-40.26,16.334-61.213,41.413-61.213s41.248,21.119,41.248,61.213c0,40.424-16.169,62.367-41.248,62.367S2178.229,2350.129,2178.229,2309.705Zm59.727,0c0-33-7.755-42.238-18.314-42.238s-18.48,9.238-18.48,42.238c0,33.164,7.92,43.393,18.48,43.393S2237.956,2342.869,2237.956,2309.705Z" fill="#d11339"/>
          <path id="パス_4869" data-name="パス 4869" d="M2275.411,2309.705c0-40.26,16.334-61.213,41.413-61.213s41.248,21.119,41.248,61.213c0,40.424-16.169,62.367-41.248,62.367S2275.411,2350.129,2275.411,2309.705Zm59.728,0c0-33-7.755-42.238-18.315-42.238s-18.479,9.238-18.479,42.238c0,33.164,7.92,43.393,18.479,43.393S2335.139,2342.869,2335.139,2309.705Z" fill="#d11339"/>
          <path id="パス_4870" data-name="パス 4870" d="M2372.595,2309.705c0-40.26,16.334-61.213,41.413-61.213s41.248,21.119,41.248,61.213c0,40.424-16.169,62.367-41.248,62.367S2372.595,2350.129,2372.595,2309.705Zm59.727,0c0-33-7.755-42.238-18.314-42.238s-18.48,9.238-18.48,42.238c0,33.164,7.92,43.393,18.48,43.393S2432.322,2342.869,2432.322,2309.705Z" fill="#d11339"/>
        </g>
      </g>
      <rect id="長方形_171" data-name="長方形 171" width="63.98" height="137.293" transform="translate(1852.058 2241.881)" fill="#003562"/>
      <g id="グループ_560" data-name="グループ 560">
        <path id="パス_4871" data-name="パス 4871" d="M1905.863,2282.18a32.794,32.794,0,0,1-6.928,12.924,30.751,30.751,0,0,0,9.678,4.069,27.077,27.077,0,0,0-3.849,5.114,30.789,30.789,0,0,1-10.229-5.114,35.868,35.868,0,0,1-9.349,5.114,24.272,24.272,0,0,0-2.915-4.4v4.454H1876v-4.454c-6.324.6-12.593,1.154-17.433,1.594l-.495-5.609c1.431-.11,3.08-.165,4.785-.33v-16.718h-4.29v-5.169h48.889v5.169h-25.187v20.128a28.208,28.208,0,0,0,7.809-3.96,33.686,33.686,0,0,1-5-8.139l3.629-.99h-5.059v-5h17.1l1.1-.22Zm-4.729-10.559H1865v-16.883h36.13Zm-32.28,7.2v2.2H1876v-2.2Zm0,9.074H1876v-2.309h-7.148Zm0,7.205c2.309-.166,4.729-.331,7.148-.55v-2.146h-7.148Zm25.736-36.186h-23.318v2.255h23.318Zm0,6.214h-23.318v2.31h23.318Zm-4.015,20.732a21.3,21.3,0,0,0,3.685,5.39,23.024,23.024,0,0,0,3.739-5.39Z" fill="#fff"/>
        <path id="パス_4872" data-name="パス 4872" d="M1888.1,2336.632c3.629,10.723,10.283,19.357,20.567,23.537a26.368,26.368,0,0,0-4.84,6.159c-9.953-4.674-16.332-12.7-20.622-23.316-2.97,9.183-8.908,17.762-20.567,23.372a19.378,19.378,0,0,0-4.894-5.555c12.593-5.609,17.818-14.738,19.962-24.2h-18.918v-6.764h20.018c.549-5.169.495-10.174.549-14.682h7.15c-.055,4.508-.11,9.568-.66,14.682h21.612v6.764Z" fill="#fff"/>
      </g>
      <g id="グループ_561" data-name="グループ 561">
        <path id="パス_4873" data-name="パス 4873" d="M2527.212,2299.936c0,3.705-.8,5.586-3.192,6.669-2.281,1.141-5.7,1.254-10.775,1.254a27.685,27.685,0,0,0-2.451-6.783c3.25.228,6.955.171,8.1.171,1.083-.058,1.481-.4,1.481-1.368v-13.8h-34.432v21.776h-6.84v-49.595h48.113Zm-41.273-20.58h13.454V2264.99h-13.454Zm34.432,0V2264.99H2506.12v14.366Z" fill="#003562"/>
        <path id="パス_4874" data-name="パス 4874" d="M2556.272,2305.1l-3.418-5.426a35.006,35.006,0,0,0,4.24-.729c5.836-1.368,10.4-5.562,10.4-12.219,0-6.292-3.42-10.988-9.575-12.037a92.231,92.231,0,0,1-2.735,12.356c-2.736,9.21-6.657,14.863-11.626,14.863-5.062,0-9.256-5.562-9.256-13.267,0-10.533,9.118-19.514,20.928-19.514,11.306,0,18.419,7.842,18.419,17.781C2573.644,2296.528,2567.763,2303.322,2556.272,2305.1Zm-12.538-10.213c1.915,0,3.694-2.872,5.563-9.028a68.48,68.48,0,0,0,2.417-11.033c-7.524,1.55-11.581,8.207-11.581,13.222C2540.133,2292.653,2541.956,2294.887,2543.734,2294.887Z" fill="#003562"/>
        <path id="パス_4875" data-name="パス 4875" d="M2591.55,2294.977c2.222,3.819,6.214,5.415,12.028,5.643,6.841.284,20.294.113,28.161-.514a30.918,30.918,0,0,0-2.109,6.614c-7.068.342-19.154.456-26.109.171-6.784-.286-11.344-1.939-14.765-6.328-2.28,2.223-4.617,4.389-7.525,6.84l-3.192-6.726a68.207,68.207,0,0,0,7.068-5.245V2283h-6.384v-6.214h12.827Zm-4.048-25.539c-1.6-2.794-5.358-6.728-8.551-9.464l5.188-3.876c3.192,2.565,7.126,6.327,8.95,9.063Zm5.017,0h38.137v4.673h-38.137Zm15.164,30.156v-7.753a53.719,53.719,0,0,1-11,6.1,30.919,30.919,0,0,0-3.877-4.96,43.313,43.313,0,0,0,12.94-6.612h-8.722v-10.489h29.3v9.064l3.421,2.337c-2.337,1.6-4.731,3.193-6.9,4.5a40.711,40.711,0,0,0,7.866,2.11,20.744,20.744,0,0,0-3.7,5.074,32.271,32.271,0,0,1-12.884-6.157v6.784Zm20.408-31.924h-32.722v-11.516h32.722Zm-23.544-7.7h-3.478v3.933h3.478Zm-1.254,22.631h16.3v-2.963h-16.3Zm10.033-22.631h-3.648v3.933h3.648Zm1.14,26.394a19.417,19.417,0,0,0,3.877,3.136,46.482,46.482,0,0,0,4.1-3.136Zm7.582-26.394H2618.4v3.933h3.649Z" fill="#003562"/>
        <path id="パス_4876" data-name="パス 4876" d="M2679.675,2300.62c1.882,0,2.223-1.482,2.509-9.691a18.987,18.987,0,0,0,6.27,2.85c-.683,10.2-2.394,13.168-8.209,13.168H2673.4c-6.441,0-8.094-2.166-8.094-8.836v-17.444h-8.551c-1.027,11.857-3.649,21.606-17.274,27.136a19.54,19.54,0,0,0-4.218-5.53c11.857-4.447,13.454-12.142,14.137-21.606h-12.883v-6.612h50.85v6.612h-15.05v17.444c0,2.166.342,2.509,2.224,2.509Zm2.452-35.4h-40.476v-6.556h40.476Z" fill="#003562"/>
        <path id="パス_4877" data-name="パス 4877" d="M2491.983,2317.922l8.038-1.312c.171,1.141.342,3.078.627,4.447.115.8.456,2.679.913,5.245,4.845-.8,9.177-1.483,11.23-1.882,1.824-.342,3.99-.8,5.358-1.2l1.369,7.467c-1.254.114-3.535.456-5.245.684-2.337.4-6.669,1.083-11.4,1.824.569,2.851,1.14,5.987,1.767,9.121,5.131-.854,9.805-1.653,12.371-2.166,2.222-.456,4.332-.912,5.814-1.368l1.539,7.525c-1.539.114-3.876.513-6.043.855-2.736.456-7.353,1.2-12.37,1.995.912,4.675,1.71,8.494,2.052,10.262.4,1.71.97,3.763,1.482,5.587l-8.209,1.481c-.285-2.109-.456-4.1-.8-5.758-.286-1.653-1.027-5.586-1.939-10.375-5.814.97-11.173,1.882-13.624,2.337s-4.39.856-5.7,1.2l-1.6-7.639c1.539-.057,4.1-.4,5.928-.627,2.623-.342,7.925-1.2,13.682-2.109-.57-3.079-1.2-6.271-1.71-9.178-5.017.8-9.407,1.539-11.173,1.824-1.824.4-3.307.684-5.245,1.2l-1.539-7.867c1.824-.056,3.534-.171,5.3-.4,1.995-.228,6.385-.855,11.287-1.654-.456-2.393-.854-4.275-1.025-5.187C2492.781,2320.6,2492.383,2319.29,2491.983,2317.922Z" fill="#003562"/>
        <path id="パス_4878" data-name="パス 4878" d="M2545.394,2331.09c.4,1.368.912,3.306,1.539,5.53,7.24-1.368,15.22-2.907,17.444-3.421a10.826,10.826,0,0,0,2.907-.912l4.561,3.25a89.787,89.787,0,0,1-12.143,17.843l-6.27-3.136a50.589,50.589,0,0,0,8.436-10.261c-1.368.228-7.068,1.425-13.225,2.679,2.167,7.867,4.618,16.647,5.472,19.611.343.969,1.083,3.535,1.54,4.674l-7.754,1.939a32.661,32.661,0,0,0-1.025-5.017c-.855-3.078-3.192-11.972-5.245-19.724-4.788,1.026-8.95,1.881-10.66,2.28l-1.767-6.841c1.824-.171,3.363-.342,5.244-.684.8-.114,2.851-.456,5.473-.969-.57-2.223-1.083-4.047-1.483-5.3a19.9,19.9,0,0,0-1.595-4.047l7.638-1.824C2544.71,2328.068,2545.052,2329.608,2545.394,2331.09Z" fill="#003562"/>
        <path id="パス_4879" data-name="パス 4879" d="M2600,2350.131c9.748-5.758,17.159-14.481,20.751-22.176l4.446,8.038c-4.333,7.7-11.915,15.563-21.093,21.092a61.717,61.717,0,0,1-21.149,8.038l-4.788-7.524A58.775,58.775,0,0,0,2600,2350.131Zm0-18.414-5.814,5.929a118.629,118.629,0,0,0-14.252-12.314l5.358-5.7A115.217,115.217,0,0,1,2600,2331.717Z" fill="#003562"/>
        <path id="パス_4880" data-name="パス 4880" d="M2632.317,2342.378c2.566-2.623,7.012-8.209,10.946-12.884,3.363-3.99,6.726-4.617,11.174-.456,3.819,3.591,8.209,8.151,11.628,11.858,3.82,4.047,9.635,10.375,14.024,15.049l-6.271,6.727c-3.819-4.732-8.665-10.6-12.028-14.537-3.307-3.933-8.38-9.463-10.432-11.572-1.824-1.825-3.021-1.71-4.674.342-2.224,2.85-6.271,8.493-8.552,11.573-1.311,1.824-2.679,3.819-3.705,5.3l-6.841-7.069A63.919,63.919,0,0,0,2632.317,2342.378Zm38.081-21.72a7.383,7.383,0,1,1,0,14.765,7.383,7.383,0,0,1,0-14.765Zm0,11a3.625,3.625,0,0,0,3.649-3.592,3.674,3.674,0,0,0-3.649-3.648,3.625,3.625,0,0,0-3.591,3.648A3.576,3.576,0,0,0,2670.4,2331.66Z" fill="#003562"/>
        <path id="パス_4881" data-name="パス 4881" d="M2695.873,2336.905h30.612c2.68,0,5.188-.228,6.67-.342v8.95c-1.368-.057-4.275-.285-6.67-.285h-30.612c-3.249,0-7.069.114-9.179.285v-8.95C2688.747,2336.734,2692.908,2336.905,2695.873,2336.905Z" fill="#003562"/>
        <path id="パス_4882" data-name="パス 4882" d="M2760.457,2350.131c9.748-5.758,17.159-14.481,20.751-22.176l4.446,8.038c-4.333,7.7-11.915,15.563-21.092,21.092a61.73,61.73,0,0,1-21.15,8.038l-4.788-7.524A58.775,58.775,0,0,0,2760.457,2350.131Zm0-18.414-5.814,5.929a118.629,118.629,0,0,0-14.252-12.314l5.358-5.7A115.234,115.234,0,0,1,2760.457,2331.717Z" fill="#003562"/>
        <path id="パス_4883" data-name="パス 4883" d="M2821.562,2353.95c4.047,4.561,10.432,7.183,19.439,8.152a26.376,26.376,0,0,0-3.99,5.928c-10.831-1.71-17.615-5.757-22.118-12.826-3.365,5.073-9.692,9.577-21.322,12.713a27.7,27.7,0,0,0-4.217-5.473c9.577-2.167,15.049-5.131,18.184-8.494h-17.159v-5.872h20.466a26.121,26.121,0,0,0,.57-3.592h-14.594v-5.472h14.651v-3.42h-15.563v-3.763h-5.074v-12.143h20.808v-4.959h6.955v4.959h20.864v12.143H2834.9v3.763h-16.645v3.42h15.506v5.472H2818.2a19.243,19.243,0,0,1-.456,3.592h22.519v5.872Zm-10.09-23.829v-3.249h6.784v3.249h14.194v-4.5h-34.887v4.5Z" fill="#003562"/>
        <path id="パス_4884" data-name="パス 4884" d="M2890.533,2362.1c2.224,0,2.68-.969,3.022-5.986a18.645,18.645,0,0,0,5.472,2.337c-.741,7.126-2.451,9.293-7.98,9.293h-9.977c-6.726,0-8.55-1.824-8.55-8.323v-10.945l-2.338,1.083-2.337-5.53c-.229,13.966-.627,19.439-1.939,21.263a5.107,5.107,0,0,1-3.648,2.338,29.794,29.794,0,0,1-5.871.285,15.916,15.916,0,0,0-1.654-6.043,31.848,31.848,0,0,0,4.1.228,1.655,1.655,0,0,0,1.653-.913c.74-1.139,1.083-5.928,1.311-19.325h-4.447c-.8,10.262-2.622,19.5-7.353,25.995a20.121,20.121,0,0,0-4.846-4.731c5.644-7.81,6.157-20.352,6.327-33.52h-5.472v-6.271h8.722v-8.608h6.5v8.608h8.894v4.276a41.162,41.162,0,0,0,5.073-12.941l6.67,1.255c-.456,2-1.083,3.99-1.71,5.928h17.9v6.157h-20.466a37.066,37.066,0,0,1-3.249,5.529h4.161v5.473l3.078-1.425v-8.151h5.645v5.529l4.1-1.881.229-.172,1.026-.74,4.218,1.481-.228.912c-.056,8.1-.056,13.911-.227,15.621-.115,2.052-.912,3.306-2.453,3.933a13.032,13.032,0,0,1-4.731.627,15.424,15.424,0,0,0-1.2-4.96c.684.058,1.482.058,1.938.058s.741-.115.8-.856c.114-.512.114-3.648.172-9.064l-3.648,1.711v15.9h-5.645v-13.282l-3.078,1.425v13.739c0,2.337.4,2.679,3.25,2.679Zm-18.013-20.294v-5.929l-.514.57a36.99,36.99,0,0,0-5.073-4.789,21.119,21.119,0,0,0,1.824-2.052h-10.889c-.056,2.052-.113,4.1-.171,6.1h10.262v2.565l-.114,5.7Z" fill="#003562"/>
        <path id="パス_4885" data-name="パス 4885" d="M2952.664,2324.534v28.446h-7.126v-2.849h-12.884v17.786h-7.182v-17.786h-12.826v3.135H2905.8v-28.732h19.667v-9.862h7.182v9.862Zm-27.192,18.927V2331.2h-12.826v12.257Zm20.066,0V2331.2h-12.884v12.257Z" fill="#003562"/>
      </g>
    </g>
  </g>
</svg>
