<svg xmlns="http://www.w3.org/2000/svg" viewBox="0 0 68.77 81.47"><defs><style>.cls-1{isolation:isolate;}.cls-2{fill:#fff;}.cls-3{fill:#3f9cd7;}.cls-4{fill:#b9b9b9;}.cls-5{fill:#f4d722;}.cls-6{fill:#c7c7cc;}.cls-7{fill:#425ba8;}.cls-8{fill:#dbdcdc;mix-blend-mode:multiply;}.cls-9{fill:#2c3d7a;}.cls-10{fill:#d9bb2b;}.cls-11{fill:#e8dde6;}.cls-12{fill:#40210f;}.cls-13{fill:#3f3b3a;}.cls-14{fill:#8a8a89;}.cls-15{fill:#eaeae9;}.cls-16{fill:#bdb9b8;}.cls-17{fill:#aaa7a5;}.cls-18{fill:#dcdad9;}.cls-19{fill:#b4b0ae;}.cls-20{fill:#b5b1af;}.cls-21{fill:#e6e6e6;}.cls-22{fill:#5883a4;}.cls-23{fill:#cfd4da;}.cls-24{fill:#c7ced5;}.cls-25{fill:#809ab3;}.cls-26{fill:#95a8be;}.cls-27{fill:#879eb7;}.cls-28{fill:#a5b4c5;}.cls-29{fill:#a5b3c4;}.cls-30{fill:#9daec1;}.cls-31{fill:#8ea3bb;}.cls-32{fill:#8ea4bb;}.cls-33{fill:#7491af;}.cls-34{fill:#6e8da9;}.cls-35{fill:#6286a6;}.cls-36{fill:#7894ae;}.cls-37{fill:#d8dbdf;}.cls-38{fill:#b1bdca;}.cls-39{fill:#c1c9d2;}.cls-40{fill:#b9c1cc;}.cls-41{fill:#e2c09e;}.cls-42{fill:#e4c7ab;}.cls-43{fill:#dfbd9d;}.cls-44{fill:#e3c3a4;}.cls-45{fill:#e0e2e3;}.cls-46{fill:#adaa97;}.cls-47{fill:#a7a492;}.cls-48{fill:#a19e8c;}.cls-49{fill:#b5b29f;}.cls-50{fill:#c1bfac;}.cls-51{fill:#9f9b89;}.cls-52{fill:#bbbaa6;}.cls-53{fill:#aba997;}.cls-54{fill:#a5a390;}.cls-55{fill:#b9b8a4;}.cls-56{fill:#b1ae9c;}.cls-57{fill:#dadde0;}.cls-58{fill:#fdfdfd;}.cls-59{fill:#b5c0cd;}.cls-60{fill:#bbc5cf;}.cls-61{fill:#c0beaa;}.cls-62{fill:#939080;}.cls-63{fill:#aba895;}.cls-64{fill:#bcbba7;}.cls-65{fill:#989585;}.cls-66{fill:#b5b49f;}.cls-67{fill:#9d9a89;}.cls-68{fill:#aeab97;}.cls-69{fill:#b7b5a2;}.cls-70{fill:#b2bdcb;}.cls-71{fill:#adb9c8;}.cls-72{fill:#b6b4a0;}.cls-73{fill:#605b4c;}.cls-74{fill:#656152;}.cls-75{fill:#595448;}.cls-76{fill:#676252;}.cls-77{fill:#605c4f;}.cls-78{fill:#a39f8e;}.cls-79{fill:#aba597;}.cls-80{fill:#afab98;}.cls-81{fill:#a4a18e;}</style></defs><g class="cls-1"><g id="レイヤー_2" data-name="レイヤー 2"><g id="レイヤー_1-2" data-name="レイヤー 1"><path class="cls-2" d="M62.63,21.48l4.28-.59s-1.84,9-6.47,12.11Z"/><path class="cls-2" d="M18.6,21.48l-4.28-.59s1.84,9,6.47,12.11Z"/><path class="cls-3" d="M67.88,50.25c-.31-4.6-14-11.43-14-11.43l-.22,2H29.89l.27-2a83.72,83.72,0,0,0-14.08-4.46,4.66,4.66,0,0,0-2.39-3.06c-2.3-1.2-4.31.12-5.51,2.42s-1.13,4.7,1.17,5.9a4.69,4.69,0,0,0,3.92.19c4.87,3.41,10.63,6.86,13.54,8.56l.07,6.92H54.35L54.41,50l5.5,3.55,4.3,3.69C66.5,55.34,68.11,53.47,67.88,50.25Z"/><path class="cls-2" d="M16.08,34.41a4.69,4.69,0,0,0-2.39-3.06c-2.3-1.2-4.31.12-5.51,2.42s-1.13,4.7,1.17,5.9a4.67,4.67,0,0,0,3.91.19c1.82,1.27,3.75,2.54,5.62,3.73l3.45-7.54C20.41,35.46,18.35,34.91,16.08,34.41Z"/><path class="cls-3" d="M54.35,58.74s1.46,11.13,3,19.44c.53,2.82-4.81,2.72-5.6,1.61-3.27-4.57-8.48-12.46-8.48-12.46H37.93s-5.21,7.89-8.47,12.46c-.8,1.11-6.14,1.21-5.61-1.61,1.58-8.31,3-19.44,3-19.44Z"/><path class="cls-2" d="M25.22,72h-.29c-.34,2.1-.7,4.22-1.08,6.18-.53,2.82,4.81,2.72,5.61,1.61,1.28-1.79,2.86-4.09,4.3-6.23h-.47A17.85,17.85,0,0,1,25.22,72Zm32.16,6.18c-.37-2-.74-4.08-1.08-6.18H56a17.85,17.85,0,0,1-8.07,1.56h-.47c1.45,2.14,3,4.44,4.31,6.23C52.57,80.9,57.91,81,57.38,78.18Z"/><polygon class="cls-2" points="48.95 38.19 44.19 57.08 37.04 57.08 32.28 38.19 48.95 38.19"/><rect class="cls-2" x="26.88" y="55.34" width="27.47" height="3.41"/><rect class="cls-4" x="37.04" y="55.34" width="7.15" height="3.41"/><polygon class="cls-5" points="40.62 50.08 54.37 38.93 26.86 38.93 40.62 50.08"/><circle class="cls-2" cx="40.62" cy="23.38" r="22.46"/><path class="cls-3" d="M60.76,13.86c.35.68.66,1.36.94,2.05A20.95,20.95,0,0,1,63,20.23a21.37,21.37,0,0,1,.24,2.26A19.12,19.12,0,0,1,63,27a19,19,0,0,1-.43,2.25c-.2.73-.38,1.48-.65,2.2a22,22,0,0,1-.94,2.1,22.28,22.28,0,0,1-1.24,2,18.92,18.92,0,0,1-1.33,1.89c-.48.6-1,1.16-1.55,1.72a23.23,23.23,0,0,1-1.66,1.63c-.59.49-1.21,1-1.86,1.4s-1.35.75-2,1.12-1.38.74-2.09,1a19.73,19.73,0,0,1-2.2.76,20.28,20.28,0,0,1-2.26.49,23.14,23.14,0,0,1-2.29.45c-.77.06-1.55,0-2.32,0s-1.53-.16-2.29-.25a21.43,21.43,0,0,1-2.27-.35,20.52,20.52,0,0,1-2.19-.67A20.44,20.44,0,0,1,31.23,44c-.69-.32-1.31-.75-2-1.14a21.25,21.25,0,0,1-1.88-1.26,21.57,21.57,0,0,1-1.77-1.42A20.15,20.15,0,0,1,24,38.54a22.42,22.42,0,0,1-1.37-1.8c-.41-.62-.7-1.32-1.06-2s-.79-1.3-1.07-2a19.32,19.32,0,0,1-.69-2.16,19,19,0,0,1-.56-2.19,21.61,21.61,0,0,1-.14-2.27c-.06-1.05-.32-2.14-.34-3.17,0-1.22.76-2.43,1.07-3.59.42-1.6.81-3.62,1.8-5,.76-1,1.39-2.24,2.19-3.25a21.22,21.22,0,0,1,1.61-1.68,20.49,20.49,0,0,1,3.86-3.08,23.42,23.42,0,0,1,6-2.85,22.68,22.68,0,0,1,9.16-.69A20.33,20.33,0,0,1,49,3.8a19.74,19.74,0,0,1,2.15.8c.69.32,1.32.75,2,1.14A21.43,21.43,0,0,1,55,7a20.18,20.18,0,0,1,1.65,1.56,20,20,0,0,1,1.59,1.6,20.33,20.33,0,0,1,1.43,1.76A20.84,20.84,0,0,1,60.76,13.86Z"/><polygon class="cls-6" points="46.97 44.85 45.91 30.19 35.32 30.19 34.27 44.85 40.62 45.76 46.97 44.85"/><path class="cls-4" d="M47,44.86s-1.06-14.6-1.06-14.67c0,.16-.77.74-.87.85l-1.92,1.84-1.84,1.77c-.18.17-.38.34-.54.52s-.15.29-.1.6a6,6,0,0,1,0,1.12l0,1a6.43,6.43,0,0,0,0,.76,4.23,4.23,0,0,1,.1,1.06c0,.31-.19.59-.21.89a2.34,2.34,0,0,0,.06.7,11,11,0,0,1,0,2.69c0,.12,0,1.78,0,1.78Z"/><path class="cls-2" d="M65.36,56.23a15.78,15.78,0,0,0-6.53-2.8,15.76,15.76,0,0,0-3.34,4c-1,1.84-1.22,5.48.32,5.84s3.4-1,3.68-3a37.35,37.35,0,0,0,4.72-3C64.62,56.92,65,56.58,65.36,56.23Z"/><path class="cls-7" d="M59.08,23.56c-1.67-5.34-8.27,0-18.46,0s-16.8-5.34-18.46,0c-1,3.26,3.49,11.71,18.46,11.71S60.1,26.82,59.08,23.56Z"/><path class="cls-8" d="M67.72,49.4c-.57-2.61-2.71-4.55-4.86-5.94a.91.91,0,0,0-.47-.16c-.48-.41-1-.8-1.39-1.2-.91-.84-2.28.52-1.36,1.36l2.66,2.41a12.34,12.34,0,0,1,2.12,2.27c1.35,2.11.06,4.22-.38,6.39-.16.77.66,1.59,1.41,1.09A5.83,5.83,0,0,0,67.72,49.4ZM52.53,55.16a1,1,0,0,0,1.06-.69A12.65,12.65,0,0,0,54.46,51l.25-.58c.52-1.11-1.13-2.08-1.66-1a1,1,0,0,0-.45.77l0,.37A15.46,15.46,0,0,0,51.73,54h0c0,.09,0,.17,0,.26A1,1,0,0,0,52.53,55.16ZM27.45,46.73c-1.12-.71-2.25-1.4-3.4-2.06A15.4,15.4,0,0,1,21,42.8c-.88-.87-2.25.49-1.36,1.36a15.31,15.31,0,0,0,3.22,2c1.15.66,2.28,1.34,3.4,2l.08.09c.41.45.25,1.28.19,1.82a.24.24,0,0,0,0,.12,20.61,20.61,0,0,0-.2,3.51c0,1.23,2,1.24,1.93,0a17.35,17.35,0,0,1,.17-3.3,1.77,1.77,0,0,0,0-.23s0-.06,0-.1a4,4,0,0,0-.56-3A1,1,0,0,0,27.45,46.73ZM54.78,63.37c-.06-.68-.12-1.36-.17-2a4.3,4.3,0,0,0-.24-1.51c-.49-1-2.12-1.23-3.1-1.53-1.19-.37-1.7,1.49-.51,1.85a8,8,0,0,1,1.68.53c.25.15.16,0,.22.34s.05.64.07,1c.09,1.1.19,2.2.31,3.29.24,2.23.54,4.46.89,6.67.2,1.22,2,.7,1.86-.51Q55.15,67.41,54.78,63.37Zm-12.54,2.5-3.63-.08a5,5,0,0,0-3,.49,6.63,6.63,0,0,0-1.84,2.44L32,72a1,1,0,0,0,1.66,1l1.56-2.69a7.47,7.47,0,0,1,1.47-2.3c.6-.44,1.71-.22,2.41-.2l3.18.06A1,1,0,0,0,42.24,65.87Z"/><path class="cls-9" d="M59.39,24.47a3.23,3.23,0,0,0-1.66-2.59,5.8,5.8,0,0,0-3.64-.14l-.36.06a34.87,34.87,0,0,1-1.29,11.12,18.48,18.48,0,0,0,3.34-2.29C57.51,29.14,59.67,27,59.39,24.47Z"/><polygon class="cls-5" points="39.64 28.92 65.04 5 39.64 20.24 14.24 5 39.64 28.92"/><path class="cls-10" d="M40.62,28.92,66,5l0,0L63,6.84l-6.17,3.7-7.19,4.32L43.5,18.51l-2,1.18c-.2.12-.41.23-.6.36-.7.47.05,1.3-.16,2a2.14,2.14,0,0,1-.1.22,1.22,1.22,0,0,0-.11.5,19,19,0,0,0,0,4c0,.43,0,.83,0,1.26C40.63,28.21,40.78,28.77,40.62,28.92Z"/><path class="cls-8" d="M61.7,16.24c-.06-.71-.1-1.41-.1-2.13a.92.92,0,0,0-1.17-.9c-.12-.39-.26-.77-.39-1.15-.42-1.16-2.28-.66-1.86.51A33.37,33.37,0,0,1,60,20a21.57,21.57,0,0,1-.21,7.81,35.74,35.74,0,0,1-3,7.12,16.43,16.43,0,0,1-1.92,3.13,2.09,2.09,0,0,1-.2.22,32.48,32.48,0,0,1-2.36,3.65l.88,0a30,30,0,0,1-4,1.6,1,1,0,0,0-.37.2c-.46,0-.93.06-1.4.06a1,1,0,0,0-.72,1.6.76.76,0,0,1,.41-.06A13.44,13.44,0,0,0,57.88,41a1.08,1.08,0,0,0-.83-.84c-.82-.2-1.67.58-2.34.95-.41.23-.83.45-1.25.65a5.34,5.34,0,0,1,.6-.57,1.34,1.34,0,0,0,.27-.07c2-.87,3.35-3.08,4.5-4.84a28.83,28.83,0,0,0,3.1-6.21A18.93,18.93,0,0,0,61.7,16.24Z"/><path class="cls-11" d="M53.09,55.16,53,55.07a.81.81,0,0,0-1.26.16,2.3,2.3,0,0,0-.28,1.36l0,1.73a.81.81,0,0,0,1.44.49,1.34,1.34,0,0,0,.56-.44,2.84,2.84,0,0,0,.27-1.32,3,3,0,0,0-.09-1.37A1.11,1.11,0,0,0,53.09,55.16Zm-22.76,19a57.61,57.61,0,0,1-3.1,5.67c-.55.88.84,1.69,1.38.81A57.69,57.69,0,0,0,31.72,75C32.16,74.09,30.78,73.27,30.33,74.2ZM19.7,39.65c-.29.22-.62.39-.89.63a1.78,1.78,0,0,0-.29.32l-.58-.25a24.75,24.75,0,0,1-2.37-1.16,4.61,4.61,0,0,0-2-.7c-.8,0-1.61.22-2.41.24a.81.81,0,0,0,0,1.61,15.45,15.45,0,0,0,1.8-.18,2.42,2.42,0,0,1,1.7.35c.51.27,1,.55,1.52.79a11.26,11.26,0,0,0,1.58.59.81.81,0,0,0,1.18.47,2.46,2.46,0,0,0,.71-.62,5.07,5.07,0,0,1,.88-.71C21.32,40.41,20.52,39,19.7,39.65ZM54.31,73.76a15.51,15.51,0,0,1,1,5.21.81.81,0,0,0,1.61,0,17,17,0,0,0-1-5.64C55.51,72.37,54,72.79,54.31,73.76Zm10.38-52c-.33.84-.46,1.74-.71,2.6a21.91,21.91,0,0,1-1,2.85c-.4.94,1,1.76,1.39.81A27.38,27.38,0,0,0,65.45,25c.28-.95.42-2,.79-2.89S65.07,20.78,64.69,21.73ZM63.24,55.8a27.12,27.12,0,0,1-4.45,2.81,4.69,4.69,0,0,0-1.6,1.3,4.37,4.37,0,0,1-1.47,1.43c-.94.42-.12,1.8.81,1.38,1.32-.58,1.79-2.08,3.07-2.72a27.86,27.86,0,0,0,4.45-2.82C64.86,56.57,64.06,55.17,63.24,55.8Zm-18.6-9.07c-1.12,2.4-.85,5.38-2.5,7.53a1,1,0,0,0,.35,1.31,1,1,0,0,0,1.31-.34c1.71-2.22,1.37-5.1,2.5-7.53C46.82,46.58,45.16,45.6,44.64,46.73Z"/><path class="cls-12" d="M13.65,35.62l-.19-.08a1.38,1.38,0,0,1-.56-.68,1.53,1.53,0,0,1-.08-.52,1.29,1.29,0,0,1,.28-.59,1.5,1.5,0,0,0,.24-.53.64.64,0,0,0-.65-.74,1,1,0,0,0-.65.3c0,.06-.16.35-.35.69a3,3,0,0,0-.4.65,2.43,2.43,0,0,0-.09.77,2.33,2.33,0,0,0,.15.75,2.75,2.75,0,0,0,.36.55,3.5,3.5,0,0,0,.37.55,3.22,3.22,0,0,0,.55.38,4.72,4.72,0,0,0,.62.26h.22a.77.77,0,0,0,.66-.66,1.16,1.16,0,0,0-.21-.92A.7.7,0,0,0,13.65,35.62ZM68.71,50.91c0-.23.05-.47,0-.71a4.45,4.45,0,0,0-.14-.69,3.8,3.8,0,0,0-.23-.67,5.1,5.1,0,0,0-.27-.66,6.07,6.07,0,0,0-.4-.58c-.13-.19-.34-.32-.5-.51a7,7,0,0,0-.43-.56c-.16-.17-.29-.37-.47-.54s-.35-.3-.53-.47-.29-.38-.47-.54-.36-.29-.55-.45-.45-.19-.64-.34-.31-.36-.5-.51-.44-.19-.64-.33-.29-.4-.49-.53-.42-.22-.62-.35-.41-.24-.61-.38-.39-.35-.6-.48-.46-.25-.68-.38-.43-.29-.65-.42-.42-.31-.63-.43-.52-.15-.74-.27-.41-.33-.63-.45c.18-.18.3-.39.47-.57s.33-.37.49-.56.41-.29.57-.48.23-.45.38-.65.37-.34.51-.54.21-.45.35-.66.32-.38.45-.59.17-.47.29-.69.32-.38.44-.6l.34-.66c.1-.22.17-.47.27-.69l.52-.49c.16-.17.34-.32.5-.5s.28-.38.43-.57.27-.38.4-.58.25-.4.37-.6.29-.38.41-.58.21-.43.33-.63.24-.41.35-.62.25-.4.35-.62.15-.45.25-.66.13-.46.22-.68.26-.4.35-.62.18-.44.26-.66.2-.44.27-.66,0-.49.11-.71.18-.45.24-.66.11-.49.16-.69.17-.49.22-.68c.09-.39.19-.63.2-.68a1,1,0,0,0-.22-.83.94.94,0,0,0-.81-.22c-.38,0-.37.08-.75.13s-.37.09-.75.14-.38,0-.76.08a1.51,1.51,0,0,1-.76,0c0-.25-.08-.47-.12-.71s0-.51,0-.76-.25-.46-.3-.7-.11-.48-.17-.73,0-.51-.07-.75-.14-.48-.22-.72-.23-.45-.32-.68-.22-.45-.32-.68-.15-.47-.25-.7-.15-.49-.26-.71-.25-.43-.36-.65-.19-.47-.31-.69-.27-.37-.4-.59c.19-.32.26-.25.54-.51s.19-.34.47-.6.35-.17.63-.43.24-.28.52-.54.29-.24.56-.5l.56-.5c.27-.26.26-.27.54-.53s.3-.23.57-.49l.54-.52c.28-.26.19-.35.47-.61s.29-.23.57-.49a.92.92,0,0,0,.3-.55.83.83,0,0,0-.2-.59.91.91,0,0,0-.51-.4.88.88,0,0,0-.6.21c-.32.19-.33.17-.65.36s-.31.22-.62.41-.38.1-.7.29-.33.16-.65.35-.24.33-.56.52-.33.18-.64.37-.37.12-.69.31-.33.16-.65.35l-.65.37c-.32.19-.3.21-.62.41s-.26.29-.62.38c-.16-.19-.32-.32-.49-.5s-.33-.35-.5-.53-.31-.37-.48-.54-.3-.4-.48-.57S56.14,6,56,5.88s-.37-.3-.56-.46-.31-.39-.5-.54-.46-.21-.66-.35-.32-.38-.53-.52-.42-.23-.63-.36-.44-.22-.65-.34-.39-.3-.6-.42l-.64-.35c-.22-.11-.46-.18-.68-.28L49.84,2c-.22-.1-.43-.25-.65-.34l-.68-.29-.68-.25L47.12.91c-.23-.07-.49-.07-.72-.13L45.69.61c-.24,0-.48-.08-.72-.12L44.25.36c-.24,0-.47-.19-.71-.22s-.49,0-.73,0S42.33,0,42.08,0s-.49.12-.73.12-.49-.06-.73-.06-.49-.06-.74,0-.48,0-.73,0-.48.08-.72.1l-.73.1L37,.34l-.72.12c-.24,0-.49,0-.72.1s-.46.19-.69.25-.49.09-.72.15-.48.1-.71.18-.47.13-.7.21-.43.24-.66.33-.47.14-.69.24l-.67.29c-.22.11-.42.26-.64.37l-.64.35c-.21.11-.41.25-.62.38s-.41.26-.61.39-.4.27-.61.41-.43.22-.63.36-.37.32-.57.47l-.57.45c-.19.15-.35.34-.53.5l-.56.47c-.17.17-.37.31-.55.48s-.29.4-.46.57-.41.29-.57.47-.3.39-.45.57c-.36-.09-.33-.18-.65-.37s-.27-.26-.59-.45-.4-.07-.71-.26-.25-.31-.57-.5-.33-.17-.65-.36-.36-.12-.68-.31-.26-.3-.57-.49-.38-.11-.69-.3S17.29,5.16,17,5s-.3-.22-.62-.41-.36-.13-.68-.32A1,1,0,0,0,15,4.06c-.21,0-.35.26-.48.44a.76.76,0,0,0-.17.57.79.79,0,0,0,.26.53c.27.26.21.33.48.59l.55.52c.27.26.36.16.63.42l.55.52c.27.26.22.31.49.57s.23.3.51.56l.54.52c.27.26.34.19.61.45s.21.32.49.58.32.2.6.46a1.73,1.73,0,0,1,.48.56c-.13.21-.2.39-.32.61s-.21.46-.32.68-.29.41-.4.63-.19.47-.29.69-.18.47-.27.7-.25.44-.34.68-.06.5-.14.74-.12.48-.2.72-.18.46-.25.7l-.18.73c-.05.24-.16.47-.2.72s-.13.48-.17.73,0,.49,0,.73a1.63,1.63,0,0,1-.76,0c-.38-.06-.37-.13-.74-.18s-.39,0-.77,0-.37-.09-.75-.14a.83.83,0,0,0-.75.24.86.86,0,0,0-.25.77,4.27,4.27,0,0,0,.12.7c0,.2.16.41.24.68s.11.43.18.68.09.45.16.69.14.44.22.67.12.46.21.68.19.43.28.66.14.45.23.67.24.41.34.63.14.45.24.67.22.42.32.63.28.39.39.6l.37.6c.12.2.23.42.36.61s.22.43.35.62.33.35.47.54.24.41.39.59.3.38.47.54a6.22,6.22,0,0,0,.58.43c.11.26.25.51.37.76s.18.49.32.74l-.65-.16c-.23-.06-.48-.07-.71-.13S18.23,34,18,34c0,0,0-.06-.05-.07-.19,0-.39-.06-.59-.1s-.33-.14-.52-.18a5,5,0,0,0-.29-.67,5.16,5.16,0,0,0-.4-.63c-.15-.2-.38-.34-.54-.52a5.48,5.48,0,0,0-.48-.58,5.22,5.22,0,0,0-.6-.45c-.13-.09-.32-.07-.46-.15a5.55,5.55,0,0,0-.62-.27,4.42,4.42,0,0,0-.63-.29,4.17,4.17,0,0,0-.69-.08,4.09,4.09,0,0,0-.7,0,4,4,0,0,0-.65.25,3.87,3.87,0,0,0-.62.29,4.85,4.85,0,0,0-.62.27,5,5,0,0,0-.56.38c-.16.15-.25.39-.4.56s-.39.25-.53.44a6.36,6.36,0,0,0-.35.58,5.76,5.76,0,0,0-.3.61c-.11.2-.15.43-.24.63s-.27.38-.34.59-.06.45-.11.67a5.5,5.5,0,0,0-.15.65c0,.23,0,.46,0,.68a4,4,0,0,0,0,.69,3.78,3.78,0,0,0,.23.67,3.55,3.55,0,0,0,.28.63,3.65,3.65,0,0,0,.41.56,4.56,4.56,0,0,0,.38.59,4.63,4.63,0,0,0,.56.39c.18.12.38.22.58.33a4.88,4.88,0,0,0,.66.29,5.1,5.1,0,0,0,.7.14,5.54,5.54,0,0,0,.69.22,4.5,4.5,0,0,0,.72-.07,5.68,5.68,0,0,0,.72,0,6.61,6.61,0,0,0,.7-.26c.18.13.34.31.53.43,0,0,.09,0,.13,0s.31.33.49.45l.06-.06c.2.13.43.21.63.35s.34.35.54.48.46.19.66.32.36.31.57.44.38.3.58.43.44.21.64.34.43.21.63.34.35.35.55.47.45.2.65.33l.62.36.61.39.62.37c.2.13.37.31.58.43l.61.38.61.38c.21.13.44.21.64.33s.38.32.58.43.46.19.66.3.38.28.58.4c.08.34,0,.35,0,.7s.1.36.11.71,0,.36,0,.72,0,.35,0,.71-.09.35-.08.71,0,.35,0,.71.07.36.08.71-.07.36-.06.71,0,.36,0,.72V56c0,.33,0,.33,0,.66s0,.34,0,.67-.06.34-.06.67.11.34.11.68a4.53,4.53,0,0,0-.18.7c0,.21,0,.46-.05.73s-.05.46-.08.72,0,.47-.08.72-.16.45-.19.7-.09.47-.13.72.09.49.05.74-.07.47-.1.71-.09.47-.12.72-.07.47-.11.71-.13.47-.17.71-.08.47-.11.72-.11.47-.14.71l-.12.71c0,.24-.08.48-.11.72s0,.48-.07.72l-.12.72c0,.23,0,.49,0,.73s-.17.46-.21.7c0,0,.06.08.06.12s-.18.37-.22.56,0,.23,0,.35,0,.24,0,.36-.1.35-.13.52,0,.14,0,.21-.14.42-.17.63c0,0,0,.09,0,.13,0,.22,0,.44-.08.66,0,0-.1,0-.1.09,0,.22,0,.45,0,.66,0,0-.09,0-.1.08,0,.22-.07.43-.11.63,0,0,0,.06,0,.08,0,.22-.11.42-.15.63a2.67,2.67,0,0,0,0,.75,2.28,2.28,0,0,0,.08.75,2.65,2.65,0,0,0,.4.66,2.64,2.64,0,0,0,.63.41,3,3,0,0,0,.6.45,1.94,1.94,0,0,0,.33.07c.15,0,.3.09.45.12l.15,0,.26.06a1.42,1.42,0,0,0,.29,0,2.2,2.2,0,0,1,.43.09l.26,0a1.26,1.26,0,0,0,.28,0,1.16,1.16,0,0,0,.31-.07c.25-.06.51,0,.75-.09l.36-.11a3.11,3.11,0,0,0,.32,0l.32-.1a1.53,1.53,0,0,0,.57-.32,2.57,2.57,0,0,0,.34-.39,4.27,4.27,0,0,1,.36-.38,1,1,0,0,0,.15-.14c.05-.08.08-.15.13-.22l.07-.1c.08-.11.11-.24.19-.36s0-.05,0-.06c.13-.19.28-.36.41-.55s.23-.39.36-.58.3-.34.43-.53l.4-.56c.13-.18.32-.33.45-.52s.15-.44.29-.63.3-.34.43-.53.23-.39.36-.58.23-.4.36-.59l.11.07c.13-.19.18-.44.31-.64s.34-.33.47-.52l.4-.59c.13-.2.15-.47.28-.66s.31-.36.43-.55l.41-.57c.14-.2.25-.41.37-.6l.39-.58c.14-.22.33-.37.44-.55s.24-.46.34-.62c.37-.07.37,0,.74,0s.37,0,.74,0,.37-.11.74-.11.36.14.73.14.37,0,.74,0,.37-.11.73,0c.1.15.26.29.42.53s.2.4.34.61.22.4.36.61.31.34.45.54.2.42.33.62.25.39.39.59.38.3.51.5.13.47.27.67.31.35.44.54.3.36.44.56l-.05,0c.12.19.33.33.46.51l.39.56c.13.19.15.45.28.64s.36.31.49.49.21.41.34.6.31.34.43.53.25.39.38.57.23.4.36.58.19.43.32.61h.06c.07.11.17.21.24.32s0,.08.05.11.2.13.27.21a.75.75,0,0,0,.06.13c.08.11.13.25.21.36a1.94,1.94,0,0,0,.53.44,3.11,3.11,0,0,0,.6.33,4.1,4.1,0,0,0,.67.17,5,5,0,0,0,.67.16,5.47,5.47,0,0,0,.7,0,7,7,0,0,0,.79,0,6.06,6.06,0,0,0,.76-.21,4.53,4.53,0,0,0,.78-.13,3.07,3.07,0,0,0,.63-.4,2.85,2.85,0,0,0,.6-.45,2.53,2.53,0,0,0,.29-.7,2.29,2.29,0,0,0,.14-.7,2.59,2.59,0,0,0,0-.73c0-.2,0-.41-.09-.62,0,0,0-.08,0-.11,0-.2-.09-.4-.12-.6,0,0,0-.09,0-.13,0-.21,0-.41-.09-.62,0,0,0-.1,0-.14,0-.21-.19-.4-.23-.62,0,0,.08-.11.07-.16,0-.2-.06-.42-.1-.63s-.13-.1-.14-.17.06-.41,0-.61-.16-.16-.17-.25.08-.31.06-.46-.08-.31-.1-.46-.13-.15-.14-.23c0-.24,0-.49-.08-.73s0-.5-.05-.74-.18-.47-.22-.71,0-.5,0-.74-.09-.49-.13-.73-.06-.49-.1-.73l-.12-.73c0-.24-.1-.48-.14-.72s0-.49-.07-.73-.1-.48-.14-.72-.14-.5-.17-.74a2.68,2.68,0,0,0,.4,0,3.86,3.86,0,0,0,1.45-.2c.22-.09.38-.32.59-.46a3,3,0,0,0,.56-.37,3.64,3.64,0,0,0,.46-.5,4.5,4.5,0,0,0,.41-.54,4.32,4.32,0,0,0,.3-.61,5,5,0,0,0,.13-.67c.17-.1.45-.16.71-.31s.37-.34.61-.48.47-.19.7-.33l.64-.4c.22-.14.39-.35.6-.49s.45-.26.65-.41.43-.3.61-.45.35-.24.5-.37.23-.36.37-.5l0,0c.17-.16.38-.3.55-.46s.37-.31.53-.49.27-.4.41-.59.24-.42.37-.62.24-.41.35-.62a6.27,6.27,0,0,0,.36-.62c.09-.22.17-.44.24-.67s.07-.47.12-.71.14-.46.16-.7S68.71,51.16,68.71,50.91Zm-5-23.85c0-.24,0-.5,0-.75s.07-.48.09-.73.11-.48.12-.73,0-.49,0-.74-.06-.49-.06-.73,0-.4,0-.59,0-.41,0-.61c.28-.13.31,0,.62,0l.61-.07c.3,0,.3-.26.6-.19,0,.2-.13.47-.2.71s-.08.44-.16.68-.24.39-.32.62,0,.48-.1.7-.24.4-.33.62-.07.47-.16.68-.23.41-.32.62-.25.39-.35.6-.19.49-.3.7C63.56,27.59,63.68,27.3,63.72,27.06Zm-46.38.11c-.1-.21-.16-.44-.25-.65l-.28-.63c-.09-.22-.15-.44-.23-.66s-.15-.44-.22-.66-.25-.41-.32-.62-.16-.44-.23-.66-.13-.45-.19-.66-.09-.56-.14-.76c.29-.06.32,0,.63.08s.29.1.6.14a1.3,1.3,0,0,1,.57.17c0,.19,0,.33,0,.52s0,.4,0,.6.07.49.08.73,0,.49,0,.74,0,.49,0,.74.18.47.21.72.05.48.09.72,0,.51.07.75C17.59,27.57,17.44,27.38,17.34,27.17ZM60,13.78c.11.22.17.45.26.66s.16.45.25.67.19.43.27.65.25.41.33.64,0,.48.1.71.26.42.32.64.1.47.15.7,0,.47.09.71,0,.47.06.7l.12.7c0,.23.2.45.22.69s-.1.48-.08.71.05.47.06.71.11.47.11.71,0,.48,0,.72-.11.47-.13.71,0,.48-.07.71.05.49,0,.73-.14.46-.18.7,0,.48-.08.72-.11.46-.17.7-.11.46-.17.69-.18.45-.25.68-.2.44-.28.66,0,.51-.11.73-.17.45-.26.67-.27.41-.37.62-.13.48-.24.69-.26.41-.37.62-.25.41-.37.61-.28.39-.41.6-.22.43-.35.62-.35.34-.49.54l-.45.56c-.15.18-.19.46-.35.64s-.33.35-.49.53-.41.27-.57.45-.3.37-.47.54-.38.29-.56.45-.34.33-.53.49-.35.32-.54.47-.33.35-.52.49l-.59.42-.6.4-.63.35c-.2.13-.41.23-.62.35l-.64.34c-.21.1-.4.27-.62.37s-.45.16-.67.26l-.66.28-.61.21c-.14-.34-.05-.34-.08-.72s0-.37-.07-.74-.1-.37-.12-.74.07-.38,0-.75,0-.37-.07-.74,0-.37-.06-.74-.1-.37-.13-.74,0-.37-.07-.75,0-.37-.07-.74,0-.37,0-.75-.13-.38,0-.74c.24,0,.49-.06.73-.12l.71-.16.71-.19c.24-.07.45-.2.68-.27s.5-.08.73-.16.42-.27.64-.36.46-.17.68-.27l.65-.32c.22-.11.41-.25.63-.36s.45-.19.65-.31.4-.27.61-.4.42-.23.61-.37.41-.27.6-.42l.56-.45c.19-.16.33-.37.5-.53s.41-.28.57-.45.3-.39.45-.57.33-.36.48-.56.24-.41.37-.6.29-.38.4-.59a6.17,6.17,0,0,0,.29-.65c.1-.22.2-.44.28-.66s0-.48.1-.71A5.82,5.82,0,0,0,60,25.4a5.58,5.58,0,0,0,0-.71c0-.24.14-.48.12-.71a3.91,3.91,0,0,0-.24-.68,6.27,6.27,0,0,0-.3-.64,5,5,0,0,0-.27-.66,4.59,4.59,0,0,0-.4-.61,3.14,3.14,0,0,0-.57-.45,3.48,3.48,0,0,0-.64-.32,4,4,0,0,0-.7-.18,4.77,4.77,0,0,0-.7-.19c-.23,0-.47,0-.71,0l-.71,0-.71.11c-.22,0-.44.14-.68.19s-.48,0-.72.05-.43.21-.66.26l-.7.15c-.22.05-.44.14-.68.19s-.61,0-.89.1c.18-.31.28-.25.54-.49l.52-.49c.26-.25.31-.19.57-.44l.52-.49c.26-.24.22-.28.48-.53s.31-.19.57-.44l.52-.48c.26-.25.2-.32.46-.57s.3-.2.56-.44l.51-.5c.27-.24.31-.19.57-.44s.23-.28.49-.53.23-.27.49-.52.28-.22.54-.47.27-.23.53-.48.24-.26.5-.51.31-.19.57-.44.15-.4.47-.55c.12.21.29.39.41.6S59.89,13.57,60,13.78ZM53.41,57.93c-.18.13-.45-.06-.64-.06-.35,0-.35.07-.7.07s-.35-.13-.7-.13-.35.12-.7.12-.35-.12-.7-.12h-1.4c-.35,0-.35,0-.7,0h-.7c-.35,0-.35,0-.7,0s-.73,0-1.11,0a.22.22,0,0,1-.14,0,.26.26,0,0,1-.12-.18,2.32,2.32,0,0,1,0-.7l0-.5c0-.05,0-.1,0-.15a.66.66,0,0,1,0-.11c.14-.23.39,0,.59,0s.49-.12.74-.12.35.05.7.05.35.09.7.09.35-.1.7-.1.35.08.7.08.35-.12.7-.12h.7c.35,0,.35,0,.7,0s.35,0,.7,0h.7a3.23,3.23,0,0,1,.63,0h.05a.12.12,0,0,1,0,.1c0,.28,0,.56,0,.85S53.62,57.79,53.41,57.93Zm-7.93-9.58c-.08.34-.13.32-.22.66s0,.36-.12.69,0,.35-.13.69-.06.35-.14.69-.16.32-.25.66,0,.35-.12.69-.06.34-.14.68-.16.32-.18.67,0,.44-.25.65-.36,0-.73,0-.37-.09-.73-.09-.37,0-.74,0H41c-.37,0-.37.09-.74.09s-.37-.07-.74-.07h-.74c-.37,0-.37.07-.74.07s-.41.14-.7-.08-.18-.28-.26-.62,0-.36-.11-.69-.1-.34-.19-.68,0-.36-.09-.7-.13-.33-.21-.66-.1-.34-.19-.68-.16-.32-.24-.66,0-.36-.1-.7-.09-.33-.17-.67-.17-.32-.26-.66c0-.13-.37-.49-.24-.58s.18,0,.26,0,.25.24.41.37.34.18.64.41.33.18.62.42.27.26.56.49l.58.48c.29.23.22.32.51.56s.34.17.63.41.25.28.55.52a1,1,0,0,0,.59.17.9.9,0,0,0,.53-.25c.29-.23.35-.16.64-.39s.28-.25.57-.48.24-.3.53-.54.27-.27.56-.5.37-.14.66-.37.23-.32.52-.55.3-.23.59-.46c.11-.09.23-.31.39-.31s.16.11.15.21a4.15,4.15,0,0,1-.18.53C45.55,48,45.52,48.19,45.48,48.35Zm-7.42,7.76c.66-.22,1.49.19,2.17.19.39,0,.39-.07.77-.07.7,0,1.41-.06,2.12-.09a.2.2,0,0,1,.18,0l0,0a.49.49,0,0,1,0,.12,5.5,5.5,0,0,0,0,.91c0,.23,0,.37-.13.55s-.33,0-.71,0h-.77c-.38,0-.38,0-.77,0h-.77c-.38,0-.38.09-.76.09s-.92,0-1.38,0a.22.22,0,0,1-.14,0,.27.27,0,0,0-.07-.08s-.06,0-.09,0,.08-.6.08-.73C37.87,56.7,37.59,56.27,38.06,56.11ZM36.2,57c-.05.2-.05.58-.2.7s-.91.07-1.24.07-.35.1-.7.1h-1.4c-.35,0-.35-.12-.7-.12s-.34.07-.69.07-.35,0-.7,0-.35-.07-.7-.07-.35,0-.7,0-.84.14-1.24.1a.25.25,0,0,1-.13-.05.21.21,0,0,1-.05-.2l.06-1.28c0-.52.31-.21.65-.21s.35-.11.7-.11.35.12.7.12.35-.07.7-.07.35,0,.7,0,.35.05.7.05.35-.1.7-.1.35,0,.7,0,.35.07.7.07.35,0,.7,0a2.27,2.27,0,0,0,.69,0c.35-.07.45-.18.68.08A.81.81,0,0,1,36.2,57Zm1.41-10.49c.25,0,.53,0,.78,0s.48.16.73.18.5-.1.75-.09.5.16.75.16.5,0,.74,0,.5-.15.74-.16.5,0,.75,0,.5,0,.75,0A2.36,2.36,0,0,1,43,47l-.59.49c-.29.24-.31.22-.61.46s-.26.28-.56.52-.26.43-.64.43-.26-.28-.56-.53l-.6-.47c-.3-.24-.32-.22-.62-.46s-.24-.32-.56-.53S37.84,46.85,37.61,46.55Zm7.07-2.2c-.33,0-.34,0-.68.07s-.34,0-.68,0-.34,0-.68,0L42,44.6l-.68.11a3,3,0,0,1-.66.12,3,3,0,0,1-.67-.1c-.34,0-.34-.07-.68-.12l-.67-.09c-.34,0-.35,0-.69-.05s-.33-.07-.67-.12-.35,0-.69,0c-.17,0-.3-.12-.46-.16s-.39-.05-.57-.09a.47.47,0,0,1-.24-.1c-.19-.17-.09-.53,0-.74a2.77,2.77,0,0,0,.11-.64c0-.37-.06-.38,0-.76s0-.37,0-.75l.06-.75c0-.37,0-.37.07-.75s.12-.37.14-.74,0-.38,0-.75,0-.38,0-.76.09-.37.12-.74-.16-.42,0-.78c.22,0,.5,0,.73.07s.45.1.68.12.46,0,.69,0l.69.06c.23,0,.45.1.68.1s.47-.11.7-.11.46.11.69.11.46,0,.69,0,.46-.14.69-.14l.68-.05c.23,0,.46,0,.69,0s.46-.06.69-.08l.68-.09c.23,0,.53,0,.76,0,.13.35,0,.4,0,.77s-.07.38,0,.76,0,.37,0,.75.12.37.15.74.07.37.09.75-.07.38,0,.76.14.36.16.74-.1.38-.07.76.13.37.16.74a7.11,7.11,0,0,0,.1.79,1.74,1.74,0,0,1,0,.6l0,.07-.06,0A5.4,5.4,0,0,1,44.68,44.35Zm1-10.33-.72.09-.72.09c-.24,0-.49,0-.72,0l-.72,0c-.25,0-.48.17-.71.18s-.5,0-.72,0-.5,0-.72,0-.46-.06-.72-.07h-.72c-.23,0-.48.06-.73,0s-.47-.09-.71-.11-.48,0-.73,0-.47-.11-.71-.14-.46-.15-.7-.19-.48,0-.72-.07-.48,0-.72-.08-.45-.16-.69-.22-.48-.06-.71-.12l-.7-.2c-.22-.07-.46-.12-.69-.2l-.68-.26c-.22-.08-.46-.13-.68-.22s-.41-.27-.63-.37-.41-.25-.63-.36-.47-.14-.68-.26l-.62-.38c-.2-.13-.38-.29-.58-.43s-.34-.34-.53-.5-.34-.33-.51-.5-.45-.23-.61-.4-.26-.42-.41-.61a6.17,6.17,0,0,1-.48-.54c-.14-.18-.28-.36-.4-.55s-.17-.42-.27-.62a5.41,5.41,0,0,1-.27-.61,6.48,6.48,0,0,1-.27-.62,4.49,4.49,0,0,1-.14-.65,5.21,5.21,0,0,1-.13-.67,2.28,2.28,0,0,1,.16-.66,4,4,0,0,1,.27-.77,1.66,1.66,0,0,1,1.31-.88,3.4,3.4,0,0,1,.8,0c.21,0,.44,0,.68,0s.45,0,.69,0,.44,0,.68.09l.67.12c.21,0,.43.12.66.17s.42.15.65.21l.67.16c.24.06.49.09.75.15s.48.15.74.21l.74.18.75.17c.25.05.51.05.77.1.29.2.22.28.48.53s.27.23.52.47.31.2.56.44.2.31.46.55.24.26.5.5.34.16.59.4.25.25.51.5.18.33.43.57a1.09,1.09,0,0,0,.33.22l-.71,0c-1.07,0-2.12,0-3.19,0-1.29-.06-1.29,2,0,2,1,.05,2.07,0,3.11,0,.59,0,1.19.13,1.77.12a8,8,0,0,0,1-.15l.17,0,.46,0c.5,0,1,0,1.48,0h.85c.24,0,.49.11.74.13a3.73,3.73,0,0,0,1-.08l.26,0,.09,0a14.26,14.26,0,0,0,1.84.15c1.3,0,1.3-2,0-2l-.86,0c.21,0-.54-.06-.69-.09a3.36,3.36,0,0,0-1,0l-.39,0a3.21,3.21,0,0,0-1.14-.2l.19-.2c.26-.24.31-.19.57-.43s.3-.2.56-.44.22-.28.48-.52.27-.23.52-.48l.51-.49c.26-.24.3-.2.55-.45s.25-.26.51-.5a3.29,3.29,0,0,1,.52-.46c.26,0,.45-.24.69-.29s.54,0,.78,0,.48-.22.73-.27l.74-.18c.26-.06.53,0,.77-.07s.47-.18.7-.23l.71-.17c.25,0,.5,0,.72-.09s.48-.17.71-.21.49-.07.72-.1a6.88,6.88,0,0,1,.72-.08,6.53,6.53,0,0,1,.73,0,2.66,2.66,0,0,1,.69.23,1.75,1.75,0,0,1,.65.29,2,2,0,0,1,.4.6,3,3,0,0,1,.31.65,2.06,2.06,0,0,1,.16.66,5.37,5.37,0,0,1-.17.66,5.31,5.31,0,0,1,0,.68,6.34,6.34,0,0,1-.24.64,5.7,5.7,0,0,1-.32.59c-.1.2-.17.42-.29.62s-.34.31-.47.49-.23.44-.38.62-.31.38-.47.56-.42.26-.59.42-.28.42-.46.57-.45.21-.65.35-.36.32-.56.45-.37.32-.58.44-.45.18-.67.29-.4.28-.61.38-.48.12-.7.22l-.67.26-.67.26c-.23.07-.44.22-.67.29s-.47.1-.7.16l-.71.16-.7.16c-.24.05-.47.15-.7.19S45.88,34,45.65,34Zm-.36-4.19h0Zm-20.55-21c.16-.17.25-.41.42-.58s.31-.37.48-.53.4-.28.58-.44.35-.33.53-.48.4-.27.59-.42L27.91,6c.19-.14.39-.26.59-.4s.33-.37.53-.5.47-.15.67-.27.37-.33.58-.45.44-.18.65-.29.47-.12.69-.22.38-.33.6-.43.49-.05.71-.14.44-.2.66-.28.43-.21.66-.28.45-.18.68-.25.49,0,.72-.06.45-.17.69-.22.46-.14.7-.18.48,0,.72,0l.71-.1c.23,0,.48,0,.72,0s.47-.08.71-.09.48-.06.72-.06.47.15.71.16.48-.08.72-.07.47.13.71.16.48,0,.72,0S44,2,44.2,2s.45.2.68.24.49,0,.72.07l.69.18.69.22.68.23c.22.08.46.13.68.21s.42.24.64.33.42.24.64.34.47.11.69.22l.64.31c.21.12.39.29.59.42s.43.21.64.34.42.22.62.36.37.31.56.45.37.3.56.45.4.26.58.42.38.29.56.45.26.42.43.59.43.25.59.42.3.38.46.56.28.32.44.5a1.53,1.53,0,0,1-.56.48c-.31.19-.33.15-.65.34s-.33.16-.64.35-.3.22-.62.4-.35.13-.66.32-.31.21-.63.4-.32.18-.63.36-.28.26-.6.45-.3.2-.62.39-.35.12-.67.31-.28.25-.59.44-.36.13-.67.32-.34.14-.65.33-.28.26-.59.45-.31.21-.62.4-.35.13-.67.32-.29.22-.61.41-.3.21-.62.39-.35.13-.67.32l-.62.39-.64.37c-.31.19-.28.25-.6.44s-.33.15-.65.34-.32.17-.64.36l-.63.38c-.32.19-.24.49-.61.49s-.33-.25-.64-.44-.27-.27-.58-.46-.37-.1-.69-.29-.26-.28-.57-.47-.39-.07-.71-.26L36.8,17c-.31-.19-.29-.23-.6-.42s-.29-.24-.61-.43-.34-.14-.65-.33-.28-.26-.59-.45-.37-.1-.69-.29-.29-.22-.61-.41l-.63-.37c-.32-.19-.35-.14-.66-.33s-.3-.22-.61-.41-.27-.27-.59-.46l-.63-.37c-.32-.19-.34-.15-.66-.33s-.33-.17-.64-.36-.27-.27-.58-.46-.38-.08-.7-.27-.29-.23-.61-.42-.27-.26-.59-.45-.38-.07-.7-.26l-.63-.37c-.32-.19-.38-.14-.62-.43C24.36,9.2,24.57,9.05,24.74,8.87ZM21.93,10S22,10,22,10a7.55,7.55,0,0,1,1.24.77,3.45,3.45,0,0,0,.53.39c.15.08.3.18.45.27.31.18.32.16.63.35s.3.2.6.38.33.15.64.33.27.25.57.43.27.25.57.43l.61.38c.31.18.38.06.69.24s.28.23.58.42.34.14.64.32.27.26.57.44.3.21.6.39.37.08.68.26.29.2.6.39.26.26.56.45.3.2.61.38.33.15.63.33.34.13.65.31.29.21.6.4.32.15.63.33.24.29.55.48.35.1.66.29.29.2.6.39.32.15.63.33.26.27.56.46.32.17.62.36.33.15.63.34a.9.9,0,0,0,.91,0c.31-.18.3-.19.61-.38l.61-.37c.3-.18.32-.15.63-.33s.32-.16.62-.35.3-.2.6-.39l.63-.35c.3-.18.25-.26.56-.45s.35-.1.66-.29.3-.2.6-.38.28-.23.59-.41.31-.18.62-.36.29-.2.6-.38.33-.15.64-.33.29-.2.6-.39.33-.14.64-.33.29-.2.6-.38.29-.21.59-.4.35-.12.65-.3.3-.2.61-.38.27-.24.58-.43.34-.12.64-.31.34-.14.64-.32.29-.21.6-.4.31-.17.62-.36l.61-.37c.31-.18.27-.24.58-.42l.61-.37c.31-.18.28-.23.59-.41a3.35,3.35,0,0,0,.37-.2c.11-.08.21-.18.32-.27a2.84,2.84,0,0,1,.66-.42.38.38,0,0,1-.13.32l-.33.39c-.09.1-.17.2-.26.29l-.3.25c-.24.19-.48.4-.73.57s-.24.29-.37.42-.35.15-.61.4-.22.3-.48.54-.22.29-.48.54-.37.13-.63.38-.19.32-.45.57-.34.17-.6.41-.16.35-.42.6-.36.15-.62.4-.24.26-.51.51-.21.29-.47.54-.33.17-.59.42l-.52.5c-.26.24-.17.34-.43.59s-.35.15-.61.4l-.53.49c-.26.24-.27.23-.53.48s-.23.28-.49.53-.24.27-.5.51-.24.27-.5.52-.33.18-.59.43-.27.23-.53.48-.23.28-.5.52-.2.31-.46.56-.34.17-.6.41-.2.31-.46.56-.29.22-.55.47-.3.2-.56.45-.19.32-.46.57-.28.22-.54.47-.28.23-.54.48-.24.26-.51.51-.17.43-.53.43-.27-.19-.53-.44-.31-.2-.57-.44-.2-.32-.46-.56-.32-.18-.58-.43-.25-.26-.51-.5l-.52-.5c-.26-.25-.18-.33-.45-.58s-.28-.22-.54-.47l-.52-.5c-.26-.24-.34-.15-.61-.4s-.16-.35-.42-.59-.31-.2-.57-.45-.31-.2-.57-.44l-.53-.49c-.26-.25-.21-.3-.48-.54s-.23-.28-.49-.52-.23-.28-.49-.53-.34-.17-.6-.42-.21-.3-.47-.55-.25-.25-.51-.5-.35-.15-.62-.39-.24-.26-.51-.51-.19-.32-.45-.57-.3-.2-.56-.45-.29-.21-.55-.46-.2-.31-.47-.56-.32-.17-.59-.42-.2-.31-.46-.56-.23-.28-.49-.53-.3-.2-.57-.45-.24-.26-.5-.5-.33-.18-.6-.43-.23-.27-.49-.52a3.31,3.31,0,0,1-.32-.33,3.11,3.11,0,0,0-.49-.39,1.67,1.67,0,0,1-.61-.63S21.89,10,21.93,10Zm-2.19,19.1c-.06-.23,0-.48-.11-.71s-.16-.46-.21-.69,0-.49,0-.73-.09-.47-.12-.7-.07-.48-.09-.72l-.06-.71c0-.24-.12-.47-.13-.71s0-.48,0-.72,0-.48,0-.71.12-.47.14-.71,0-.47,0-.7,0-.48,0-.71.05-.47.09-.7.16-.45.21-.68.07-.47.12-.7.06-.47.12-.7.18-.44.25-.67.16-.44.23-.66.13-.46.21-.68.21-.42.3-.64.13-.46.22-.67.19-.44.3-.65.16-.45.27-.66.28-.37.4-.57c.33.15.26.24.52.48s.3.21.56.45.2.31.46.55.3.21.56.46.3.19.56.44.16.35.42.59.33.17.59.42.28.23.54.47.19.32.45.57.26.25.52.5l.52.48c.26.25.28.22.54.47l.53.48c.26.25.29.22.55.46s.21.31.47.55.27.23.53.47.25.26.51.51.34.17.52.48l-.81-.16c-.24-.06-.44-.21-.67-.26s-.49,0-.72,0-.46-.14-.68-.19-.45-.21-.67-.26-.48,0-.71-.08l-.7-.11c-.25,0-.49,0-.72,0s-.48,0-.71,0a5.25,5.25,0,0,0-.71.13,3.54,3.54,0,0,0-.67.24,3,3,0,0,0-.65.32,3.38,3.38,0,0,0-.53.48,3.48,3.48,0,0,0-.48.53,4.85,4.85,0,0,0-.31.65,4.46,4.46,0,0,0-.27.67,3.77,3.77,0,0,0-.15.7,5.33,5.33,0,0,0,0,.71,6.4,6.4,0,0,0,.18.69c0,.23,0,.47.07.7s.12.46.2.68.18.44.28.65.21.42.32.64.17.45.3.65.26.39.4.58.38.33.53.51a6.19,6.19,0,0,0,.47.55c.16.18.37.31.55.48s.34.32.53.48.35.33.54.48.34.35.54.49.4.26.6.39.44.21.65.33.36.35.57.46.49.11.71.21.41.25.63.35l.68.28c.22.09.45.19.68.27l.69.24c.23.07.48.09.72.15l.7.2.71.19c.23,0,.48.14.73.19.08.36-.06.38-.09.75s0,.37-.06.74-.08.37-.11.74.12.39.1.76-.12.36-.15.73,0,.38,0,.75-.07.37-.09.74-.07.37-.09.74,0,.38,0,.75,0,.37-.08.74.11.39,0,.73c-.22-.08-.41-.13-.64-.22s-.46-.14-.68-.24-.4-.27-.62-.38-.41-.23-.62-.34-.48-.12-.69-.24-.44-.21-.64-.33-.39-.29-.59-.42-.41-.25-.6-.39-.41-.25-.61-.4-.29-.4-.48-.55-.4-.26-.59-.41l-.53-.49c-.17-.16-.37-.3-.54-.47s-.3-.37-.46-.55-.38-.3-.54-.48-.38-.31-.53-.49-.21-.45-.36-.64-.35-.33-.49-.52-.25-.42-.38-.61-.26-.41-.39-.61-.23-.42-.35-.62-.22-.43-.34-.64-.26-.4-.37-.61-.27-.4-.37-.62-.16-.46-.25-.68-.2-.43-.29-.65-.23-.43-.31-.66,0-.5-.08-.73S19.8,29.31,19.74,29.07Zm0,10.71c-.15.32-.24.28-.38.6s-.09.34-.23.65l-.3.64c-.14.31-.09.33-.34.58-.2-.13-.33-.26-.53-.39l-.61-.4c-.21-.13-.48-.16-.68-.3s-.39-.29-.59-.42l-.61-.4s0-.11,0-.13-.34-.15-.49-.25l-.12-.07c-.14-.1-.28-.22-.43-.32s0-.11,0-.13a3.7,3.7,0,0,0-1-.41l-.2,0a4.53,4.53,0,0,0-.8.16,3.55,3.55,0,0,1-.63.2,4.85,4.85,0,0,1-.66,0,3.61,3.61,0,0,1-.64-.19,3.66,3.66,0,0,1-.57-.33,3.66,3.66,0,0,1-.71-.4,2.36,2.36,0,0,1-.5-.65,2.24,2.24,0,0,1-.2-.79,1.55,1.55,0,0,1,0-.31,3.42,3.42,0,0,1,0-.65,3.94,3.94,0,0,1,.13-.65,4.72,4.72,0,0,1,.31-.58c.08-.2.06-.45.16-.65s.24-.44.37-.64A4.38,4.38,0,0,1,9.8,33a3.6,3.6,0,0,1,.51-.52,3.44,3.44,0,0,1,.58-.46,2.69,2.69,0,0,1,.8-.23,2.6,2.6,0,0,1,.82.1,3.55,3.55,0,0,1,.77.27,5.14,5.14,0,0,1,.55.35,4,4,0,0,1,.5.42,3.43,3.43,0,0,1,.37.54A3.87,3.87,0,0,1,15,34c.08.2.27.36.32.58a.88.88,0,0,0,.62.68c.19,0,.38.13.57.17l.6.09c.12,0,.23.12.35.15.28.07.59,0,.88.12.11,0,.2.13.3.16s.38.07.56.12l.56.13a2.85,2.85,0,0,1,.29,0c.34.09.65.24,1,.34h.12c-.13.33-.2.29-.35.61l-.29.63c-.14.31-.09.34-.24.66s-.09.33-.24.65ZM26,47c-.19-.12-.38-.28-.58-.4s-.43-.19-.64-.32-.38-.27-.59-.39-.35-.31-.56-.44-.45-.16-.65-.28-.42-.21-.63-.34-.34-.34-.54-.46L21.22,44c-.19-.12-.41-.22-.61-.35s-.47-.25-.67-.38c0-.36.21-.33.36-.66s.09-.35.24-.68.23-.3.38-.63.07-.36.22-.69.19-.32.34-.65.24-.29.39-.62.09-.36.24-.69.1-.35.36-.61c.15.19.22.38.38.57s.33.37.5.55.36.33.54.51l.51.53c.18.17.43.27.61.44s.36.34.55.5.39.3.58.45.33.38.53.53l.61.43c.2.14.4.28.61.41s.45.2.67.33.35.38.56.5.48.15.7.27.43.24.66.35.44.2.67.3.46.19.69.29.46.16.7.24l.74.26c.17.31,0,.39.07.73s0,.35.14.7.2.31.29.65.11.34.2.69,0,.37.05.71.16.33.24.67.15.33.23.68,0,.36.08.71.13.33.22.68,0,.35.12.7.18.32.27.66,0,.37.08.71.45.42.23.7-.38-.06-.73-.06-.35.11-.7.11-.35-.14-.7-.14-.35,0-.7,0-.35.05-.7.05-.36,0-.71,0-.35,0-.7,0-.35-.06-.7-.06h-.7c-.35,0-.35.14-.7.14s-.46.18-.7-.07,0-.37,0-.75,0-.38,0-.76,0-.37,0-.75,0-.38,0-.76,0-.37,0-.75-.12-.38-.13-.75.14-.38.13-.76-.08-.38-.09-.76a.87.87,0,0,0-.4-.77c-.19-.11-.37-.28-.58-.41S26.23,47.1,26,47Zm5.73,28.09-.39.57c-.13.19-.37.3-.5.49,0,0,0,.08,0,.1s-.24.28-.35.43-.16.17-.22.26l-.19.29c-.09.11-.12.26-.2.37l-.16.2c-.09.13-.15.3-.24.43a.67.67,0,0,1-.07.11c-.1.15-.26.25-.36.39s.05.1,0,.12-.32.24-.43.39a1.31,1.31,0,0,1-.62.29,5.71,5.71,0,0,1-.71.17,6.06,6.06,0,0,1-.74,0,5.82,5.82,0,0,1-.73-.09,2.77,2.77,0,0,1-.67-.32,1.19,1.19,0,0,1-.48-.35c-.1-.17,0-.36.05-.57s0-.37.05-.55c0,0,0,0,0-.08l.09-.53s0-.06,0-.09.08-.35.11-.53c0,0,0-.07,0-.11s0-.36.07-.54.1-.07.11-.11,0-.36.07-.53,0-.12,0-.18,0-.29.06-.43,0-.23,0-.34.12-.14.13-.21c.05-.33.07-.67.13-1,.2.08.43.23.69.32s.48,0,.73.12.43.26.67.33.49,0,.74.07.48.07.73.11.46.14.71.18.47.17.72.19.49,0,.74,0,.47,0,.72,0C31.94,74.66,31.88,74.88,31.75,75.07Zm17-2.43c-.25,0-.5,0-.75,0,0,0,0,.06-.05.06l.05-.06c-.14-.2-.36-.33-.49-.52s-.19-.45-.31-.64-.34-.34-.46-.53-.22-.43-.35-.62-.23-.42-.35-.61-.35-.34-.47-.52-.25-.42-.38-.6-.2-.45-.32-.62-.36-.37-.47-.54a2.56,2.56,0,0,1-.31-.63.89.89,0,0,0-.78-.33c-.38,0-.38-.06-.76-.06s-.39,0-.77,0-.38-.07-.77-.07-.38,0-.77,0h-.76c-.39,0-.39,0-.77,0s-.39.06-.77.06a.78.78,0,0,0-.69.38s-.13.23-.37.59c-.11.17-.26.35-.41.57s-.32.33-.46.54-.27.36-.41.57-.21.41-.35.61-.22.41-.35.61-.34.33-.47.53l-.39.58c-.13.19-.18.44-.31.63s-.36.33-.49.52h.06s0,.13,0,.13c-.25,0-.51,0-.75,0s-.51.06-.76,0L31,72.69c-.25,0-.49-.14-.73-.18s-.5-.07-.74-.12-.49-.14-.72-.19-.51-.09-.74-.15l-.71-.22c-.27-.09-.54-.06-.75-.14a6.74,6.74,0,0,1-.67-.34c0-.25.16-.48.2-.72s.07-.49.1-.73-.07-.52,0-.76.22-.47.25-.71,0-.5.05-.74.13-.48.16-.73.06-.49.09-.73,0-.51,0-.75.14-.48.18-.72.08-.49.12-.73,0-.51,0-.75.21-.48.24-.71.05-.51.08-.74,0-.52,0-.75.08-.51.11-.73.15-.47.18-.68c.34-.1.34,0,.7,0s.36,0,.72,0,.36-.09.72-.09.36.08.72.08.36,0,.72,0,.36,0,.72,0,.36.09.72.09h.72c.36,0,.36,0,.72,0s.36-.07.72-.07.36,0,.72,0,.36,0,.72,0,.36,0,.72,0,.36.09.72.09.36-.1.72-.1.36,0,.72,0,.36-.09.72-.09.36.16.72.16.36,0,.72,0,.36-.08.72-.08h.72c.36,0,.36,0,.72,0s.36-.09.72-.09.36.09.72.09.36,0,.72,0,.36-.08.72-.08.36.08.72.08.36.07.72.07.36-.07.72-.07.36,0,.72,0,.36-.1.72-.1.36.13.72.13.37-.09.73-.09h.72c.36,0,.36.06.72.06s.38-.17.72-.07c0,.2.05.47.09.75s.07.47.11.73.11.47.15.73-.06.49,0,.75.09.48.12.73.19.47.22.72.09.48.13.73-.05.5,0,.75.14.47.18.72.11.48.15.72-.07.51,0,.76.15.47.19.72.06.49.1.73.11.48.15.73.12.48.16.73,0,.5.06.75c-.17.07-.41.21-.7.31s-.49,0-.76.12-.43.25-.68.32l-.73.19c-.23,0-.48.11-.73.15s-.49.08-.75.12-.49,0-.75,0-.49,0-.74,0S49,72.64,48.74,72.64Zm6.53-18c0-.37-.05-.37-.05-.74s.09-.37.1-.74-.13-.38-.13-.75-.21-.49.12-.67.26.15.56.35l.62.4c.31.2.33.17.64.37s.39.11.62.39c-.16.15-.38.32-.58.53s-.37.34-.55.55-.24.46-.41.67-.34.38-.5.59-.38.41-.53.62c-.09-.39.13-.42.13-.83S55.27,55,55.27,54.6Zm.78,20.71c0,.15,0,.31,0,.46s.06.11.07.17-.06.35,0,.52,0,.1,0,.14.18.32.21.49,0,.08,0,.12,0,.34.06.51-.09.08-.09.11c0,.18.07.36.1.53s.11.38,0,.55a1.18,1.18,0,0,1-.46.32,2.45,2.45,0,0,1-.68.21,4.13,4.13,0,0,1-.7.24,5.78,5.78,0,0,1-.73,0,4.32,4.32,0,0,1-.71-.18,1.24,1.24,0,0,1-1-.53c0-.09-.07-.18-.12-.27a2.45,2.45,0,0,0-.38-.47,9.87,9.87,0,0,1-.72-1c0-.06,0-.17-.06-.22s-.24-.21-.34-.34-.09-.22-.16-.32-.18-.16-.25-.26-.15-.35-.26-.51l-.11-.16-.32-.48-.31-.45c.25,0,.46,0,.7-.07s.5,0,.73-.06.51,0,.74,0,.49-.12.72-.16l.72-.16c.25,0,.49-.09.72-.15l.71-.19.7-.22c.26-.09.51-.29.71-.37,0,.18,0,.44,0,.62s.11.36.14.54c0,0,0,0,0,0,0,.17.13.33.16.5a2.45,2.45,0,0,1,0,.27C56,75.14,56,75.22,56.05,75.31Zm7.63-18.67c-.15.13-.34.27-.54.41s-.37.24-.56.38-.41.19-.6.32-.4.21-.59.33-.36.29-.55.4-.41.22-.6.33-.42.24-.59.33c-.35.2-.6.29-.6.3a.9.9,0,0,0-.41.7,3.29,3.29,0,0,1-.21.76,2.66,2.66,0,0,1-.44.65,2.85,2.85,0,0,1-.57.53,2.28,2.28,0,0,1-.65.41,1.62,1.62,0,0,1-.75-.12.46.46,0,0,1-.29-.18c-.08-.16,0-.4,0-.63,0,0-.06-.05-.06-.08a4.61,4.61,0,0,1,0-.74,4.54,4.54,0,0,1,0-.74c0-.25.1-.49.15-.73s.11-.49.19-.72a4.15,4.15,0,0,1,.32-.67c.12-.22.2-.46.34-.67s.26-.44.41-.64.34-.39.49-.57.33-.41.49-.58.33-.42.49-.58a7.39,7.39,0,0,1,.6-.47c.18,0,.45,0,.75.1s.44.19.7.27.43.22.68.32.49.09.73.19l.69.31c.22.11.43.24.65.37s.4.28.62.41C63.83,56.42,63.79,56.55,63.68,56.64Zm3.26-5.58a5.87,5.87,0,0,1,0,.74,6,6,0,0,1-.06.75,6.11,6.11,0,0,1-.35.67,5.93,5.93,0,0,1-.29.69,6.26,6.26,0,0,1-.43.62c-.15.19-.34.32-.51.51-.22-.14-.41-.27-.62-.39s-.45-.23-.67-.34-.45-.24-.67-.34-.48-.18-.7-.28-.44-.29-.66-.37-.49-.17-.72-.25-.53,0-.76-.1c0,0,0-.14-.05-.16-.31-.2-.32-.18-.62-.38l-.61-.4c-.31-.19-.34-.15-.64-.35s-.26-.28-.56-.47l-.61-.4c-.31-.2-.3-.21-.6-.41s-.32-.18-.62-.38-.38-.08-.69-.28-.24-.29-.55-.49c-.14-.09-.33,0-.49,0s-.32-.1-.45,0a1,1,0,0,0-.5.82c0,.37,0,.37,0,.74s0,.37,0,.74.09.37.08.74,0,.37,0,.74-.07.37-.07.74.24.44,0,.71-.31.06-.66.06-.35-.09-.7-.09-.35.12-.7.12-.36,0-.71,0-.35-.09-.7-.09h-.7c-.35,0-.35.1-.7.1s-.35.05-.7.05-.35-.05-.7-.05h-.71c-.35,0-.5.26-.71,0s.15-.34.24-.68.06-.35.15-.69,0-.37.1-.71.08-.35.16-.69.19-.32.28-.66.06-.35.14-.69,0-.36.11-.71.13-.33.22-.68,0-.36.1-.7.16-.33.24-.67.07-.35.16-.69.15-.33.24-.68a2.22,2.22,0,0,1,.18-.67c.23-.07.37-.25.59-.34s.48-.07.7-.16l.66-.26c.22-.1.41-.26.62-.36s.48-.12.69-.23.37-.31.57-.43.46-.15.67-.27.36-.32.56-.45.39-.27.58-.41.46-.18.65-.32.34-.34.53-.48l.55-.45c.19-.15.38-.22.56-.38.21.12.41.17.63.3l.63.37c.21.12.45.22.66.35s.39.3.6.43l.62.39c.21.14.46.2.67.33l.63.39.62.41c.2.14.34.38.54.52s.46.21.66.35l.59.44c.2.15.36.35.55.5s.38.33.56.48.33.38.51.55.38.32.55.49.36.34.52.51.39.33.54.52a5.83,5.83,0,0,1,.46.58,3.26,3.26,0,0,1,.34.67,2.32,2.32,0,0,1,.19.73C67.08,50.57,67,50.82,66.94,51.06Z"/><circle class="cls-2" cx="25.23" cy="24.36" r="1.07"/><path class="cls-2" d="M38.92,11.78c-.61,0-1.24,0-1.83,0a1.55,1.55,0,0,0,0-.29,1.88,1.88,0,0,0,0-.91c0-.18,0-.34,0-.54,0,.07,0,.15.05,0a.83.83,0,0,0,0-.35h0a.59.59,0,0,0,0-.21h.15a2,2,0,0,0,.49,0c-.25,0,.18,0,.33,0h.12c1,.13,1.37-1.4.35-1.64A2.26,2.26,0,0,0,38,7.81h-.16c-.22,0-.35,0-.53,0s-.7,0-1.15,0a4.13,4.13,0,0,0-.53,0,1.59,1.59,0,0,0-.37.06h0a2.68,2.68,0,0,0-.8,0c.62-.07-.22-.06-.4,0C33,8,33,9.63,34.08,9.49a6.47,6.47,0,0,1,1.32,0,1.28,1.28,0,0,0,0,.34c0,.1,0,.2,0,.3s0,.48,0,.34c0,.14,0,.49,0,.7a1.48,1.48,0,0,0,0,.57c0,.17,0-.19,0,.09v0l-.52,0c-.23,0-.51,0-.86,0s.55-.06-.13,0c-.27,0-.24.06-.36.06a.84.84,0,0,0,0,1.68,2.6,2.6,0,0,0,.39,0h.37c.28,0-.2,0,.09,0h.86l.27,0c.2,0,1-.06.45-.06,1.07,0,2,.07,3,0S40,11.71,38.92,11.78Zm9-3.12a.87.87,0,0,0-.84-.84,8.42,8.42,0,0,0-1.23,0c-.32,0-.3,0-.47,0s-.71,0-.8,0h-.51c-.28,0-.33,0-.54,0-.51,0-.76,0-1.33,0-1.07.1-1.08,1.78,0,1.68a4.08,4.08,0,0,1,.65,0c.16,0,.85,0,.62-.06l.48,0c0,.08.15.27.18.35s.07.12.08.19a1.34,1.34,0,0,1-.24,1,.63.63,0,0,1-.16.23q.21-.12-.09.09a1.21,1.21,0,0,1-.3.2,1.81,1.81,0,0,1-1.17.16c-1.08,0-1.08,1.64,0,1.68a3.75,3.75,0,0,0,1.81-.28,2.8,2.8,0,0,0,1.39-1.28,2.7,2.7,0,0,0,.31-.72,2.15,2.15,0,0,0,1.62-.68A2.12,2.12,0,0,0,47.92,8.66ZM44,9.53h0l0,.06Zm2.27.45c-.29,0-.53-.1-.53-.21s.24-.21.53-.21.52.09.52.21S46.55,10,46.26,10Z"/><path class="cls-13" d="M12.36,36.46a1.32,1.32,0,0,1-.72.76c-1.54.68-3.07,1.38-4.63,2a1.19,1.19,0,0,1-1.66-.63c-.33-.65-.61-1.32-.9-2L.31,27.2C.25,27.07.2,27,.15,26.82A1.27,1.27,0,0,1,.89,25c1.43-.66,2.87-1.27,4.31-1.9a1.69,1.69,0,0,1,.86-.18,1.26,1.26,0,0,1,1.05.84c1,2.24,2,4.49,3,6.74l2.1,4.77A1.74,1.74,0,0,1,12.36,36.46Z"/><path class="cls-14" d="M2.9,32.22v-.07c-.06-.08-.1-.17-.16-.26l-.13-.39c-.06-.08-.1-.18-.16-.26Q1.69,29.31.78,27.43s0-.06,0-.09-.08-.28-.09-.42a1.3,1.3,0,0,1,.8-1.23C2.74,25.11,4,24.55,5.31,24a1.76,1.76,0,0,1,.49-.12,1.17,1.17,0,0,1,1.28.67,13.91,13.91,0,0,1,.77,1.66c.7,1.55,1.38,3.12,2.06,4.68l.14.36c.2.64.53,1.23.78,1.85s.43,1,.69,1.5l.13.39a1.2,1.2,0,0,1-.73,1.56c-1.29.58-2.57,1.15-3.87,1.71a1.28,1.28,0,0,1-1.47-.19,3,3,0,0,1-.26-.36,17,17,0,0,1-.74-1.63c-.2-.65-.53-1.24-.78-1.86s-.45-1.07-.72-1.58L3,32.44A.62.62,0,0,0,2.9,32.22Z"/><path class="cls-15" d="M5.6,38a1.33,1.33,0,0,0,1.45.16l3.76-1.65A1.35,1.35,0,0,0,11.65,35a1.76,1.76,0,0,1,.29.58c.26.74.13,1.1-.58,1.43L7.11,38.86l-.3.1a.85.85,0,0,1-1.12-.42A2,2,0,0,1,5.45,38C5.49,37.91,5.54,37.94,5.6,38Z"/><path class="cls-15" d="M7.08,24.54c-.07,0-.1-.07-.14-.12A1.07,1.07,0,0,0,5.66,24,41.2,41.2,0,0,0,1.3,25.9,1.13,1.13,0,0,0,.73,27c0,.07,0,.08-.11,0a2.48,2.48,0,0,1-.17-.37A.9.9,0,0,1,1,25.3q2.22-1,4.47-2a.9.9,0,0,1,1.33.49A3,3,0,0,1,7.08,24.54Z"/><path class="cls-16" d="M3.82,34.2l.75,1.66a.22.22,0,0,1,0,.21c-.3-.62-.58-1.25-.83-1.9C3.78,34.15,3.8,34.16,3.82,34.2Z"/><path class="cls-17" d="M3.82,34.2l-.07,0a14,14,0,0,1-.67-1.54c.2.13.22.37.31.56S3.68,33.86,3.82,34.2Z"/><path class="cls-18" d="M5.6,38a.12.12,0,0,0-.15,0,.59.59,0,0,1-.13-.33A.65.65,0,0,1,5.6,38Z"/><path class="cls-19" d="M2.46,31.24c.13,0,.14.15.16.26A.26.26,0,0,1,2.46,31.24Z"/><path class="cls-20" d="M2.75,31.89c.13.05.14.16.16.26S2.76,32,2.75,31.89Z"/><path class="cls-20" d="M2.9,32.22a.15.15,0,0,1,.1.22A.23.23,0,0,1,2.9,32.22Z"/><path class="cls-21" d="M8.67,29.9c.75,1.67,1.5,3.34,2.23,5,.22.5.14.77-.33,1-1.28.58-2.54,1.17-3.85,1.68-.42.16-.65.08-.83-.32Q4.71,34.6,3.54,31.92c0-.11,0-.17.13-.22h0c.16,0,.2.3.41.23a1.21,1.21,0,0,0,.7-.4c.65-.23,1.23-.62,1.88-.87a2.67,2.67,0,0,0,.71-.32.9.9,0,0,0,1-.46C8.48,29.78,8.58,29.83,8.67,29.9Z"/><path class="cls-22" d="M2.09,28.65A10.47,10.47,0,0,1,1.41,27c-.1-.29,0-.52.38-.67l3.68-1.62.14-.07a.69.69,0,0,1,1,.47c.17.43.36.85.54,1.27a.56.56,0,0,1-.69.26c-.15-.1-.15-.28-.24-.41A2.2,2.2,0,0,1,6.08,26a1.12,1.12,0,0,0-.21-.44c-.14-.08-.25,0-.37.07l-.33.15L5,25.8l-.18.09-.3.13-.25.11-.18.08-.23.1-.18.08-.39.18a1.59,1.59,0,0,0-.27.12l-.55.24a.24.24,0,0,0-.13.36l.36.81c0,.11.11.22.06.35S2.38,28.82,2.09,28.65Z"/><path class="cls-23" d="M3.69,31.71l-.15.21a1.67,1.67,0,0,1-.22-.49c.17-.28.49-.3.74-.42a13.71,13.71,0,0,1,1.77-.73A5,5,0,0,0,6.44,30c.53-.26,1.08-.46,1.61-.7a.23.23,0,0,1,.33.09c.08.26-.13.21-.26.25l-.68.3a1.24,1.24,0,0,1-.58.41A16,16,0,0,0,5.22,31l-.06,0c-.14.1-.33.08-.46.21A1.07,1.07,0,0,0,3.69,31.71Z"/><path class="cls-24" d="M8.33,29.36c-.06-.06-.14-.1-.2-.05-.25.22-.6.2-.88.4s-.56.21-.82.36a5.71,5.71,0,0,1-1.07.49A9,9,0,0,0,4.2,31l-.88.41a.71.71,0,0,1-.14-.32.27.27,0,0,1,.2-.23,1.39,1.39,0,0,0,.91-.32.74.74,0,0,1,.45-.17c.06,0,.12,0,.18,0a8.44,8.44,0,0,0,1.72-.81.46.46,0,0,1,.24-.12c.1,0,.14-.07.11-.16.32,0,.57-.21.87-.25.15.07.26-.12.4-.06a.88.88,0,0,1,.16.32S8.36,29.35,8.33,29.36Z"/><path class="cls-25" d="M2.57,29.71a.56.56,0,0,1-.15-.32c.08-.27.34-.3.53-.41H3c.2,0,.35-.11.52-.18s.31-.11.46-.19l.26-.09a2.06,2.06,0,0,0,.33-.17l.4-.17L5.38,28a2.3,2.3,0,0,0,.32-.15A1.48,1.48,0,0,0,6,27.73l.27-.1.56-.28c.21-.08.39-.29.65-.15.08,0,.1.09.07.16a.29.29,0,0,1-.24.24,6.3,6.3,0,0,0-1.23.52,5.93,5.93,0,0,1-.85.38c-.29.1-.56.26-.85.38s-.38.17-.58.23A4,4,0,0,0,2.57,29.71Z"/><path class="cls-26" d="M7.73,27.77l.07.17a1.61,1.61,0,0,1-.51.29c-.58.21-1.14.48-1.72.71a.75.75,0,0,0-.18.13l-.12.06c-.78.26-1.5.66-2.26,1-.07,0-.1.1-.15.15l0,0A.61.61,0,0,1,2.68,30c.07-.18.24-.21.39-.28.55-.23,1.08-.49,1.63-.72A.92.92,0,0,0,5,28.75a.27.27,0,0,1,.21-.07.31.31,0,0,0,.21,0c.57-.33,1.2-.53,1.8-.82C7.4,27.76,7.55,27.65,7.73,27.77Z"/><path class="cls-27" d="M5.25,28.72a.2.2,0,0,0-.16.07c-.73.27-1.43.58-2.13.91a.5.5,0,0,1-.36.09l0-.08c0-.17.2-.24.33-.31.36-.16.73-.31,1.1-.45a6.7,6.7,0,0,0,1-.43,5.35,5.35,0,0,1,.88-.39,2.59,2.59,0,0,0,.75-.44c.13-.1.27,0,.41-.09s.36-.1.5-.24l.08.17a4,4,0,0,1-1.19.62C6,28.33,5.63,28.5,5.25,28.72Z"/><path class="cls-28" d="M7.87,28.1l.11.24c-.08.14-.24.13-.36.2s-.54.25-.79.4-.61.42-1,.33a.44.44,0,0,1-.28-.14.06.06,0,0,1,0-.08c.06-.09.19,0,.24-.07s.27-.12.4-.21a2.32,2.32,0,0,1,.39-.18,10.53,10.53,0,0,1,1.09-.47C7.72,28.1,7.79,28,7.87,28.1Z"/><path class="cls-29" d="M3,30.7a1.07,1.07,0,0,1-.18-.41h0c.06,0,.08-.13.16-.15.51-.16,1-.45,1.48-.64.14-.05.27-.07.34.11a.23.23,0,0,1-.23.27,1.7,1.7,0,0,0-.53.24,2.06,2.06,0,0,1-.42.21.54.54,0,0,0-.37.35A.21.21,0,0,1,3,30.7Z"/><path class="cls-30" d="M7.87,28.1c-.68.25-1.32.6-2,.88-.12.06-.26,0-.36.11A.14.14,0,0,1,5.34,29a.74.74,0,0,1,.32-.22c.64-.31,1.34-.49,2-.85a.52.52,0,0,1,.18,0Z"/><path class="cls-31" d="M5.25,28.72c0-.07,0-.14.08-.18.77-.32,1.54-.64,2.29-1a.44.44,0,0,1,.11.24,2.62,2.62,0,0,0-.87.33,9.42,9.42,0,0,0-1.44.67C5.3,28.84,5.3,28.74,5.25,28.72Z"/><path class="cls-32" d="M2.6,29.79l2-.88c.17-.07.33-.2.53-.12,0,.14-.19.16-.3.21L2.68,30Z"/><path class="cls-33" d="M2.28,29.06c.16-.16.44-.12.59-.32.13.05.18.13.11.25s-.41.21-.56.4A.69.69,0,0,1,2.28,29.06Z"/><path class="cls-34" d="M7.23,26.57c0,.1.12.18.1.3-.07.36-.38.28-.61.34a.25.25,0,0,1-.11-.33C6.8,26.74,7.05,26.72,7.23,26.57Z"/><path class="cls-35" d="M7.23,26.57c-.1.29-.37.25-.6.31s-.17-.09-.2-.2a.06.06,0,0,1,.05-.06.84.84,0,0,0,.68-.21A.2.2,0,0,1,7.23,26.57Z"/><path class="cls-36" d="M6.73,27.18c.19-.12.47-.07.6-.31,0,.11.17.19.14.33a1.3,1.3,0,0,0-.63.23C6.69,27.4,6.7,27.3,6.73,27.18Z"/><path class="cls-37" d="M8.33,29.36l.09,0a1.85,1.85,0,0,1,.25.58l-.26,0a1.41,1.41,0,0,1-.35-.34C8.11,29.42,8.4,29.68,8.33,29.36Z"/><path class="cls-38" d="M7.59,28.48,8,28.34c.07.14.13.28.19.41a.24.24,0,0,1-.23,0A1.17,1.17,0,0,1,7.59,28.48Z"/><path class="cls-39" d="M7.94,28.75h.23a.38.38,0,0,1,.09.25c-.14,0-.21.22-.39.12A.36.36,0,0,1,7.94,28.75Z"/><path class="cls-40" d="M3,30.7l.22-.05c.15,0,.17.14.17.27l-.21.19A1.14,1.14,0,0,1,3,30.7Z"/><path class="cls-2" d="M6,32.06l-.5-.19c-.19-.08-.23-.22,0-.31.5-.25,1-.47,1.52-.69.13-.05.24,0,.21.19a4.24,4.24,0,0,1-.32,1,.3.3,0,0,1-.46.17Z"/><path class="cls-41" d="M7.2,33c.11,0,.19-.14.32-.14a1,1,0,0,1,.59,1,3.82,3.82,0,0,1-.18.88c-.32.17-.63.4-1,.21,0-.08-.15-.08-.2-.16s-.06-.12,0-.16a.85.85,0,0,1,.22,0,.53.53,0,0,0,.61-.44.85.85,0,0,0-.27-.86C7.2,33.23,7,33.16,7.2,33Z"/><path class="cls-42" d="M6.52,34.57a1.07,1.07,0,0,1-.19-1.07.4.4,0,0,1,.29-.26c.17,0,.35,0,.51.13a.67.67,0,0,1,.17.88C7.14,34.59,6.84,34.61,6.52,34.57Z"/><path class="cls-43" d="M7.93,34.77A1.13,1.13,0,0,1,8,34.14a1,1,0,0,0-.48-1.23s0,0,0-.06a.56.56,0,0,1,.76.25,3,3,0,0,1,.25.43C8.8,34.17,8.61,34.56,7.93,34.77Z"/><path class="cls-44" d="M6.52,34.57c0-.1,0-.13.13-.09a.39.39,0,0,0,.55-.21c.08-.21.27-.47,0-.71s-.25-.31-.49-.2c-.06,0-.07-.06-.08-.12A2,2,0,0,1,7.2,33a.2.2,0,0,0,.06.23.9.9,0,0,1,.2,1.36c0,.06-.11.15-.17.12s-.37,0-.56,0c0-.11-.17,0-.21-.15Z"/><path class="cls-2" d="M5.55,33.39c-.08.19-.69.48-.84.38a.38.38,0,0,1-.19-.51c.07-.15.69-.44.82-.36A.36.36,0,0,1,5.55,33.39Z"/><path class="cls-2" d="M9.16,31.78a1.12,1.12,0,0,1-.79.41.37.37,0,0,1-.26-.38.23.23,0,0,1,.15-.28,3.76,3.76,0,0,1,.46-.2.29.29,0,0,1,.35.06A.42.42,0,0,1,9.16,31.78Z"/><path class="cls-2" d="M6.21,36.6a1.46,1.46,0,0,1,.92-.44.29.29,0,0,1,.22.24.24.24,0,0,1-.11.3c-.22.12-.45.23-.68.33s-.24,0-.33-.13A.26.26,0,0,1,6.21,36.6Z"/><path class="cls-2" d="M7.75,35.94a1.27,1.27,0,0,1,1-.45.3.3,0,0,1,.09.51,3.12,3.12,0,0,1-.74.34.29.29,0,0,1-.32-.4Z"/><path class="cls-2" d="M3.69,31.71a.29.29,0,0,1,.25-.33c.25-.07.46-.33.76-.16,0,.07.14.07.15.17a.2.2,0,0,1,0,.15A1.29,1.29,0,0,1,4,32C3.83,32,3.79,31.84,3.69,31.71Z"/><path class="cls-2" d="M8.06,29.53a.47.47,0,0,1,.35.34c0,.38-.59.65-1,.49a.26.26,0,0,1-.13-.19.47.47,0,0,1,.14-.35A2.69,2.69,0,0,0,8.06,29.53Z"/><path class="cls-45" d="M7.33,30.2l.07.16a.42.42,0,0,1-.25.22,15.72,15.72,0,0,0-1.52.64,3.91,3.91,0,0,1-.57.31c-.08,0-.15,0-.22,0a.14.14,0,0,1,0-.14A.38.38,0,0,1,5,31.19C5.8,30.85,6.55,30.49,7.33,30.2Z"/><path class="cls-42" d="M6.52,34.57c.05.07.28-.11.21.15s.16.15.17.26A.49.49,0,0,1,6.52,34.57Z"/><path class="cls-46" d="M5.92,25.44a1,1,0,0,1,.21.49c0,.35.08.7-.26.95,0,0,.06,0,0,.08,0,.34-.08.41-.38.42a1,1,0,0,1,0-.82c.08-.13-.12-.1-.11-.19s.19,0,.28-.05A1.35,1.35,0,0,1,5.92,25.44Z"/><path class="cls-47" d="M5.88,26.93l-.06,0A1.23,1.23,0,0,0,6.09,26s0,0,0-.05l.16.28a2.47,2.47,0,0,1-.23,1.34.69.69,0,0,0,0,.24c-.09,0-.18.12-.29.09s-.15-.07-.12-.17.08-.16.12-.25S6.06,27.18,5.88,26.93Z"/><path class="cls-48" d="M6,27.79c-.11,0-.08-.18-.06-.2a3.89,3.89,0,0,0,.34-1.38c.06.14.13.27.19.41a.08.08,0,0,0,0,.05,1.43,1.43,0,0,1-.2,1C6.2,27.77,6.09,27.74,6,27.79Z"/><path class="cls-49" d="M5.92,25.44c0,.33-.26.62-.08,1-.14,0-.23-.1-.35,0a.06.06,0,0,1-.06,0h0c-.07-.28.12-.53.06-.8C5.61,25.48,5.73,25.31,5.92,25.44Z"/><path class="cls-50" d="M5,25.77a.22.22,0,0,1,.17-.07c.24,0,.19.18.16.31a5,5,0,0,1-.16.51.78.78,0,0,1-.21.3H4.84a.37.37,0,0,1-.11-.19C4.73,26.32,4.67,26,5,25.77Z"/><path class="cls-51" d="M3.83,26.28a.32.32,0,0,1,.24-.11c.1.29-.11.54-.1.82a.59.59,0,0,0-.1.5c-.06.11-.08.24-.22.29s-.08-.27-.16-.38a.29.29,0,0,1,0-.13C3.65,27,3.63,26.58,3.83,26.28Z"/><path class="cls-52" d="M5.1,26.49A1.45,1.45,0,0,1,5.23,26a.23.23,0,0,0-.09-.35.65.65,0,0,1,.33-.14c.21.17,0,.36,0,.54s-.08.17-.07.26A.21.21,0,0,1,5.1,26.49Z"/><path class="cls-53" d="M4.24,26.1A.32.32,0,0,1,4.48,26a.52.52,0,0,1,0,.42c0,.13-.11.25,0,.39a.24.24,0,0,1,0,.2.26.26,0,0,1-.16.15c-.06,0-.1,0-.15-.09a.29.29,0,0,1-.08-.36C4.17,26.51,4.12,26.28,4.24,26.1Z"/><path class="cls-54" d="M4.24,26.1a1,1,0,0,1-.09.61c-.09.17,0,.22.07.31a.2.2,0,0,1-.28,0c-.1-.3.11-.54.13-.82A.19.19,0,0,1,4.24,26.1Z"/><path class="cls-55" d="M5,25.77a2.09,2.09,0,0,0-.2.86.13.13,0,0,1-.12,0,.46.46,0,0,1,0-.68.75.75,0,0,1,.18-.13A.2.2,0,0,1,5,25.77Z"/><path class="cls-56" d="M4.81,25.84a1.24,1.24,0,0,0-.27.49c0,.16,0,.19.11.26s-.17.17-.28.22-.06-.25,0-.33A4.43,4.43,0,0,0,4.48,26,.67.67,0,0,1,4.81,25.84Z"/><path class="cls-57" d="M7.33,30.2a4.17,4.17,0,0,1-1.08.53c-.47.24-1,.4-1.43.67l-.12-.18a18.76,18.76,0,0,1,2-.93,1.33,1.33,0,0,0,.67-.47A.56.56,0,0,0,7.33,30.2Z"/><path class="cls-2" d="M5.34,29l.18.05.35.14a3.23,3.23,0,0,1,.54.11c.12.06.25.1.26.27a.28.28,0,0,1-.17.2L5,30.47c-.11.05-.2.06-.27-.06s0-.3.07-.44.14-.35.2-.53a.58.58,0,0,1,.26-.37Z"/><path class="cls-58" d="M3.39,30.92l-.17-.27a.33.33,0,0,1,.26-.35c.17-.07.34-.16.51-.24a.26.26,0,0,1,.24.05c.14.14.25.29.1.49A1,1,0,0,1,3.39,30.92Z"/><path class="cls-2" d="M7.94,28.75a.68.68,0,0,1-.07.37c-.16.07-.33.12-.49.2a.39.39,0,0,1-.39,0c-.11,0-.13-.09-.17-.16a.26.26,0,0,1,0-.24c.19-.26.52-.28.77-.44A.5.5,0,0,1,7.94,28.75Z"/><path class="cls-59" d="M4.33,30.6a.6.6,0,0,0-.11-.45c.29-.26.43-.29.67-.15l-.15.41Z"/><path class="cls-60" d="M6.86,29.14l.13.18c.09.32-.21.2-.32.29a.71.71,0,0,0-.27-.18C6.44,29.16,6.7,29.22,6.86,29.14Z"/><path class="cls-61" d="M4.31,27.13,4.44,27a2.21,2.21,0,0,0,.42-.18l0,0C5,26.85,5,27,5,27a.54.54,0,0,1,0,.18,2,2,0,0,0-.18.71,1.24,1.24,0,0,1-.2.49c-.11,0-.2.14-.33.14-.22-.16-.14-.33,0-.5s.3-.3.07-.53A.29.29,0,0,1,4.31,27.13Z"/><path class="cls-62" d="M2.82,28.52c.11-.07.21-.13.14-.31s0-.32.1-.47,0-.13,0-.18a.22.22,0,0,1,.24-.17.23.23,0,0,1,.22.23.92.92,0,0,1-.15.6c-.21.17-.09.45-.21.66s0,.2-.17.14l0,0a.51.51,0,0,0-.11-.25Z"/><path class="cls-63" d="M4.05,28.66l-.46.17a.37.37,0,0,1-.12-.37.42.42,0,0,1,.26-.19s.13,0,0,0l-.06,0c-.19-.19.09-.32.08-.5a.29.29,0,0,1,.15-.21c.11,0,.13.09.13.18a.44.44,0,0,0,.18.33C4.17,28.23,4,28.41,4.05,28.66Z"/><path class="cls-64" d="M4.63,28.41A8.11,8.11,0,0,1,5,27.19c.12,0,.14.09.18.17a2.26,2.26,0,0,1-.1.86Z"/><path class="cls-65" d="M6.26,27.68c.07-.34.13-.67.2-1,.06.06.07.17.17.21a.6.6,0,0,0,.1.3l.11.25Z"/><path class="cls-66" d="M5,28.22c0-.1-.12-.17,0-.31s0-.35,0-.53.18,0,.26.07.24.37,0,.58A.64.64,0,0,1,5,28.22Z"/><path class="cls-67" d="M3.52,28.44c-.07.15.12.25.07.39s-.31.31-.56.19a.9.9,0,0,0,.18-.59c0-.08-.07-.21.11-.18A1.8,1.8,0,0,0,3.52,28.44Z"/><path class="cls-68" d="M5.39,28c0-.17.21-.38-.08-.51.14-.17.33-.09.5-.1.05.17-.28.26-.09.46C5.62,28,5.54,28.07,5.39,28Z"/><path class="cls-69" d="M4.05,28.66c0-.07-.2-.08-.12-.16s0-.43.29-.44h0v0a.59.59,0,0,0,0,.47C4.24,28.64,4.13,28.61,4.05,28.66Z"/><path class="cls-30" d="M5.27,29.07l-.18.4c-.08.1-.16.22-.32.15a.16.16,0,0,0-.24-.07,10.3,10.3,0,0,0-1.11.54c-.15.12-.41.09-.6.2,0-.11,0-.2.15-.25.61-.2,1.14-.58,1.76-.77C4.91,29.22,5.05,29.06,5.27,29.07Z"/><path class="cls-70" d="M6.86,29.14c-.08.22-.38.09-.46.29l-.53-.2a1.7,1.7,0,0,0,.85-.36s.06,0,.1.05Z"/><path class="cls-71" d="M4.77,29.62l.32-.15-.2.53c-.26-.12-.44.13-.67.15L4,30.06a1.19,1.19,0,0,1,.59-.25C4.72,29.8,4.73,29.71,4.77,29.62Z"/><path class="cls-72" d="M5.61,26.56l-.09.78c-.11.17-.22.1-.33,0A.55.55,0,0,1,5,26.94a.48.48,0,0,1,.32-.46C5.43,26.44,5.55,26.42,5.61,26.56Z"/><path class="cls-73" d="M5.05,27c.12.17.07.55.47.39.28,0,.34-.19.36-.41.14,0,.16,0,.14.15a.68.68,0,0,1-.21.34,1.44,1.44,0,0,1-.5.1l-.22-.14L5,27.19v-.14C4.94,27,4.94,26.91,5.05,27Z"/><path class="cls-74" d="M5.05,27l-.1.1,0-.23.19-.33.32-.14h.07l.2.08s.14,0,.11.12-.12,0-.19,0C5.27,26.47,5.16,26.55,5.05,27Z"/><path class="cls-75" d="M3.52,28.44c-.18.06-.21-.05-.2-.19a1.73,1.73,0,0,0,.17-.53c0-.12,0-.24-.14-.27s-.18.07-.19.18a.14.14,0,0,1-.1.11c-.12-.2,0-.32.15-.42a.54.54,0,0,1,.33.05.74.74,0,0,1,.1.41c.09.12,0,.21-.06.31s0,.1.12.1.16,0,.17,0-.05.11-.1.14Z"/><path class="cls-76" d="M4.86,26.8a.3.3,0,0,1-.42.18l-.07-.17c0-.14.16-.18.28-.22l.12,0Z"/><path class="cls-77" d="M4.28,28.08l-.06,0A.32.32,0,0,1,4,27.69c0-.08,0-.15-.08-.17a0,0,0,0,1-.06,0c-.09-.2-.13-.38.11-.5l.28,0,.09.11c.05.16,0,.32.19.46S4.57,27.94,4.28,28.08Z"/><path class="cls-78" d="M3.83,27.49l.06,0c-.13.18,0,.46-.24.59l.05.08c-.06,0-.13.11-.19.07s0-.13,0-.2.08-.19.11-.29Z"/><path class="cls-79" d="M4.68,26.84s-.06,0-.09,0a.07.07,0,0,1,0-.1.13.13,0,0,1,.08,0S4.7,26.77,4.68,26.84Z"/><path class="cls-80" d="M4.32,27.61a.15.15,0,0,1,.09.2.13.13,0,0,1-.2.08.17.17,0,0,1-.08-.23C4.17,27.57,4.24,27.58,4.32,27.61Z"/><path class="cls-81" d="M4.1,27.13a.2.2,0,0,1,.09.24.11.11,0,0,1-.16.06.18.18,0,0,1-.09-.24A.11.11,0,0,1,4.1,27.13Z"/></g></g></g></svg>