<svg xmlns="http://www.w3.org/2000/svg" viewBox="0 0 59.93 92.55"><defs><style>.cls-1{isolation:isolate;}.cls-2{fill:#fff;}.cls-3{fill:#67b95c;}.cls-4{fill:#b9b9b9;}.cls-5{fill:#f4d722;}.cls-6{fill:#c7c7cc;}.cls-7{fill:#2b9d39;}.cls-8{fill:#dbdcdc;mix-blend-mode:multiply;}.cls-9{fill:#d9bb2b;}.cls-10{fill:#e8dde6;}.cls-11{fill:#40210f;}.cls-12{fill:#b2b2b2;}.cls-13{fill:#999898;}.cls-14{fill:#cccccb;}.cls-15{fill:#b3b3b2;}.cls-16{fill:#b2b2b1;}.cls-17{fill:#cbcbcb;}.cls-18{fill:#cbcbca;}</style></defs><g class="cls-1"><g id="レイヤー_2" data-name="レイヤー 2"><g id="レイヤー_1-2" data-name="レイヤー 1"><path class="cls-2" d="M54.67,24.7,58.42,24S56.8,34.2,52.75,37.78Z"/><path class="cls-2" d="M16.08,24.7,12.33,24S13.94,34.2,18,37.78Z"/><path class="cls-3" d="M59.27,57.38C59,52.15,47,44.39,47,44.39l-.19,2.27H26l.24-2.21a62.51,62.51,0,0,0-12.34-5.07,5.33,5.33,0,0,0-2.1-3.48C9.76,34.54,8,36,7,38.65S6,44,8,45.36a3.28,3.28,0,0,0,3.43.22c4.27,3.86,9.32,7.79,11.87,9.72l.07,7.85H47.41l.05-6,4.82,4,3.77,4.19C58.05,63.15,59.47,61,59.27,57.38Z"/><path class="cls-2" d="M13.87,39.38a5.33,5.33,0,0,0-2.1-3.48C9.76,34.54,8,36,7,38.65S6,44,8,45.36a3.28,3.28,0,0,0,3.43.22C13,47,14.69,48.46,16.32,49.81l3-8.56C17.67,40.58,15.85,40,13.87,39.38Z"/><path class="cls-3" d="M47.41,67s1.28,12.65,2.66,22.09c.46,3.2-4.22,3.09-4.92,1.82-2.86-5.19-7.42-14.15-7.42-14.15H33s-4.57,9-7.43,14.15c-.69,1.27-5.38,1.38-4.91-1.82C22.06,79.67,23.34,67,23.34,67Z"/><path class="cls-2" d="M21.88,82.08h-.25c-.3,2.38-.62,4.8-.95,7-.47,3.2,4.22,3.09,4.91,1.82,1.12-2,2.51-4.65,3.78-7.07H29A12.75,12.75,0,0,1,21.88,82.08Zm28.19,7c-.33-2.23-.65-4.65-1-7h-.26a12.72,12.72,0,0,1-7.07,1.78h-.41c1.27,2.42,2.65,5,3.77,7.07C45.85,92.2,50.53,92.31,50.07,89.11Z"/><polygon class="cls-2" points="42.68 43.67 38.51 65.14 32.24 65.14 28.07 43.67 42.68 43.67"/><rect class="cls-2" x="23.34" y="63.15" width="24.08" height="3.87"/><rect class="cls-4" x="32.24" y="63.15" width="6.26" height="3.87"/><polygon class="cls-5" points="35.37 57.18 47.43 44.51 23.32 44.51 35.37 57.18"/><ellipse class="cls-2" cx="35.37" cy="26.85" rx="19.68" ry="25.51"/><path class="cls-3" d="M53,16c.32.77.58,1.54.83,2.33s.49,1.59.67,2.41.35,1.66.46,2.5.18,1.7.22,2.56,0,1.72,0,2.58S55.08,30.14,55,31s-.21,1.71-.38,2.55S54.27,35.23,54,36s-.53,1.61-.83,2.39-.72,1.49-1.08,2.23-.74,1.46-1.17,2.15-.88,1.31-1.36,1.94a22,22,0,0,1-1.45,1.86,22.21,22.21,0,0,1-1.63,1.59c-.56.48-1.19.85-1.79,1.27a19.38,19.38,0,0,1-1.83,1.17,17.35,17.35,0,0,1-1.93.87,15.45,15.45,0,0,1-2,.55,15.85,15.85,0,0,1-2,.51,13.26,13.26,0,0,1-4-.25,14.89,14.89,0,0,1-2-.39A17.4,17.4,0,0,1,29,51.17a15.49,15.49,0,0,1-1.87-.93A17.65,17.65,0,0,1,25.42,49c-.56-.45-1.12-.91-1.65-1.43a21.53,21.53,0,0,1-1.55-1.61c-.47-.59-1-1.18-1.39-1.83a22.93,22.93,0,0,1-1.2-2,24.46,24.46,0,0,1-.93-2.27,23.4,23.4,0,0,1-.94-2.26c-.25-.8-.43-1.63-.6-2.44s-.39-1.66-.5-2.5-.08-1.72-.12-2.58c-.05-1.19-.28-2.42-.3-3.6,0-1.38.67-2.75.94-4.07a20.87,20.87,0,0,1,1.58-5.66c.66-1.19,1.21-2.54,1.92-3.69.42-.68.93-1.28,1.41-1.91a20.08,20.08,0,0,1,3.38-3.5,19.29,19.29,0,0,1,5.26-3.24,15.43,15.43,0,0,1,8-.78,14.76,14.76,0,0,1,3.93,1.08,17,17,0,0,1,1.88.9A17.87,17.87,0,0,1,46.3,6.82,18.2,18.2,0,0,1,48,8.2,20.93,20.93,0,0,1,49.43,10a21.37,21.37,0,0,1,1.4,1.82,20.92,20.92,0,0,1,1.25,2C52.45,14.49,52.71,15.28,53,16Z"/><polygon class="cls-6" points="40.94 51.25 40.01 34.59 30.73 34.59 29.81 51.25 35.37 52.27 40.94 51.25"/><path class="cls-4" d="M40.94,51.25S40,34.67,40,34.59c0,.18-.67.84-.76,1l-1.68,2.1-1.62,2c-.15.19-.33.38-.47.59s-.13.33-.09.68a9,9,0,0,1,0,1.27l0,1.12a8.42,8.42,0,0,0,0,.87,6.11,6.11,0,0,1,.09,1.21c0,.34-.16.66-.19,1a3.42,3.42,0,0,0,.06.78,16.46,16.46,0,0,1,0,3.06c0,.14,0,2,0,2Z"/><path class="cls-2" d="M57.06,64.17A12.21,12.21,0,0,0,51.34,61a17.35,17.35,0,0,0-2.93,4.57c-.87,2.09-1.07,6.23.28,6.63s3-1.17,3.23-3.44a32.53,32.53,0,0,0,4.13-3.41C56.41,65,56.75,64.56,57.06,64.17Z"/><path class="cls-7" d="M51.55,27.06c-1.46-6.07-7.24,0-16.18,0s-14.71-6.07-16.18,0c-.89,3.7,3.06,13.31,16.18,13.31S52.45,30.76,51.55,27.06Z"/><path class="cls-8" d="M59.13,56.41a11.42,11.42,0,0,0-4.26-6.75.7.7,0,0,0-.41-.18c-.42-.46-.83-.91-1.22-1.37-.8-.94-2,.6-1.19,1.55l2.33,2.74A13.24,13.24,0,0,1,56.23,55c1.19,2.39.06,4.79-.33,7.26-.13.87.58,1.8,1.24,1.24C58.93,61.94,59.58,59.06,59.13,56.41ZM45.81,63c.45.08.77-.27.93-.79a17.75,17.75,0,0,0,.76-3.93c.07-.22.15-.44.23-.65.45-1.27-1-2.37-1.46-1.12a1.16,1.16,0,0,0-.39.88l0,.41a21.8,21.8,0,0,0-.74,3.83h0l0,.29A1,1,0,0,0,45.81,63Zm-22-9.58c-1-.8-2-1.59-3-2.34a13,13,0,0,1-2.71-2.13c-.78-1-2,.56-1.19,1.55a13,13,0,0,0,2.82,2.29c1,.75,2,1.53,3,2.33l.07.11A3.49,3.49,0,0,1,23,57.25v.14a31.1,31.1,0,0,0-.17,4c0,1.41,1.72,1.41,1.69,0a27.46,27.46,0,0,1,.14-3.74,2.46,2.46,0,0,0,0-.26s0-.08,0-.12a5.62,5.62,0,0,0-.5-3.35A1.05,1.05,0,0,0,23.83,53.38Zm24,18.9c-.05-.77-.1-1.54-.14-2.32a6.51,6.51,0,0,0-.21-1.71c-.44-1.19-1.86-1.39-2.72-1.74-1-.42-1.49,1.69-.45,2.11a6,6,0,0,1,1.47.59c.22.17.15,0,.2.39s0,.73.06,1.08c.08,1.25.17,2.5.27,3.74.21,2.53.47,5.06.78,7.57.17,1.39,1.8.8,1.63-.58Q48.11,76.86,47.78,72.28Zm-11,2.84L33.61,75a3.56,3.56,0,0,0-2.58.55,7.77,7.77,0,0,0-1.61,2.78L27.79,82c-.55,1.22.91,2.32,1.45,1.1l1.37-3a9.07,9.07,0,0,1,1.28-2.61c.53-.51,1.51-.26,2.12-.24l2.78.08C37.88,77.34,37.88,75.15,36.79,75.12Z"/><path class="cls-7" d="M51.83,28.09a3.88,3.88,0,0,0-1.46-2.94A4,4,0,0,0,47.18,25l-.31.07a51.32,51.32,0,0,1-1.13,12.63,16.91,16.91,0,0,0,2.92-2.6C50.18,33.4,52.07,30.92,51.83,28.09Z"/><polygon class="cls-5" points="34.52 33.15 56.78 5.97 34.52 23.29 12.26 5.97 34.52 33.15"/><path class="cls-9" d="M35.37,33.15,57.63,6l0,0L55,8.06l-5.41,4.21-6.3,4.9L37.9,21.32l-1.72,1.34c-.17.14-.36.26-.52.41-.62.54,0,1.47-.14,2.27a1.84,1.84,0,0,1-.09.25,1.75,1.75,0,0,0-.1.57,27.4,27.4,0,0,0,0,4.53c0,.49,0,.94,0,1.43C35.38,32.34,35.51,33,35.37,33.15Z"/><path class="cls-8" d="M53.86,18.74c-.06-.8-.1-1.6-.09-2.41s-.56-1.16-1-1c-.11-.43-.22-.87-.35-1.3-.36-1.32-2-.75-1.62.58A46.49,46.49,0,0,1,52.33,23a31.42,31.42,0,0,1-.18,8.88A47.21,47.21,0,0,1,49.49,40a20.46,20.46,0,0,1-1.69,3.56,2.2,2.2,0,0,1-.17.25,40.12,40.12,0,0,1-2.07,4.15l.77,0a23.69,23.69,0,0,1-3.54,1.82.75.75,0,0,0-.32.23c-.41,0-.82.07-1.23.07-.8,0-1,1.19-.63,1.81a.54.54,0,0,1,.36-.07c3.5.49,7.18-1.62,9.53-4.92a1.12,1.12,0,0,0-.72-.95c-.72-.23-1.47.65-2.06,1.08-.36.26-.72.51-1.09.74a5.69,5.69,0,0,1,.52-.65.75.75,0,0,0,.24-.08c1.77-1,2.94-3.5,4-5.5a37.74,37.74,0,0,0,2.72-7A27.71,27.71,0,0,0,53.86,18.74Z"/><path class="cls-10" d="M46.3,63a.3.3,0,0,0-.06-.11c-.3-.5-.87-.24-1.1.19a3.27,3.27,0,0,0-.25,1.54l0,2c0,.94.9,1.13,1.27.55a1.31,1.31,0,0,0,.49-.5,4.09,4.09,0,0,0,.24-1.49,4.34,4.34,0,0,0-.09-1.57A1,1,0,0,0,46.3,63ZM26.36,84.59C25.54,86.8,24.64,89,23.64,91c-.48,1,.73,1.92,1.21.92q1.5-3.12,2.72-6.44C28,84.46,26.75,83.53,26.36,84.59ZM17,45.33c-.25.25-.54.45-.78.72a2.53,2.53,0,0,0-.25.36l-.52-.28a23.93,23.93,0,0,1-2.07-1.31,3.43,3.43,0,0,0-1.77-.8c-.7,0-1.41.25-2.11.27-.91,0-.91,1.85,0,1.82a8.54,8.54,0,0,0,1.58-.2,1.74,1.74,0,0,1,1.49.41c.44.3.88.61,1.33.89a7.2,7.2,0,0,0,1.38.66c.11.59.65.83,1,.55a2.52,2.52,0,0,0,.62-.71,4.87,4.87,0,0,1,.77-.8C18.46,46.2,17.76,44.62,17,45.33ZM47.38,84.09A22.46,22.46,0,0,1,48.23,90c0,1.17,1.41,1.17,1.4,0a24.08,24.08,0,0,0-.9-6.41C48.43,82.51,47.07,83,47.38,84.09ZM56.47,25c-.29.95-.4,2-.62,2.95A33.5,33.5,0,0,1,55,31.17c-.36,1.07.85,2,1.21.92s.69-2.2,1-3.35.37-2.23.69-3.28S56.8,23.89,56.47,25ZM55.2,63.68a25.33,25.33,0,0,1-3.89,3.2,4.42,4.42,0,0,0-1.41,1.47A4.3,4.3,0,0,1,48.61,70c-.82.48-.11,2,.71,1.57,1.16-.66,1.57-2.37,2.7-3.09a24.21,24.21,0,0,0,3.89-3.2C56.62,64.56,55.92,63,55.2,63.68ZM38.9,53.37c-1,2.74-.74,6.12-2.19,8.56a1.29,1.29,0,0,0,.3,1.49c.43.34.88.08,1.16-.39,1.49-2.51,1.2-5.78,2.19-8.55C40.81,53.21,39.35,52.1,38.9,53.37Z"/><path class="cls-11" d="M11.62,40.46l-.17-.09A1.49,1.49,0,0,1,11,39.6a2,2,0,0,1-.08-.59,1.75,1.75,0,0,1,.25-.67,2.1,2.1,0,0,0,.21-.61c.07-.45-.22-.85-.57-.83a.81.81,0,0,0-.57.34c0,.06-.13.4-.31.78a3.92,3.92,0,0,0-.35.74,3.53,3.53,0,0,0-.07.87,2.83,2.83,0,0,0,.13.85,3.7,3.7,0,0,0,.31.63,3.25,3.25,0,0,0,.33.62,2.37,2.37,0,0,0,.48.44,2.41,2.41,0,0,0,.55.29.62.62,0,0,0,.19,0c.29,0,.54-.41.57-.75a1.62,1.62,0,0,0-.18-1A1,1,0,0,0,11.62,40.46ZM59.87,57.83c0-.26,0-.53,0-.81a4.38,4.38,0,0,0-.13-.78,5.63,5.63,0,0,0-.19-.76c-.08-.23-.13-.5-.24-.74a7.17,7.17,0,0,0-.35-.67c-.12-.21-.3-.36-.44-.58a7,7,0,0,0-.38-.63c-.14-.19-.25-.42-.41-.61s-.31-.35-.46-.54-.25-.43-.42-.61-.31-.34-.48-.51-.39-.22-.56-.39-.27-.41-.44-.58-.38-.22-.55-.38-.26-.44-.44-.6-.37-.24-.54-.4-.36-.27-.53-.42-.34-.4-.53-.55-.41-.28-.59-.43-.38-.33-.57-.48-.37-.35-.56-.49-.46-.16-.65-.31-.36-.37-.55-.51c.15-.2.27-.44.41-.65s.29-.41.43-.63.36-.33.5-.55.2-.51.33-.73.33-.39.45-.62.19-.51.31-.75.27-.43.39-.67.15-.53.26-.78.28-.44.38-.68l.3-.75c.09-.25.15-.53.24-.79s.3-.36.45-.56.3-.36.44-.56.25-.43.37-.65.24-.44.36-.66.21-.46.33-.68.25-.43.35-.66.19-.48.29-.72.21-.46.3-.7.23-.46.31-.7.14-.51.22-.75.12-.52.2-.77.23-.46.3-.71.16-.5.23-.75.17-.5.24-.75,0-.56.09-.8.16-.52.21-.76.1-.55.15-.78.14-.55.19-.77c.08-.44.16-.71.17-.77A1.39,1.39,0,0,0,58.9,23a.72.72,0,0,0-.71-.25c-.33.06-.33.09-.66.15s-.32.1-.65.16-.34,0-.67.1a1.15,1.15,0,0,1-.66,0c0-.29-.08-.54-.11-.82s0-.57,0-.85-.22-.52-.26-.8-.09-.55-.15-.82,0-.59-.07-.86-.11-.55-.18-.82-.21-.51-.28-.77-.2-.51-.28-.77-.14-.54-.23-.8-.12-.55-.22-.81-.22-.49-.32-.74-.16-.53-.27-.77-.23-.43-.35-.67c.17-.38.23-.29.47-.58s.17-.39.41-.69.32-.19.56-.48.21-.33.45-.62.26-.27.5-.57l.48-.57c.24-.3.23-.31.47-.6s.27-.26.51-.55.23-.31.47-.6.17-.39.41-.69.26-.26.5-.56a1,1,0,0,0,.26-.62,1.12,1.12,0,0,0-.17-.67.88.88,0,0,0-.44-.45c-.19,0-.36.1-.53.23s-.29.2-.57.42-.27.24-.55.45-.33.12-.61.33-.29.19-.57.41-.21.37-.49.59l-.56.41c-.28.22-.32.14-.6.36s-.3.18-.58.4l-.56.42c-.28.21-.27.24-.55.46s-.23.33-.55.43c-.13-.21-.27-.36-.42-.56s-.29-.4-.44-.6-.27-.43-.42-.62-.26-.45-.42-.64-.39-.26-.55-.45-.33-.35-.5-.52-.27-.45-.43-.62-.4-.23-.58-.39-.28-.43-.46-.59-.38-.27-.56-.41-.38-.25-.56-.39-.35-.34-.53-.47l-.57-.4c-.19-.13-.39-.2-.59-.32s-.39-.22-.59-.33S43,2,42.76,1.87s-.39-.24-.59-.33l-.6-.29L41,1C40.74,1,40.52,1,40.31.89L39.69.7,39.06.55,38.43.41c-.21,0-.4-.22-.62-.25s-.43,0-.64,0S36.75,0,36.53,0s-.43.14-.64.13-.43-.06-.64-.06S34.82,0,34.61,0L34,0c-.22,0-.43.1-.64.12L32.7.26c-.22,0-.43.08-.64.12l-.63.15c-.21,0-.43,0-.63.11s-.4.22-.61.28-.42.1-.63.17-.42.11-.62.2-.41.15-.61.24-.38.27-.58.38-.41.16-.61.27l-.58.34c-.19.11-.37.28-.56.41s-.37.26-.56.4-.36.29-.55.43-.35.3-.53.45-.36.31-.53.46-.39.25-.56.41-.33.36-.49.53l-.51.51c-.16.18-.3.39-.46.57s-.33.35-.49.54-.33.35-.48.55-.26.44-.4.64-.36.32-.51.53-.26.44-.39.65c-.32-.1-.29-.2-.57-.42s-.24-.3-.52-.52-.35-.07-.63-.28-.21-.36-.49-.57-.29-.2-.57-.42-.32-.13-.6-.35-.22-.34-.5-.56-.33-.11-.6-.33-.25-.28-.53-.5-.27-.25-.55-.47-.31-.14-.59-.36a.72.72,0,0,0-.56-.21c-.18,0-.3.29-.42.5a1.12,1.12,0,0,0-.15.65,1.09,1.09,0,0,0,.23.61c.24.29.18.37.42.66l.48.59c.24.29.32.19.56.48l.48.59c.24.29.19.36.43.65s.2.34.44.64l.48.59c.24.29.29.21.53.51s.19.36.43.66.29.23.53.52a1.7,1.7,0,0,1,.42.64c-.11.24-.18.44-.28.69s-.18.51-.29.77-.25.46-.34.72-.17.52-.26.78-.15.53-.23.8-.23.49-.3.76-.05.58-.12.85-.11.54-.18.81-.16.53-.22.8-.11.55-.15.83-.14.54-.19.82-.11.55-.14.83,0,.55,0,.83a1.07,1.07,0,0,1-.66,0C14,23.11,14,23,13.64,23s-.35,0-.68,0-.32-.1-.65-.16a.64.64,0,0,0-.66.27,1.22,1.22,0,0,0-.22.88c0,.06,0,.35.1.8.05.22.15.46.21.76s.1.5.16.77.08.52.14.79.13.5.2.76.11.52.18.78.17.48.24.74.13.51.21.76.21.47.29.72.12.51.21.76.2.48.29.72.24.44.34.67.22.46.33.69.19.47.31.7.19.48.31.7.28.4.41.61.21.47.34.67.27.43.41.62a5.79,5.79,0,0,0,.51.48c.1.3.22.58.33.87s.15.56.27.84L16.65,39c-.2-.07-.41-.07-.62-.14s-.4-.18-.6-.25c0,0,0-.07,0-.07-.17,0-.35-.07-.52-.12s-.29-.15-.46-.2c-.08-.27-.15-.51-.25-.76a6.91,6.91,0,0,0-.36-.72,5.29,5.29,0,0,0-.47-.59,6,6,0,0,0-.42-.65,6.38,6.38,0,0,0-.52-.52c-.12-.09-.28-.08-.41-.16a3.73,3.73,0,0,0-.54-.31c-.2-.09-.36-.29-.55-.34a3.21,3.21,0,0,0-.61-.09,3.11,3.11,0,0,0-.61,0,3.4,3.4,0,0,0-.57.29,2.8,2.8,0,0,0-.54.33A3.35,3.35,0,0,0,8,35a6.28,6.28,0,0,0-.49.43c-.14.17-.22.44-.35.63s-.34.29-.46.5a6.67,6.67,0,0,0-.31.66c-.11.22-.17.46-.27.7s-.13.48-.2.71-.24.44-.3.67-.06.52-.1.76-.1.5-.13.75,0,.51,0,.76a7.06,7.06,0,0,0,0,.79,6,6,0,0,0,.2.76,5.53,5.53,0,0,0,.24.72,5,5,0,0,0,.37.63,4.64,4.64,0,0,0,.33.67,5,5,0,0,0,.48.44,5,5,0,0,0,.52.38,4,4,0,0,0,.57.33,4.57,4.57,0,0,0,.61.16c.21.06.4.23.61.25a3.4,3.4,0,0,0,.63-.08c.21,0,.43.1.64,0a5.38,5.38,0,0,0,.6-.28c.16.14.31.34.47.48s.08,0,.12,0,.26.38.42.52l.06-.08c.17.16.38.25.55.4s.3.4.48.55.39.21.57.36.32.36.5.51.33.34.51.48.38.24.56.39.38.24.56.38.3.4.48.54.39.23.57.37.36.27.54.41l.53.45.54.42c.18.14.33.35.51.49l.54.43.53.43c.19.14.39.23.57.37s.33.36.5.5.41.2.58.34.33.31.51.44c.07.4,0,.4,0,.81s.1.4.1.8,0,.41,0,.81,0,.4,0,.81-.08.4-.07.81,0,.4,0,.81.06.4.06.8-.05.41-.05.81,0,.41,0,.81v.76c0,.38,0,.38,0,.76s0,.38,0,.76-.05.38-.05.76.1.39.09.77c0,.11-.11.39-.16.8,0,.23,0,.51,0,.83s-.05.52-.08.81,0,.53-.07.82-.13.52-.16.8-.08.53-.11.81.07.56,0,.84-.06.54-.1.81-.07.54-.1.82-.06.53-.09.81-.12.53-.15.8-.07.54-.1.82-.09.53-.12.8-.07.54-.1.82-.07.54-.11.81,0,.55-.06.82-.06.54-.1.81,0,.56,0,.83-.15.53-.18.8c0,0,.05.1.05.14,0,.22-.16.41-.19.63s0,.27,0,.4,0,.28,0,.41-.1.4-.12.6,0,.15,0,.23c0,.24-.12.47-.15.71,0,0,0,.11,0,.15,0,.26,0,.51-.07.75,0,0-.09.06-.09.1,0,.25,0,.52,0,.76,0,0-.08,0-.08.09,0,.24-.07.48-.1.72,0,0,0,.06,0,.09,0,.24-.1.47-.13.71a10.58,10.58,0,0,0,.09,1.71,2.79,2.79,0,0,0,.35.74,2.28,2.28,0,0,0,.55.47,2.9,2.9,0,0,0,.53.52c.09,0,.19,0,.29.07s.25.1.39.14l.13,0,.23.07c.08,0,.17,0,.25,0a1.78,1.78,0,0,1,.38.1l.23.05a.67.67,0,0,0,.24,0,1.09,1.09,0,0,0,.28-.08c.21-.07.44,0,.65-.11s.21-.09.31-.11.2,0,.29,0l.28-.11a1.48,1.48,0,0,0,.5-.37,4.84,4.84,0,0,0,.3-.44,4.73,4.73,0,0,1,.31-.43.7.7,0,0,0,.13-.17,1.79,1.79,0,0,1,.12-.24l.06-.12c.06-.12.1-.27.17-.4s0-.06,0-.08c.11-.2.24-.4.36-.62s.2-.44.32-.66.25-.39.37-.6.23-.42.35-.63.28-.38.39-.59.14-.51.25-.72.27-.39.39-.6.2-.45.31-.67.2-.44.31-.66l.1.08c.12-.22.16-.51.27-.73s.31-.38.42-.6.23-.44.34-.66.14-.53.25-.75.27-.41.38-.63.25-.43.36-.65.22-.46.32-.67.23-.46.34-.67.29-.42.39-.62.21-.53.3-.7c.32-.08.32,0,.65,0s.32,0,.64,0,.33-.13.65-.13.32.15.65.15.32,0,.64,0,.32-.11.64,0c.09.18.23.34.37.6s.17.46.3.7.19.45.31.69.28.39.4.62.17.47.29.7l.34.67c.11.21.33.34.44.57s.12.53.24.76.27.39.39.62.26.41.38.63l0,0c.12.22.3.37.41.58l.34.64c.12.22.14.51.25.72s.32.36.43.57.19.46.3.67.27.4.38.6.21.45.32.65.21.46.32.66.17.49.28.69c0,0,0,0,.05,0s.15.24.22.36,0,.09,0,.13.18.14.23.24,0,.1.06.14.11.29.18.41a2,2,0,0,0,.46.5,2.51,2.51,0,0,0,.53.37,2.73,2.73,0,0,0,.59.2,4.06,4.06,0,0,0,.59.19c.2,0,.41,0,.61,0a5.23,5.23,0,0,0,.69,0,3.78,3.78,0,0,0,.67-.23,3.56,3.56,0,0,0,.68-.15,8.26,8.26,0,0,0,1.08-1,2.93,2.93,0,0,0,.26-.79,3.43,3.43,0,0,0,.12-.8,4.71,4.71,0,0,0,0-.83c0-.22,0-.46-.08-.7a.57.57,0,0,0,0-.13c0-.23-.07-.45-.11-.68a.76.76,0,0,0,0-.15c0-.23-.05-.47-.08-.71,0,0,0-.1,0-.15,0-.24-.16-.46-.19-.7,0,0,.07-.13.06-.18l-.09-.72c0-.07-.11-.12-.12-.19s.05-.47,0-.69-.14-.18-.15-.29S50,83,50,82.82s-.07-.34-.09-.52-.12-.16-.13-.26c0-.27,0-.55-.06-.83s0-.56-.05-.84-.15-.53-.19-.8,0-.58,0-.85-.07-.55-.1-.82-.06-.56-.09-.83-.07-.55-.11-.83-.09-.55-.12-.82,0-.56-.06-.83-.09-.55-.12-.82-.12-.57-.15-.84a2.11,2.11,0,0,0,.35,0,2.23,2.23,0,0,0,.63,0,2.47,2.47,0,0,0,.64-.19c.19-.11.33-.36.52-.52a3.21,3.21,0,0,0,.49-.42,8.92,8.92,0,0,0,.76-1.18,5.74,5.74,0,0,0,.26-.69,6.49,6.49,0,0,0,.11-.77,6.31,6.31,0,0,0,.63-.35c.18-.13.32-.38.53-.54s.41-.22.61-.37l.57-.47c.19-.15.34-.39.52-.55s.4-.3.57-.46.38-.35.54-.52.31-.27.43-.42.21-.41.33-.56h0c.16-.18.34-.33.48-.52s.33-.35.47-.55a7.3,7.3,0,0,0,.36-.68c.13-.21.21-.47.33-.7s.2-.46.3-.7.24-.45.32-.7.15-.51.21-.77.06-.53.1-.81.12-.51.14-.79S59.87,58.11,59.87,57.83ZM55.5,30.74c0-.28,0-.57,0-.85s.06-.55.08-.83.09-.55.1-.83,0-.56,0-.84-.05-.56-.05-.84,0-.44,0-.67,0-.46,0-.68c.25-.15.28,0,.54,0l.54-.07c.26-.05.27-.3.53-.22l-.17.81c-.06.23-.08.5-.14.76s-.22.45-.29.71,0,.54-.09.8-.21.45-.28.7-.06.53-.14.78-.2.46-.29.7-.22.44-.31.68-.16.56-.26.79C55.36,31.34,55.47,31,55.5,30.74Zm-40.65.12c-.09-.24-.14-.49-.22-.73s-.17-.48-.24-.72-.14-.5-.21-.75-.13-.5-.19-.74-.22-.47-.28-.71-.14-.51-.2-.75-.11-.52-.17-.76-.08-.62-.12-.85c.26-.08.28,0,.55.09s.26.1.52.15a1.1,1.1,0,0,1,.51.19c0,.23,0,.38,0,.6s0,.45,0,.67.06.56.07.84,0,.56,0,.84,0,.56,0,.84.16.54.18.81.05.56.08.83,0,.57.06.85C15.07,31.32,14.94,31.1,14.85,30.86Zm37.38-15.2c.09.24.15.5.23.75s.14.51.22.75.16.5.23.75.23.46.29.72,0,.55.09.81.23.47.28.73.09.53.13.79,0,.54.08.8,0,.54.06.8.07.53.1.8.17.51.19.78-.08.54-.07.81,0,.53.06.8.09.54.09.8,0,.55,0,.82-.1.54-.11.81,0,.55-.06.82,0,.55,0,.82-.12.53-.15.8,0,.54-.07.81-.1.53-.15.79-.1.54-.16.8-.15.51-.21.77-.18.49-.25.75,0,.57-.09.82-.15.52-.23.77-.24.46-.33.7-.11.54-.2.78-.23.47-.33.7-.22.47-.33.7-.24.45-.35.68-.2.49-.31.71-.31.39-.43.61-.27.42-.4.63-.16.52-.3.73-.29.4-.43.6-.36.32-.5.51-.26.43-.41.62-.34.33-.49.51-.3.38-.46.56-.31.36-.48.53-.29.4-.46.56l-.51.47c-.18.16-.35.31-.53.45s-.37.27-.55.41l-.55.4-.55.38c-.19.12-.36.3-.55.42a6.45,6.45,0,0,1-.59.29c-.19.11-.38.22-.58.32s-.33.15-.53.24a2.4,2.4,0,0,1-.07-.81c0-.42,0-.42-.06-.84s-.09-.42-.11-.84.07-.43,0-.86,0-.42-.06-.84,0-.42-.06-.84-.08-.42-.11-.84,0-.42-.06-.85,0-.42-.06-.84,0-.43,0-.85a2.72,2.72,0,0,1,0-.85c.21-.05.43-.07.64-.13l.62-.19.63-.21c.2-.08.39-.22.6-.31s.43-.08.63-.18.37-.31.56-.41.41-.19.6-.31l.57-.36c.19-.12.36-.28.55-.41s.39-.21.57-.35.36-.3.53-.45.37-.27.54-.42.36-.31.52-.48l.5-.51c.16-.18.28-.42.43-.61s.36-.31.51-.51.26-.44.39-.65.29-.4.42-.62.21-.47.32-.69.26-.44.36-.67.17-.5.25-.74.17-.5.24-.74,0-.56.09-.81.17-.51.2-.76a7.18,7.18,0,0,0,0-.81,7.85,7.85,0,0,0,.11-.81,6.21,6.21,0,0,0-.21-.77,6.93,6.93,0,0,0-.26-.73,6.62,6.62,0,0,0-.24-.75,5.56,5.56,0,0,0-.35-.69,3,3,0,0,0-.5-.51,2.86,2.86,0,0,0-.56-.37,3.11,3.11,0,0,0-.61-.2A4.11,4.11,0,0,0,49,23a4.33,4.33,0,0,0-.62,0l-.62,0c-.2,0-.41.09-.62.13s-.39.16-.6.21-.42,0-.63.06-.37.24-.58.3l-.61.16c-.2.07-.39.16-.6.23s-.53,0-.78.11c.16-.36.25-.28.48-.56l.45-.56c.23-.28.27-.22.5-.49l.46-.56c.23-.28.19-.33.42-.6s.27-.23.49-.51.24-.27.46-.55.17-.36.4-.64.27-.22.49-.5.23-.29.46-.56.27-.23.49-.51.2-.32.43-.6.2-.31.43-.59.25-.25.48-.53.23-.27.46-.55.21-.3.44-.58.27-.22.5-.5.13-.45.41-.62c.11.23.26.44.35.68S52.14,15.42,52.23,15.66ZM46.46,65.81c-.15.14-.39-.07-.56-.07s-.3.08-.61.08-.31-.14-.61-.14-.31.13-.62.13-.3-.13-.61-.13H42.22c-.3,0-.3.06-.61.06H41c-.31,0-.31,0-.62,0a7.85,7.85,0,0,0-1,0,.29.29,0,0,1-.13,0,.38.38,0,0,1-.1-.21,3.46,3.46,0,0,1,0-.79v-.57c0-.06,0-.12,0-.18a.34.34,0,0,1,0-.12c.11-.26.34,0,.51,0s.43-.14.65-.14.31.06.61.06.31.1.62.1.3-.11.61-.11.31.09.61.09.31-.13.62-.13h.61c.31,0,.31,0,.61,0s.31.06.62.06h.61c.2,0,.33-.09.55,0l0,0a.18.18,0,0,1,0,.11c0,.32,0,.64,0,1S46.64,65.65,46.46,65.81Zm-7-10.89c-.07.39-.11.37-.19.76s0,.4-.1.78,0,.4-.12.79-.05.39-.12.77-.15.37-.22.75,0,.4-.11.79,0,.39-.12.78a3.13,3.13,0,0,0-.16.75c0,.41,0,.51-.22.75s-.31,0-.63,0-.33-.09-.65-.09-.32,0-.65,0-.32,0-.65,0-.32.11-.64.11-.33-.08-.65-.08h-.65c-.32,0-.32.08-.65.08s-.35.16-.61-.09-.15-.32-.23-.71,0-.4-.1-.78-.08-.39-.16-.77,0-.41-.08-.79-.11-.38-.19-.76-.08-.38-.16-.77-.14-.36-.21-.75,0-.4-.09-.79-.08-.38-.15-.77-.15-.36-.22-.75c0-.14-.33-.55-.22-.65s.16,0,.23,0,.22.28.36.43.3.19.56.46.29.21.54.48.24.29.5.56.25.27.5.54.2.36.45.63.3.2.56.47.22.32.47.59a.7.7,0,0,0,.52.19.74.74,0,0,0,.47-.28c.25-.27.3-.18.56-.45l.5-.54c.26-.27.21-.34.47-.61s.23-.3.48-.57.33-.15.58-.42.2-.36.45-.63.27-.25.52-.52c.1-.1.21-.35.34-.35s.15.13.14.24-.13.4-.16.6S39.55,54.74,39.51,54.92ZM33,63.74c.58-.25,1.3.21,1.9.21.34,0,.34-.07.68-.07.61,0,1.23-.07,1.85-.11a.18.18,0,0,1,.16,0l0,.06a.61.61,0,0,1,0,.14,8.92,8.92,0,0,0,0,1,.71.71,0,0,1-.11.62c-.23.32-.29.06-.63.06h-.67c-.34,0-.34-.06-.67-.06h-.68c-.33,0-.33.11-.67.11s-.8,0-1.21,0a.14.14,0,0,1-.11,0s0-.07-.07-.09-.05,0-.07,0,.06-.68.06-.83C32.84,64.41,32.6,63.92,33,63.74ZM31.38,64.8c-.05.22,0,.65-.17.8s-.8.08-1.09.08-.31.11-.61.11H28.28c-.31,0-.31-.14-.61-.14s-.31.08-.62.08-.3,0-.61,0-.31-.07-.61-.07-.31.06-.62.06a7.89,7.89,0,0,1-1.08.1.15.15,0,0,1-.12-.05.43.43,0,0,1,0-.23c0-.48,0-1,.05-1.46s.27-.23.58-.23.3-.13.61-.13.31.14.61.14.31-.07.62-.07.3,0,.61,0,.31,0,.61,0,.31-.11.62-.11.3,0,.61,0,.31.08.61.08.31-.05.62-.05a1.52,1.52,0,0,0,.6,0c.31-.09.4-.21.6.09A1.19,1.19,0,0,1,31.38,64.8Zm1.23-11.92c.22,0,.47,0,.69,0s.42.19.64.2.44-.11.66-.1.43.18.65.18l.66,0c.21,0,.43-.17.64-.18s.44,0,.66,0,.44,0,.65-.06a2.33,2.33,0,0,1-.5.58l-.52.55c-.26.28-.27.25-.53.53s-.24.32-.5.59-.22.48-.56.48-.23-.32-.49-.59-.26-.27-.53-.54-.27-.25-.53-.52-.22-.37-.5-.61S32.82,53.23,32.61,52.88Zm6.21-2.5c-.3,0-.3,0-.6.08s-.3,0-.6,0-.3,0-.6.06l-.59.11c-.3,0-.3.06-.59.12s-.29.14-.59.14-.29-.07-.59-.12-.29-.08-.59-.13-.3,0-.59-.1-.3,0-.6-.06-.29-.09-.59-.14-.31,0-.6,0-.27-.14-.41-.18-.34-.06-.5-.11a.43.43,0,0,1-.21-.11c-.17-.2-.07-.61,0-.84a3.47,3.47,0,0,0,.09-.73c0-.42-.05-.43,0-.85s0-.43,0-.86l0-.85c0-.43,0-.43.07-.85s.1-.42.12-.85,0-.43,0-.85,0-.43,0-.86.07-.42.1-.85-.14-.47,0-.87l.64.07c.2,0,.4.12.6.14s.4,0,.6,0,.4.06.61.07.4.11.6.12.4-.13.61-.13.4.12.6.12.41,0,.61,0,.4-.16.6-.17l.6-.05c.2,0,.41,0,.61,0s.4-.07.6-.1.4-.06.59-.09.47,0,.67,0c.12.4,0,.45,0,.88s0,.43,0,.86,0,.42,0,.85.11.42.13.84.06.43.08.85-.07.44,0,.86.11.42.14.85-.09.43-.07.86.12.42.14.84,0,.59.09.9a2.64,2.64,0,0,1,0,.69A.19.19,0,0,1,40,50l-.05,0A4.05,4.05,0,0,1,38.82,50.38Zm.84-11.73-.63.1c-.21,0-.42.08-.63.1s-.43,0-.63,0l-.63.06c-.22,0-.42.19-.62.2s-.44,0-.64,0-.44,0-.63,0-.4-.07-.63-.08-.41,0-.63,0-.42.06-.64,0-.41-.11-.62-.13-.43,0-.64,0-.41-.12-.62-.16-.4-.17-.62-.22-.42,0-.63-.07-.42,0-.63-.09-.4-.19-.6-.25-.42-.07-.63-.15l-.61-.22c-.2-.07-.4-.14-.6-.23s-.4-.19-.6-.29-.41-.15-.6-.25-.36-.31-.55-.42-.36-.29-.55-.41-.41-.16-.6-.3-.36-.28-.54-.43-.34-.33-.51-.49-.3-.39-.46-.56-.3-.38-.45-.57-.39-.26-.54-.46-.22-.48-.36-.69-.29-.39-.42-.61-.24-.41-.34-.62-.16-.49-.25-.71-.16-.47-.23-.7-.18-.46-.24-.7-.09-.51-.12-.74-.11-.53-.11-.76a3,3,0,0,1,.14-.75,6.53,6.53,0,0,1,.23-.88,2.25,2.25,0,0,1,.49-.68,1.55,1.55,0,0,1,.67-.32,2.56,2.56,0,0,1,.7,0,5.8,5.8,0,0,1,.59,0c.19,0,.39,0,.6,0s.39,0,.6.1.38.08.59.14.38.14.58.2.37.17.57.23L26,26c.21.07.44.1.66.17s.42.17.65.24l.65.19.65.2c.22.06.46.06.68.12.25.23.2.32.42.59l.46.55c.23.27.27.22.49.49s.17.35.4.63l.12.15a7,7,0,0,1-1.29,0,7.39,7.39,0,0,0-1.33,0h-.47c-.12,0-.84,0-.49.05-.87-.06-1.69-.21-2.57-.2s-1.71.12-2.57.18c-1.12.08-1.13,1.84,0,1.76.83,0,1.65-.17,2.48-.18h1.42l.32.05c.24,0,.49.1.73.12.8,0,1.59-.13,2.39,0A15.8,15.8,0,0,0,32.39,31a.86.86,0,0,0,.23-.05,1.42,1.42,0,0,0,.24.45c.23.28.29.2.51.47s.26.24.49.51a1.34,1.34,0,0,1,.2.4l-.15,0-.31,0A8.55,8.55,0,0,0,32,32.7a18.12,18.12,0,0,0-2.76.07c-.14,0-.69.06-.57.08l-.87-.08c-.4,0-.81,0-1.22,0-1,0-1.93,0-2.9,0-1.13,0-1.13,1.71,0,1.77,1,0,1.93,0,2.9,0a18.1,18.1,0,0,0,2.85,0,3.07,3.07,0,0,1,.42-.07H30c.28,0,.56,0,.84,0s.85,0,1.28,0c.09,0,.7,0,.68,0,.26,0,.52.11.78.13a5.34,5.34,0,0,0,1.59-.16l.13,0a1,1,0,0,0,.4.11c1,0,1.93,0,2.9,0a18.09,18.09,0,0,0,2.85,0,3.07,3.07,0,0,1,.42-.07h.11c.28,0,.56,0,.83,0,.43,0,.86,0,1.29,0,.09,0,.69,0,.67,0,.27,0,.53.11.79.13a5.34,5.34,0,0,0,1.59-.16c1.12-.19.65-1.9-.47-1.7a6.54,6.54,0,0,0-.75.13l-.31,0A8.55,8.55,0,0,0,44,32.7a18.12,18.12,0,0,0-2.76.07c-.14,0-.69.06-.57.08l-.87-.08c-.4,0-.81,0-1.22,0-.69,0-1.37,0-2.05,0a1.13,1.13,0,0,0,.21-.22c.22-.27.18-.33.41-.61s.18-.33.41-.6.27-.21.5-.49l0,0a.83.83,0,0,0,.74.48,7.69,7.69,0,0,0,1.27,0c.26,0,.51-.12.77-.15,0,0,0,0,0,0a2.71,2.71,0,0,1,.4,0,20.36,20.36,0,0,0,2.47,0c1.64,0,3.34.16,5,0,1.11-.13,1.12-1.9,0-1.77a48.25,48.25,0,0,1-5,0,17.19,17.19,0,0,1-2.38,0,4.47,4.47,0,0,0-1.41.08l-.24,0h-.16l-.44,0a4.34,4.34,0,0,0,.29-.33l.45-.56c.22-.27.25-.23.48-.51s.21-.29.44-.57a3.35,3.35,0,0,1,.46-.52c.23-.05.39-.28.61-.33s.46,0,.68,0,.42-.24.64-.3l.65-.21c.22-.07.46,0,.67-.07s.41-.21.61-.27l.63-.19c.21-.06.43,0,.63-.1s.42-.19.62-.24.43-.08.63-.11.44-.08.63-.1a5.1,5.1,0,0,1,.64,0,2.24,2.24,0,0,1,.61.26,1.42,1.42,0,0,1,.57.33,2.55,2.55,0,0,1,.35.68,4.83,4.83,0,0,1,.27.74,3,3,0,0,1,.14.75c0,.23-.12.48-.15.75a6.89,6.89,0,0,1,0,.78c-.06.23-.14.47-.22.72s-.18.44-.28.68-.14.47-.25.7-.3.34-.42.56-.2.49-.33.7-.27.43-.41.63-.36.3-.52.48-.24.48-.4.65-.4.23-.57.39-.32.37-.49.52-.33.36-.51.49-.4.21-.58.33-.35.32-.54.44-.42.13-.61.24-.39.21-.59.3-.39.21-.59.29-.38.25-.58.33-.42.12-.62.19l-.62.18c-.21.06-.41.13-.62.18s-.4.17-.61.22S39.86,38.61,39.66,38.65ZM21.33,10.08c.14-.2.22-.47.37-.67s.28-.41.43-.6.35-.31.5-.49l.47-.55c.16-.17.35-.31.51-.47s.33-.33.5-.49l.52-.46c.17-.15.29-.42.47-.56s.41-.18.59-.32.31-.37.5-.5.39-.21.57-.34.41-.14.6-.25.33-.37.53-.48.43-.06.63-.16.37-.23.57-.32.38-.24.58-.32.39-.21.6-.28.43,0,.63-.07.4-.19.6-.25.4-.16.61-.21.42,0,.63,0l.63-.11c.2,0,.42,0,.63,0s.41-.1.62-.11S35,2,35.25,2s.42.18.63.19.42-.1.63-.08.41.15.62.18.42,0,.63,0,.42,0,.63.07.39.22.6.27.42,0,.63.08l.61.21c.2.07.4.16.6.24l.59.26c.2.09.41.15.6.25s.37.26.56.37.37.27.56.38.42.13.6.25.39.23.57.36.34.33.52.47.37.24.55.38.37.26.54.42.33.35.5.51.32.34.49.51.35.3.51.47.33.34.49.52.23.48.38.66.37.29.52.48.25.44.39.64.25.36.39.57a1.49,1.49,0,0,1-.48.54c-.28.22-.3.17-.58.39s-.29.19-.56.4-.27.24-.54.46-.31.15-.59.36-.26.23-.54.45l-.56.42c-.28.21-.24.28-.52.5s-.27.23-.54.44-.31.15-.59.36-.24.29-.52.5-.31.14-.59.36-.29.17-.57.38-.24.29-.52.51-.26.23-.54.45-.31.15-.58.36-.26.26-.54.47l-.54.45c-.28.21-.31.14-.59.36s-.27.23-.54.44l-.56.42c-.28.22-.25.28-.53.5s-.29.17-.57.39-.28.19-.56.41l-.55.42c-.28.22-.22.56-.54.56s-.28-.28-.56-.5-.23-.31-.51-.52-.32-.11-.6-.33-.23-.32-.5-.53-.34-.08-.62-.29l-.55-.43c-.28-.21-.26-.26-.53-.48s-.26-.27-.53-.48-.3-.16-.58-.38-.24-.3-.51-.51-.33-.11-.6-.33-.27-.24-.54-.46l-.56-.42c-.27-.22-.3-.16-.58-.38s-.26-.25-.53-.46-.23-.31-.51-.53l-.56-.42c-.27-.21-.3-.16-.57-.38s-.29-.18-.57-.4-.23-.31-.51-.53-.33-.09-.61-.31-.25-.25-.53-.47-.24-.29-.52-.51-.33-.08-.61-.3l-.56-.42c-.27-.22-.33-.16-.54-.48C21,10.45,21.19,10.28,21.33,10.08Zm-2.46,1.24a.08.08,0,0,1,.08,0,6.31,6.31,0,0,1,1.09.87,3.25,3.25,0,0,0,.46.45c.14.09.27.2.4.3s.28.19.55.4l.53.43c.26.21.28.17.55.37s.24.28.51.49.23.29.5.5l.53.42c.27.21.34.07.6.28s.25.26.52.47.29.16.56.37.23.29.5.5.25.23.52.44.32.09.59.3.26.23.53.44.23.3.49.51.26.23.53.44.29.16.56.37.3.15.57.35.25.24.52.45.29.17.55.38.22.33.49.54.31.12.57.33.26.23.53.44.28.18.55.39.23.3.5.51.27.19.54.41.28.17.55.38a.63.63,0,0,0,.8,0l.53-.43L36.7,23c.27-.21.29-.17.56-.38s.28-.18.55-.39.25-.23.52-.44.28-.19.55-.4.22-.3.49-.51.31-.12.58-.33.26-.23.53-.43.24-.26.51-.47l.55-.41c.26-.21.26-.23.52-.43s.29-.17.56-.38.26-.23.53-.44.29-.16.56-.37.26-.23.52-.44.26-.24.53-.45.3-.14.56-.35.27-.21.54-.42.24-.28.5-.49.3-.14.57-.35.29-.16.56-.37.25-.24.52-.45l.55-.41.53-.42c.27-.21.24-.27.51-.48l.54-.41c.27-.21.24-.26.51-.47a3.71,3.71,0,0,0,.32-.23c.1-.09.19-.21.29-.31a2.85,2.85,0,0,1,.57-.48.5.5,0,0,1-.11.37l-.29.45a3.71,3.71,0,0,1-.23.32,2.43,2.43,0,0,1-.26.29c-.21.21-.42.45-.64.64s-.21.34-.33.48-.3.18-.53.46-.19.33-.42.61-.19.33-.42.61-.32.15-.55.43-.17.37-.4.65-.29.19-.52.47-.14.4-.37.68-.31.17-.54.45-.22.3-.45.58-.18.34-.41.62-.29.19-.52.47l-.46.57c-.23.28-.15.39-.37.67s-.31.17-.54.45L43,21.9c-.23.28-.24.27-.47.55s-.19.32-.42.6-.21.3-.44.58-.21.31-.44.59-.29.21-.52.49-.24.26-.46.54-.21.32-.44.6-.17.35-.4.63-.3.19-.53.47-.17.35-.4.63-.26.25-.49.53-.26.24-.49.52-.17.36-.4.64-.24.26-.47.54-.24.26-.47.54-.22.3-.45.58-.15.49-.47.49-.23-.22-.46-.5-.27-.22-.5-.5-.17-.36-.4-.64-.29-.2-.52-.48-.22-.29-.44-.57l-.46-.57c-.23-.28-.16-.38-.39-.66s-.25-.25-.47-.53l-.46-.57c-.22-.28-.3-.17-.53-.45s-.14-.4-.37-.68-.28-.22-.51-.5-.26-.23-.49-.51-.24-.27-.47-.55-.18-.34-.41-.62-.21-.31-.44-.59-.2-.32-.43-.6-.29-.19-.52-.47-.18-.34-.41-.62-.22-.3-.45-.58-.31-.17-.54-.45-.22-.29-.45-.57-.16-.37-.39-.64-.27-.24-.5-.52-.25-.24-.48-.52-.18-.36-.41-.64-.28-.2-.51-.48-.18-.35-.41-.63-.2-.32-.43-.6-.27-.23-.5-.51-.21-.3-.44-.58-.29-.2-.52-.48-.21-.31-.44-.59l-.27-.38a3.58,3.58,0,0,0-.43-.44,1.78,1.78,0,0,1-.54-.72C18.84,11.43,18.83,11.35,18.87,11.32ZM17,33c-.05-.26-.05-.55-.09-.81s-.14-.52-.18-.79,0-.55,0-.82-.08-.54-.11-.81-.06-.53-.08-.8,0-.54,0-.82-.11-.53-.12-.81v-.82c0-.26,0-.53,0-.8s.11-.53.12-.8,0-.53,0-.8,0-.54,0-.81.05-.53.09-.79.14-.51.18-.78.06-.53.1-.79.06-.53.11-.79.16-.5.22-.76.14-.5.2-.76.11-.51.18-.77.18-.48.26-.73.12-.52.2-.76.17-.49.26-.73.14-.51.24-.75.25-.42.35-.65c.29.17.23.27.46.55s.26.23.49.51.18.34.4.62.26.24.49.52.27.22.49.5.14.4.37.68.29.19.52.47.24.26.47.54.17.36.39.64.23.29.46.56l.45.56c.23.28.25.25.48.53s.24.27.46.54.26.25.49.53.18.34.4.62.25.26.47.54.22.29.45.57.3.2.45.55l-.71-.18c-.2-.07-.38-.24-.58-.3s-.43,0-.63,0-.4-.15-.6-.2-.39-.25-.59-.3-.42-.06-.62-.1-.42-.09-.62-.11-.42,0-.62,0-.42,0-.62,0a2.9,2.9,0,0,0-1.22.42,2.55,2.55,0,0,0-.56.36,3.09,3.09,0,0,0-.47.54,3.87,3.87,0,0,0-.42.61,6.35,6.35,0,0,0-.28.74,7.55,7.55,0,0,0-.23.76,6.2,6.2,0,0,0-.13.79,7.09,7.09,0,0,0,0,.81,7.82,7.82,0,0,0,.17.78c0,.26,0,.54.05.8s.11.52.18.78.16.49.25.73.18.48.28.72.14.51.26.74.23.45.35.67.33.36.46.58.27.42.41.62.33.35.48.54.31.37.47.55.31.37.47.54.3.4.47.56.36.29.54.44.38.24.56.38.32.39.5.52.43.12.62.24.37.28.56.39.39.22.59.33.39.21.6.3l.6.27c.21.09.43.1.63.18l.62.23.62.2c.21.06.43.17.64.23.07.41-.05.42-.08.85s0,.42-.05.84-.07.42-.09.84.1.43.08.86-.1.41-.13.83,0,.43,0,.85-.06.42-.09.84-.05.42-.08.84,0,.43,0,.85-.05.42-.07.85.09.44,0,.83c-.2-.09-.37-.15-.57-.25s-.4-.17-.59-.28-.35-.31-.54-.42-.37-.27-.55-.4-.42-.13-.61-.26-.38-.24-.56-.38-.34-.33-.52-.48l-.52-.44c-.18-.16-.36-.29-.53-.45s-.26-.46-.42-.63-.36-.29-.52-.47-.31-.37-.46-.55-.33-.35-.48-.53-.26-.43-.41-.63-.32-.35-.46-.55-.34-.35-.47-.56-.19-.5-.32-.72-.3-.38-.43-.6-.21-.47-.33-.69-.23-.46-.34-.69-.2-.47-.31-.71-.19-.48-.29-.72-.23-.45-.33-.7-.24-.45-.33-.7-.13-.52-.21-.77-.18-.49-.26-.74-.2-.49-.27-.75,0-.56-.07-.82S17,33.29,17,33Zm0,12.16c-.12.36-.2.32-.33.68s-.07.39-.2.75l-.26.71c-.13.36-.08.39-.3.67-.18-.15-.29-.3-.46-.45l-.54-.45c-.18-.15-.42-.19-.59-.34s-.35-.33-.52-.48l-.54-.46s0-.12,0-.14-.3-.17-.44-.29l-.09-.08c-.13-.11-.25-.24-.38-.36s0-.12,0-.15a3,3,0,0,0-.9-.46.53.53,0,0,0-.17,0,2.65,2.65,0,0,0-.71.18c-.18.05-.36.21-.55.22a2.81,2.81,0,0,1-.58,0,2.92,2.92,0,0,1-.56-.21,4.4,4.4,0,0,1-.5-.38,2.94,2.94,0,0,1-.62-.46,2.84,2.84,0,0,1-.44-.73A3.5,3.5,0,0,1,7,42c0-.11,0-.22,0-.35a4.44,4.44,0,0,1,0-.74c0-.24.06-.48.11-.73s.2-.43.28-.67,0-.5.14-.73.21-.51.32-.73a4.3,4.3,0,0,1,.45-.62,4.8,4.8,0,0,1,.45-.59,3.15,3.15,0,0,1,.51-.52,2,2,0,0,1,.7-.26,1.61,1.61,0,0,1,.71.12,2.15,2.15,0,0,1,.68.31,2.86,2.86,0,0,1,.48.38,3.34,3.34,0,0,1,.44.48,4.42,4.42,0,0,1,.32.61,3.86,3.86,0,0,1,.22.68,3.75,3.75,0,0,1,.28.65.93.93,0,0,0,.55.78c.17,0,.33.14.5.19s.35,0,.52.11.2.13.31.17.52,0,.77.14c.1,0,.17.14.27.17s.32.08.49.14l.48.14c.09,0,.18,0,.26,0,.29.1.57.27.86.38,0,0,.07,0,.1,0-.11.37-.17.33-.3.69l-.26.71c-.12.36-.08.39-.2.75s-.09.38-.22.74S17,44.84,16.91,45.19Zm5.55,8.18c-.17-.14-.33-.31-.52-.46s-.37-.21-.55-.36-.34-.3-.52-.45-.31-.35-.49-.49-.4-.18-.57-.32-.37-.24-.55-.38-.3-.39-.48-.53L18.25,50c-.17-.14-.36-.25-.54-.4s-.41-.28-.58-.43c0-.41.18-.37.31-.74s.08-.41.21-.78.21-.34.34-.71.06-.42.19-.79.16-.36.29-.74.21-.33.35-.7.07-.41.21-.78a1.72,1.72,0,0,1,.31-.7c.14.22.19.43.34.65l.43.62c.15.21.33.38.48.58l.45.61c.16.19.37.3.53.49l.48.57c.17.18.34.34.51.51s.29.44.46.61l.54.48c.17.16.35.32.54.47s.39.23.58.38.31.42.5.56.42.17.61.31l.57.39c.2.13.4.24.59.35s.4.22.6.32.41.18.62.28.45.2.65.29c.15.36,0,.44.06.83s0,.41.12.8.18.35.26.74.09.39.17.78,0,.42.05.81.13.37.21.76.13.38.2.77,0,.42.07.81.11.38.19.77,0,.4.1.79.16.36.24.76,0,.41.08.8.38.48.19.8-.33-.07-.63-.07-.31.13-.62.13-.31-.16-.61-.16l-.62,0c-.31,0-.31.06-.61.06s-.31.06-.62.06-.3-.06-.61-.06-.31-.07-.62-.07h-.61c-.31,0-.31.16-.62.16s-.4.2-.61-.09,0-.42,0-.85,0-.43,0-.86v-.85c0-.43,0-.43,0-.86s0-.43,0-.86-.11-.42-.11-.85.12-.43.12-.86-.08-.43-.08-.86a1.14,1.14,0,0,0-.36-.88c-.17-.13-.32-.32-.51-.46S22.64,53.51,22.46,53.37Zm5,31.91-.34.64c-.12.22-.33.35-.44.57,0,0,0,.08,0,.1-.09.18-.21.33-.31.5s-.14.19-.19.3a3.24,3.24,0,0,0-.17.32c-.07.13-.11.29-.18.42l-.13.23c-.09.15-.13.34-.21.48s0,.09-.07.14-.23.28-.31.44,0,.1,0,.13c-.1.18-.28.27-.37.44a1.06,1.06,0,0,1-.55.33,3.24,3.24,0,0,1-.62.19,3.51,3.51,0,0,1-.65,0,3.41,3.41,0,0,1-.64-.1,2.52,2.52,0,0,1-.59-.36,1.25,1.25,0,0,1-.42-.4,1.23,1.23,0,0,1,.05-.65c0-.2,0-.42,0-.62,0,0,0-.07,0-.1,0-.19,0-.4.07-.6a.29.29,0,0,0,0-.1c0-.2.08-.4.1-.6a.57.57,0,0,0,0-.13c0-.2,0-.41.06-.61s.1-.08.1-.13,0-.4.07-.6,0-.14,0-.21,0-.32.05-.48,0-.27,0-.39.11-.16.12-.24c.05-.37.07-.76.12-1.14.17.09.37.26.6.36s.42,0,.64.13.37.3.59.38.43,0,.65.08.42.07.63.13.41.16.63.2.41.19.63.22l.64,0c.22,0,.42,0,.64,0C27.65,84.81,27.6,85.06,27.48,85.28Zm14.89-2.76c-.22,0-.44,0-.66,0,0,0,0,.07,0,.07l0-.07c-.12-.23-.31-.38-.43-.59s-.16-.51-.27-.72-.29-.4-.41-.61-.19-.49-.3-.7-.2-.48-.31-.69-.3-.39-.41-.6-.22-.47-.33-.68-.18-.51-.28-.71-.31-.42-.41-.6a2.85,2.85,0,0,1-.27-.72.74.74,0,0,0-.68-.38c-.34,0-.34-.06-.68-.06h-.67c-.34,0-.34-.07-.67-.07s-.34,0-.67,0h-.68c-.33,0-.33,0-.67,0s-.34.07-.68.07a.66.66,0,0,0-.6.42s-.11.27-.33.68c-.09.19-.22.4-.35.65s-.28.37-.4.61-.24.41-.36.64-.19.47-.31.7-.19.46-.31.69-.29.37-.41.6l-.34.66c-.12.22-.16.5-.28.72s-.31.37-.43.59h.06s0,.15,0,.15c-.22,0-.44-.06-.66-.06s-.44.07-.66.06l-.66-.08c-.22,0-.43-.16-.64-.2l-.65-.13c-.22,0-.42-.16-.63-.23a6,6,0,0,1-.64-.17l-.63-.24c-.23-.1-.47-.07-.65-.16a6,6,0,0,1-.59-.39c0-.28.14-.54.17-.81l.09-.84c0-.28-.06-.58,0-.86s.19-.53.23-.8,0-.57,0-.85.11-.54.14-.82.05-.56.08-.83,0-.58,0-.85.13-.55.16-.82.07-.56.1-.83,0-.58,0-.85.19-.55.22-.81,0-.58.07-.84,0-.59,0-.85.07-.58.1-.83.13-.54.15-.77c.3-.11.3,0,.62,0s.31,0,.63,0,.32-.1.63-.1.32.09.63.09.32,0,.63,0,.32-.06.63-.06.32.11.63.11h.63c.32,0,.32,0,.64,0s.31-.08.63-.08.31,0,.63,0,.31,0,.63,0,.31,0,.63,0,.32.11.63.11.32-.12.63-.12.32.06.63.06.32-.1.63-.1.32.18.64.18.31,0,.63,0,.31-.09.63-.09h.63c.31,0,.31.06.63.06s.32-.1.63-.1.32.11.63.11.32,0,.63,0,.32-.09.63-.09.32.09.64.09.31.08.63.08.31-.08.63-.08.31.05.63.05.32-.12.63-.12.32.15.63.15.32-.11.63-.11.32,0,.64,0,.31.06.63.06.33-.19.64-.08c0,.24,0,.54.07.86s.07.53.1.83.09.53.13.83-.05.56,0,.85.08.54.11.83.16.53.19.81.08.55.11.83,0,.57,0,.85.13.54.16.82.1.55.13.83-.06.57,0,.85.13.54.17.82,0,.56.08.84.1.54.13.82.1.55.14.83,0,.58,0,.85a6.62,6.62,0,0,1-.61.36c-.18.09-.43,0-.66.14s-.38.28-.6.36-.42.15-.64.21l-.64.18-.65.13c-.22,0-.44,0-.66,0s-.43,0-.66,0S42.59,82.52,42.37,82.52ZM48.09,62c0-.42,0-.42,0-.85s.08-.42.08-.84-.11-.42-.11-.85-.18-.56.11-.76.22.17.49.4l.54.45c.27.23.29.19.56.42s.34.13.55.45c-.14.17-.33.36-.51.6s-.33.39-.49.62-.21.53-.36.76-.3.43-.43.67-.34.47-.46.71c-.09-.45.11-.47.11-.94S48.09,62.45,48.09,62Zm.68,23.52c0,.18,0,.35,0,.52s0,.13.06.2,0,.4,0,.59,0,.11,0,.16c0,.2.15.36.18.56,0,0,0,.08,0,.13s0,.39,0,.58c0,0-.08.09-.08.12l.09.61a1,1,0,0,1,0,.62c-.07.15-.21.23-.41.36a2.06,2.06,0,0,1-.59.25c-.21.06-.4.25-.61.27a2.61,2.61,0,0,1-1.27-.24,1.07,1.07,0,0,1-.84-.6,2.81,2.81,0,0,0-.1-.31,4,4,0,0,0-.33-.53,12.43,12.43,0,0,1-.64-1.12c0-.07,0-.19-.05-.25s-.22-.24-.29-.39-.09-.25-.15-.36-.16-.18-.22-.29-.13-.4-.22-.58a1.74,1.74,0,0,1-.1-.19c-.09-.18-.19-.36-.29-.54s-.17-.33-.27-.51c.22,0,.41-.06.62-.08s.43,0,.64-.07.44,0,.65,0,.42-.14.63-.19l.63-.17c.22-.06.43-.11.63-.18s.43-.14.62-.22l.62-.24c.23-.11.44-.33.62-.42,0,.21,0,.5,0,.71s.09.4.12.61c0,0,0,0,0,0,0,.2.11.38.13.57s0,.21,0,.31S48.76,85.45,48.77,85.55Zm6.7-21.21c-.14.15-.31.3-.48.47l-.49.43c-.17.14-.36.22-.53.36s-.35.24-.52.38-.31.33-.48.46-.36.25-.52.37l-.51.38a6.12,6.12,0,0,1-.54.33,1.15,1.15,0,0,0-.35.8,5,5,0,0,1-.19.87,4,4,0,0,1-.38.74,3.24,3.24,0,0,1-.5.59c-.2.17-.36.4-.57.47s-.45-.07-.66-.13a.54.54,0,0,1-.26-.21,5.24,5.24,0,0,1,0-.72s-.05-.06-.05-.09a6,6,0,0,1,0-.84,7.79,7.79,0,0,1,0-.84,7.55,7.55,0,0,1,.13-.83c0-.28.1-.56.17-.82a5.9,5.9,0,0,1,.28-.75c.11-.26.18-.54.3-.77s.23-.5.35-.73.3-.43.44-.65.28-.46.42-.66.29-.47.43-.65a6.54,6.54,0,0,1,.53-.53,4.38,4.38,0,0,1,.65.11c.19.07.39.21.62.31s.38.25.6.36.43.1.64.22.4.22.6.35.38.27.57.41.35.32.55.47C55.59,64.1,55.56,64.25,55.47,64.34ZM58.32,58a7.45,7.45,0,0,1,0,.83c0,.29,0,.59-.06.86a6.17,6.17,0,0,1-.3.75c-.09.26-.14.55-.25.79s-.24.47-.38.7-.3.37-.45.59l-.54-.45c-.2-.15-.4-.26-.59-.39l-.59-.39c-.2-.12-.42-.2-.61-.31s-.39-.33-.58-.42-.43-.19-.63-.28-.47,0-.66-.11c0,0,0-.17,0-.19-.27-.23-.28-.21-.55-.43l-.53-.45c-.27-.22-.29-.18-.56-.4s-.22-.32-.49-.54l-.54-.45-.52-.46c-.27-.23-.28-.21-.55-.44s-.33-.09-.6-.32-.21-.33-.48-.55-.29,0-.44,0-.27-.11-.38,0a1.22,1.22,0,0,0-.44.93v.84c0,.42,0,.42,0,.84s.08.42.08.84,0,.42,0,.85-.06.42-.06.84.2.49,0,.8-.27.07-.58.07-.31-.1-.62-.1-.3.14-.61.14-.31,0-.62,0-.3-.1-.61-.1h-.61c-.31,0-.31.11-.62.11s-.31.07-.61.07-.31-.06-.62-.06h-.61c-.31,0-.44.3-.63,0s.13-.39.21-.78,0-.39.13-.78,0-.42.09-.81l.14-.78c.08-.39.16-.36.24-.75s.06-.4.13-.79,0-.41.1-.8.11-.38.19-.77,0-.41.09-.8.13-.37.21-.76.06-.4.13-.79.14-.37.22-.76a2.4,2.4,0,0,1,.16-.76c.19-.09.32-.29.51-.39s.42-.08.61-.18.4-.19.59-.3.35-.29.54-.41.41-.14.6-.26.32-.36.5-.49.41-.17.59-.31.31-.36.49-.51.34-.31.51-.46.4-.21.56-.37.31-.38.47-.54l.49-.51c.16-.17.32-.26.48-.43.19.13.36.19.55.33l.56.43c.18.14.39.24.57.39s.35.34.53.49l.55.45c.18.15.4.22.58.38s.37.28.55.44l.55.46c.17.16.29.43.47.59s.4.23.58.4l.52.5c.17.17.31.39.48.57s.33.37.49.54.29.44.44.62.34.37.49.56.31.39.45.59.35.37.48.58a6.84,6.84,0,0,1,.4.66,4.59,4.59,0,0,1,.3.76,3.28,3.28,0,0,1,.16.83A7.76,7.76,0,0,1,58.32,58ZM40.53,36a20.52,20.52,0,0,1-2.48,0,6,6,0,0,0-1.4.1l-.19,0-.21-.05c-.21,0-.45,0-.67,0a43,43,0,0,0-4.95.09c-1.13.07-1.14,1.84,0,1.76a45.43,45.43,0,0,1,4.95-.09,9,9,0,0,0,1.27.05c.26,0,.52-.11.79-.13s.07,0,0,0a2.19,2.19,0,0,1,.36,0,18.38,18.38,0,0,0,2.57,0C41.66,37.71,41.67,35.94,40.53,36Z"/><ellipse class="cls-2" cx="21.71" cy="27.58" rx="0.93" ry="1.21"/><path class="cls-2" d="M41.68,9.29a2.64,2.64,0,0,0-.63,0,3.55,3.55,0,0,0-.44,0c-.08,0-.09,0-.06,0a1.86,1.86,0,0,0-.34-.05,1.77,1.77,0,0,0-.56,0l-.42,0c-.17,0,.24,0,0,0H39l-.27,0a5.71,5.71,0,0,0-.58,0h0l-.18,0c-.29,0,.13,0,0,0a3.8,3.8,0,0,0-.67,0c-1.28.11-1.3,2.13,0,2,.37,0,.11,0,.53,0a2.44,2.44,0,0,0,.54,0l.2,0h0l.1.25a3.4,3.4,0,0,0,.06.39,2.43,2.43,0,0,1-.17,1.1c0,.05-.12.26-.13.31a.9.9,0,0,1-.2.19c-.35.31-.46.26-.93.22-1.29-.1-1.29,1.91,0,2a2.93,2.93,0,0,0,3-1.79q.13-.36.24-.75c1.08,0,1.93-1.35,2-2.3C42.59,10.23,42.42,9.49,41.68,9.29ZM40.81,12c-.27,0-.49-.14-.49-.31s.22-.31.49-.31.48.14.48.31S41.07,12,40.81,12Zm.42-.73h0C41.3,11.28,41.35,11.31,41.23,11.27ZM31,11.28Zm7.19-2c.16,0,0,0,0,0Zm-3.79,4.49H33a1.18,1.18,0,0,0,0-.19.52.52,0,0,0,0-.21s0-.06,0-.09a2,2,0,0,0,0-1c0-.13,0-.27,0-.4,0,.05,0,.06.05,0a.75.75,0,0,0,0-.42l0-.15h.78a1,1,0,0,0,0-2h-.62a2.58,2.58,0,0,0-.4,0,1.34,1.34,0,0,0-.44.06l-.07,0a2.63,2.63,0,0,0-.42-.06h-.15l-.25,0a1.33,1.33,0,0,0-.36,0,2.63,2.63,0,0,0-.49,0,2.57,2.57,0,0,0-.78.06c-1.28.24-.74,2.18.53,1.95h.06l.2,0H31a1,1,0,0,0,0,.25,1.55,1.55,0,0,0,0,.31c0,.11,0,.62,0,.31a4.65,4.65,0,0,0,0,.63.36.36,0,0,1,0,.11,2,2,0,0,0,0,.61c0,.17,0-.24,0,.05a.85.85,0,0,0,0,.23.07.07,0,0,1,0,.05h-.17a2.92,2.92,0,0,1-.34-.08l-.24,0c.06,0,0,0-.29,0a1.07,1.07,0,0,0-.31.06h0a1,1,0,0,0,0,2,1.53,1.53,0,0,0,.43,0h.1a1.22,1.22,0,0,0,.31,0l.3,0a3.05,3.05,0,0,0,.8-.05c-.76.16,0,0,.26,0s-.09,0,.22,0h0c.15,0,.25,0,.4,0h.62l1.28,0A1,1,0,0,0,34.35,13.77Zm-4.4.05.18,0Zm2.54-4.5h0Z"/><path class="cls-2" d="M10.77,52.44l.07.07-.11,0v0A.08.08,0,0,1,10.77,52.44Z"/><path class="cls-12" d="M.14,25.92A7.36,7.36,0,0,1,0,24.11c0-.06.09,0,.13,0a8.62,8.62,0,0,1,.78.44l.69.41a.49.49,0,0,1,.14.11c.13.37.45.44.77.51l.28.07c.43.23.84.49,1.26.73.7.39,1.38.8,2.08,1.2a4.08,4.08,0,0,1,.57.34s.06,0,.06.07a.18.18,0,0,0-.06.19c.07.4.13.8.2,1.2s.17.95.26,1.42c0,.28.11.56.17.83.16.76.32,1.51.5,2.27.13.55.27,1.11.4,1.66.21.83.44,1.66.68,2.49s.43,1.45.65,2.18c.17.53.34,1.06.52,1.58.25.72.5,1.43.76,2.14s.45,1.14.66,1.72a.16.16,0,0,0,.16.12,2.88,2.88,0,0,1,1.63,1,2.93,2.93,0,0,1,.61,1.34A4.32,4.32,0,0,1,14,49s-.09,0-.14,0c-.5-.26-1-.57-1.47-.85-.79-.44-1.57-.91-2.36-1.37l-.8-.45s-.12,0-.11-.12A.71.71,0,0,1,9.32,46c.14-.07.15-.1.09-.25a.8.8,0,0,1-.07-.2s0-.08,0-.11a1.86,1.86,0,0,1,.47-.16.6.6,0,0,0,.34-.22.62.62,0,0,0,.11-.48,2.44,2.44,0,0,0-.06-.26q-2-7.1-3.92-14.18a1.73,1.73,0,0,0-.11-.32.56.56,0,0,0-.65-.32,2.67,2.67,0,0,0-.78.27c-.1,0-.09-.1-.1-.17s-.07-.29-.1-.43a.11.11,0,0,0-.14-.1,4.53,4.53,0,0,1-1,0l-.11,0A.31.31,0,0,0,3.16,29,3.84,3.84,0,0,1,1,27.76a3,3,0,0,1-.62-1,1.3,1.3,0,0,0-.08-.17c0-.07,0-.16-.09-.23l-.08-.32S.13,26,.14,25.92Z"/><path class="cls-13" d="M3.34,29.08s0-.08.05-.06a4.59,4.59,0,0,0,1.11,0c.07,0,.07.05.08.1a4.94,4.94,0,0,1,.15.64c0,.07,0,.11,0,.16a.58.58,0,0,0,0,.39.65.65,0,0,0,0,.13l4,14.45,0,.11a.51.51,0,0,0,.49.41c.05,0,.11,0,.15.05a2.7,2.7,0,0,0,.14.4c0,.07,0,.1-.06.13s-.19.11-.29.16,0,.06-.08.08a3.19,3.19,0,0,0-.71.61s0,.08-.11.05v0s0-.09,0-.14l0-.14s0-.09,0-.14l0-.1c0-.05,0-.1,0-.14l0-.14c0-.05,0-.09,0-.14l0-.11c0-.05,0-.09,0-.14l0-.16s0-.09,0-.14l0-.14c0-.06,0-.11,0-.16l0-.14c0-.06,0-.11,0-.17l0-.13c0-.06,0-.11,0-.17l0-.16c0-.06,0-.11,0-.17l0-.19c0-.06,0-.11,0-.16l0-.19c0-.07,0-.13,0-.2l0-.19c0-.06,0-.12,0-.19l0-.22c0-.08,0-.14,0-.22l-.06-.24c0-.09,0-.16,0-.25l-.06-.24c0-.1,0-.18,0-.28l-.08-.29c0-.12-.07-.22-.07-.33L7,40.63c0-.14-.08-.27-.09-.41l-.13-.49a5.11,5.11,0,0,0-.13-.53.7.7,0,0,1,0-.14c-.22-.83-.45-1.66-.69-2.48-.06-.17-.1-.35-.15-.53s0-.1,0-.14l-.14-.48c-.06-.12-.06-.27-.13-.4l-.11-.37c-.05-.09-.05-.2-.1-.29l-.09-.29c0-.09,0-.19-.1-.27L5,33.55c0-.08,0-.17-.08-.24L4.8,33.1c0-.07,0-.15-.08-.21l-.06-.21c0-.06,0-.14-.07-.19l-.06-.18c0-.06,0-.14-.07-.19l-.06-.18c0-.06,0-.13-.07-.18l0-.16c0-.05,0-.12-.07-.16l0-.13c0-.06,0-.13-.07-.19L4,31s0-.1,0-.14l-.05-.15s0-.1-.06-.13l0-.13c0-.05,0-.12-.07-.16l0-.13s0-.1-.06-.13l0-.13s0-.1-.06-.13l0-.11s0-.09-.06-.13S3.37,29.23,3.34,29.08Z"/><path class="cls-14" d="M8.24,46.92a4.7,4.7,0,0,1,.66-.6l.24-.14.09,0,2.21,1.28c.71.4,1.42.82,2.12,1.23.15.09.31.16.46.24a4.14,4.14,0,0,1-.27,1.72L13.33,50c-.28-.48-.56-1-.85-1.44a.23.23,0,0,0-.12-.1,2.09,2.09,0,0,0-2.14.4,2.06,2.06,0,0,0-.28.31.29.29,0,0,1-.13-.05c-.65-.4-1.33-.75-2-1.15,0,0-.11,0-.14-.11a3.87,3.87,0,0,1,.53-.9S8.23,46.93,8.24,46.92Z"/><path class="cls-14" d="M5.12,24.6a1.2,1.2,0,0,0,.2-.37.31.31,0,0,1,0-.1,5.17,5.17,0,0,0,.19-.64c.07,0,.12,0,.17.06l1.5.88c.24.14.49.26.73.41a.4.4,0,0,1,.12.1,4.37,4.37,0,0,1-.64,2.2c-.71-.38-1.41-.8-2.1-1.21l-.82-.46s-.11,0-.12-.12A2.69,2.69,0,0,0,5,24.73.46.46,0,0,1,5.12,24.6Z"/><path class="cls-15" d="M8.08,24.94l-.87-.48-1.53-.9-.12-.07a4,4,0,0,0-.34-.73c-.3-.59-.6-1.18-.91-1.77l-.24-.48A5.62,5.62,0,0,1,6.9,22.15a4.27,4.27,0,0,1,.8,1.08A3.88,3.88,0,0,1,8.08,24.94Z"/><path class="cls-16" d="M10.77,52.44a.05.05,0,0,1,0,.07,4,4,0,0,1-.91-.23,4.55,4.55,0,0,1-.63-.3.24.24,0,0,1-.11-.06,5.46,5.46,0,0,1-1-.78A2.73,2.73,0,0,1,7.4,49V49s.08,0,.11,0l.15.08c.56.35,1.14.65,1.71,1a.32.32,0,0,1,.14.12.44.44,0,0,0,.05.27C10,51.1,10.37,51.77,10.77,52.44Z"/><path class="cls-17" d="M6.77,28,5.16,27c-.75-.42-1.49-.85-2.23-1.29,0,0-.1,0-.13-.1a2.81,2.81,0,0,0,.71,0s.08,0,.13,0L4,25.56a.51.51,0,0,1,.17.07l1,.57c.66.38,1.33.76,2,1.16,0,0,.11.05.14.1A2.53,2.53,0,0,1,6.77,28Z"/><path class="cls-17" d="M9.51,50.16l-.1-.06L7.48,49,7.4,49a2.31,2.31,0,0,1,.15-.68s.07,0,.1,0c.23.17.49.27.73.42.4.25.81.48,1.21.72.05,0,.11,0,.12.12Z"/><path class="cls-15" d="M7.22,27.46l-.38-.21c-.38-.22-.75-.46-1.14-.67-.57-.3-1.12-.65-1.68-1L4,25.56l.44-.21a6.38,6.38,0,0,0,.57.32l1.87,1.11.49.26s.09.05.11.1A1.81,1.81,0,0,1,7.22,27.46Z"/><path class="cls-14" d="M1.75,25.07.34,24.25A.75.75,0,0,0,0,24.11a4.94,4.94,0,0,1,.12-.77.28.28,0,0,1,.14.06l.89.53A12.29,12.29,0,0,1,1.75,25.07Z"/><path class="cls-15" d="M9.71,49.53a1.87,1.87,0,0,0-.32-.2c-.46-.27-.91-.55-1.37-.81a4.23,4.23,0,0,0-.47-.25,1.25,1.25,0,0,1,.14-.41c.23.14.47.27.71.4l1.51.88,0,0Z"/><path class="cls-15" d="M1.16,23.93a0,0,0,0,1,0,0l-1-.6a2,2,0,0,1,.11-.4,3.52,3.52,0,0,1,.58.3C.93,23.47,1.07,23.69,1.16,23.93Z"/><path class="cls-14" d="M.82,23.24a2.29,2.29,0,0,1-.58-.3c0-.11.08-.2.09-.31a.29.29,0,0,1,0-.13c.07-.05.07,0,.09.07Z"/><path class="cls-2" d="M6.59,39.06a3.84,3.84,0,0,1,.16.67A3.84,3.84,0,0,1,6.59,39.06Z"/><path class="cls-2" d="M5.7,35.91a4.26,4.26,0,0,1,.2.67A4.73,4.73,0,0,1,5.7,35.91Z"/><path class="cls-2" d="M6.88,40.22a1.43,1.43,0,0,1,.09.41A1.51,1.51,0,0,1,6.88,40.22Z"/><path class="cls-2" d="M5.43,35a2.07,2.07,0,0,1,.13.4A1.34,1.34,0,0,1,5.43,35Z"/><path class="cls-2" d="M7.06,41a.93.93,0,0,1,.07.33C7.13,41.19,7,41.1,7.06,41Z"/><path class="cls-2" d="M5.22,34.37a1,1,0,0,1,.1.29A.72.72,0,0,1,5.22,34.37Z"/><path class="cls-2" d="M7.21,41.6a.87.87,0,0,1,0,.28A.66.66,0,0,1,7.21,41.6Z"/><path class="cls-2" d="M5,33.81a.88.88,0,0,1,.1.27C5.06,34,5.07,33.9,5,33.81Z"/><path class="cls-2" d="M.24,26.38a.46.46,0,0,1,.09.23C.27,26.55.28,26.46.24,26.38Z"/><path class="cls-2" d="M4.87,33.31a.68.68,0,0,1,.08.24C4.89,33.48,4.9,33.39,4.87,33.31Z"/><path class="cls-2" d="M7.32,42.12a.7.7,0,0,1,0,.25A.53.53,0,0,1,7.32,42.12Z"/><path class="cls-2" d="M7.43,42.61a.54.54,0,0,1,0,.22C7.46,42.76,7.41,42.69,7.43,42.61Z"/><path class="cls-2" d="M4.72,32.89a.42.42,0,0,1,.08.21C4.74,33,4.75,33,4.72,32.89Z"/><path class="cls-2" d="M5.12,24.6a.29.29,0,0,1-.08.13A.11.11,0,0,1,5.12,24.6Z"/><path class="cls-2" d="M4.59,32.49a.54.54,0,0,1,.07.19C4.6,32.63,4.61,32.55,4.59,32.49Z"/><path class="cls-2" d="M4.46,32.12a.54.54,0,0,1,.07.19C4.47,32.26,4.48,32.18,4.46,32.12Z"/><path class="cls-2" d="M7.52,43.05a.31.31,0,0,1,0,.19C7.54,43.18,7.5,43.12,7.52,43.05Z"/><path class="cls-2" d="M4.33,31.76s0,.11.07.18S4.35,31.82,4.33,31.76Z"/><path class="cls-2" d="M7.6,43.43a.35.35,0,0,1,0,.2C7.62,43.56,7.58,43.5,7.6,43.43Z"/><path class="cls-2" d="M4.1,31.12c.05.05.05.12.07.19S4.12,31.19,4.1,31.12Z"/><path class="cls-2" d="M8.16,46.48a.18.18,0,0,1,0,.14C8.12,46.58,8.17,46.53,8.16,46.48Z"/><path class="cls-2" d="M7.87,44.8c0,.06,0,.11,0,.17S7.84,44.86,7.87,44.8Z"/><path class="cls-2" d="M7.81,44.5a.34.34,0,0,1,0,.17C7.83,44.61,7.79,44.56,7.81,44.5Z"/><path class="cls-2" d="M7.75,44.17c0,.06,0,.11,0,.17S7.72,44.23,7.75,44.17Z"/><path class="cls-2" d="M4.21,31.44s0,.1.07.16S4.23,31.49,4.21,31.44Z"/><path class="cls-2" d="M7.68,43.82a.29.29,0,0,1,0,.16S7.65,43.88,7.68,43.82Z"/><path class="cls-2" d="M3.77,30.26s0,.1.07.16S3.8,30.31,3.77,30.26Z"/><path class="cls-2" d="M7.92,45.11a.22.22,0,0,1,0,.16C7.94,45.22,7.9,45.17,7.92,45.11Z"/><path class="cls-2" d="M3.48,29.5a.2.2,0,0,1,.06.13S3.5,29.55,3.48,29.5Z"/><path class="cls-2" d="M7.44,48.2s0,0,0,0,0,0,0,0,0,0,0,0S7.46,48.21,7.44,48.2Z"/><path class="cls-2" d="M8,45.41a.34.34,0,0,1,0,.14S8,45.46,8,45.41Z"/><path class="cls-14" d="M8.21,46.76a.17.17,0,0,1,0,.14S8.19,46.81,8.21,46.76Z"/><path class="cls-2" d="M8.16,46.88l0,0s0,0,0,0l0,0S8.16,46.86,8.16,46.88Z"/><path class="cls-2" d="M3.57,29.74a.2.2,0,0,1,.06.13S3.59,29.78,3.57,29.74Z"/><path class="cls-2" d="M3.88,30.55a.2.2,0,0,1,.06.13S3.9,30.59,3.88,30.55Z"/><path class="cls-2" d="M7.25,49.43l0,0s0,0,0,0,0,0,0,0Z"/><path class="cls-2" d="M3.64,25.64s-.09,0-.13,0S3.59,25.61,3.64,25.64Z"/><path class="cls-2" d="M.14,25.92s0,.09,0,.14S.11,26,.14,25.92Z"/><path class="cls-2" d="M5.37,24.13a.14.14,0,0,1,0,.1C5.31,24.18,5.32,24.14,5.37,24.13Z"/><path class="cls-2" d="M8.12,46.24a.17.17,0,0,1,0,.14C8.13,46.33,8.1,46.29,8.12,46.24Z"/><path class="cls-2" d="M8.07,46a.18.18,0,0,1,0,.14S8.05,46,8.07,46Z"/><path class="cls-2" d="M9.08,51.92l.11.06C9.13,52,9.1,52,9.08,51.92Z"/><path class="cls-2" d="M4,30.83A.19.19,0,0,1,4,31,.24.24,0,0,1,4,30.83Z"/><path class="cls-2" d="M8,45.71a.18.18,0,0,1,0,.14C8,45.8,8,45.76,8,45.71Z"/><path class="cls-2" d="M3.67,30a.2.2,0,0,1,.06.13S3.69,30,3.67,30Z"/><path class="cls-18" d="M9.35,45.49a.64.64,0,0,1-.51-.14A.65.65,0,0,1,8.66,45c-.24-.88-.49-1.77-.73-2.66l-3.3-12a.66.66,0,0,1,.1-.64.76.76,0,0,1,.32-.17c.14,0,.3-.07.44-.12a.62.62,0,0,1,.8.46.25.25,0,0,0,0,.07l4,14.45a.67.67,0,0,1-.13.69.58.58,0,0,1-.29.17Z"/></g></g></g></svg>