<svg xmlns="http://www.w3.org/2000/svg" width="860.43" height="271.637" viewBox="0 0 860.43 271.637"><g transform="translate(-99.402 -223.744)"><rect width="225.765" height="20" transform="translate(99.402 475.381)" fill="#ede839"/><rect width="285.21" height="20" transform="translate(371.57 475.381)" fill="#ede839"/><rect width="260.716" height="20" transform="translate(699.116 475.381)" fill="#ede839"/><path d="M947.5,439.164l-13.761-2.718V423.711c0-.615.017-1.21.045-1.768s.066-1.078.107-1.54.086-.868.126-1.2.076-.579.1-.734l1.682-5.031-48.75-6.825c.135-.3.263-.613.373-.932a16.336,16.336,0,0,0,.594-2.281c.148-.782.254-1.58.335-2.374l.343-3.447-2.593-.647q.094-.264.174-.54t.144-.568q.063-.289.113-.594c.032-.2.06-.409.082-.62.052-.4.1-.914.136-1.568s.072-1.448.1-2.418.05-2.117.068-3.471.03-2.917.039-4.721l.665-2.952,33.4,2.143,6.524-14.059-4.68-1.188c-1.138-.285-2.21-.578-3.241-.887s-2.02-.635-2.992-.984-1.929-.725-2.893-1.133-1.936-.85-2.942-1.333c-.446-.216-.833-.42-1.17-.608s-.623-.364-.866-.522-.441-.3-.6-.428-.289-.234-.385-.324c.1-.184.209-.368.327-.556s.248-.38.392-.582.3-.415.48-.644.373-.472.591-.738l2.925-3.573-.227-.137,20.261-.133,6.57-13.634-4.275-1.459c-1.393-.477-3.023-1.1-4.764-1.827s-3.593-1.546-5.43-2.414-3.657-1.78-5.337-2.686-3.216-1.807-4.485-2.648l-3.555-2.368,2.017-1.917-14.725-8.711-36.58,3.989L869,300.446c.207-.578.424-1.133.638-1.649s.425-.993.619-1.415.373-.789.522-1.085.268-.52.345-.657l3.257-4.167L853.86,284.2l-18.108-6.48-11.076,2.841L824,277.856c-.165-.659-.38-1.477-.63-2.384s-.533-1.9-.833-2.916-.618-2.047-.935-3.029-.634-1.912-.933-2.722l-1.107-2.98-9.468,1.2L809.355,263l-14.319,2.034-8.539,2.932-18.551-4.786c-.513-.131-1.129-.3-1.795-.505s-1.379-.426-2.088-.66-1.412-.476-2.055-.708-1.225-.454-1.693-.647l-4.249-1.737-13.5,5.794,2.046-11.644L740,252.926c-.418-.014-.927-.052-1.492-.11s-1.186-.133-1.829-.22-1.306-.186-1.957-.289-1.287-.211-1.877-.317l-27.306-4.8c-.743-.131-1.45-.263-2.114-.394s-1.287-.262-1.86-.39-1.1-.254-1.562-.376-.877-.241-1.223-.353l-4.382-1.43L662.64,265.765c-.819-.422-1.651-.846-2.5-1.274-2.389-1.2-4.887-2.4-7.366-3.562s-4.938-2.261-7.251-3.251l.783-7.641c.072-.686.169-1.394.281-2.1s.24-1.425.375-2.123.275-1.38.413-2.029.274-1.263.4-1.825l.963-4.375-20.484-2.124L613.8,253.031l.149-3.822-27.909-1.089q.216-1.957.378-3.883t.286-3.8q.124-1.872.222-3.679t.186-3.528l.225-4.3-17.352-.674-6.109,19-21.593-.843-5.256,42.756-1.828.733-3.4,35.151h-3.583l-.686-39.651c0,.169-.005.336-.005.5,0-.335,0-.67-.009-1.008a24.133,24.133,0,0,0-.985-6.076,22.452,22.452,0,0,0-1.65-4.033l-1.289-27.142a24.809,24.809,0,0,0-2.338-9.914,21.979,21.979,0,0,0-5.923-7.529,26.808,26.808,0,0,0-9.048-4.783,39.049,39.049,0,0,0-11.711-1.674c-.147,0-.294,0-.441,0l-.443.006c-.148,0-.3.006-.446.01l-.448.014a35.693,35.693,0,0,0-13.609,3.2,41.259,41.259,0,0,0-6.4,3.642,52.822,52.822,0,0,0-6.191,5.035l-2.844,2.672,17.171,31.2.28,7.846,8.34,13.871a19.015,19.015,0,0,1-3.419-1.153,23.745,23.745,0,0,1-3.626-2.042,32.651,32.651,0,0,1-3.617-2.872l-3.392-3.087-3.759,5.469L451.9,263.6c.114.138.216.287.327.427a23.489,23.489,0,0,0-2.8-2.992,24.022,24.022,0,0,0-7.69-4.586,27.111,27.111,0,0,0-9.393-1.627q-.378,0-.759.01t-.765.029q-.384.02-.771.049t-.777.069a30.882,30.882,0,0,0-5.6,1.089,29.734,29.734,0,0,0-5.2,2.068,28.936,28.936,0,0,0-4.668,2.984,28.542,28.542,0,0,0-4.022,3.839c-.239.277-.467.561-.694.845l-21.572-16.343-2.106,7.569a50,50,0,0,1-3.043,8.046,62.1,62.1,0,0,1-3.005,5.546l-22.808-13.106.19.112-.6-.346c-2.019-1.153-4.066-2.272-5.977-3.27s-3.685-1.875-5.159-2.543l-3.088-1.4L332.2,264.62,320.2,259.01l-4.231,1.323c-.257.081-.624.19-1.063.316s-.949.27-1.492.419-1.118.3-1.686.454-1.13.294-1.645.422l-35.208,8.775c-.56.142-1.2.294-1.891.449s-1.42.31-2.16.459-1.487.291-2.2.417-1.4.237-2.018.322l-4.41.6,2.124,8.527-21.222-6.016-1.872,1.4a7.8,7.8,0,0,1-.832.456c-.387.191-.869.415-1.4.649s-1.111.48-1.7.716-1.174.46-1.723.653l-36.631,12.835q-.9.316-1.866.609c-.638.194-1.293.379-1.959.554s-1.344.338-2.028.489-1.375.291-2.067.417l-4.6.837,3.852,10.987-14.561-2.167-3.772,2.322q-.858.526-1.628.983c-.515.3-1,.586-1.462.845s-.9.5-1.306.712-.795.41-1.157.583l-35.3,16.993c-.418.2-.9.415-1.4.633s-1.044.44-1.578.654-1.067.421-1.567.609-.968.357-1.373.5l-4.24,1.477,8.1,16.829,23.274.547,4.41,9.164-12.869,6.2c-.448.214-.924.428-1.417.639s-1,.417-1.52.616-1.039.389-1.557.566-1.03.344-1.528.492l-4.5,1.332,8.523,17.712L402,365.589v8.638l-268.968,37.7v12.709l-27.792,4.788v16.641h14.238a53.528,53.528,0,0,1-2.767,6.514,44.893,44.893,0,0,1-3.425,5.7,37.042,37.042,0,0,1-4.024,4.782,30.819,30.819,0,0,1-4.562,3.77l-5.221,3.519,5.4,3.232a11.985,11.985,0,0,1,1.437,1.065c.535.45,1.111.976,1.677,1.525s1.122,1.123,1.617,1.666.93,1.056,1.254,1.486l2.376,3.177,9.341-2.834c.041.114.09.225.13.338.243.687.459,1.365.631,2a13.3,13.3,0,0,1,.365,1.705l.459,3.483h3.51c1.773,0,3.426-.026,4.968-.094s2.974-.18,4.3-.352a27.07,27.07,0,0,0,3.688-.716c.559-.154,1.094-.327,1.609-.521-.021.007-.041.016-.061.024q-.276.1-.559.2l21.119-7.052a50.751,50.751,0,0,0,4.291,2.736l3.437,1.944,6.767-2.4,12.621,7.067,6.462-2.508c.08.069.166.141.233.205l3.637,3.456,5.459-2.206h11.487v-4.639l.84-.34.087.092v4.671l12.925.288h3.393c1.066,0,2.066-.007,3.009-.038s1.828-.085,2.662-.181a16.717,16.717,0,0,0,2.362-.43,11.092,11.092,0,0,0,2.109-.781l-.078.038-.078.037-.079.037-.079.037,14.3-6.5.016.022,4.786-2.175c0,.139-.008.277-.014.42-.017.461-.037.935-.062,1.386s-.052.88-.084,1.251l-.378,4.356h18.855l14.483-7.505a12.215,12.215,0,0,0,1.018,1.367,11.459,11.459,0,0,0,4.1,3,13.408,13.408,0,0,0,5.366,1.054,25.042,25.042,0,0,0,4.537-.4,22.3,22.3,0,0,0,7.951-3.1c-.2.128-.4.261-.61.381l66.687-38.961,2.337,2.637c.09.1.182.209.276.322s.19.234.288.359.2.255.3.389.2.272.3.414l-1.845,3.51c-1.121,2.126-2.3,4.257-3.493,6.33s-2.394,4.091-3.559,5.991-2.294,3.683-3.337,5.289-2,3.034-2.823,4.225l-2.134,3.068,14.077,11.259L406.011,465.9v21.073h16.641V481h2.556c1.292,0,2.515,0,3.679-.029s2.268-.084,3.321-.2a20.137,20.137,0,0,0,3.014-.538,13.68,13.68,0,0,0,2.757-1.045,9.582,9.582,0,0,0,3.169-2.556c.117-.148.218-.3.324-.453-.035.049-.059.1-.095.152l1.085-.941,15.876,11.159,2.339-2.988c1.233-1.573,2.487-3.111,3.711-4.571s2.418-2.841,3.529-4.1,2.139-2.4,3.033-3.365,1.654-1.771,2.228-2.363c.216-.216.413-.406.593-.566a3.957,3.957,0,0,1,.5-.385,1.262,1.262,0,0,1,.43-.185.652.652,0,0,1,.386.038c.031.112.064.231.1.356s.068.256.105.392.074.275.114.42.08.292.123.443c.124.463.256.954.394,1.459s.281,1.024.429,1.544.3,1.04.455,1.547.311,1,.468,1.47a13.394,13.394,0,0,0,2.879,4.622,11.958,11.958,0,0,0,3.906,2.649,17.641,17.641,0,0,0,4.526,1.2,34.519,34.519,0,0,0,4.737.284c.9,0,2.068-.031,3.364-.087s2.721-.138,4.141-.241,2.834-.227,4.107-.367,2.406-.3,3.264-.466l3.034-.586,2.19-15.782,12.381,6.342,2.016-2.8q.138-.193.276-.391c.093-.131.185-.264.278-.4s.186-.27.279-.407l.263-.386v.691a15.086,15.086,0,0,0,1.416,6.552,14.141,14.141,0,0,0,4.026,5.008,18.727,18.727,0,0,0,6.3,3.2,28.62,28.62,0,0,0,8.246,1.126,25.934,25.934,0,0,0,5.921-.64,17.863,17.863,0,0,0,4.838-1.863,13.911,13.911,0,0,0,3.663-3.006,13.646,13.646,0,0,0,2.4-4.067q.516.429,1.009.855c.329.284.65.567.962.845s.618.553.915.823l.868.789,3.879,3.556,9.161-14.617-8.949-18.587,1.713,1.362,2.675-3.955L591.741,472.3c-.027-.05-.049-.1-.076-.154a21.628,21.628,0,0,0,5.865,7.174,15.451,15.451,0,0,0,9.55,3.114,13.522,13.522,0,0,0,6.655-1.692,17.79,17.79,0,0,0,5.13-4.445,34.56,34.56,0,0,0,3.933-6.253,74.986,74.986,0,0,0,3.065-7.114l.161-.426,10.207,11.128,17.1-6.661-.217-2.943a71.6,71.6,0,0,0-1.521-9.978,101.913,101.913,0,0,0-3.062-10.964c-.161-.472-.334-.937-.5-1.4L701.238,479.7h20.286l-.423-4.391c-.076-.761-.154-1.631-.227-2.538s-.143-1.849-.2-2.755-.11-1.774-.145-2.532-.055-1.4-.055-1.869V454.081L773.8,481.238l2.422-.684a63.5,63.5,0,0,0,7.943-2.81,59.867,59.867,0,0,0,7.311-3.762,56.409,56.409,0,0,0,6.583-4.656c.89-.732,1.749-1.495,2.586-2.278l34.688,14.109,2.457-.792a70.459,70.459,0,0,0,9.23-3.72,64.445,64.445,0,0,0,8.3-4.847c1.46-1.008,2.86-2.078,4.208-3.2l35.783,12.132,2.3-2.06a48.026,48.026,0,0,0,4.7-4.833l23.342,7.334,2.556-2.276c.128-.115.262-.232.409-.354s.309-.246.49-.378.385-.269.617-.415.492-.3.789-.464c2-1.02,4.189-2.283,6.453-3.742s4.6-3.111,6.9-4.908a83.355,83.355,0,0,0,6.65-5.772,59.12,59.12,0,0,0,5.71-6.333l1.791-2.331Z" fill="#003562"/><path d="M135.451,435.3c-3.312,19.514-11.233,34.131-21.386,41.621a33.42,33.42,0,0,0-7.128-6.769c8.353-5.617,14.688-15.481,17.93-28.083H109.241v-8.641h18.794l1.584-.288Zm38.235-2.591a181.043,181.043,0,0,1-18.793,17.425c5.112,8.641,11.881,15.625,20.737,19.8a35.966,35.966,0,0,0-6.624,7.992c-10.441-5.9-17.714-15.409-22.9-27.146v21.242c0,5.185-1.152,7.776-4.1,9.217-3.1,1.584-7.776,1.944-14.329,1.944a33.806,33.806,0,0,0-3.384-9.577c4.752.216,9.289.144,10.8.144,1.44,0,1.945-.5,1.945-1.728V415.931h9.072V428.6a95.648,95.648,0,0,0,5.112,14.474,118.659,118.659,0,0,0,14.474-15.986Z" fill="#fff"/><path d="M191.9,449.486a132.169,132.169,0,0,0-12.241-7.561l4.9-6.192a131.046,131.046,0,0,1,12.457,6.84Zm4.464,9.577c-2.448,7.776-5.616,16.2-8.5,23.258l-7.849-4.393a214.863,214.863,0,0,0,9.433-23.4ZM193.7,430.188c-2.592-2.088-7.992-5.4-11.738-7.7l4.969-6.193a120.8,120.8,0,0,1,12.026,6.985Zm35.283,16.777v3.745h16.2v25.85c0,3.1-.576,4.536-2.448,5.473s-4.68,1.008-8.353,1.008a22.271,22.271,0,0,0-1.8-5.617c1.944.073,3.959.073,4.536.073.719-.073,1.007-.288,1.007-.937V462.807l-3.168,4.176c-1.368-1.224-3.959-3.1-5.976-4.536v7.56l2.448-2.664a73.818,73.818,0,0,1,6.193,4.537l-3.529,4.176a51.364,51.364,0,0,0-5.112-4.248v10.945h-6.912v-9.361l-3.241,3.672c-1.224-1.3-3.672-3.24-5.689-4.9v10.8H206.3V460.719c-1.224,7.993-3.312,15.913-6.985,22.106a29.237,29.237,0,0,0-6.84-4.393c6.84-11.449,7.416-27.938,7.416-39.675V418.38h44.068v18.145H207.739v3.744h38.019v6.7Zm-6.912,0H207.6c-.072,1.225-.144,2.449-.216,3.745h14.69Zm-14.33-21.746v4.465h28.01v-4.465Zm8.641,33.412a55.468,55.468,0,0,1,5.689,3.744v-5.328h-8.93v5.328Zm-.216,9.289c1.8,1.368,4.392,3.312,5.9,4.608v-9l-2.953,3.744a55.958,55.958,0,0,0-5.977-4.68v8.569Zm12.817-10.873v4.824l2.88-3.384a52.313,52.313,0,0,1,6.264,4.176v-5.616Z" fill="#fff"/><path d="M269.225,418.451l10.513.36c-.432,2.017-1.08,5.689-1.584,10.153l2.664,3.457c-1.008,1.3-2.448,3.671-3.672,5.543-.072.505-.072,1.009-.145,1.585,5.689-4.968,13.97-10.8,20.955-10.8,7.776,0,11.3,4.608,11.3,10.657,0,7.488-2.376,18.073-2.376,25.49,0,1.872.937,3.24,2.737,3.24,2.664,0,6.048-1.872,9.361-5.184l1.151,10.153a19.191,19.191,0,0,1-13.537,5.328c-5.4,0-9-3.888-9-10.873,0-7.776,2.593-18.361,2.593-24.914,0-3.528-1.872-5.328-4.9-5.328-5.328,0-13.1,6.624-19.009,13.105-.073,2.016-.144,3.96-.144,5.833,0,5.9,0,11.953.432,18.721.072,1.3.288,3.889.5,5.544h-9.937c.144-1.655.216-4.176.216-5.328.144-5.616.216-9.793.288-15.841-3.024,4.536-6.553,9.792-9.073,13.177l-5.689-7.849c4.105-5.041,11.306-14.545,15.411-20.593.143-1.657.287-3.385.359-5.113-3.528.432-9.072,1.152-13.1,1.728l-.936-9.217a62.158,62.158,0,0,0,6.265-.071c2.087-.145,5.255-.505,8.352-.937.145-2.736.288-4.752.288-5.544A39.763,39.763,0,0,0,269.225,418.451Z" fill="#fff"/><path d="M376.889,472.1a233.5,233.5,0,0,0,13.464-22.25l6.481,5.832c-3.816,7.417-8.208,15.41-12.385,22.466Zm13.033-35.931c-2.376-3.168-7.7-7.705-11.953-10.8l5.9-6.192c4.177,2.807,9.721,6.984,12.386,10.008Zm31.97-19.946c6.049,8.713,14.833,17.282,23.474,21.457a51.267,51.267,0,0,0-5.256,7.994,66.1,66.1,0,0,1-9.577-7.273v6.624H405.979v-5.76a67.016,67.016,0,0,1-10.729,8.353,42.051,42.051,0,0,0-4.752-7.273c9.648-5.688,18.865-16.273,23.042-24.122Zm17.57,51.773c0,3.96-.648,6.264-3.313,7.633s-6.192,1.367-10.944,1.367a26.529,26.529,0,0,0-2.376-8.28c2.952.143,6.048.143,6.984.072.936,0,1.224-.216,1.224-1.009V458.7H418.652v24.265h-8.64V458.7H398.85v-7.921h40.612Zm-10.225-30.747a75.121,75.121,0,0,1-11.161-12.53,73.8,73.8,0,0,1-10.081,12.53Z" fill="#fff"/><path d="M491.445,445.021c-3.312,2.809-10.009,9-11.737,10.873a7.927,7.927,0,0,1,2.736.5c2.088.649,3.385,2.233,4.321,4.9.648,1.944,1.44,4.68,2.088,6.552.648,2.233,2.232,3.385,5.04,3.385a74.285,74.285,0,0,0,14.114-1.3l-.576,9.433a105.188,105.188,0,0,1-14.114,1.08c-6.841,0-10.512-1.513-12.313-6.193-.72-2.16-1.584-5.544-2.088-7.344-.792-2.521-2.376-3.457-3.816-3.457-1.512,0-3.025,1.152-4.752,2.881-2.449,2.519-7.849,8.424-12.818,14.76l-8.5-5.976c1.3-1.08,3.025-2.592,4.969-4.464,3.673-3.744,18.433-18.434,24.986-25.347-5.04.145-13.681.937-17.785,1.3-2.52.216-4.681.575-6.193.792l-.864-9.937a63.515,63.515,0,0,0,6.913.215c3.384,0,19.729-.719,25.706-1.511a23.073,23.073,0,0,0,4.1-.792l5.257,5.976C494.254,442.645,492.741,443.941,491.445,445.021Zm2.16-23.042-1.152,8.425c-7.561-.576-21.025-2.16-29.6-3.6l1.368-8.353C472.292,419.964,486.117,421.475,493.605,421.979Z" fill="#fff"/><path d="M542.564,428.748a88.277,88.277,0,0,0,9.721-2.3l.288,8.353a125.181,125.181,0,0,1-12.6,2.52C536.516,447.4,530.4,460,524.562,468.135l-8.712-4.463a113.423,113.423,0,0,0,14.689-25.419c-1.3.072-2.52.072-3.744.072-2.952,0-5.9-.072-9-.288l-.648-8.353a90.7,90.7,0,0,0,9.577.5c2.16,0,4.32-.072,6.552-.288a60.549,60.549,0,0,0,1.945-12.024l9.936,1.007C544.581,421.187,543.644,424.86,542.564,428.748Zm19.442,21.746c.072,2.089.288,5.545.432,9.144a47.131,47.131,0,0,1,14.906,9.217l-4.826,7.7a61,61,0,0,0-9.72-7.7v.721c0,6.7-3.672,11.881-13.9,11.881-8.928,0-15.985-3.96-15.985-11.881,0-7.057,5.9-12.457,15.913-12.457,1.728,0,3.313.143,4.969.288-.288-5.329-.649-11.737-.793-16.13h9C561.79,444.3,561.934,447.326,562.006,450.494Zm-14.4,22.682c4.969,0,6.481-2.736,6.481-6.7V465.04a25.808,25.808,0,0,0-5.832-.721c-4.177,0-6.841,1.872-6.841,4.393C541.412,471.376,543.644,473.176,547.6,473.176Zm9.505-38.307,4.609-7.129a124.109,124.109,0,0,1,17.786,9.793l-5.112,7.56A103.949,103.949,0,0,0,557.109,434.869Z" fill="#fff"/><path d="M599.156,434.149c-.072,4.68,0,10.08.432,15.265,1.009,10.369,3.169,17.5,7.705,17.5,3.384,0,6.265-8.425,7.633-14.186l7.2,8.785c-4.752,12.529-9.289,16.921-15.049,16.921-7.921,0-14.762-7.129-16.777-26.426-.721-6.625-.793-15.049-.793-19.442a43.888,43.888,0,0,0-.575-7.345l11.088.145A58.382,58.382,0,0,0,599.156,434.149Zm49.973,30.17-9.434,3.673c-1.151-11.594-4.968-29.091-12.816-38.02l9.144-2.952C642.864,435.3,648.336,453.3,649.129,464.319Z" fill="#fff"/><path d="M792.639,377.735c1.548,0,8.315-.325,10.511-.541a13.278,13.278,0,0,0,2.484-.467l2.844,3.311c-.756.5-2.088,1.368-2.844,1.98-2.556,2.051-6.084,5.04-8.567,6.947,4.823-.468,10.8-.863,15.19-.863v4.247a54.539,54.539,0,0,0-9.251.108c-3.311.432-6.047,2.772-6.047,5.723,0,2.844,2.232,3.96,5.435,4.319a32.214,32.214,0,0,0,5.508.109l-.972,4.715c-9.215.4-14.578-2.376-14.578-8.387a8.306,8.306,0,0,1,2.627-5.687c-3.312.287-7.343.827-10.943,1.44l-.431-4.356c1.907-.18,4.427-.5,6.335-.72a106.827,106.827,0,0,0,10.114-8.17c-1.476.107-5.9.323-7.379.467-.9.073-2.088.18-3.239.325l-.216-4.608C790.371,377.7,791.415,377.735,792.639,377.735Z" fill="#fff"/><path d="M833.5,406.855l-2.7-4.284a27.3,27.3,0,0,0,3.348-.576c4.607-1.079,8.207-4.39,8.207-9.646,0-4.968-2.7-8.675-7.56-9.5a72.82,72.82,0,0,1-2.159,9.755c-2.16,7.271-5.256,11.734-9.179,11.734-4,0-7.307-4.391-7.307-10.475,0-8.314,7.2-15.406,16.522-15.406,8.927,0,14.542,6.192,14.542,14.039C847.213,400.088,842.57,405.451,833.5,406.855Zm-9.9-8.063c1.512,0,2.916-2.267,4.392-7.127a54.135,54.135,0,0,0,1.908-8.711,11.331,11.331,0,0,0-9.144,10.439C820.756,397.028,822.2,398.792,823.6,398.792Z" fill="#fff"/><path d="M862.119,376.079a65.27,65.27,0,0,1-3.346,7.235v24.909h-4.248V389.9a29.956,29.956,0,0,1-2.268,2.7,29.644,29.644,0,0,0-2.3-4.32,37.285,37.285,0,0,0,8.208-13.5ZM877.706,403.9c2.123,0,2.484-.864,2.843-4.931a13.94,13.94,0,0,0,3.817,1.656c-.54,5.327-1.8,7.127-6.336,7.127h-7.955c-5.147,0-6.587-1.4-6.587-6.335v-9.827l-2.7,1.044-1.656-3.779,4.356-1.693v-8.494h4.248v6.839l3.491-1.368v-9.323h3.995v7.775l3.6-1.4,1.368-.973,2.915,1.116-.144.649c-.036,6.262-.108,10.582-.324,12.166-.18,1.8-.827,2.735-2.052,3.239a9.876,9.876,0,0,1-4.031.5,11.426,11.426,0,0,0-.935-3.923c.792.036,1.8.071,2.2.071.5,0,.756-.143.936-.863.108-.612.18-2.988.216-7.7l-3.744,1.475v12.815h-3.995V388.533l-3.491,1.369V401.42c0,2.159.359,2.483,2.7,2.483Z" fill="#fff"/><path d="M706.6,424.212a50,50,0,0,0-.72-8.641h11.233a78.065,78.065,0,0,0-.649,8.641v10.657c9.65,2.809,23.475,7.921,30.1,11.161l-4.1,9.937a207.859,207.859,0,0,0-25.995-10.729v20.378c0,2.088.36,7.128.649,10.08H705.884a79.068,79.068,0,0,0,.72-10.08Z" fill="#fff"/><path d="M811.511,441.206c-2.16,6.985-5.256,13.969-10.657,19.946A53.931,53.931,0,0,1,775.148,476.7l-7.128-8.136c10.8-2.233,19.441-6.986,24.914-12.6a31.239,31.239,0,0,0,7.416-12.457H765.572c-1.729,0-5.329.072-8.354.36v-9.361c3.025.216,6.121.433,8.354.433h35.642a15.191,15.191,0,0,0,5.257-.721l6.408,3.961A26.518,26.518,0,0,0,811.511,441.206Zm-40.18-23.547h27.723a67.872,67.872,0,0,0,7.776-.359v9.288c-1.943-.144-5.328-.216-7.919-.216h-27.58c-2.3,0-5.4.072-7.488.216V417.3A60.707,60.707,0,0,0,771.331,417.659Z" fill="#fff"/><path d="M876.024,421.332l-2.664,1.08,4.608,3.025a23.521,23.521,0,0,0-1.585,4.967c-1.727,7.057-4.824,18.218-10.873,26.211-6.48,8.641-16.057,15.77-28.946,19.946l-7.849-8.641c14.258-3.312,22.395-9.577,28.227-16.922,4.753-5.976,7.488-14.113,8.425-20.3H831.884c-3.312,0-6.7.144-8.569.288V420.828a80.171,80.171,0,0,0,8.569.576h33.339a30.22,30.22,0,0,0,3.384-.144,80.558,80.558,0,0,0-4.032-6.984l5.9-2.449A95.178,95.178,0,0,1,876.024,421.332Zm10.3-1.8-5.977,2.592a93.236,93.236,0,0,0-5.761-9.721l5.977-2.376C882.36,412.619,884.953,417.012,886.321,419.532Z" fill="#fff"/><path d="M898.412,452.654c2.017-6.192,2.088-19.8,2.088-28.514a27.334,27.334,0,0,0-.647-6.624h10.585a47.368,47.368,0,0,0-.505,6.553c0,8.5-.216,23.689-2.16,30.962A42.209,42.209,0,0,1,894.956,475.7l-8.785-5.832A33.958,33.958,0,0,0,898.412,452.654Zm21.674,12.962v-41.98a31.912,31.912,0,0,0-.576-6.192h10.73a36.379,36.379,0,0,0-.505,6.264v37.659c5.833-2.52,12.962-8.209,17.786-15.193l5.544,7.921c-5.977,7.776-16.345,15.554-24.41,19.657a15.346,15.346,0,0,0-3.1,2.161l-6.049-4.969A27.4,27.4,0,0,0,920.086,465.616Z" fill="#fff"/><path d="M132.827,329.958l35.295-16.983c1.946-.938,4.124-2.225,5.911-3.325l4.277,8.889c-2.008.807-4.341,1.77-6.223,2.675L158.4,327.8l12.738,26.47L188.328,346a44.1,44.1,0,0,0,5.85-3.453l4.526,9.407a58.15,58.15,0,0,0-6.255,2.61l-42.757,20.574a60.33,60.33,0,0,0-6.2,3.384l-4.526-9.408a46.608,46.608,0,0,0,6.608-2.54l16.48-7.93-12.739-26.471L136.792,338.2c-1.752.843-4.48,2.316-6.039,3.226l-4.277-8.889C128.257,331.917,131.011,330.832,132.827,329.958Z" fill="#fff"/><path d="M249.326,287.7c-1.336,6.419-4.789,17.243-9.781,24.334l-9.043-3.162c4.269-5.235,7.473-13.072,8.072-17.021l-35.4,12.41c-2.854,1-5.026,1.99-8.123,3.381L191.74,298.2a56.916,56.916,0,0,0,8.527-2.226l36.624-12.838a37.134,37.134,0,0,0,6.716-3.041l7.131,3.146A36.525,36.525,0,0,0,249.326,287.7Zm-27.673,61.659L211.44,345.69a28.445,28.445,0,0,0,5.826-6.238c6.533-9.005,5.638-16.778,1.732-27.922a39.972,39.972,0,0,0-2.619-5.948l9.851-3.454C232.139,318.978,236.657,332.959,221.653,349.358Z" fill="#fff"/><path d="M275.844,274.605l35.207-8.783c2.025-.505,4.942-1.306,6.112-1.673.331,1.624.888,4.453,1.394,6.48l9.026,36.184c.61,2.445,1.673,6.113,2.336,8.173l-10.129,2.527c-.209-1.135-.505-2.323-.837-3.65L287.1,321.81c-2.725.679-6.654,1.881-8.907,2.667l-2.492-9.99c2.5-.4,5.693-.975,8.836-1.759l32.2-8.033-7.214-28.92L278.162,283.6c-2.934.732-6.672,1.813-8.593,2.44l-2.422-9.71C269.8,275.964,273.469,275.2,275.844,274.605Z" fill="#fff"/><path d="M364.2,267.105l-6.008,8.6a149.739,149.739,0,0,0-20.318-12.371l5.488-8.218C348.891,257.62,359.357,263.462,364.2,267.105Zm3.835,22.938c10.944-9.2,18.36-21.61,21.232-31.945l7.212,9.087c-3.794,10.489-11.6,21.868-21.882,30.667a77.96,77.96,0,0,1-24.673,14.417l-7.532-8.376A74.228,74.228,0,0,0,368.034,290.043Z" fill="#fff"/><path d="M435.177,301.226l-4.674-5.988a41.488,41.488,0,0,0,4.909-1.363c6.715-2.3,11.59-7.789,10.8-15.634-.748-7.414-5.336-12.541-12.713-13.046a109.06,109.06,0,0,1-1.756,14.885c-2.129,11.178-6.078,18.306-11.933,18.9-5.964.6-11.569-5.456-12.483-14.536-1.252-12.411,8.426-24.078,22.342-25.481,13.324-1.343,22.637,7.053,23.817,18.766C454.629,289.061,448.505,297.766,435.177,301.226Zm-15.988-10.545c2.256-.228,4.01-3.824,5.482-11.3a81,81,0,0,0,1.536-13.289c-8.68,2.72-12.671,11.047-12.075,16.957C414.68,288.476,417.094,290.892,419.189,290.681Z" fill="#fff"/><path d="M469.1,298.435l7.087-10.3c4.915,4.47,10.872,7.823,18.1,7.565,8.094-.29,13.459-4.372,13.221-11.063-.271-7.555-5.078-12.03-22.453-11.408l-.411-11.441c14.679-.524,19.254-5.551,19.014-12.242-.216-6.044-4.228-9.467-11.027-9.224-5.721.2-10.265,3.07-14.856,7.664l-8.441-9.424c6.691-6.291,14.215-10.45,23.6-10.786,15.434-.552,26.173,6.628,26.653,20.011.3,8.418-4.455,14.424-12.647,18.067l.02.54c9.043,2.053,16.185,8.389,16.553,18.642.509,14.247-12.038,23.017-27.254,23.561C483.635,309.047,474.937,304.6,469.1,298.435Z" fill="#ede839"/><path d="M584.122,260.911c4.2,14.214,12.466,25.85,25.706,31.842a34.47,34.47,0,0,0-6.646,7.811c-12.784-6.624-20.719-17.453-25.79-31.557-4.353,11.863-12.561,22.783-28.1,29.526a25.389,25.389,0,0,0-6.12-7.516c16.761-6.7,24.062-18.372,27.351-30.637l-24.749-.966.346-8.849,26.188,1.022c.983-6.735,1.166-13.284,1.468-19.182l9.354.365c-.3,5.9-.633,12.513-1.614,19.176l28.275,1.1-.346,8.849Z" fill="#fff"/><path d="M632.516,248.608a49.919,49.919,0,0,0,.173-8.669l11.174,1.157a78.256,78.256,0,0,0-1.535,8.528l-1.1,10.6c9.309,3.787,22.536,10.295,28.79,14.2l-5.106,9.462a207.784,207.784,0,0,0-24.751-13.349l-2.1,20.27c-.214,2.077-.376,7.127-.393,10.093L626.5,299.746a79.247,79.247,0,0,0,1.754-9.954Z" fill="#fff"/><path d="M740.342,281.277c-3.337,6.5-7.6,12.846-13.949,17.8a53.9,53.9,0,0,1-28.006,10.865l-5.612-9.246c11.024-.328,20.355-3.512,26.716-8.1a31.236,31.236,0,0,0,9.46-10.984l-34.248-6.02c-1.7-.3-5.26-.853-8.287-1.092l1.62-9.218c2.94.736,5.952,1.485,8.15,1.871l35.1,6.171a15.159,15.159,0,0,0,5.3.2l5.625,5.009A26.681,26.681,0,0,0,740.342,281.277Zm-35.491-30.143,27.3,4.8a68.143,68.143,0,0,0,7.721.991l-1.608,9.147c-1.89-.478-5.21-1.135-7.763-1.584l-27.157-4.774c-2.269-.4-5.331-.864-7.411-1.084l1.607-9.148A60.658,60.658,0,0,0,704.851,251.134Z" fill="#fff"/><path d="M809.7,278l-2.85.381,3.708,4.078a23.413,23.413,0,0,0-2.774,4.415c-3.435,6.4-9.219,16.434-17.07,22.663-8.432,6.748-19.485,11.26-33.006,12.086L752.267,311.3c14.631.351,24.073-3.683,31.553-9.338,6.094-4.6,10.774-11.795,13.227-17.557l-32.42-8.358c-3.207-.827-6.52-1.532-8.367-1.861l2.534-9.83a80.13,80.13,0,0,0,8.152,2.7l32.279,8.322a30.357,30.357,0,0,0,3.313.706,80.607,80.607,0,0,0-2.161-7.77l6.328-.9A94.688,94.688,0,0,1,809.7,278Zm10.419.827-6.434,1.019A93,93,0,0,0,810.535,269l6.381-.809C818.012,271.149,819.424,276.05,820.12,278.831Z" fill="#fff"/><path d="M825.988,315.8c3.986-5.152,8.639-17.941,11.574-26.144a27.317,27.317,0,0,0,1.622-6.455l9.966,3.567a47.263,47.263,0,0,0-2.682,6c-2.863,8-8.186,22.232-12.466,28.423a42.218,42.218,0,0,1-19.031,15.139l-6.306-8.451A33.963,33.963,0,0,0,825.988,315.8Zm16.039,19.506,14.145-39.525a32.046,32.046,0,0,0,1.545-6.024l10.1,3.614a36.67,36.67,0,0,0-2.586,5.729l-12.688,35.457c6.341-.409,14.969-3.362,21.864-8.313l2.552,9.326c-8.247,5.308-20.63,9.136-29.607,10.283a15.351,15.351,0,0,0-3.642.991l-4.021-6.716A27.377,27.377,0,0,0,842.027,335.306Z" fill="#fff"/><path d="M903.361,329.334c-2.2,2.954-8.592,11.863-10.935,16.727a26.032,26.032,0,0,0-1.329,3.256c1.526-1.3,3.125-2.63,4.579-3.907l1.868,3.837c-3.308,3.381-7.468,7.91-9.245,10.23a16.381,16.381,0,0,0-1.345,2.169c-.258.536-.584,1.337-.863,2.041l-5.831-2.329a69.044,69.044,0,0,1,5.767-16.821c3.516-7.3,8.985-14.791,11.324-18.279.8-1.291,1.985-3,2.784-4.532l6.529,3.865C905.783,326.425,903.978,328.552,903.361,329.334Zm.555,29.576c-1.031,2.141.184,4.345,5.146,6.735a63.932,63.932,0,0,0,12.82,4.619l-3.068,6.613a76.559,76.559,0,0,1-13-5.122c-8.367-4.031-10.974-8.945-8.56-13.954a32.924,32.924,0,0,1,3.874-5.926l5.336,3.23A18.379,18.379,0,0,0,903.916,358.91Zm29.609-16.422-3.023,6.276a144.948,144.948,0,0,1-20.917-10.079l3-6.226A110.971,110.971,0,0,0,933.525,342.488Z" fill="#fff"/><rect width="256" height="72" rx="20" transform="translate(402.001 325.05)" fill="#ede839"/><g style="isolation:isolate"><g style="isolation:isolate"><path d="M453.151,364.787c3.1,4.2,6.4,9.851,7.651,13.7l-5.251,2.651a27.944,27.944,0,0,0-1.7-4.4c-5.651,1.6-11.5,3.2-16.052,4.45l-1.7-6.1c1-.2,2.15-.449,3.35-.75V339.285h19.4v24.451h-13.7v9.3l6-1.5c-.9-1.55-1.85-3.1-2.8-4.5Zm-8-20v4.15h8.2v-4.15Zm8.2,13.451v-4.1h-8.2v4.1Zm27.6,11.151c0,2.8-.45,4.75-2.25,5.85-1.85,1.1-4.2,1.25-7.4,1.25a21.83,21.83,0,0,0-2.05-6.5c1.95.15,4,.1,4.7.1.651,0,.851-.25.851-.9v-24h-7.1v38.3h-6.051v-44.3h19.3Z" fill="#003562"/><path d="M526.952,339.835v43h-6.4v-3.151h-22.2v3.25H492.2v-43.1Zm-28.6,6v10.75h22.2v-10.75Zm22.2,27.851v-11.2h-22.2v11.2Z" fill="#003562"/><path d="M556.852,351.786a68.4,68.4,0,0,1-4.1,14.551,49.532,49.532,0,0,1,5.15,8.1l-4.75,4.05a46.676,46.676,0,0,0-3.4-6.15,33.626,33.626,0,0,1-10.251,10.8,26.075,26.075,0,0,0-4-4.651,27.753,27.753,0,0,0,10.65-11.35c-2.649-3.55-5.6-7.1-8.35-10.151l4.251-3.35c2.149,2.3,4.4,4.85,6.6,7.5a58.576,58.576,0,0,0,2.4-10.1Zm25.8,1.85H577.3v22.5c0,3.349-.6,5.1-2.5,6.049-1.9,1.05-4.851,1.3-9,1.3a24.473,24.473,0,0,0-1.9-6.4c2.8.15,5.5.1,6.351.1.9,0,1.2-.25,1.2-1.049v-22.5H558.9v-3.6h-22v-5.5h8.7v-7.65h5.7v7.65h9.251v3.4h10.9v-11.1H577.3v11.1h5.35Zm-19.5,3.95c2.351,3.3,4.751,7.6,5.551,10.551l-5.15,2.65a41.653,41.653,0,0,0-5.151-10.9Z" fill="#003562"/><path d="M596.051,355.236c0,8.05-.75,20.4-5.25,28.2a27.6,27.6,0,0,0-5.151-3.349c4.1-7.151,4.451-17.652,4.451-24.852v-12.6h17.8v-5.751h6.2v5.751h18.051v5.649h-36.1Zm-.9,21.6c2.1-3.8,3.151-9.6,3.651-15.151l5.35,1.151c-.549,5.75-1.45,12.35-3.7,16.35Zm22.3.45c1.5,0,1.8-1.149,2-8.05a15.65,15.65,0,0,0,5.25,2.4c-.55,8.55-2.05,10.951-6.7,10.951h-5.55c-5.3,0-6.551-1.75-6.551-7.3V357.836h5.9v17.4c0,1.8.2,2.05,1.6,2.05Zm.55-17.15c-2.4-2.351-7.65-5.7-11.751-7.8l3.95-3.9c4,1.9,9.4,4.9,12.1,7.251Zm8.751.25c2.95,5.2,5.85,11.8,6.65,16.35l-5.85,2.4c-.651-4.451-3.25-11.4-6.1-16.7Z" fill="#003562"/></g></g></g></svg>