<svg xmlns="http://www.w3.org/2000/svg" viewBox="0 0 86.63 86.7"><defs><style>.cls-1{isolation:isolate;}.cls-2{fill:#ede839;}.cls-3{fill:#fff;}.cls-4{fill:#b9b9b9;}.cls-5{fill:#f4d722;}.cls-6{fill:#c7c7cc;}.cls-7{fill:#f1e78a;}.cls-8{fill:#dbdcdc;mix-blend-mode:multiply;}.cls-9{fill:#c7c81d;}.cls-10{fill:#d9bb2b;}.cls-11{fill:#e8dde6;}.cls-12{fill:#40210f;}.cls-13{fill:#241816;}.cls-14{fill:#1d1817;}.cls-15{fill:#fdfdfd;}.cls-16{fill:#fae4ce;}.cls-17{fill:#bcbbbb;}.cls-18{fill:#120f0c;}.cls-19{fill:#aa8a84;}.cls-20{fill:#e79b95;}.cls-21{fill:#e5bdae;}.cls-22{fill:#625452;}.cls-23{fill:#d2816b;}.cls-24{fill:#c88c88;}.cls-25{fill:#d2806a;}.cls-26{fill:#66b9bf;}.cls-27{fill:#00f9ff;}.cls-28{fill:#e8b0a9;}.cls-29{fill:#f2a9a5;}</style></defs><g class="cls-1"><g id="レイヤー_2" data-name="レイヤー 2"><g id="レイヤー_1-2" data-name="レイヤー 1"><path class="cls-2" d="M85.63,58.68c-.36-4.13-15.74-10.26-15.74-10.26l-.25,1.79H42.83l.3-1.75a113.42,113.42,0,0,0-15.85-4,4.53,4.53,0,0,0-2.7-2.75c-2.59-1.07-4.85.11-6.2,2.17s-1.27,4.23,1.32,5.3a6.48,6.48,0,0,0,4.4.18c5.49,3,12,6.15,15.26,7.68l.08,6.2h31l.06-4.77,6.19,3.19L81.49,65C84.06,63.24,85.88,61.57,85.63,58.68Z"/><path class="cls-3" d="M62.37,54,62.1,54c-.85.2-1.71.31-2.56.44s-1.71.35-2.57.4-1.75,0-2.61,0-1.73-.14-2.58-.23-1.73-.15-2.57-.31c-.59-.11-1.17-.25-1.75-.41l2.93,9.28h-11V66.3h31V63.24h-11Z"/><path class="cls-3" d="M27.27,44.46a4.49,4.49,0,0,0-2.69-2.75c-2.59-1.07-4.85.11-6.2,2.17s-1.27,4.23,1.32,5.3a6.48,6.48,0,0,0,4.4.17c2,1.14,4.23,2.28,6.33,3.35l3.89-6.77C32.16,45.41,29.83,44.91,27.27,44.46Z"/><path class="cls-2" d="M70.39,66.3s1.64,10,3.41,17.45c.6,2.53-5.42,2.44-6.32,1.44C63.81,81.09,57.94,74,57.94,74h-6S46,81.09,42.34,85.19c-.89,1-6.91,1.09-6.31-1.44,1.77-7.46,3.41-17.45,3.41-17.45Z"/><path class="cls-3" d="M37.58,78.2h-.34c-.38,1.88-.79,3.79-1.21,5.55-.6,2.53,5.42,2.44,6.31,1.44,1.44-1.61,3.22-3.67,4.85-5.59h-.53A24.33,24.33,0,0,1,37.58,78.2ZM73.8,83.75C73.38,82,73,80.08,72.58,78.2h-.33a24.36,24.36,0,0,1-9.09,1.4h-.53c1.63,1.92,3.41,4,4.85,5.59C68.38,86.19,74.4,86.28,73.8,83.75Z"/><rect class="cls-4" x="50.89" y="63.24" width="8.05" height="3.06"/><path class="cls-3" d="M84.53,32.33l-4.42.48C79,22.5,68.15,14.4,54.91,14.4S30.83,22.5,29.72,32.81l-4.42-.48s1.85,7.18,6.46,10.35c3.92,7.09,12.81,12,23.15,12s19.24-4.94,23.16-12C82.67,39.51,84.53,32.33,84.53,32.33Z"/><path class="cls-5" d="M59.54,54.48c-.86.13-1.71.35-2.57.4s-1.75,0-2.61,0-1.73-.14-2.58-.23-1.73-.15-2.57-.31c-.37-.07-.73-.15-1.1-.24l6.8,4.39,6.83-4.41C61,54.26,60.28,54.37,59.54,54.48Z"/><path class="cls-2" d="M77.6,26a19,19,0,0,1,1.06,1.84,15.24,15.24,0,0,1,.86,1.9,14.43,14.43,0,0,1,.59,2,15.37,15.37,0,0,1,.29,4.06,15.5,15.5,0,0,1-.29,2,15.5,15.5,0,0,1-.49,2,15.67,15.67,0,0,1-.73,2,18.65,18.65,0,0,1-1.07,1.89,17.59,17.59,0,0,1-1.39,1.76,21.32,21.32,0,0,1-1.49,1.7,22,22,0,0,1-1.76,1.54,23.06,23.06,0,0,1-1.86,1.46c-.67.44-1.36.87-2.1,1.26s-1.52.67-2.3,1-1.55.67-2.35.93-1.64.49-2.47.68-1.71.31-2.56.44-1.71.35-2.57.4-1.75,0-2.61,0-1.73-.14-2.58-.23-1.73-.15-2.57-.31a25.21,25.21,0,0,1-2.46-.6c-.81-.22-1.63-.44-2.41-.73s-1.48-.67-2.21-1S40.68,51.3,40,50.89s-1.36-.81-2-1.27-1.24-.93-1.79-1.45a19.57,19.57,0,0,1-1.54-1.62,16.93,16.93,0,0,1-1.2-1.79A20,20,0,0,1,32.27,43,16.64,16.64,0,0,1,31.5,41a15.6,15.6,0,0,1-.64-2,15.43,15.43,0,0,1-.15-2c-.07-.94-.36-1.91-.39-2.84,0-1.09.86-2.17,1.21-3.22a12.29,12.29,0,0,1,2-4.47c.85-.94,1.56-2,2.47-2.92a22.61,22.61,0,0,1,1.81-1.51,24,24,0,0,1,4.35-2.76A30.34,30.34,0,0,1,49,16.75a31.88,31.88,0,0,1,10.32-.62,29,29,0,0,1,5,.86c.81.22,1.64.42,2.42.71s1.49.68,2.22,1,1.49.68,2.17,1.09A23,23,0,0,1,73,21.22a21.41,21.41,0,0,1,1.8,1.44,20,20,0,0,1,1.61,1.58A18,18,0,0,1,77.6,26Z"/><path class="cls-3" d="M82.79,64a20.78,20.78,0,0,0-7.36-2.51,15.84,15.84,0,0,0-3.76,3.61c-1.12,1.65-1.38,4.92.36,5.24a3.6,3.6,0,0,0,4.15-2.72A45.32,45.32,0,0,0,81.49,65C82,64.66,82.38,64.36,82.79,64Z"/><path class="cls-6" d="M54.91,45.24a46.53,46.53,0,0,1-6.33-.41l-.82,9,7.15.8,7.16-.8-.82-9A46.68,46.68,0,0,1,54.91,45.24Z"/><path class="cls-4" d="M55,45.24c-.1.12-.08.22,0,.45a4.74,4.74,0,0,1,0,1l0,.88a4,4,0,0,0,0,.69,3.1,3.1,0,0,1,.12,1c0,.28-.21.53-.25.8a2.15,2.15,0,0,0,.07.62,7.56,7.56,0,0,1,0,2.42c0,.11,0,1.59,0,1.59l7.16-.8s-.47-5.15-.82-9A47.36,47.36,0,0,1,55,45.24Z"/><path class="cls-7" d="M75.71,34.72c-1.88-4.79-9.31,0-20.8,0s-18.91-4.79-20.79,0C33,37.65,38.05,45.24,54.91,45.24S76.86,37.65,75.71,34.72Z"/><path class="cls-8" d="M85.45,57.91c-.65-2.34-3-4.08-5.48-5.33a1.35,1.35,0,0,0-.53-.14c-.54-.36-1.07-.72-1.56-1.08-1-.75-2.57.47-1.54,1.22l3,2.17a12.42,12.42,0,0,1,2.38,2c1.53,1.89.07,3.78-.42,5.73-.18.69.74,1.42,1.59,1A4.77,4.77,0,0,0,85.45,57.91ZM68.33,63.09a1.14,1.14,0,0,0,1.19-.62,9.64,9.64,0,0,0,1-3.11c.08-.17.18-.35.28-.52.58-1-1.27-1.87-1.87-.88a.84.84,0,0,0-.51.69c0,.11,0,.22,0,.33a11.77,11.77,0,0,0-.95,3h0c0,.07,0,.15,0,.23C67.33,62.66,67.85,63,68.33,63.09ZM40.08,55.52c-1.26-.64-2.54-1.25-3.83-1.85A18.46,18.46,0,0,1,32.76,52c-1-.78-2.53.44-1.53,1.22A18,18,0,0,0,34.85,55q1.95.88,3.84,1.83l.09.09c.46.4.28,1.15.21,1.63a.21.21,0,0,0,0,.11,14.49,14.49,0,0,0-.22,3.15c0,1.11,2.21,1.11,2.17,0a12.78,12.78,0,0,1,.18-3,.75.75,0,0,0,0-.21s0-.06,0-.09a3,3,0,0,0-.64-2.65A.93.93,0,0,0,40.08,55.52ZM70.87,70.45c-.07-.61-.14-1.22-.2-1.83a3.16,3.16,0,0,0-.26-1.35c-.56-.94-2.39-1.1-3.5-1.38-1.33-.33-1.91,1.34-.57,1.67a10.66,10.66,0,0,1,1.89.47c.28.13.19,0,.25.31s0,.57.08.85c.1,1,.21,2,.35,3q.41,3,1,6c.22,1.09,2.31.63,2.09-.46C71.52,75.27,71.14,72.87,70.87,70.45ZM56.74,72.7l-4.09-.07a7,7,0,0,0-3.32.43,6.47,6.47,0,0,0-2.07,2.2l-2.1,2.89c-.7,1,1.17,1.84,1.87.87l1.76-2.41a6.88,6.88,0,0,1,1.65-2.06,6,6,0,0,1,2.72-.19l3.58.06C58.14,74.45,58.14,72.72,56.74,72.7Z"/><path class="cls-9" d="M76.06,35.54a2.91,2.91,0,0,0-1.87-2.32,8.12,8.12,0,0,0-4.1-.13l-.41,0a25.55,25.55,0,0,1-1.44,10A22.36,22.36,0,0,0,72,41.07C74,39.74,76.38,37.77,76.06,35.54Z"/><polygon class="cls-5" points="53.82 39.54 82.42 18.06 53.82 31.75 25.21 18.06 53.82 39.54"/><path class="cls-10" d="M54.91,39.54,83.52,18.06s0,0,0,0l-3.4,1.63L73.12,23,65,26.91l-6.86,3.28L56,31.25l-.67.32c-.79.43.06,1.17-.18,1.8a1.22,1.22,0,0,1-.12.19,1.21,1.21,0,0,0-.12.45,13.49,13.49,0,0,0,0,3.59c0,.38,0,.74,0,1.12C54.93,38.89,55.1,39.4,54.91,39.54Z"/><path class="cls-8" d="M78.67,28.15a15.07,15.07,0,0,1-.12-1.91c0-.63-.71-.91-1.32-.81-.14-.35-.29-.69-.44-1-.47-1-2.57-.59-2.09.46a25,25,0,0,1,2,6.67,15.42,15.42,0,0,1-.23,7,29.91,29.91,0,0,1-3.42,6.39,15.54,15.54,0,0,1-2.17,2.81l-.22.19A30.52,30.52,0,0,1,68,51.22l1,0a40.12,40.12,0,0,1-4.55,1.43,1.36,1.36,0,0,0-.42.18c-.52,0-1.05.06-1.58.06-1,0-1.3.94-.81,1.43a1,1,0,0,1,.47-.05,17.32,17.32,0,0,0,12.25-3.89,1.11,1.11,0,0,0-.93-.75c-.93-.18-1.89.52-2.65.85-.46.21-.92.4-1.4.59a6.67,6.67,0,0,1,.67-.52,1.7,1.7,0,0,0,.31-.06c2.27-.78,3.77-2.77,5.07-4.35a24.29,24.29,0,0,0,3.5-5.57A13.89,13.89,0,0,0,78.67,28.15Z"/><path class="cls-11" d="M69,63.09,68.89,63a1.06,1.06,0,0,0-1.42.15,1.68,1.68,0,0,0-.32,1.22l0,1.55c0,.75,1.16.89,1.62.44a1.35,1.35,0,0,0,.64-.4,2.13,2.13,0,0,0,.31-1.18,2.25,2.25,0,0,0-.11-1.23A1.1,1.1,0,0,0,69,63.09ZM43.33,80.18a52.93,52.93,0,0,1-3.5,5.09c-.62.79,1,1.51,1.56.72a50.55,50.55,0,0,0,3.5-5.09C45.39,80.07,43.83,79.34,43.33,80.18Zm-12-31c-.32.2-.69.35-1,.57A2.88,2.88,0,0,0,30,50l-.66-.22c-.91-.3-1.79-.66-2.66-1a6.23,6.23,0,0,0-2.28-.63c-.9,0-1.8.2-2.71.22-1.16,0-1.17,1.46,0,1.44a19.6,19.6,0,0,0,2-.16,3.35,3.35,0,0,1,1.91.32c.57.24,1.14.49,1.72.71a15,15,0,0,0,1.77.52,1,1,0,0,0,1.33.43,2.73,2.73,0,0,0,.8-.56,5.94,5.94,0,0,1,1-.63C33.17,49.85,32.27,48.6,31.35,49.16Zm39,30.62a11.36,11.36,0,0,1,1.09,4.68c0,.93,1.82.93,1.81,0a12.33,12.33,0,0,0-1.15-5.06C71.69,78.53,69.94,78.91,70.34,79.78ZM82,33.08a21.51,21.51,0,0,0-.8,2.34A18.71,18.71,0,0,1,80.09,38c-.45.84,1.11,1.57,1.57.72a21.86,21.86,0,0,0,1.22-2.65,27.31,27.31,0,0,1,.89-2.59C84.2,32.6,82.45,32.22,82,33.08ZM80.4,63.66a33.06,33.06,0,0,1-5,2.52,5.38,5.38,0,0,0-1.81,1.17,4.5,4.5,0,0,1-1.65,1.28c-1.06.37-.14,1.62.91,1.24,1.48-.52,2-1.87,3.46-2.44a33.57,33.57,0,0,0,5-2.53C82.22,64.35,81.32,63.1,80.4,63.66Zm-21-8.14c-1.25,2.15-.95,4.82-2.81,6.75-.36.38-.07,1,.39,1.19a1.3,1.3,0,0,0,1.48-.31c1.92-2,1.55-4.58,2.82-6.76C61.9,55.39,60,54.51,59.44,55.52Z"/><path class="cls-12" d="M86.56,59.27c0-.21,0-.42,0-.64a2.47,2.47,0,0,0-.16-.62,4.82,4.82,0,0,0-.25-.6,4.69,4.69,0,0,0-.3-.59,4.47,4.47,0,0,0-1-1c-.16-.16-.3-.34-.49-.5s-.33-.33-.52-.48-.4-.28-.6-.42-.32-.35-.53-.49l-.62-.4c-.2-.14-.5-.18-.72-.31s-.35-.33-.57-.46-.49-.17-.71-.3-.34-.35-.56-.47-.48-.2-.7-.32-.46-.21-.68-.33-.44-.32-.68-.44-.52-.22-.76-.34L76,50.21c-.25-.12-.48-.28-.72-.39s-.59-.13-.83-.24-.47-.3-.71-.41c.2-.15.34-.35.53-.51s.37-.33.55-.5.47-.26.64-.44.26-.4.43-.57.41-.31.57-.49.24-.41.4-.59.35-.35.5-.53.2-.43.34-.62.35-.35.48-.54l.39-.59c.12-.2.19-.42.31-.62s.39-.29.58-.44.39-.29.56-.45.32-.34.49-.51.3-.35.45-.52.28-.36.42-.54.33-.34.46-.52.24-.38.37-.57.27-.36.39-.55.28-.36.4-.56.17-.4.28-.59.15-.41.25-.61.29-.36.39-.56.21-.4.29-.59.23-.4.31-.59,0-.44.12-.64.2-.4.27-.6.12-.43.19-.62.19-.43.24-.6c.11-.35.21-.56.22-.61a.74.74,0,0,0-.25-.75,1.24,1.24,0,0,0-.9-.2c-.43.05-.42.07-.85.12s-.42.08-.84.13l-.86.07a2.21,2.21,0,0,1-.85,0c0-.23-.1-.42-.14-.64s0-.46,0-.68-.29-.41-.35-.63-.12-.44-.19-.65,0-.47-.08-.68-.15-.43-.24-.65-.26-.4-.36-.61-.25-.4-.36-.61-.18-.42-.29-.63-.16-.43-.28-.63-.29-.39-.42-.59-.21-.42-.35-.61-.29-.34-.44-.53c.21-.29.29-.23.6-.46s.22-.31.53-.54.4-.15.71-.38.28-.26.59-.49l.63-.45.63-.45c.31-.23.3-.24.61-.48s.34-.2.65-.43.29-.24.6-.47.22-.31.53-.55.33-.21.64-.44a.73.73,0,0,0,.34-.49.68.68,0,0,0-.22-.53,1.1,1.1,0,0,0-.58-.36,1.23,1.23,0,0,0-.68.19c-.36.17-.37.15-.73.32s-.34.19-.7.37-.42.09-.78.26-.38.15-.74.32-.26.29-.62.46l-.73.33c-.36.17-.41.11-.77.28s-.38.14-.74.31-.37.16-.73.34-.34.19-.7.36-.29.27-.7.35c-.18-.17-.36-.29-.54-.45L74,20.2c-.19-.16-.35-.33-.55-.49s-.33-.35-.53-.5-.51-.21-.71-.35-.43-.28-.64-.42-.34-.35-.56-.49-.51-.18-.74-.31-.37-.34-.59-.46-.49-.21-.72-.33-.49-.19-.73-.31-.44-.26-.68-.37l-.72-.31c-.24-.1-.51-.16-.76-.25s-.51-.17-.76-.26-.48-.22-.73-.3l-.76-.26L63,14.57c-.26-.07-.53-.11-.79-.18s-.55-.06-.82-.11l-.8-.15c-.26-.05-.54-.08-.81-.12L59,13.9c-.28,0-.53-.17-.8-.2s-.55,0-.83,0-.54-.08-.82-.09-.55.11-.83.1-.54,0-.82,0-.55-.05-.82-.05l-.83,0c-.27,0-.54.08-.81.1l-.82.08-.81.1L50,14c-.27,0-.55,0-.82.09s-.51.17-.78.23-.54.07-.8.13-.54.09-.81.16l-.78.19c-.26.07-.49.21-.74.29s-.53.13-.78.22-.51.17-.76.27-.47.22-.71.32l-.73.31c-.24.11-.46.24-.7.35l-.69.35-.68.37c-.22.12-.49.2-.71.32s-.42.29-.64.42-.44.26-.65.4-.39.31-.59.45-.43.28-.63.43-.42.28-.62.43-.33.35-.52.51-.46.26-.64.42-.34.35-.51.51c-.41-.07-.37-.16-.73-.33s-.31-.24-.67-.41-.44-.05-.8-.23-.28-.27-.64-.44-.37-.16-.73-.33-.41-.11-.77-.28-.29-.27-.64-.44-.42-.09-.78-.26-.32-.23-.68-.4-.34-.2-.7-.37-.4-.11-.76-.29a1.33,1.33,0,0,0-.72-.16,1.05,1.05,0,0,0-.54.39.6.6,0,0,0-.19.52.67.67,0,0,0,.29.48c.31.23.24.29.55.52l.61.47c.31.23.41.15.71.38l.62.46c.31.23.25.29.55.52s.27.27.57.5l.62.47c.3.23.38.17.69.4s.23.29.54.52.37.18.68.41a1.8,1.8,0,0,1,.55.51c-.15.19-.23.35-.37.54s-.23.41-.36.61-.33.37-.45.57-.22.42-.33.62-.19.42-.3.63-.28.39-.38.6-.07.46-.16.67-.14.43-.22.64-.21.42-.28.64l-.21.65c-.06.22-.18.43-.23.65s-.14.43-.19.65,0,.44,0,.66a2.27,2.27,0,0,1-.86,0c-.42,0-.41-.11-.84-.15s-.43,0-.86,0-.42-.08-.85-.13a1.1,1.1,0,0,0-.84.22.7.7,0,0,0-.28.69,4.36,4.36,0,0,0,.13.63c.06.18.19.37.27.6s.13.4.21.62.1.4.18.62l.25.6c.08.2.14.41.23.61s.22.39.32.59.16.4.26.6.27.37.38.57.15.4.27.6.24.37.36.56.32.35.45.54.28.36.41.54.26.37.4.55.25.38.4.55.36.32.53.49.27.37.44.53.34.34.52.49.46.24.66.38.28.46.42.68.2.45.35.67L31,44.36c-.26,0-.53-.06-.8-.11s-.51-.15-.77-.2c0,0,0,0-.06-.06-.21,0-.44-.05-.66-.09s-.37-.12-.59-.16a4.19,4.19,0,0,0-.32-.59,5,5,0,0,0-.46-.57,4.71,4.71,0,0,0-.61-.47,6.63,6.63,0,0,0-.54-.52,6.29,6.29,0,0,0-.67-.41c-.15-.07-.36-.06-.52-.13s-.46-.17-.7-.24a6.86,6.86,0,0,0-.71-.27,6.85,6.85,0,0,0-.78-.07c-.26,0-.53,0-.79,0a5.12,5.12,0,0,0-.73.23,5.74,5.74,0,0,0-.69.26,5.24,5.24,0,0,0-.7.24,5.58,5.58,0,0,0-.63.35c-.19.13-.28.34-.46.49s-.44.23-.59.4-.26.34-.4.52-.22.36-.34.55-.16.38-.26.56-.31.35-.39.53a4.55,4.55,0,0,0-.12.6,4.83,4.83,0,0,0-.17.59,4.22,4.22,0,0,0,0,.61,4.36,4.36,0,0,0,0,.62,3.51,3.51,0,0,0,.26.6,3.2,3.2,0,0,0,.32.57,3.52,3.52,0,0,0,.46.49c.16.17.24.39.43.53a3.8,3.8,0,0,0,.63.35,4.3,4.3,0,0,0,.65.3,6.49,6.49,0,0,0,.74.26,7.22,7.22,0,0,0,.79.13,7.44,7.44,0,0,0,.78.2,7.36,7.36,0,0,0,.81-.06,7.49,7.49,0,0,0,.82,0,7.59,7.59,0,0,0,.78-.22c.2.11.39.27.6.38,0,0,.11,0,.15,0,.2.12.34.3.55.41l.06-.06c.23.13.49.2.72.32s.38.31.61.43.51.17.73.29.42.28.64.4.43.26.66.38.49.19.72.3.49.19.72.31.39.31.62.43.5.17.73.29l.7.32.68.35.69.34c.24.11.43.27.66.38l.69.35.69.33c.23.12.5.19.72.3s.43.28.65.39.52.16.74.27.43.25.65.35c.1.31,0,.31,0,.63s.12.32.12.64,0,.32,0,.64,0,.32,0,.64-.09.32-.09.64,0,.32,0,.64.08.31.09.63-.07.32-.07.64,0,.32,0,.64v.6c0,.3,0,.3,0,.6s0,.3,0,.61-.06.3-.06.6.13.3.12.6a4.17,4.17,0,0,0-.2.64c0,.18,0,.4-.05.65s-.06.41-.1.64-.05.42-.09.65-.17.41-.21.63-.1.42-.14.64.09.44.05.66-.08.43-.12.65-.09.42-.13.64l-.12.64c0,.21-.15.42-.19.64s-.09.42-.13.64-.12.42-.16.64-.09.42-.13.64-.09.42-.13.64,0,.43-.08.65l-.12.64c0,.22,0,.44,0,.66s-.19.41-.23.63c0,0,.07.07.06.11s-.2.32-.23.5,0,.21,0,.31,0,.22,0,.33-.12.31-.15.46,0,.13,0,.19-.15.37-.19.56c0,0,0,.08,0,.12,0,.2,0,.4-.09.59s-.12,0-.12.08c0,.2,0,.41,0,.6,0,0-.1,0-.11.07,0,.2-.09.38-.13.57,0,0,0,.05,0,.07,0,.19-.13.38-.17.56a1.94,1.94,0,0,0,0,.68,1.84,1.84,0,0,0,.09.67,2.5,2.5,0,0,0,.45.59,3.94,3.94,0,0,0,.71.37,3.51,3.51,0,0,0,.68.41c.12,0,.25,0,.37.06l.5.11.18,0,.29.06a1.67,1.67,0,0,0,.32,0,2.64,2.64,0,0,1,.49.08l.3,0c.1,0,.2,0,.3,0a2.08,2.08,0,0,0,.36-.06c.28-.06.57,0,.85-.09s.26-.07.4-.09.24,0,.36,0,.24,0,.36-.09a2.1,2.1,0,0,0,.65-.28,4.26,4.26,0,0,0,.38-.35,3.34,3.34,0,0,1,.4-.35.55.55,0,0,0,.17-.13c.05-.06.09-.13.15-.19l.07-.09c.09-.1.13-.22.22-.32s0-.05,0-.06c.14-.16.31-.32.46-.49s.26-.35.41-.52.33-.31.48-.48.3-.33.45-.5.36-.29.51-.46.17-.4.32-.57.34-.31.49-.48.26-.35.4-.52.26-.35.41-.52l.12.06c.15-.18.2-.4.35-.58s.39-.3.53-.47l.45-.52c.15-.18.17-.42.31-.59s.35-.33.49-.5.32-.35.46-.51.28-.37.42-.54.3-.36.44-.53.37-.33.5-.48.26-.42.38-.56a3.84,3.84,0,0,1,.83,0c.42,0,.42,0,.83,0s.42-.11.83-.11.42.13.83.13h.83a3.87,3.87,0,0,1,.83,0c.11.14.29.27.46.48s.23.35.39.55.25.36.4.54.36.31.51.49.23.38.38.56L60,78c.15.17.43.28.58.45s.15.42.3.6.35.32.5.49.34.33.49.5l-.06,0c.15.17.39.29.53.46s.29.33.44.5.17.4.31.57.41.28.55.44.24.37.39.54.34.31.48.47.28.35.43.52.26.36.4.52.22.38.36.54.06,0,.07,0l.27.28a.53.53,0,0,1,.06.1c.07.08.23.11.3.19s0,.08.07.11.15.23.24.33a1.89,1.89,0,0,0,.59.39,4.33,4.33,0,0,0,.68.3,7.59,7.59,0,0,0,.75.16c.25,0,.5.12.76.14s.53,0,.79,0,.59,0,.89,0,.57-.13.85-.18a6.85,6.85,0,0,0,.88-.13,4,4,0,0,0,.72-.35,3.84,3.84,0,0,0,.67-.41,2.32,2.32,0,0,0,.33-.62,1.72,1.72,0,0,0,.15-.64,2.06,2.06,0,0,0,0-.65c0-.18-.06-.37-.1-.55s0-.07,0-.11-.1-.35-.14-.54c0,0,0-.07,0-.11s-.06-.37-.1-.56c0,0,0-.08,0-.12,0-.19-.21-.36-.25-.55s.09-.11.08-.15c0-.19-.08-.37-.12-.57,0,0-.15-.09-.16-.15s.07-.36,0-.54-.17-.15-.19-.23.1-.28.07-.42-.08-.27-.11-.41-.15-.13-.16-.2c0-.22,0-.44-.08-.66s0-.44-.07-.66-.2-.42-.24-.64,0-.45,0-.67-.1-.43-.14-.65-.07-.44-.11-.65-.09-.44-.13-.66-.12-.43-.16-.64,0-.45-.08-.66-.12-.44-.16-.65-.15-.45-.19-.66c.13,0,.31,0,.45,0a4.5,4.5,0,0,0,.82,0A5.89,5.89,0,0,0,74.3,71a4.74,4.74,0,0,0,.66-.41,4.17,4.17,0,0,0,.63-.33,3.73,3.73,0,0,0,.51-.45,5.3,5.3,0,0,0,.47-.48,6.26,6.26,0,0,0,.34-.55,4.15,4.15,0,0,0,.14-.61c.2-.09.51-.14.81-.27s.41-.31.68-.43.53-.17.78-.3l.73-.36c.25-.13.44-.31.67-.44s.51-.24.73-.37.49-.27.7-.41.39-.21.56-.32.26-.33.42-.45h0c.2-.14.43-.26.62-.41s.42-.28.6-.44.3-.36.47-.53.26-.37.41-.55a5.12,5.12,0,0,0,.39-.56,5.23,5.23,0,0,0,.41-.55,4.72,4.72,0,0,0,.27-.61,4.26,4.26,0,0,0,.13-.64,6.36,6.36,0,0,0,.19-.62C86.65,59.71,86.56,59.49,86.56,59.27ZM80.94,37.86c0-.21,0-.44,0-.66s.08-.44.11-.66.11-.44.13-.66,0-.44,0-.66-.07-.44-.07-.66,0-.36,0-.53,0-.37,0-.54c.31-.12.36,0,.7,0l.68-.06c.34,0,.35-.24.69-.18-.06.18-.15.43-.23.64a5.83,5.83,0,0,1-.18.61c-.07.19-.27.35-.36.56s0,.42-.12.63-.27.35-.36.55-.08.42-.18.62-.26.36-.37.55-.28.35-.39.54-.22.44-.34.62C80.75,38.34,80.9,38.08,80.94,37.86ZM28.7,38c-.11-.19-.18-.39-.29-.58l-.31-.57c-.1-.19-.18-.39-.27-.59s-.16-.39-.24-.59-.28-.36-.36-.56-.19-.4-.26-.59-.14-.41-.21-.59-.1-.5-.17-.68c.34-.06.37,0,.72.07s.33.08.67.12a2.05,2.05,0,0,1,.65.15,3.88,3.88,0,0,0,0,.48c0,.17,0,.35,0,.53s.08.44.09.66,0,.44,0,.66,0,.44,0,.66.2.43.24.65,0,.43.1.65,0,.45.08.67C29,38.32,28.81,38.15,28.7,38Zm48-12c.12.19.18.4.29.59s.18.4.28.6l.31.59c.09.19.28.36.37.56s0,.44.11.64.29.38.36.58.11.42.17.63.05.42.1.63,0,.42.07.63.09.42.13.63.23.41.25.62-.11.43-.09.64.06.42.07.63.12.42.12.64,0,.43,0,.64-.12.43-.14.65,0,.42-.08.64,0,.43,0,.65-.15.41-.19.63,0,.43-.09.64-.13.42-.19.63-.13.42-.2.62-.2.41-.28.61-.23.39-.31.6,0,.45-.13.65-.19.4-.29.6-.31.36-.42.56-.15.42-.27.61-.29.37-.42.56-.28.37-.42.55-.31.35-.46.53-.24.39-.39.57-.39.3-.55.48-.34.33-.51.5-.22.41-.39.57-.37.32-.55.48-.46.25-.65.4-.33.34-.52.49-.44.26-.63.41-.39.29-.6.43-.39.29-.61.43-.37.31-.59.44l-.66.37-.68.36-.7.32-.71.31-.72.3c-.24.1-.45.24-.69.33s-.51.15-.76.24l-.75.25c-.25.08-.42.12-.68.19-.16-.31-.06-.31-.09-.64s0-.34-.07-.67-.12-.33-.15-.66.09-.34.06-.68,0-.33-.07-.66,0-.34-.08-.67-.11-.33-.14-.66,0-.34-.08-.67,0-.33-.07-.67,0-.33,0-.67-.15-.34,0-.67c.27,0,.55,0,.81-.1l.81-.15.8-.17c.26-.06.51-.18.77-.24s.55-.07.81-.14.47-.25.73-.33.51-.15.76-.24l.73-.29c.25-.09.47-.22.71-.32s.51-.17.74-.28.45-.24.68-.35.48-.21.7-.34.45-.24.66-.37.44-.27.64-.41.36-.33.56-.48.46-.24.65-.4.33-.35.5-.51.38-.33.54-.5.27-.37.41-.54.34-.35.46-.53.22-.4.33-.58.22-.4.31-.59a5,5,0,0,0,.11-.64,6.05,6.05,0,0,0,.26-.6,4.52,4.52,0,0,0,0-.64c0-.22.16-.44.13-.64a3.29,3.29,0,0,0-.26-.61c-.09-.21-.24-.39-.34-.58a4.68,4.68,0,0,0-.31-.59,3.84,3.84,0,0,0-.44-.54,4,4,0,0,0-.65-.41,4.17,4.17,0,0,0-.72-.29,6.13,6.13,0,0,0-.79-.16,6.13,6.13,0,0,0-.79-.16c-.25,0-.53,0-.8,0l-.8,0c-.26,0-.52.06-.79.1s-.51.12-.78.16-.53,0-.8,0-.48.19-.75.24l-.78.13-.77.17c-.3.06-.68,0-1,.09.2-.28.31-.22.61-.44l.58-.44c.29-.22.35-.17.64-.39l.59-.44c.29-.22.25-.26.54-.48s.35-.18.64-.4l.59-.43c.29-.22.22-.29.51-.51s.34-.18.63-.4l.58-.44c.3-.22.35-.18.64-.4s.26-.25.55-.47.26-.25.56-.47.31-.2.61-.42l.59-.43c.29-.22.27-.24.57-.46s.34-.17.64-.4.16-.35.53-.48c.13.18.33.34.45.53S76.62,25.76,76.74,26ZM69.32,65.58c-.2.11-.5-.07-.72-.07-.39,0-.39.07-.78.07s-.4-.11-.79-.11-.4.1-.79.1-.39-.1-.79-.1H63.88c-.4,0-.4,0-.79,0H62.3c-.39,0-.39,0-.79,0s-.83,0-1.25,0a.29.29,0,0,1-.16,0c-.08,0-.11-.09-.13-.16a1.67,1.67,0,0,1,0-.63l0-.45a.61.61,0,0,1,0-.13,1,1,0,0,1,0-.1c.15-.2.44,0,.66,0a6.24,6.24,0,0,0,.84-.11c.39,0,.39,0,.78,0s.4.08.79.08.4-.09.79-.09.4.07.79.07.39-.1.79-.1h.79c.39,0,.39,0,.78,0s.4,0,.79,0h.79a5.43,5.43,0,0,1,.71,0l.06,0a.09.09,0,0,1,0,.08c0,.26,0,.51,0,.77S69.56,65.44,69.32,65.58ZM60.39,57c-.09.3-.15.29-.24.6s0,.31-.14.62,0,.31-.15.62-.06.31-.16.61-.18.29-.28.59,0,.32-.14.62-.06.31-.15.62-.18.28-.21.59,0,.4-.28.59-.4,0-.81,0-.42-.07-.83-.07l-.84,0h-.83c-.41,0-.41.08-.83.08s-.42-.06-.83-.06h-.84c-.41,0-.41.06-.83.06s-.46.13-.79-.07-.2-.25-.29-.56,0-.31-.13-.62-.11-.3-.2-.6,0-.33-.11-.63-.14-.29-.24-.6-.11-.3-.21-.6-.18-.29-.27-.6,0-.32-.11-.62l-.2-.61c-.1-.31-.19-.29-.29-.59,0-.12-.41-.44-.27-.52a.33.33,0,0,1,.29,0,3,3,0,0,1,.47.34c.33.21.38.16.71.37s.38.16.7.37.31.23.64.45l.65.42c.33.21.25.29.57.5s.39.16.72.37.28.26.61.47a1.24,1.24,0,0,0,.66.15,1.07,1.07,0,0,0,.6-.22c.33-.21.4-.14.72-.35l.65-.43c.33-.22.27-.27.6-.48s.3-.25.62-.46.42-.12.75-.33.25-.28.58-.49.34-.2.67-.42c.12-.08.26-.27.43-.27a.18.18,0,0,1,.18.19c0,.15-.17.31-.21.47A3.39,3.39,0,0,1,60.39,57Zm-8.35,7a10.69,10.69,0,0,1,2.44.18c.43,0,.43-.06.86-.06.8,0,1.59-.06,2.39-.09a.33.33,0,0,1,.2,0,.1.1,0,0,1,0,0,.34.34,0,0,1,0,.1A4.46,4.46,0,0,0,58,65c0,.21.06.33-.14.49s-.37.05-.8.05h-.87c-.43,0-.43,0-.86,0h-.87c-.43,0-.43.09-.86.09s-1,0-1.56,0a.36.36,0,0,1-.15,0s0-.06-.08-.07l-.1,0c-.18-.08.09-.54.09-.66C51.82,64.47,51.51,64.08,52,63.93Zm-2.1.84c-.06.18-.06.52-.22.63s-1,.07-1.4.07-.39.08-.79.08H46c-.4,0-.4-.1-.79-.1s-.4.06-.79.06-.39,0-.79,0-.39-.06-.79-.06-.39.05-.79.05-.94.12-1.38.08a.27.27,0,0,1-.16,0,.18.18,0,0,1,0-.18l.06-1.15c0-.47.35-.19.74-.19s.4-.1.79-.1.39.11.79.11.39-.06.79-.06.39,0,.78,0,.4,0,.79,0,.4-.09.79-.09.4,0,.79,0,.39.07.79.07.39,0,.79,0a2.83,2.83,0,0,0,.77,0c.4-.06.52-.16.77.08S50,64.52,49.94,64.77Zm1.59-9.41c.27,0,.59,0,.87,0s.55.15.83.16.56-.09.85-.08.55.14.83.14l.85,0c.28,0,.55-.12.83-.14s.56,0,.84,0,.56,0,.84,0a2.44,2.44,0,0,1-.65.46l-.66.43c-.34.22-.35.2-.69.42s-.3.25-.63.47-.29.38-.73.38-.29-.25-.63-.47l-.67-.43c-.34-.21-.36-.19-.69-.41s-.28-.29-.64-.48S51.79,55.63,51.53,55.36Zm8-2c-.39,0-.39,0-.77.06s-.39,0-.77,0-.39,0-.77.05l-.76.08-.76.09a3.87,3.87,0,0,1-.76.11,4.8,4.8,0,0,1-.75-.09c-.38,0-.38-.06-.76-.11l-.76-.07c-.38,0-.39,0-.77,0s-.38-.07-.76-.11-.39,0-.77,0a2.23,2.23,0,0,1-.52-.15c-.21,0-.44,0-.65-.08a.72.72,0,0,1-.27-.09c-.22-.16-.1-.48,0-.67a1.57,1.57,0,0,0,.12-.57c0-.33-.06-.34,0-.68s0-.33,0-.67,0-.34,0-.67.06-.34.09-.68.13-.33.16-.66,0-.34,0-.68,0-.34,0-.68.1-.33.13-.67-.18-.37,0-.69c.25,0,.57,0,.82.06s.51.09.77.11.52,0,.78,0l.77,0c.26,0,.52.09.78.09s.52-.1.78-.1.51.1.77.1.53,0,.78,0,.52-.13.78-.13l.77,0,.78,0,.77-.08.77-.07c.26,0,.6,0,.85,0,.15.32,0,.36,0,.7s-.07.34,0,.68,0,.33,0,.67.15.33.18.67.07.33.1.67-.09.34-.06.68.16.33.19.67-.12.34-.09.68.15.33.18.66a5.52,5.52,0,0,0,.11.71,1,1,0,0,1,0,.54.06.06,0,0,1,0,.06s0,0-.06,0A8.12,8.12,0,0,1,59.5,53.38Zm1.08-9.27c-.27,0-.54,0-.81.08l-.8.09c-.28,0-.56,0-.82,0l-.81,0c-.28,0-.54.16-.8.17s-.56,0-.81,0-.57,0-.82,0-.52,0-.81-.06h-.81c-.26,0-.53,0-.81,0s-.53-.08-.81-.1-.54,0-.82,0-.52-.1-.8-.13-.51-.14-.79-.17-.54,0-.81-.06-.54,0-.81-.07-.51-.15-.77-.2-.54-.06-.81-.11l-.78-.18-.78-.18L43.74,43c-.26-.07-.53-.12-.78-.2s-.46-.24-.71-.33-.46-.23-.7-.33-.53-.12-.77-.23-.47-.22-.69-.34-.44-.26-.66-.39-.39-.3-.6-.44-.38-.3-.58-.45-.5-.21-.68-.37-.29-.37-.47-.54-.38-.31-.54-.48-.31-.33-.44-.49a6.38,6.38,0,0,1-.31-.56,6.07,6.07,0,0,1-.3-.55,5.3,5.3,0,0,1-.31-.55,3.93,3.93,0,0,1-.15-.59,3.18,3.18,0,0,1-.15-.61,1.77,1.77,0,0,1,.18-.59,3.67,3.67,0,0,1,.3-.69,2.18,2.18,0,0,1,.63-.54,2.57,2.57,0,0,1,.85-.25,5.28,5.28,0,0,1,.91,0c.23,0,.48,0,.76,0s.5,0,.77,0,.5,0,.77.08l.75.11c.24,0,.49.11.75.16s.48.13.74.18l.74.15c.28.06.56.08.85.14s.54.13.83.18l.84.16.84.15c.28,0,.58.06.87.1s.25.25.54.47l.59.43c.29.21.34.17.63.39s.22.28.51.49.28.24.57.45a1.89,1.89,0,0,0,.49.25,8.93,8.93,0,0,0-1.15,0c-.6,0-1.22.12-1.81.12s-.92-.1-1.39-.09l-.72,0a4.35,4.35,0,0,0-.76,0c-.65-.05-1.26-.19-1.93-.2-1.05,0-2.08.11-3.13.19-1.28.09-1.29,2.11,0,2,1.05-.08,2.08-.2,3.13-.19h.7c.31,0,.62.12.93.15a15.12,15.12,0,0,0,1.78,0c.45,0,.89.09,1.33.09.62,0,1.26-.09,1.87-.13a5.94,5.94,0,0,0,.72,0l.27,0,.26,0a5.64,5.64,0,0,0,1.74,0,1.07,1.07,0,0,0,.58-.26l.09.07c.29.21.18.31.47.53a4.49,4.49,0,0,0,.54.3,8.16,8.16,0,0,0-1.38.1h-.16l-.6,0L51.15,40c-1.2,0-2.4,0-3.6,0s-1.3,2,0,2,2.52,0,3.79,0a9.63,9.63,0,0,0,1.78,0l.54-.1.16,0s0,0,.06,0c.31,0,.61,0,.91,0,.61,0,1.21,0,1.82,0l.45.05.47.08a3.63,3.63,0,0,0,1.09-.09,1.65,1.65,0,0,0,.27,0l.23,0c.31,0,.62.09.94.11a8.36,8.36,0,0,0,2.17-.2c1.28-.23.74-2.17-.54-1.94-.27.05-.55.12-.83.16a2.36,2.36,0,0,0-.44,0H60.1l-.45,0c-.15,0-.31-.05-.47-.06a3.63,3.63,0,0,0-1.09.08l-.26,0-.24,0a7.32,7.32,0,0,0-.94-.12c-.34,0-.67,0-1,0,.21-.14.28-.13.54-.32s.33-.18.62-.4a2.2,2.2,0,0,0,.34-.32.94.94,0,0,0,.45.11A7.48,7.48,0,0,0,59.42,39l.25,0L60,39c.23,0,.46.05.7.06,1.2,0,2.4-.09,3.6-.1,1,0,2,.09,2.94,0h.23l.52.09a3.54,3.54,0,0,0,.73,0c.55,0,1.1-.07,1.65-.1,1.29-.07,1.3-2.09,0-2-.52,0-1,.05-1.56.1l-.27,0-.26,0a6.53,6.53,0,0,0-.87-.13c-.57,0-1,.09-1.63,0a12.19,12.19,0,0,0-1.48,0c-1.18,0-2.36.08-3.53.08-.3,0-.59,0-.88-.06l.42-.29c.29-.22.28-.23.58-.44s.32-.19.61-.41.28-.23.57-.45a3.18,3.18,0,0,1,.6-.41c.28,0,.49-.22.77-.26s.6,0,.88,0,.54-.19.82-.25l.83-.16c.29,0,.6,0,.87-.06s.53-.16.79-.21l.8-.14c.28-.05.56-.05.81-.09s.54-.15.79-.19l.82-.09c.29,0,.56-.06.81-.07s.58,0,.83,0a3.92,3.92,0,0,1,.77.2,2.69,2.69,0,0,1,.74.26,2,2,0,0,1,.44.54,3,3,0,0,1,.35.58,1.56,1.56,0,0,1,.18.6c0,.18-.15.37-.19.59s0,.41,0,.61a4.89,4.89,0,0,1-.27.57,5.22,5.22,0,0,1-.37.54c-.11.17-.18.37-.32.55s-.38.28-.53.45-.26.39-.43.55-.34.34-.53.5-.47.23-.67.38-.3.37-.51.51-.51.19-.73.31-.41.29-.64.41-.41.28-.65.39-.51.16-.75.26-.45.25-.69.35-.54.1-.79.19l-.75.24-.76.22c-.26.07-.49.2-.75.26s-.53.09-.79.15l-.8.15-.79.14c-.27,0-.52.13-.79.17S60.84,44.08,60.58,44.11Zm-8-4ZM37,21.54c.19-.16.29-.37.48-.53s.35-.32.55-.47.45-.25.65-.39.39-.3.6-.43.44-.25.65-.38L40.6,19c.22-.13.44-.24.67-.36s.37-.33.59-.45.53-.14.76-.25.41-.29.65-.4.49-.16.74-.26.52-.11.77-.2.42-.3.67-.38.56-.05.81-.13.49-.18.74-.25.49-.19.75-.25.5-.17.76-.22.55,0,.81-.06.51-.15.78-.2.51-.13.78-.16.54,0,.81,0l.8-.08c.27,0,.54,0,.81,0s.54-.08.81-.08.53-.06.8-.06.54.14.81.14.54-.07.81-.06.53.12.79.14.55,0,.82,0,.54,0,.81.05.5.17.77.22.54,0,.81.06l.78.16.77.19.77.21c.25.07.52.12.77.2s.47.21.72.29.47.21.71.3.54.1.78.2l.73.28c.23.1.43.26.66.37s.49.19.71.31.48.2.7.32.42.28.64.41.42.27.63.4.45.24.66.37l.62.41c.2.15.3.38.49.53s.48.22.67.38.33.34.51.5l.49.45a1.57,1.57,0,0,1-.62.43c-.35.17-.38.13-.74.3s-.37.15-.72.32-.34.19-.7.36-.39.12-.75.29l-.7.35-.71.33c-.36.17-.32.23-.67.4l-.7.35c-.36.17-.4.11-.76.28s-.31.23-.66.4-.4.11-.76.28-.38.13-.73.3-.31.24-.67.41-.34.18-.7.35-.39.12-.75.29-.33.2-.68.37l-.7.35c-.36.17-.4.11-.76.28s-.34.19-.7.36l-.71.33c-.36.17-.32.22-.68.39s-.38.14-.73.31-.37.15-.73.32l-.71.34c-.35.17-.27.44-.69.44s-.36-.22-.72-.39-.3-.25-.65-.42-.42-.09-.77-.26-.29-.25-.65-.42-.44-.06-.79-.23l-.72-.33c-.35-.17-.32-.22-.67-.38s-.33-.22-.68-.39-.39-.12-.75-.29-.3-.24-.66-.41-.41-.09-.77-.26-.33-.19-.69-.36l-.71-.33c-.36-.17-.39-.13-.75-.3s-.33-.2-.69-.37-.29-.24-.65-.41L42.87,25c-.35-.16-.38-.13-.73-.3s-.38-.14-.73-.31-.3-.25-.66-.42-.42-.07-.78-.24-.33-.21-.68-.38-.31-.23-.67-.4-.43-.07-.79-.24l-.71-.33c-.36-.17-.43-.13-.7-.38C36.6,21.84,36.84,21.7,37,21.54Zm-3.15,1a.13.13,0,0,1,.1,0,9.42,9.42,0,0,1,1.39.68,5.17,5.17,0,0,0,.59.36c.18.07.35.16.52.24l.7.31c.35.17.34.18.68.34s.37.13.72.3.3.22.65.38.3.23.64.4l.69.33c.34.17.43.06.77.22s.31.21.66.37.37.13.72.29.3.23.64.4.33.18.68.35.41.07.76.23.33.18.68.35.28.24.63.4.33.18.68.35.37.13.71.29.39.12.73.28.33.19.68.36.36.13.71.3.27.26.62.42.4.1.74.26.33.19.68.35.36.14.71.31.29.24.63.4l.7.33c.34.17.37.13.71.3a1.24,1.24,0,0,0,1,0l.68-.34.68-.34c.35-.16.37-.13.71-.3s.37-.14.71-.3.33-.19.68-.35.35-.16.7-.32.29-.24.63-.4.4-.1.74-.26.34-.18.68-.35.32-.2.66-.37.36-.15.7-.32.34-.18.68-.34.37-.13.72-.29.33-.19.68-.35.37-.13.71-.3.34-.18.68-.34.33-.19.67-.36.39-.11.73-.27l.69-.34c.34-.16.3-.22.65-.38s.38-.12.73-.28.37-.13.72-.29.32-.19.67-.36l.69-.32.69-.33c.35-.17.31-.22.65-.39l.7-.32c.34-.17.31-.21.66-.37.13-.07.28-.1.41-.18l.37-.25a3,3,0,0,1,.74-.37c0,.1-.06.2-.15.28l-.37.36a3.73,3.73,0,0,1-.3.26,3.78,3.78,0,0,1-.33.22c-.27.17-.54.36-.83.51s-.26.26-.41.38c-.3.22-.4.14-.69.36s-.24.26-.54.48-.24.27-.54.49-.41.12-.71.34-.21.29-.51.51-.37.15-.67.37-.18.32-.48.54-.39.13-.69.35-.28.24-.57.46-.24.27-.53.49-.38.15-.67.37l-.59.45c-.29.22-.19.31-.48.53s-.4.14-.69.36l-.6.44-.59.43c-.3.22-.26.26-.55.48s-.27.24-.57.46-.27.24-.56.46-.37.17-.66.39-.31.21-.6.43-.26.25-.56.47-.23.28-.52.5-.38.15-.68.37-.22.28-.52.5-.32.2-.62.42-.33.19-.63.41-.22.28-.51.5-.32.21-.61.43l-.61.43c-.29.22-.28.23-.57.46s-.2.38-.61.38-.29-.17-.59-.39-.35-.18-.64-.4-.22-.28-.52-.5-.36-.16-.66-.38-.28-.24-.57-.46l-.59-.44c-.29-.22-.2-.3-.5-.52s-.32-.2-.61-.42-.29-.23-.58-.45-.39-.14-.69-.36-.18-.32-.48-.54-.35-.17-.64-.39-.35-.18-.64-.4l-.6-.44c-.29-.22-.24-.27-.53-.49s-.27-.24-.56-.47-.26-.25-.55-.47-.38-.15-.68-.37-.23-.27-.53-.49-.28-.24-.57-.46-.4-.13-.69-.35-.28-.24-.58-.46-.21-.28-.51-.5-.34-.19-.63-.41-.33-.19-.63-.41-.22-.28-.52-.51-.37-.15-.66-.37-.23-.28-.52-.51-.26-.25-.55-.47-.35-.18-.64-.4-.28-.24-.57-.46-.38-.16-.67-.38-.27-.24-.56-.46l-.36-.3a3.43,3.43,0,0,0-.55-.35,1.79,1.79,0,0,1-.69-.57S33.81,22.54,33.87,22.52ZM31.4,39.67c-.07-.2-.06-.43-.13-.64s-.18-.41-.23-.62,0-.44,0-.65-.1-.42-.14-.64-.07-.42-.1-.63-.05-.43-.07-.65-.14-.42-.15-.64,0-.43,0-.64,0-.43,0-.64.14-.42.16-.63,0-.42.05-.63,0-.43,0-.64.06-.42.11-.63.18-.4.23-.61.07-.42.14-.63.06-.42.13-.62.2-.4.28-.6.18-.4.27-.6.13-.41.23-.61.23-.38.33-.57.15-.41.26-.61.21-.39.33-.58.18-.4.31-.59.31-.33.45-.51c.37.13.29.21.59.43s.33.18.63.4.22.28.52.5.32.19.62.41.34.17.64.39.18.32.47.54.37.15.67.37.31.21.6.43.21.28.51.5.28.23.58.45l.58.44c.3.22.33.2.62.42l.59.43c.3.22.33.19.62.41s.23.28.53.5.31.2.6.42.28.23.58.45.38.16.58.44c-.32-.06-.61-.09-.91-.15s-.5-.19-.76-.23-.55,0-.81,0-.51-.12-.77-.16-.5-.2-.75-.24-.54,0-.8-.08l-.79-.09c-.28,0-.55,0-.8,0s-.55,0-.81,0-.54.07-.8.11a5.62,5.62,0,0,0-.76.22,5.15,5.15,0,0,0-.72.29,3.64,3.64,0,0,0-.6.43,3.57,3.57,0,0,0-.55.48,4.69,4.69,0,0,0-.35.58,5.59,5.59,0,0,0-.3.6,2.65,2.65,0,0,0-.16.63,4.34,4.34,0,0,0-.06.63,3.83,3.83,0,0,0,.22.62,4.64,4.64,0,0,0,.07.64,5.77,5.77,0,0,0,.23.61,5.45,5.45,0,0,0,.31.58c.11.19.24.38.37.57a5.7,5.7,0,0,0,.33.58c.14.18.3.36.46.53s.41.29.59.46.34.33.53.49.41.27.61.42.39.3.6.44.39.29.61.43.38.31.61.44.45.23.68.35.49.19.73.3.4.31.64.41.55.09.8.19.46.22.71.31l.76.25c.26.08.51.17.77.24l.78.22c.26.07.54.08.81.14l.79.18.79.16c.27.05.55.13.83.18.09.32-.07.34-.1.67l-.06.67c0,.33-.1.33-.13.66s.14.34.11.68-.13.32-.16.66,0,.33-.05.67-.08.33-.11.66-.07.33-.1.67,0,.33,0,.67-.06.33-.09.66.13.35,0,.66c-.25-.07-.47-.12-.72-.2s-.52-.13-.77-.21-.45-.25-.69-.34-.47-.21-.71-.31-.54-.11-.78-.21-.48-.19-.72-.3-.43-.26-.66-.38l-.68-.35-.68-.35c-.22-.13-.33-.37-.54-.5s-.46-.23-.66-.37-.4-.29-.6-.44-.42-.27-.61-.42-.34-.34-.53-.49-.41-.28-.6-.44-.42-.27-.6-.44-.23-.4-.4-.57-.4-.3-.56-.47-.27-.37-.43-.55-.29-.36-.43-.54-.26-.38-.4-.56-.25-.38-.38-.57-.29-.36-.41-.55-.31-.36-.43-.56-.17-.41-.27-.6-.23-.39-.33-.59-.26-.39-.34-.59,0-.45-.1-.65S31.47,39.88,31.4,39.67Zm0,9.61c-.17.29-.27.25-.43.54s-.1.3-.26.59l-.33.56c-.16.29-.11.31-.38.53-.24-.12-.38-.24-.6-.35l-.69-.36c-.24-.12-.54-.15-.77-.27s-.44-.26-.66-.38l-.69-.36s0-.09,0-.11-.39-.14-.56-.23l-.12-.06c-.17-.09-.33-.2-.49-.29s0-.1,0-.11a5,5,0,0,0-1.17-.37.78.78,0,0,0-.22,0,4.56,4.56,0,0,0-.9.14,6.09,6.09,0,0,1-.71.17,4.69,4.69,0,0,1-.75,0,4.19,4.19,0,0,1-.72-.16,3.78,3.78,0,0,1-.64-.31,3.94,3.94,0,0,1-.8-.36,2.2,2.2,0,0,1-.57-.57,1.74,1.74,0,0,1-.22-.71,2.36,2.36,0,0,1,0-.28,2.79,2.79,0,0,1,0-.58,3.06,3.06,0,0,1,.14-.58c.07-.19.26-.34.35-.53s.07-.4.19-.58.27-.4.41-.58a5.27,5.27,0,0,1,.58-.48,4.05,4.05,0,0,1,.57-.47,4,4,0,0,1,.66-.41,3.64,3.64,0,0,1,.9-.2,3.2,3.2,0,0,1,.92.09,4.38,4.38,0,0,1,.87.24,4,4,0,0,1,.62.31,3.2,3.2,0,0,1,.56.37,3.89,3.89,0,0,1,.42.49,3.35,3.35,0,0,1,.28.53c.09.18.3.33.36.52a.89.89,0,0,0,.7.61c.22,0,.43.11.65.15s.45,0,.67.09.25.1.39.13c.32.06.67.05,1,.11.12,0,.23.11.35.14s.42.06.62.11l.63.11c.11,0,.23,0,.33,0,.38.08.73.22,1.11.3h.13c-.14.29-.23.26-.39.54s-.17.28-.33.57-.1.3-.27.59-.11.3-.27.59Zm7.12,6.46c-.22-.1-.42-.24-.66-.36s-.48-.17-.71-.28l-.66-.36c-.23-.1-.41-.28-.64-.39s-.51-.14-.74-.25-.47-.19-.7-.3-.38-.31-.61-.42l-.68-.33c-.22-.11-.47-.2-.7-.31s-.52-.23-.75-.35c.05-.32.23-.29.4-.58s.11-.32.28-.62.26-.26.43-.56.08-.33.25-.63.2-.28.37-.57.27-.26.44-.56.1-.32.27-.62.12-.31.41-.55c.17.18.25.34.43.51l.56.5c.19.16.41.3.61.46s.38.32.58.47.48.24.68.39.41.31.62.45l.66.41c.22.14.37.34.59.47s.46.26.69.39l.69.37c.23.12.51.18.75.3s.4.33.64.44.54.14.79.24l.73.32.76.27L45,54c.26.08.53.14.79.21l.84.23c.19.29,0,.35.08.66s.05.32.15.63.23.28.33.59.13.3.22.61,0,.33.06.64.18.3.28.6.16.3.26.61,0,.33.09.64.14.3.24.61,0,.32.13.62.21.29.31.6,0,.33.09.64.5.38.26.63-.43-.06-.82-.06-.4.1-.79.1-.4-.13-.79-.13-.4,0-.79,0-.4,0-.79,0-.4,0-.79,0-.4,0-.79,0-.4-.05-.79-.05H42c-.4,0-.4.12-.79.12s-.52.17-.79-.06,0-.34,0-.68,0-.34,0-.67v-.68c0-.34,0-.34,0-.68s0-.34,0-.68-.14-.33-.14-.67.15-.34.15-.68-.1-.34-.1-.68a.78.78,0,0,0-.46-.69c-.22-.1-.41-.26-.65-.37S38.71,55.85,38.47,55.74ZM44.93,81l-.44.51c-.15.17-.42.28-.57.45,0,0,0,.07,0,.08s-.28.26-.39.4-.19.15-.26.23-.14.17-.22.25-.13.24-.22.34l-.18.18c-.1.12-.16.26-.27.38l-.08.1c-.11.14-.29.23-.4.35s0,.09,0,.11-.36.21-.48.35a1.69,1.69,0,0,1-.7.26,5.7,5.7,0,0,1-.8.15c-.27,0-.55,0-.83,0a5.56,5.56,0,0,1-.83-.08,3.89,3.89,0,0,1-.75-.28,1.44,1.44,0,0,1-.54-.32c-.12-.15,0-.33.06-.51s0-.33,0-.49,0,0,0-.08.06-.31.1-.47,0-.05,0-.08.1-.32.13-.48,0-.07,0-.1,0-.32.08-.48.12-.06.12-.1,0-.32.09-.48,0-.11,0-.16l.06-.38c0-.1,0-.21,0-.31s.14-.12.15-.19c.07-.29.09-.6.15-.9.22.07.49.2.78.28s.54,0,.83.11.47.23.75.29.55,0,.83.07.54.06.82.1.52.13.8.16.53.15.81.17l.83,0c.27,0,.54,0,.82,0C45.14,80.58,45.08,80.78,44.93,81Zm19.13-2.18c-.28,0-.56,0-.84,0,0,0,0,.06-.06.06l.05-.06c-.15-.18-.4-.29-.54-.47s-.21-.39-.36-.57-.37-.31-.52-.48-.24-.38-.38-.55-.26-.37-.4-.54-.39-.31-.53-.48-.28-.37-.42-.53-.23-.4-.37-.56-.4-.33-.52-.48a2.19,2.19,0,0,1-.35-.57,1.18,1.18,0,0,0-.88-.3c-.43,0-.43,0-.86,0h-.87c-.43,0-.43,0-.86,0s-.43,0-.87,0h-.86c-.43,0-.43,0-.87,0s-.43.06-.86.06a1,1,0,0,0-.78.33s-.15.21-.42.54c-.12.14-.29.31-.46.51s-.35.29-.51.48-.31.33-.46.51-.25.37-.4.55-.25.36-.4.54-.38.3-.53.48l-.44.52c-.14.17-.2.39-.35.57s-.4.29-.55.47h.07s0,.11,0,.11c-.29,0-.58,0-.85,0s-.58.06-.85,0l-.85-.06c-.28,0-.55-.13-.83-.16l-.83-.11c-.28,0-.55-.13-.81-.18s-.57-.07-.83-.13l-.8-.19c-.3-.08-.61-.06-.85-.13a7,7,0,0,1-.75-.31c.05-.22.18-.42.22-.64l.12-.66c0-.22-.08-.46,0-.68s.25-.42.29-.63,0-.45,0-.67.15-.43.19-.65.06-.44.1-.66,0-.45,0-.67.17-.43.21-.65.09-.44.13-.65,0-.46,0-.68.24-.43.27-.64.06-.45.1-.66-.05-.47,0-.67.1-.46.13-.66.16-.42.2-.61a2.61,2.61,0,0,1,.79,0c.41,0,.41,0,.81,0s.41-.08.81-.08.41.07.81.07.41,0,.81,0,.41,0,.82,0,.4.08.81.08h.81c.4,0,.4,0,.81,0s.4-.07.81-.07.4,0,.81,0,.41,0,.81,0,.41,0,.81,0,.41.08.81.08.41-.09.81-.09.41,0,.82,0,.4-.08.81-.08.4.14.81.14h.81c.4,0,.4-.07.81-.07h.81c.41,0,.41,0,.81,0S58.56,67,59,67s.41.09.82.09.4,0,.81,0S61,67,61.4,67s.4.08.81.08.4.06.81.06.41-.06.81-.06.41,0,.81,0,.41-.09.81-.09.41.12.82.12.4-.08.81-.08h.81c.41,0,.41,0,.81,0s.43-.15.82-.06c0,.18.06.42.1.67s.08.42.12.66.13.42.17.65-.06.45,0,.67.1.43.14.66.2.42.24.64.11.43.15.66-.06.45,0,.67.16.43.2.65.14.43.18.65-.08.46,0,.68.18.42.22.64.07.44.11.66.12.44.16.66.14.43.18.65,0,.45.07.67c-.19.07-.46.19-.79.29s-.55,0-.84.1-.49.23-.78.29l-.81.17-.83.14-.84.1c-.27,0-.56,0-.84,0s-.56,0-.85,0S64.35,78.77,64.06,78.77Zm7.36-16.19c0-.33-.06-.33,0-.66s.1-.34.1-.67-.14-.33-.14-.67-.23-.44.13-.6.29.13.64.31l.69.36c.35.18.37.15.72.33s.44.1.71.36c-.18.13-.43.28-.66.47s-.42.31-.62.49-.27.42-.47.6-.38.34-.56.53-.43.37-.59.57c-.11-.36.15-.38.15-.75S71.41,62.92,71.42,62.58Zm.87,18.59c0,.14,0,.28,0,.41s.07.1.08.16-.07.31,0,.46,0,.09,0,.13.21.29.24.44,0,.07,0,.1,0,.31.07.47-.11.07-.1.09.07.32.11.48.13.34,0,.49a1.34,1.34,0,0,1-.52.29,4.22,4.22,0,0,1-.76.19,5.77,5.77,0,0,1-.79.21,5.71,5.71,0,0,1-.83,0,4.53,4.53,0,0,1-.8-.16A1.47,1.47,0,0,1,68,84.43l-.14-.25a3.43,3.43,0,0,0-.43-.42,11.25,11.25,0,0,1-.82-.88s0-.14,0-.2-.28-.18-.39-.3-.1-.2-.18-.29-.21-.14-.29-.23-.16-.31-.28-.45l-.13-.15-.36-.43-.35-.4c.28,0,.52-.05.79-.06l.83-.06c.28,0,.56,0,.83,0s.54-.1.81-.14l.81-.14.81-.14.8-.17.79-.2c.29-.08.57-.26.79-.33,0,.17,0,.4,0,.56s.12.32.15.48,0,0,0,0,.15.3.18.46,0,.16,0,.24S72.28,81.09,72.29,81.17ZM80.9,64.41c-.18.12-.4.24-.62.37l-.63.34c-.21.11-.46.18-.68.29s-.45.19-.66.3-.41.26-.62.36-.46.2-.67.29-.47.21-.66.3a4.76,4.76,0,0,1-.69.26.83.83,0,0,0-.45.63,2.82,2.82,0,0,1-.24.69,2.74,2.74,0,0,1-.5.58,4.91,4.91,0,0,1-1.37.84,2.26,2.26,0,0,1-.85-.1.73.73,0,0,1-.33-.16c-.08-.15,0-.37,0-.57,0,0-.06,0-.07-.08a3.75,3.75,0,0,1,0-.66,3.61,3.61,0,0,1,0-.66,5.33,5.33,0,0,1,.17-.66,6,6,0,0,1,.22-.64,3.53,3.53,0,0,1,.36-.6c.14-.2.23-.42.38-.61s.3-.39.46-.57a6.62,6.62,0,0,1,.56-.51c.19-.19.36-.37.54-.53s.37-.37.56-.51.51-.3.67-.42.51,0,.84.09.5.16.8.24.49.2.77.28.55.09.82.18.51.17.77.28.49.21.74.32.45.25.69.38C81.06,64.22,81,64.34,80.9,64.41Zm3.67-5a4.76,4.76,0,0,1-.06.66,3.71,3.71,0,0,1-.07.67,3.91,3.91,0,0,1-.4.6,4.05,4.05,0,0,1-.32.62,4.92,4.92,0,0,1-.48.56c-.17.17-.39.29-.58.46-.24-.13-.46-.24-.7-.35s-.51-.21-.75-.31L80.45,62c-.26-.1-.54-.16-.79-.24s-.49-.26-.74-.34l-.81-.22c-.28-.07-.6,0-.85-.09,0,0,0-.13-.06-.15-.35-.17-.36-.16-.7-.34l-.69-.35c-.35-.18-.38-.14-.72-.32s-.29-.25-.63-.42l-.69-.36c-.34-.18-.33-.19-.68-.36l-.69-.35c-.35-.18-.43-.07-.77-.25s-.28-.26-.63-.44a1.26,1.26,0,0,0-.55,0c-.17,0-.36-.08-.51,0a.89.89,0,0,0-.55.73c0,.33,0,.33,0,.67s0,.33,0,.66.09.33.09.67-.05.33-.05.66-.07.33-.08.66.27.4,0,.64-.35.06-.75.06-.39-.08-.79-.08-.39.11-.79.11-.39,0-.79,0-.39-.07-.79-.07h-.79c-.39,0-.39.09-.79.09s-.39.05-.79.05-.39,0-.79,0H61.5c-.39,0-.56.23-.8,0s.17-.31.27-.61.07-.32.16-.63,0-.32.12-.63.08-.31.18-.62.21-.28.31-.59.07-.32.17-.63,0-.32.12-.63.15-.3.24-.6,0-.33.12-.64.17-.29.27-.6.08-.31.18-.62.17-.3.27-.6,0-.32.2-.61c.26-.06.41-.23.67-.3s.54-.06.78-.14l.75-.24c.25-.09.46-.23.7-.32s.53-.11.77-.21.41-.28.65-.39.52-.13.75-.24.41-.29.63-.4l.66-.37c.22-.12.51-.16.72-.29s.39-.3.6-.43l.63-.4c.2-.14.42-.2.62-.34.24.1.46.15.71.26l.71.34c.24.11.5.19.74.31s.44.27.68.39l.7.35c.24.12.52.18.75.3l.71.35.7.36c.23.13.38.34.6.47s.53.18.75.31l.67.4c.22.13.41.31.62.45s.42.29.63.43.37.34.57.49.43.29.62.44.41.3.59.46.44.3.6.46.39.35.53.52a4.84,4.84,0,0,1,.38.6,1.86,1.86,0,0,1,.21.66C84.73,59,84.58,59.19,84.57,59.41Zm-60-13.86-.21-.08a1.36,1.36,0,0,1-.64-.61,1,1,0,0,1-.09-.46c0-.18.2-.38.32-.53a1.29,1.29,0,0,0,.27-.48c.08-.35-.28-.67-.74-.66a1.28,1.28,0,0,0-.73.27c-.06,0-.17.31-.39.62s-.37.35-.46.58a2,2,0,0,0-.09.69,1.42,1.42,0,0,0,.17.67,2.51,2.51,0,0,0,.4.5,2.92,2.92,0,0,0,.42.49,3.88,3.88,0,0,0,.62.34,3.82,3.82,0,0,0,.7.23,1,1,0,0,0,.24,0,.8.8,0,0,0,.75-.59.81.81,0,0,0-.54-1Z"/><path class="cls-3" d="M53.18,23.76l-.41,0h-.36a7.27,7.27,0,0,0-.81,0l-.43,0a2,2,0,0,0-.06-.77c0-.13,0-.26,0-.39,0,0,0,0,0,0a.69.69,0,0,0,0-.32h.08a1.51,1.51,0,0,0,.31,0h.22c.24,0,.47,0,.71,0,1.3.06,1.3-2,0-2-.68,0-.76,0-1.42,0,.63,0-1.28,0-.17,0a6,6,0,0,1-.76,0c-.27,0-.68,0-1.19,0h-.08a2.89,2.89,0,0,0-.72,0l-.12,0h0c-1.27-.19-1.82,1.76-.53,1.94a4.17,4.17,0,0,0,1.06,0h0l.43.05h.17v0a1.54,1.54,0,0,0,0,.3,1.06,1.06,0,0,0,0,.35l0,.12a1.6,1.6,0,0,0,0,.44s0,.07,0,.1l0,.22h0a3,3,0,0,0-.54,0c-.38,0-.29-.07-.78-.06l-.21,0a2.42,2.42,0,0,0-.46,0h0a1,1,0,0,0,0,2,3,3,0,0,0,.5-.07h.28a3.87,3.87,0,0,0,.7.08c.22,0,.47,0,.43-.06h.38c.07,0,.7.07,0,0,.21,0,.39,0,.59,0,.59,0,1.16,0,1.75,0l.58,0h.41l.45,0C54.48,25.83,54.48,23.81,53.18,23.76Zm-4-.91V22.8C49.15,22.72,49.15,22.78,49.14,22.85Zm14.2-2a1,1,0,0,0-.7-.71,1.42,1.42,0,0,0-.68,0h-.12l-.36,0c-.06,0-.39,0-.17,0a7.65,7.65,0,0,0-1.07,0c.22,0-.12,0-.07,0a4.26,4.26,0,0,0-.5-.06c-.12,0-.55,0-.44.06-.15,0-.31,0-.36,0a4,4,0,0,0-.44,0,8.67,8.67,0,0,0-1.55,0c-1.28.11-1.3,2.13,0,2,.31,0,.26,0,.71.05l.35,0,.18,0a3.55,3.55,0,0,0,.79,0h0l.12.21c0,.07,0,.08,0,.07a2.21,2.21,0,0,1-.07.46,1.28,1.28,0,0,1-.2.26c-.05.05-.51.5-.2.17l-.21.16h0l-.56.15a4.27,4.27,0,0,1-1,0,1,1,0,0,0,0,2,5.53,5.53,0,0,0,1.15,0,6,6,0,0,0,.71-.2,3.33,3.33,0,0,0,1.67-1.13,2.51,2.51,0,0,0,.42-.7A2.32,2.32,0,0,0,63.34,20.9Zm-2,.61h0l0,0Zm.1,1c-.35,0-.62-.11-.62-.25s.27-.24.62-.24.61.11.61.24S61.82,22.53,61.48,22.53ZM37.25,34.18a1,1,0,1,0,1.2,1A1.1,1.1,0,0,0,37.25,34.18Z"/><path class="cls-13" d="M21.54,43.37a1.91,1.91,0,0,1,.18.71l0,.07a1.19,1.19,0,0,1,.14.52h0a2.33,2.33,0,0,1,.17.57c.1.4.21.79.3,1.18,0,.06,0,.11,0,.16a.06.06,0,0,0,0,.06s.05.07,0,.11h0a2.64,2.64,0,0,1,.2.78h0a.23.23,0,0,1,.05.18s0,0,0,0a.66.66,0,0,1,.09.37,0,0,0,0,0,0,0s0,.06,0,.1,0,0,0,.06a.57.57,0,0,1,.09.36s0,0,0,.06A.3.3,0,0,1,23,49a.17.17,0,0,0,0,.1.68.68,0,0,1,.11.42v0a1.53,1.53,0,0,1,.16.59h0a.13.13,0,0,1,0,.11v0a.37.37,0,0,1,.07.27v0a.25.25,0,0,1,.06.2l0,.11a.58.58,0,0,1,0,.43h0c0,.1-.05.18-.07.27v0s0,.06-.05.09h0a1.05,1.05,0,0,1-.23.29l0,0a1,1,0,0,1-.63.29h0a.9.9,0,0,1-.68,0h0a.22.22,0,0,1-.19,0h0a.2.2,0,0,1-.18-.07.21.21,0,0,0-.13-.07c-.19-.05-.28-.22-.41-.34h0s-.17-.16-.19-.33v0a.12.12,0,0,1,0-.1V51.3a5,5,0,0,1-.26-1h0A.74.74,0,0,1,20.3,50l0-.17c-.06-.05-.05-.14-.07-.21l0-.11a.31.31,0,0,1-.06-.25h0s-.05-.06,0-.11A.4.4,0,0,1,20,49a3,3,0,0,1-.19-.73.24.24,0,0,1,0-.16,3.25,3.25,0,0,1-.21-.67,1.65,1.65,0,0,1-.06-.32l-.06-.22a.16.16,0,0,1,0-.1h0a1.82,1.82,0,0,1-.14-.52v-.05a.24.24,0,0,1,0-.16v-.1a.14.14,0,0,1-.05-.15v-.07a1.78,1.78,0,0,1-.16-.6h0a2.5,2.5,0,0,1-.2-.77v0a2.6,2.6,0,0,1-.18-.62,1.14,1.14,0,0,1-.1-.45s0,0,0,0a1.34,1.34,0,0,1-.14-.53.54.54,0,0,1-.05-.21,1.78,1.78,0,0,1-.16-.6h0a.42.42,0,0,1,0-.16h0a.4.4,0,0,1-.07-.21l0-.21A8.53,8.53,0,0,1,17.67,40l0-.07a3.2,3.2,0,0,1-.2-.81h0a4.72,4.72,0,0,1-.25-.89v-.05a.72.72,0,0,1-.08-.35v0l0,0,0-.18c-.08-.07-.07-.16-.08-.24v-.06a.33.33,0,0,1-.05-.24l0-.07a.59.59,0,0,1-.07-.26l-.07-.26a.27.27,0,0,1,0-.23h0a.58.58,0,0,1,.2-.48.26.26,0,0,0,.06-.26.89.89,0,0,1-.07-.36V35a.62.62,0,0,1-.11-.4.17.17,0,0,1,0-.12h0a8.54,8.54,0,0,1-.32-1.23h0a.33.33,0,0,1-.06-.25l-.05-.18a.12.12,0,0,1,0-.1l0-.11a1.35,1.35,0,0,1-.11-.45L16.09,32a2.18,2.18,0,0,1-.18-.71.23.23,0,0,1,0-.14.23.23,0,0,1,0-.18V30.9a.38.38,0,0,1-.07-.25h0a1,1,0,0,1-.11-.41.79.79,0,0,1-.06-.22,2.53,2.53,0,0,1-.19-.73h0c0-.05-.05-.09,0-.14l0-.12c0-.05-.06-.09,0-.15l-.09-.37a.29.29,0,0,1-.06-.24.28.28,0,0,1,0-.13.56.56,0,0,1-.09-.36h0a3.18,3.18,0,0,1-.18-.6.25.25,0,0,1,0-.17h0a2.83,2.83,0,0,1-.21-.77v0a1.12,1.12,0,0,1-.13-.45l-.06-.21a1.44,1.44,0,0,1-.11-.42v-.05c0-.08-.08-.15,0-.24a.39.39,0,0,1-.06-.18s-.05-.08,0-.14,0,0,0,0a.32.32,0,0,1-.08-.25v-.05s0-.06,0-.1h0s-.07-.1,0-.17h0c0-.05-.05-.08,0-.14l0-.07a.82.82,0,0,1-.08-.35l0-.06a.15.15,0,0,1,0-.11h0a1.35,1.35,0,0,1-.15-.44c0-.08,0-.15-.05-.23a.26.26,0,0,0-.19-.21s0,0-.05-.05-.06-.06-.11-.05-.27-.11-.4-.18h0a1.19,1.19,0,0,1-.66-.46.15.15,0,0,1-.06-.11.69.69,0,0,1-.16-.22,1.65,1.65,0,0,1-.36-.54v0h0a.79.79,0,0,1-.2-.33h0s-.09-.07-.07-.14l0,0a.39.39,0,0,0-.46-.24.85.85,0,0,1-.5,0h-.07a.12.12,0,0,1-.13,0s0,0,0,0a.3.3,0,0,1-.26,0h0c-.06.05-.12,0-.17,0h0a.77.77,0,0,1-.37-.07h0c-.05,0-.09,0-.13,0a.11.11,0,0,0-.09,0,1.73,1.73,0,0,1-.64-.17c-.17-.06-.32-.16-.49-.21a1.42,1.42,0,0,1-.33-.21h0c-.07,0-.12-.07-.18-.11l0,0a.75.75,0,0,1-.15-.09l0,0c-.17,0-.25-.16-.38-.24a3.21,3.21,0,0,1-.55-.49.1.1,0,0,1,0-.07L6.14,18c0-.06-.1-.08-.13-.14l0,0a.9.9,0,0,1-.16-.18h0c0-.06-.11-.08-.13-.15a.19.19,0,0,1-.09-.11.53.53,0,0,1-.23-.28h0c0-.05-.09-.06-.09-.12h0a1.6,1.6,0,0,1-.33-.4h0s-.06-.05-.07-.09a5.4,5.4,0,0,0-.57-.68A2.06,2.06,0,0,0,4,15.57a0,0,0,0,1,0,0,7.46,7.46,0,0,0-.77-.72l-.1,0a.47.47,0,0,1-.25-.19l0,0c-.13,0-.22-.14-.33-.2h0c-.06,0-.08-.06-.13-.08a.72.72,0,0,0-.25-.12A1,1,0,0,1,1.79,14h0a.3.3,0,0,1-.16,0H1.56a.13.13,0,0,1-.09,0,.07.07,0,0,0-.06,0,2.8,2.8,0,0,1-.81-.18.47.47,0,0,0-.17,0,.19.19,0,0,1-.23-.14.09.09,0,0,1,0-.11.67.67,0,0,1,0-.37,7.36,7.36,0,0,1,.19-.91v-.06a3,3,0,0,1,.17-.83h0a.32.32,0,0,1,.16-.34.36.36,0,0,1,.25,0l.13,0c.06,0,.12,0,.17,0l.13,0a2.18,2.18,0,0,1,.72.18h0a2.11,2.11,0,0,1,.77.24,4.44,4.44,0,0,0-.5-.43.41.41,0,0,1-.17-.24.31.31,0,0,1,.05-.21.39.39,0,0,0,.1-.27.25.25,0,0,1,0-.17s0-.05,0-.07a.63.63,0,0,1,.06-.33h0a1,1,0,0,1,.08-.52h0a.57.57,0,0,1,.05-.34s0,0,0,0a.71.71,0,0,1,.12-.51c0-.07-.06-.07-.09-.11s-.08-.07-.13-.08h0A2.25,2.25,0,0,1,2,7.81H2a.68.68,0,0,1-.36-.15l-.11,0c-.29-.17-.21-.26-.12-.52,0,0,0-.07.06-.1h0a.09.09,0,0,1,0-.06l0-.09a1.14,1.14,0,0,1,.15-.36h0a.39.39,0,0,1,.1-.25v0s0,0,0-.07.05-.07.05-.12a2.42,2.42,0,0,1,.27-.67h0a.5.5,0,0,1,.09-.23c.06-.07,0-.14,0-.2a.22.22,0,0,1,0-.19.09.09,0,0,1,.08-.09h0c.07-.07.2-.09.22-.22s0-.06,0-.09,0-.1.05-.15h0c0-.09.06-.15.08-.23h0A4,4,0,0,1,3,3H3c0-.31.11-.42.34-.48A1.32,1.32,0,0,1,4,2.85,5.72,5.72,0,0,1,5.26,4.33l.45.75s0,.1.1.12c-.06-.21-.11-.41-.17-.61C5.47,4,5.31,3.4,5.19,2.8c-.06-.3,0-.4.31-.47l2-.46c.26-.06.36,0,.41.26s.08.33.1.49.05.12.15.08L9.6,2.08A.31.31,0,0,1,9.72,2c.16,0,.17-.08.17-.21a12.73,12.73,0,0,1,.2-1.51c.06-.26.16-.34.42-.3l2,.35c.13,0,.24.07.27.21s0,.05.06,0A7.65,7.65,0,0,1,14,.39L15.1.2c.24,0,.35,0,.38.29.12,1,.21,2.06.26,3.1,0,0,0,.08,0,.12A2.74,2.74,0,0,0,16,3a12.72,12.72,0,0,0,.28-1.73c0-.27.12-.35.38-.34l2,.1c.3,0,.38.1.35.4a13.82,13.82,0,0,1-.6,3,.41.41,0,0,0,0,.09,7.61,7.61,0,0,1,1-.77,4.87,4.87,0,0,1,1.24-.59c.23-.06.35,0,.4.23.16.69.31,1.37.46,2.06,0,.19,0,.32-.17.37a2.69,2.69,0,0,0-1,.68,7.9,7.9,0,0,0-.95,1.09l1.41-.7a6.11,6.11,0,0,0,.79-.44A2.92,2.92,0,0,0,22.6,5a1.12,1.12,0,0,0,0-.13.3.3,0,0,1,.43-.2l1.8.63.07,0c.1,0,.21,0,.27.14v0c.09.08.07.18,0,.28a3.42,3.42,0,0,1-.21.43s0,0,0,0a.17.17,0,0,1,0,.12c-.13.24-.26.48-.4.72s-.22.25-.31.39a.13.13,0,0,0-.07.08,2.67,2.67,0,0,1-.82.82s0,0-.07,0-.09.06-.12.1-.16.19-.3.2-.05,0-.08.06-.08.11-.16.1-.06,0-.08,0-.13.14-.23.13a1.31,1.31,0,0,0-.35.19c-.14.12-.13.12,0,.2s.16.06.19.15h0a.27.27,0,0,1,0,.37c0,.06-.06.13-.11.21a2.42,2.42,0,0,1,.51-.1h0a.76.76,0,0,1,.42-.08h.05a.35.35,0,0,1,.2,0h.1a.74.74,0,0,1,.44,0h.16a.75.75,0,0,1,.39.06h.06a1,1,0,0,1,.44.14h0c.09,0,.17.09.18.2h0a.14.14,0,0,1,0,.15h0c0,.06,0,.11-.07.16s-.05.07,0,.11a1.2,1.2,0,0,1-.19.45s-.05,0,0,.09,0,.14-.06.21a1.48,1.48,0,0,1-.17.33v0a.39.39,0,0,1-.1.25h0a.86.86,0,0,1-.11.28l0,0c0,.07-.05.1-.06.16h0a.15.15,0,0,1-.12.15h0c-.15.12-.27,0-.41,0s-.05,0-.08,0a2.46,2.46,0,0,1-.47.1c-.21.07-.42.14-.63.19h0c-.05,0-.1.09-.17.07h0a2,2,0,0,1-.45.25c-.05,0-.09.05,0,.12.17.24.16.25,0,.49h0c-.05.18-.2.27-.3.41l-.17.2a2,2,0,0,1-.48.62,4.14,4.14,0,0,1-.35.38c-.08.07-.15.15-.23.21h0c-.09,0-.12.15-.2.2l0,0c-.07,0-.09.12-.17.16s0,0,0,0-.14.22-.28.26l0,0c0,.06-.08.08-.12.1s0,0,0,0a1,1,0,0,1-.22.18l0,0-.26.22a.25.25,0,0,1-.16.08l-.18.13a.56.56,0,0,1-.33.21h0s0,0-.06,0h0c-.11.06-.18.19-.32.17a.46.46,0,0,0-.18.1,1.2,1.2,0,0,1-.57.24.14.14,0,0,0-.1,0s-.06.05-.1,0l-.07,0a.47.47,0,0,1-.32.1.08.08,0,0,0-.1,0,.18.18,0,0,0-.1.12,0,0,0,0,0,0,.05,1.2,1.2,0,0,1,0,.5c0,.33,0,.65-.06,1a.55.55,0,0,1-.06.22s0,.07,0,.11a.57.57,0,0,1-.09.42h0s0,.06,0,.09,0,0,0,0a1,1,0,0,1-.25.52l0,0s0,.07-.07.11l0,0c0,.06-.08.1-.1.16l0,0a1.82,1.82,0,0,1,.13.57.36.36,0,0,0,.06.2,1.27,1.27,0,0,1,.12.51s0,.05,0,.07a.34.34,0,0,1,.07.24h0c0,.08.09.16.06.26a.33.33,0,0,0,0,.17c.05,0,0,.1,0,.14v0a1.26,1.26,0,0,1,.14.57h0c0,.09.1.17.07.27s0,.08,0,.1a.22.22,0,0,1,.05.19v.07a.9.9,0,0,1,.12.46.47.47,0,0,0,0,.17s0,.05,0,.08,0,0,0,0a.68.68,0,0,1,.1.4h0s0,.06,0,.11,0,0,0,.06a.92.92,0,0,1,.11.46h0a2.22,2.22,0,0,1,.18.67h0a.59.59,0,0,1,.08.32,1.26,1.26,0,0,1,.13.54s0,0,0,0a.38.38,0,0,1,.07.29s0,0,0,0a.38.38,0,0,1,.06.23s0,0,0,0,.06.09,0,.15a.34.34,0,0,0,.05.17c.08.06,0,.16.06.25h0a.54.54,0,0,1,.09.25c.06.28.14.56.22.84a.2.2,0,0,1,0,.15s0,0,0,.06a.48.48,0,0,1,.08.33s0,0,0,0a.43.43,0,0,1,.06.22h0a.39.39,0,0,1,.07.16c.06.22.1.44.17.66a.22.22,0,0,1,0,.14s0,.09,0,.12a.67.67,0,0,1,.09.36h0a1.41,1.41,0,0,1,.15.61v0a.63.63,0,0,1,.1.36h0a.3.3,0,0,1,.05.21h0a4.22,4.22,0,0,1,.23.79c0,.08,0,.19.1.25h0s.07.06.12.06v0h0c.1.08.24.12.3.25l0,0a.2.2,0,0,1,.09.21v0a1.52,1.52,0,0,1,.12.36,3.36,3.36,0,0,1,.13.63h0a3.8,3.8,0,0,1,.23.88h0a1.06,1.06,0,0,1,.12.5s0,.07,0,.11a.31.31,0,0,1,0,.17v0a.48.48,0,0,1,.09.35s0,0,0,.06a1,1,0,0,1,.11.33c.06.22.11.44.17.66a.2.2,0,0,1,0,.15s0,.08,0,.1a3.49,3.49,0,0,1,.2.7,1.68,1.68,0,0,1,.11.54h0a.22.22,0,0,1,.05.22.23.23,0,0,0,0,.14.78.78,0,0,1,.11.42h0a.57.57,0,0,1,.09.36s0,0,0,.06a.26.26,0,0,1,.05.21.26.26,0,0,0,0,.15.53.53,0,0,1,.09.35"/><path class="cls-14" d="M3.16,14.77c0-.06,0,0,.07,0a9.51,9.51,0,0,1,.74.67.13.13,0,0,1,0,.12A3.25,3.25,0,0,1,3.41,15l-.1-.08C3.26,14.87,3.17,14.86,3.16,14.77Z"/><path class="cls-14" d="M4.88,16.51,4.46,16l0,0c-.12-.13-.29-.22-.37-.39h0s0,0,0,0c.17,0,.22.18.31.27s.35.4.53.59C4.91,16.46,4.94,16.48,4.88,16.51Z"/><path class="cls-15" d="M16.37,19.87c-.08-.14.08-.28,0-.42a.3.3,0,0,1,0-.21c0-.06.09-.13,0-.15s0,0,.07,0,.13,0,.14-.13-.1,0-.13,0,0-.07,0-.1-.05-.12,0-.18,0-.07,0-.1,0-.11,0-.17-.09.08-.15.06c0,.56,0,1.13-.11,1.69A.28.28,0,0,0,16.37,19.87ZM3,11.45a2.53,2.53,0,0,0-.54-.5.53.53,0,0,1-.21-.21s0,.06,0,.1,0,.05,0,0,0,.22-.07.3Zm4.62,7.76c.08.18.18.32.41.23,0,0,.05,0,.08,0s.19.2.34.22.17,0,.13.11h0c.12-.15.15,0,.22.05s.05.08.11.05,0-.09-.06-.13.13.14.14,0a6.21,6.21,0,0,1-1.46-.59ZM18,30.61c-.08-.08,0-.11,0-.17-.12,0-.13,0-.12,0s0-.16-.07-.21-.1-.13,0-.21l0,0c-.09-.07,0-.21-.06-.28a.27.27,0,0,1-.09-.2s-.06.06-.11.05a.24.24,0,0,1,0-.07c.05,0,.11-.08.07-.13s-.09-.09-.16,0a.71.71,0,0,0,.06.25c.1.41.21.82.31,1.24C17.91,30.73,18,30.67,18,30.61ZM.4,12.15s-.09,0-.08.08,0,.11-.09.15-.19.1,0,.18,0,.12,0,.12-.06.08-.08.12,0,.23,0,.32a.23.23,0,0,0,.05.31C.25,13,.33,12.58.4,12.15Zm21.49,1.4c.14.15.05.29,0,.43h0a3.08,3.08,0,0,0-.3.41c.16-.09.31-.19.3-.41,0,0,.08-.14.12,0s0,0,0,0,0-.16.08-.22,0-.17,0-.25-.09-.06-.15,0,0,.09-.05,0,0-.07,0-.07.19-.09.29-.08.13-.06.13-.15,0,0,0-.07a5.73,5.73,0,0,0-.61.3A.75.75,0,0,1,21.89,13.55ZM7.15,18.88a12.17,12.17,0,0,1-1-.8c-.06.05-.08-.06-.13,0a5.08,5.08,0,0,0,1.11,1C7.24,19,7,19,7.15,18.88Zm4,1c0-.05-.06-.05-.11,0l-.72,0s-.07.22.11.1c0,0,0,0,0,0a.44.44,0,0,0,.19.07c.07-.1.11-.06.16,0s.07.07.09,0a.11.11,0,0,1,.19-.06,2.43,2.43,0,0,0,.2.14A2,2,0,0,1,11.14,19.92Zm9.18-4.12s.07.09.08,0,.11-.14.17-.2.13-.27.3-.32a.7.7,0,0,0,.2-.15.73.73,0,0,0,.31-.58C21,15,20.68,15.41,20.32,15.8Zm-1.9,16.32c-.1-.08-.22-.13-.16-.31s0-.09,0-.15,0-.05,0-.07-.14-.19-.28-.19c0-.1.09,0,.14,0a.07.07,0,0,0,.08,0s0-.06,0-.05-.1,0-.12-.11a0,0,0,0,0-.05,0c-.06.12-.06,0-.1,0a.79.79,0,0,0,.06.22h0c.06.32.15.64.24,1C18.39,32.31,18.48,32.18,18.42,32.12ZM24.57,7.26c0-.07.1-.1.14-.15s.21-.15.18-.27A.29.29,0,0,1,25,6.58a1.42,1.42,0,0,1,.14-.23s0-.11-.06-.1-.09.16-.13.25a9.89,9.89,0,0,1-.6,1C24.39,7.4,24.52,7.38,24.57,7.26ZM22.69,10.1s0-.17-.13-.09-.14.09-.27,0c.13,0,.15,0,.17-.14s0-.23-.17-.21l0,0c.18.26-.07.43-.16.65ZM2.53,3.68c0,.09.16.14.08.26h.07c-.05.07-.15.12-.08.23s-.12.07-.05.15a.21.21,0,0,0,.05-.15h0a.63.63,0,0,0,.08-.23h0c.12-.31.23-.62.32-.94,0,0-.09,0-.1,0s-.2.17-.11.31,0,.08,0,.08-.13.13-.2.2.08,0,.12,0v.17C2.64,3.67,2.58,3.7,2.53,3.68Zm20,9.36a.51.51,0,0,0-.17.07c0,.06.08.09.13.07s0-.09,0-.13.1,0,.14,0a.19.19,0,0,0,.27-.06s0-.06.07,0,.14,0,.2,0,.16-.1.12.06.07.09.08.06.22,0,.08-.13a.05.05,0,0,1,.06,0c.06,0,.06,0,.08-.07a2.81,2.81,0,0,0-1.1.29ZM17.17,38.4s.1.08,0,.15,0,.06,0,.11a.2.2,0,0,1,.09.27c0,.08,0,.15.1.11l.07,0a6.49,6.49,0,0,0-.25-.89C17.07,38.27,17.08,38.29,17.17,38.4ZM12,21.45c0,.05,0,.08.06.11s.31.25.46.39.18.17.31.06a2.22,2.22,0,0,1-.72-.57S12,21.4,12,21.45ZM22.35,9.58s0,0,0,0,0-.06,0-.06-.13-.09-.13-.18,0-.12-.11-.06-.08.09-.09,0a.64.64,0,0,0-.23.12l.44.23Zm-6.44,21.7c-.08,0-.15,0-.09.13a.32.32,0,0,1,0,.3c0,.07,0,.15,0,.16s.12.1.2.12A5.27,5.27,0,0,0,15.91,31.28Zm7.72-23a.68.68,0,0,0,.27-.21,3.19,3.19,0,0,1,.31-.44.1.1,0,0,0,0-.09,8.12,8.12,0,0,1-.89.87c.09,0,.2,0,.25-.12ZM4.93,16.6l0-.09a2.08,2.08,0,0,0-.32-.4s0-.08-.1-.07a.59.59,0,0,1,0,.19.16.16,0,0,0,.08.15.2.2,0,0,1,.13.15s.06.06.09.09.07,0,.11,0S4.83,16.54,4.93,16.6Zm10.89,5.77c0-.05.09-.1,0-.15s-.17-.19-.12-.33-.2-.06,0-.14c0,0,0,0,0,0s-.11,0-.16,0a2.77,2.77,0,0,0,.13.57C15.79,22.2,15.85,22.23,15.82,22.37Zm-1,4.62c-.06-.26-.13-.51-.21-.77a.13.13,0,0,0,0,.22.13.13,0,0,1,0,.18c-.08.1-.14.17,0,.2a0,0,0,0,1,0,0C14.62,27,14.71,27,14.79,27ZM.83,13.87a.1.1,0,0,1,.13.05.83.83,0,0,0,.44,0v0a5.3,5.3,0,0,0-.81-.18A.18.18,0,0,0,.83,13.87ZM25.32,5.48c-.05,0-.06,0-.09,0a.4.4,0,0,1,0,.32l-.15.39s.13,0,.09-.12,0-.1.05-.1c.17,0,.11-.15.18-.21A.59.59,0,0,0,25.32,5.48ZM16.85,26.84c.1-.08,0-.18.06-.28s0-.21-.17-.18c0,.16.07.31.11.46h0a5.09,5.09,0,0,0,.18.67h0a1.16,1.16,0,0,0,.08.32c.06,0,.09,0,.13-.08s.06-.09,0-.09,0-.08,0-.1-.09.05-.12,0-.07,0-.1,0,0-.08.06-.1.07-.12,0-.15-.12-.15,0-.25c-.11.06-.15,0-.15-.07S16.92,26.85,16.85,26.84ZM1.85,11c-.11,0-.14,0-.12-.11s0,.09-.08.06-.16,0-.23.05l.72.18C2.07,11.07,2,11,1.85,11ZM16.6,25.07s0,0-.05,0l-.15,0,.12.46a.41.41,0,0,0,.12-.14C16.73,25.26,16.52,25.19,16.6,25.07Zm-1.21,4.58a.11.11,0,0,1,0,.17c.1,0,.08.19.21.19a4.61,4.61,0,0,0-.19-.73h0a.18.18,0,0,0,0-.14s-.09,0-.1.11c.08-.07.11,0,.14,0S15.25,29.53,15.39,29.65Zm.75,2.51c-.06,0-.08.08-.14.06.11.08-.12.21.05.3s.15,0,.2.09A1.74,1.74,0,0,0,16.14,32.16Zm2.44,1.1s0-.06,0-.11.22-.15,0-.16c0,0,0-.05,0-.08s-.06-.09-.13-.07c.18-.11,0-.25.05-.38s-.06-.06-.07-.05,0,0,0,.07-.05,0-.07,0a1.36,1.36,0,0,0,.09.36,6,6,0,0,0,.15.61C18.62,33.39,18.63,33.31,18.58,33.26ZM16.12,21c-.14,0,0-.16-.07-.23l-.25.52.17,0C16.05,21.21,16.16,21,16.12,21ZM23.69,9.77c-.09,0-.23.1-.23.2a3.24,3.24,0,0,0,.44,0C23.89,9.81,23.78,9.8,23.69,9.77Zm-.58.24c0-.08,0-.15-.11-.15s-.11,0-.15,0-.08-.07-.11,0,.07,0,.08.1a.24.24,0,0,0-.13.11Zm-11.52,11c.06-.07,0-.14.08-.17s0,.06,0,.09c0,.21.11.28.27.24l-.36-.54A1.17,1.17,0,0,1,11.59,21.06Zm13-9.2a.12.12,0,0,0,.16-.1c0-.06-.07.05-.06,0,.27-.17.28-.21.13-.41ZM15.83,22.45c0-.05-.07,0-.09,0l.12.51c.05,0,.06-.07.09-.1s.06-.08,0-.12-.08,0-.12,0S15.92,22.63,15.83,22.45Zm1.28,5.38c0,.18.09.36.13.54A.34.34,0,0,0,17.11,27.83Zm-.88-3.74s0-.05,0-.08,0-.18-.14-.13l.14.57C16.33,24.32,16.37,24.2,16.23,24.09ZM2.37,8.1c0,.12.11.06.18,0A2.86,2.86,0,0,0,2,7.81s0,.08.07.09.07.3.28.15C2.34,8,2.36,8.07,2.37,8.1Zm14.92,10A.41.41,0,0,1,17.7,18c-.1-.05-.09-.11,0-.17L17.1,18C17.16,18.19,17.17,18.2,17.29,18.08ZM1.48,7.61c-.18-.15-.21-.23-.12-.45A1.77,1.77,0,0,0,1.42,7a.79.79,0,0,0-.15.12s-.06,0,0,.07,0,.11,0,.16-.08.08,0,.1S1.35,7.61,1.48,7.61Zm12.8,17.5c0,.07-.14.14,0,.22s0,0,0,.06,0,.15.05.27c0,0,0-.12.07-.13A1,1,0,0,0,14.28,25.11Zm2.46,1.07c.13,0,.14-.07,0-.16s0-.07,0-.12-.05,0-.05,0-.06-.08-.12-.05a1.8,1.8,0,0,0,.1.4S16.72,26.18,16.74,26.18ZM1,10.92c-.06-.08-.15-.07-.23-.09s-.17-.06-.12.1A.11.11,0,0,1,.6,11c-.1.09-.08.17,0,.27s-.07,0-.11,0a.45.45,0,0,0-.07.38.2.2,0,0,1-.07.17.35.35,0,0,0,0,.2c0,.07.07.06.13.05a5.82,5.82,0,0,0,.17-.83C.67,11,.72,10.92,1,10.92ZM3.24,2.39a.17.17,0,0,1-.12.2A.26.26,0,0,0,3,3a.67.67,0,0,0,.07-.18.38.38,0,0,1,.27-.3C3.28,2.51,3.27,2.45,3.24,2.39ZM2.08,5.34h0c0-.14.21-.26.09-.43-.07,0,0,.07,0,.12s0,.1,0,.08-.07,0-.1,0-.05.11,0,.15,0,.05,0,.07a1.89,1.89,0,0,1-.22.31A.37.37,0,0,0,1.81,6,5.52,5.52,0,0,0,2.08,5.34Zm22.76,5.89c.09-.07.21-.11.24-.26s.06-.13,0-.19A2.25,2.25,0,0,0,24.84,11.23ZM13.91,23.7a.85.85,0,0,0-.08-.35c-.11,0-.1.14-.08.23a.14.14,0,0,1,0,.06s0,.09,0,.11.08,0,.1-.06S13.89,23.71,13.91,23.7ZM24.14,9.89l-.08.06a1.67,1.67,0,0,0,.39.06c0-.14-.1-.16-.17-.2S24.17,9.83,24.14,9.89ZM15.08,28.13a1.58,1.58,0,0,0-.09-.36h0a6.69,6.69,0,0,0-.2-.77c-.07.06-.07.16-.11.23s.11,0,0,.1,0,.08,0,.12.07.06.08.11,0,.08,0,.12-.06-.12-.13,0h0l-.1-.1c0,.07,0,.1.1.1l.07.09a0,0,0,0,0,.07,0s0,0,0-.06.07.07.12.09-.18.08-.12.2S14.93,28.18,15.08,28.13Zm3,2.92s.06-.05.05-.09A.07.07,0,0,0,18,30.9s-.06,0-.06,0,0-.09-.09-.05.06.22.08.33S18,31.05,18.06,31.05ZM2.66,8.83s0-.05-.08,0-.15.27,0,.35A1.14,1.14,0,0,0,2.66,8.83ZM14.39,26.08s.1,0,.11.1.05,0,.08,0a2.32,2.32,0,0,0-.13-.45c-.09.09-.11.17,0,.26S14.37,26,14.39,26.08Zm9.32-13.33c0,.09.06.13.14.14s0,0,.07,0,.18,0,.2-.12C24,12.83,23.85,12.73,23.71,12.75ZM15.63,30.23c-.05,0-.09,0-.14,0s.18,0,0,.11,0,.06,0,.07.15.16.22.23A1.46,1.46,0,0,0,15.63,30.23ZM5.37,17.13h0c0-.06-.06-.09-.09-.12h0a3.19,3.19,0,0,0-.33-.4.24.24,0,0,1,0,.14c.15.05.21.21.35.26,0,.07,0,.08.09.12s0,.09,0,.13a.08.08,0,0,0,0,.12c.08,0,.15.07.24,0A1,1,0,0,0,5.37,17.13Zm17.21-8s.12,0,.14-.09-.14,0-.1-.09l-.23.13C22.44,9.25,22.46,9.26,22.58,9.12ZM19.82,16.4c.05,0,0-.11.05-.17a3.45,3.45,0,0,0-.28.26c.1,0,.18.11.3.05S19.75,16.48,19.82,16.4Zm-8.5,4s-.09,0-.1,0,.06.06.09.08.15.09.16.15.07,0,.09,0a1.38,1.38,0,0,0-.2-.33Zm3.86,8.12a.94.94,0,0,0-.06-.24s-.12,0-.13.08,0,.23.15.29a.22.22,0,0,0-.09-.16C15.11,28.44,15.13,28.51,15.18,28.5Zm1.51-10.17c.11,0,.11-.12.14-.2l-.32.1C16.52,18.34,16.56,18.38,16.69,18.33ZM19,17.11s.06,0,.07,0,0,0-.06,0S19,17,19,17s.1-.12.16-.17l-.42.3a.5.5,0,0,0,.2.08C18.92,17.11,18.92,17.11,19,17.11ZM17,37.29c-.06,0-.19-.08-.16.07a.22.22,0,0,0,.23.17A.48.48,0,0,0,17,37.29ZM2.79,8.3l-.1,0s0,0,0,0-.08-.07-.12-.09.05.09.12.1,0,.06,0,.07-.05.26,0,.38A2.23,2.23,0,0,1,2.79,8.3Zm20,39.49c0-.08,0-.07-.09-.06a1.54,1.54,0,0,0,.09.37l0,0s.1,0,.12,0-.07-.06-.06-.12S22.77,47.84,22.76,47.79ZM1.48,6.69v.14a1.61,1.61,0,0,0,.15-.36.77.77,0,0,0,.1-.25c-.17.09-.2.17-.1.25-.09.16-.28.23-.37.41C1.41,6.91,1.43,6.8,1.48,6.69ZM17.11,37.77a.21.21,0,0,1-.18.2c.1,0,.13.17.26.15A1,1,0,0,0,17.11,37.77ZM16.17,33s-.05,0,0,.05.16.16.28.19a.71.71,0,0,0-.06-.25C16.3,33,16.23,32.94,16.17,33ZM9.62,19.87l-.37-.07s0,.06,0,.1a.08.08,0,0,0,0,.09s.08,0,.08,0,.09-.07.15-.07.07,0,.1,0,0,.14.07.15a0,0,0,0,1,0,0c-.06,0,0,0,0,.06s0,0,.06,0a.23.23,0,0,0,.08-.23ZM22.94,8.73c0,.07,0,.13,0,.2a1.38,1.38,0,0,0,.32-.4ZM24.51,10a3.73,3.73,0,0,0,.44.14A.31.31,0,0,0,24.51,10ZM12.84,22s0,.14.1.09.05,0,.05.06,0,.06,0,0,.12,0,.14.08,0,0,0,0,0,0,0-.07a.08.08,0,0,1,0-.07Zm3.61,2.67c0-.08,0-.09-.06-.13s-.09-.08-.15-.11a1.76,1.76,0,0,0,.07.27C16.36,24.7,16.42,24.77,16.45,24.69Zm2.13-7.43-.33.21s0,.05.05.05A.29.29,0,0,0,18.58,17.26ZM1.64,7.75c0,.12.05.13.13.07s.08-.05.12,0,.05,0,.06,0l-.36-.15S1.64,7.71,1.64,7.75ZM17.39,28.43l-.14,0a1.37,1.37,0,0,0,.07.29C17.38,28.61,17.53,28.55,17.39,28.43ZM23.16,10a.44.44,0,0,0,.2,0c.05-.07,0-.14,0-.16s-.12,0-.12.09S23.18,10,23.16,10ZM14.05,24.23c0,.05-.05,0-.08,0s-.09,0-.06.07.09.2.22.2A.61.61,0,0,0,14.05,24.23ZM2.89,14.59a.53.53,0,0,0,.42.32l-.15-.14C3.06,14.72,3,14.63,2.89,14.59ZM16,23.27l.06.26a.25.25,0,0,0,.18-.07c.06-.07-.07-.06-.08-.12s-.11,0-.16-.07a.13.13,0,0,0,.1-.12s-.11,0-.06-.07A.06.06,0,0,0,16,23c-.05,0-.08,0-.11.06a2.17,2.17,0,0,0,.07.24ZM.14,13.61c0,.13.15.12.22.18s0-.08.07-.11a.39.39,0,0,1-.23-.14A.07.07,0,0,1,.14,13.61Zm24.42-1.25c-.06.11-.16.08-.24.09a.47.47,0,0,0-.06.15h0l-.12.15c.07,0,.16.08.2-.07s-.1,0-.08-.07a1.52,1.52,0,0,0,.33-.18s0,0,0-.06S24.57,12.34,24.56,12.36ZM4.05,15.61v0l0,0c-.21-.18-.39-.4-.61-.56,0,.15.13.19.2.27a2.51,2.51,0,0,0,.44.35.37.37,0,0,0,.21.29l.16.1A2.72,2.72,0,0,0,4.05,15.61Zm-1.6-5.52c-.1,0-.14.15-.12.17s0,.18,0,.27A.49.49,0,0,0,2.45,10.09ZM1.9,14.15s0,.09.05.07.11,0,.16,0,0,0,0-.05A1.13,1.13,0,0,0,1.79,14,.63.63,0,0,1,1.9,14.15Zm17.28,32s.09,0,.13,0l-.19-.11S19.15,46.16,19.18,46.19ZM17.49,28.88s.05,0,.05,0a.2.2,0,0,0,0-.07c-.09,0-.11-.1-.19-.09l.06.23S17.44,28.87,17.49,28.88ZM9.94,20c.09,0,.1-.08.15-.12l-.26,0C9.84,20,9.86,20,9.94,20Zm7.91-2.25c.15,0,.23-.16.32-.26l-.32.17S17.83,17.75,17.85,17.78ZM1.29,11c-.05,0,0-.1-.06-.14s0-.08-.05-.07-.05.05-.07.08a.19.19,0,0,0,0,.1A.32.32,0,0,0,1.29,11Zm14,18a.16.16,0,0,0,0-.15c-.14,0-.15.07,0,.21S15.22,28.94,15.31,29Zm1.18-4c0-.08,0-.2-.15-.16a.41.41,0,0,0,.05.19S16.49,25.05,16.49,25ZM0,13.46a.15.15,0,0,0,0,.16s.06,0,.1,0a.26.26,0,0,0-.05-.17S0,13.43,0,13.46ZM17,37.23a1,1,0,0,0-.05-.24C16.79,37.17,16.79,37.17,17,37.23ZM15.81,30.9a.72.72,0,0,0-.07-.25c-.16.08,0,.16,0,.24S15.79,30.87,15.81,30.9Zm.81,5.44c0,.1.1,0,.12.06l0-.23A.14.14,0,0,0,16.62,36.34ZM2.53,9.69h0a3.12,3.12,0,0,0,.08-.52c-.11,0-.17.08-.13.2a.1.1,0,0,1,0,.11s-.08.07-.05.11.06.13.14.1a.41.41,0,0,1-.21.17c.16,0,.1.12.16.16A1.28,1.28,0,0,0,2.53,9.69ZM14.22,24.82c-.11,0-.17.06-.06.15l.11.09A.64.64,0,0,0,14.22,24.82Zm1.65,6.32a.31.31,0,0,0,0-.18c-.08,0-.08,0-.05.16S15.83,31.16,15.87,31.14Zm.72,5.51c0,.12.12,0,.15.07s0-.13,0-.16S16.59,36.59,16.59,36.65Zm-.31-12.59c.11,0,0-.14.16-.14l-.19-.1A.53.53,0,0,1,16.28,24.06Zm.53,12.6c-.06.11-.07.21.07.26A.59.59,0,0,0,16.81,36.66Zm-.5-3.84a.1.1,0,0,0,0-.1.4.4,0,0,0-.17.09C16.18,32.89,16.24,32.85,16.31,32.82Zm3,14.24c0,.06,0,.07.05.09a0,0,0,0,0,.08,0s0-.09,0-.12A.09.09,0,0,0,19.33,47.06ZM22.76,8.94c.1,0,.08-.09.1-.15l-.16.1S22.68,9,22.76,8.94Zm-3.31,7.67c.1,0-.06.08,0,.1s.15-.09.1-.2A.29.29,0,0,0,19.45,16.61Zm5.77-11.2c-.09,0-.17-.1-.27,0,.08,0,.2.06.27.14S25.26,5.42,25.22,5.41ZM25,10.16a.44.44,0,0,1,.18.2v.15l.16-.07-.15-.08C25.2,10.24,25.13,10.17,25,10.16Zm-.41,1.73a.69.69,0,0,0-.1.25C24.55,12.07,24.63,12,24.56,11.89Zm-.11.26a1,1,0,0,0-.11.28C24.47,12.37,24.44,12.26,24.45,12.15ZM10.11,19.91c0,.09.05.11.12.1s0-.06,0-.09Zm4.05,4.73c0-.05,0-.09,0-.14s-.11.07-.09.13.06,0,.1,0Zm8.45,22.89a.41.41,0,0,0,.05.18C22.76,47.62,22.71,47.56,22.61,47.53ZM17.1,37.74s0,0,0,0a.1.1,0,0,1-.07,0c-.08-.05-.07,0-.09.06a.25.25,0,0,0,.17,0ZM7.37,19c0,.11.09.12.18.11A.42.42,0,0,0,7.37,19ZM1.76,5.69c-.09.06-.09.14,0,.25C1.75,5.84,1.7,5.76,1.76,5.69Zm14.37,18c0-.08,0-.08-.08,0l0,.14S16.12,23.77,16.13,23.73Zm-4.77-3.4a.37.37,0,0,0-.07-.14C11.18,20.32,11.28,20.32,11.36,20.33Zm12,31.38-.23.29A.51.51,0,0,0,23.39,51.71Zm-4-35.08a1.24,1.24,0,0,0-.22.18C19.32,16.81,19.37,16.71,19.42,16.63ZM7.54,19.22c0,.07,0,.1.11.14s0-.14-.09-.15Zm9.43-1s0-.07,0-.1l-.1,0S16.92,18.2,17,18.18Zm2.18,16.47L19,34.56A.13.13,0,0,0,19.15,34.65Zm5.92-24c.06,0,.15-.07.07-.16A.46.46,0,0,0,25.07,10.67ZM2.7,8.19s-.07-.08-.13-.08C2.66,8.22,2.66,8.22,2.7,8.19ZM15.36,30.05s-.07,0,0,.05a.06.06,0,0,0,.07,0s0-.06,0-.08S15.36,30,15.36,30.05Zm4.7-14a.65.65,0,0,0-.17.16C20,16.2,20,16.13,20.06,16.06Zm.24-.24a1,1,0,0,0-.2.2C20.2,16,20.23,15.89,20.3,15.82ZM17.61,29.23s0,0,0,0-.07,0-.12-.05S17.55,29.24,17.61,29.23ZM7.35,19a.34.34,0,0,0-.15-.09A.12.12,0,0,0,7.35,19ZM6,17.86a.9.9,0,0,0-.16-.18C5.87,17.75,5.89,17.84,6,17.86Zm14.6,33.56s.07,0,.1,0a.1.1,0,0,0,0-.1S20.58,51.38,20.59,51.42ZM1.78,14a.3.3,0,0,0-.16,0C1.65,14.06,1.7,14.06,1.78,14ZM2.36,10s0,0,0,0,0,0,0,.06.05,0,.06,0A0,0,0,0,0,2.36,10Zm14,8.43a.23.23,0,0,0,.1-.12C16.32,18.25,16.29,18.3,16.31,18.38ZM9.12,19.77c0,.07.06.09.13,0A.31.31,0,0,0,9.12,19.77ZM5.51,17.46c-.06.09,0,.1.06.12S5.56,17.49,5.51,17.46ZM1.48,14c.05,0,.05,0,.08,0a.07.07,0,0,0-.09,0S1.45,14,1.48,14ZM14,23.91c-.11.1-.07.14,0,.17a.33.33,0,0,0,0-.17h0a.23.23,0,0,0,0-.14C13.83,23.86,14,23.86,14,23.91Zm4.25-6.31c.07,0,0-.05,0-.09v0s0,0-.06,0S18.16,17.63,18.23,17.6ZM21,52.14a.18.18,0,0,0,.12.09S21.11,52.15,21,52.14Zm-.79-13.82a.12.12,0,0,0,0-.17ZM25.11,6.58,25,6.71S25.11,6.66,25.11,6.58ZM17.54,18c0,.07.08.06.16,0Zm-.11,11.09c.05-.07,0-.11,0-.15ZM2.23,10.87l0-.13C2.11,10.83,2.19,10.84,2.23,10.87Zm8.24,9.29a.09.09,0,0,0,.12,0S10.52,20.13,10.47,20.16ZM3.94,15.59a.15.15,0,0,0,.11.12C4,15.66,4,15.59,3.94,15.59ZM20.25,37.66c.05,0,.06,0,.07-.06s-.07,0-.1,0ZM21.31,52.3l.05.05s.05,0,.05,0S21.37,52.31,21.31,52.3Zm-3.5-11s0,.07,0,0,0-.05,0-.08ZM5.69,17.52c0,.09.08.11.13.15A.47.47,0,0,0,5.69,17.52ZM2.53,14.37a.26.26,0,0,0-.13-.08.14.14,0,0,0,.13.08c.1.08.15.24.33.2a1.38,1.38,0,0,0-.33-.2Zm18,24.09s0,0,0,.06,0,0,.06,0,0,0,0,0Zm1.92,8.29c.05,0,.05-.09,0-.11A.2.2,0,0,0,22.41,46.75ZM6,17.88c0,.08.08.1.13.14A.44.44,0,0,0,6,17.88ZM16.1,23.1s0,0-.05,0,0,.05.06,0S16.11,23.1,16.1,23.1ZM2.29,4.63c.1,0,.24,0,.22-.22-.07.07-.17.12-.22.22s-.11,0-.08.09ZM18.91,33.89a.1.1,0,0,0-.07-.13ZM16.48,18.57s0,0,0,0,0,0,0-.07l0,0S16.47,18.56,16.48,18.57ZM5.75,17.8h.12S5.79,17.74,5.75,17.8Zm-.22-.19s0,0,.08,0,0,0,0,0S5.54,17.57,5.53,17.61Zm10.57,3c.09-.07.06.07.13.06a1.42,1.42,0,0,1,.05-.36l-.09-.12-.09.42h0a.15.15,0,0,0,0,.09s.07,0,.08,0S16.12,20.66,16.1,20.65Zm.26-.35s-.06,0-.07,0,0,0,0,0,.05,0,.06,0S16.36,20.31,16.36,20.3Zm-.59,1a.26.26,0,0,0-.07.11C15.76,21.43,15.76,21.38,15.77,21.33ZM1.42,7a0,0,0,0,0,0-.06s-.05,0-.06,0S1.41,7,1.42,7Zm.34-.85s-.07,0-.08,0l.06,0S1.78,6.16,1.76,6.13ZM7.88,19.59l.07,0s0,0,0,0a.07.07,0,0,0-.06,0ZM23.67,51.38s0,0,0,0v-.05h0S23.66,51.37,23.67,51.38ZM17.73,17.85a.05.05,0,0,0,0,0s0,0,0,0,0,0,0,0Zm5.06,30.39s.05-.09,0-.1ZM20.06,16.17v0s0,0,0,0v0A0,0,0,0,0,20.06,16.17Zm-6.25,7.12a.14.14,0,0,0,0-.11h0c0-.22-.11-.43-.15-.64a.3.3,0,0,0-.28-.29s0,.05,0,.08.11.24.22.28,0,.09,0,.12,0,.12,0,.18.06.05,0,.09-.06.05,0,.11.14,0,.2.07S13.74,23.27,13.81,23.29Zm2.75,2.42,0,.08s.05,0,0-.07S16.58,25.71,16.56,25.71Zm.13.5,0,.11C16.82,26.25,16.7,26.25,16.69,26.21ZM19,35.08c.13-.17.14-.28,0-.34s-.1-.11-.11-.2,0-.29-.09-.39L18.7,34s.1,0,.13-.09l-.18-.12c.12-.1.13-.18,0-.28l-.1-.08a1.61,1.61,0,0,0,.1.36h0a.54.54,0,0,0,.05.21h0l.24,1s0,.08.09.07a.17.17,0,0,0,.12.06S19.1,35,19,35.08ZM9.11,19.92l0,0,.05,0,0,0S9.12,19.91,9.11,19.92ZM24,9.87l.06,0a.07.07,0,0,0,0-.05h0S23.94,9.86,24,9.87ZM14,24.18s0-.07,0-.1S14,24.15,14,24.18Zm7.53,28.2-.08,0S21.56,52.43,21.57,52.38ZM4.38,16.23s0,0,0,.05l0,0s0,0,0-.05S4.38,16.21,4.38,16.23ZM21.24,52.28s0,0,.06.08l0-.09ZM16.83,25.94s0,0,0-.05h0l0,.05S16.82,26,16.83,25.94Z"/><path class="cls-16" d="M15.33,16.92a1.22,1.22,0,0,1,.43.91,16.09,16.09,0,0,1-.13,2.4,1.69,1.69,0,0,1-.14.45s0,.09-.09.06a1.91,1.91,0,0,0-1.81.28,1.47,1.47,0,0,0-.44.42c0,.06-.07.06-.13,0a1.19,1.19,0,0,1-.48-.41,12.85,12.85,0,0,1-1.11-1.77,2,2,0,0,1-.22-.68.72.72,0,0,1,.3-.7,5.46,5.46,0,0,1,1.2-.62c.61-.22,1.23-.39,1.86-.56A.81.81,0,0,1,15.33,16.92Z"/><path class="cls-17" d="M18.36,35a2.13,2.13,0,0,0-.72.19c-.1.05-.13,0-.15-.07-.31-1.19-.62-2.39-.94-3.58Q15.29,26.7,14,21.88a.2.2,0,0,1,.1-.26,1.27,1.27,0,0,1,.59-.21.18.18,0,0,1,.22.16q1.53,6,3.07,12C18.11,34,18.23,34.49,18.36,35Z"/><path class="cls-3" d="M12.77,7.15a27.53,27.53,0,0,1,0-6l0,.14a49.23,49.23,0,0,1,.27,5.57C13,7,12.86,7,12.77,7.15Z"/><path class="cls-18" d="M16.64,13.59a8.14,8.14,0,0,1-.54.63c-.5.6-1,1.2-1.52,1.79a.23.23,0,0,1-.12.12.23.23,0,0,1,.08-.11l2-2.33S16.57,13.59,16.64,13.59Z"/><path class="cls-3" d="M12.13,6.33a.16.16,0,0,1-.05-.1c0-.28,0-.55-.05-.83a.15.15,0,0,1,0-.11Z"/><path class="cls-3" d="M12.08,7.86s0,0,0,0a.9.9,0,0,0,.17-.3C12.29,7.7,12.15,7.76,12.08,7.86Z"/><path class="cls-19" d="M7.36,15.09S7.29,15,7.29,15s0,0,0,0l.09.12S7.37,15.12,7.36,15.09Z"/><path class="cls-20" d="M15.61,16.41a.23.23,0,0,1,.18.15Z"/><path class="cls-21" d="M7.33,15h0s-.07-.06-.08-.11h0Z"/><path class="cls-22" d="M7.36,15.09h.06a.19.19,0,0,1,0,.11S7.37,15.15,7.36,15.09Z"/><path class="cls-23" d="M17.38,6.59c0,.08-.07.11-.11.16A.57.57,0,0,1,17.38,6.59Z"/><path class="cls-24" d="M8.85,13.27H8.9s0,.06,0,.09A.1.1,0,0,1,8.85,13.27Z"/><path class="cls-20" d="M15.82,16.6s.11,0,.11.12A.43.43,0,0,1,15.82,16.6Z"/><path class="cls-20" d="M16.12,17s.05-.09.11-.09S16.18,17,16.12,17Z"/><path class="cls-25" d="M6.15,14.55s-.09-.06-.1-.12S6.14,14.49,6.15,14.55Z"/><path class="cls-26" d="M22.93,50.94c-.31-1.17-.62-2.33-.92-3.5q-1.49-5.76-3-11.52a.44.44,0,0,0-.22-.29,1.35,1.35,0,0,0-1.48.39.28.28,0,0,0-.05.28c.43,1.63.85,3.27,1.28,4.9q1.32,5,2.62,10a.67.67,0,0,0,.23.37,1,1,0,0,0,1,.19A.58.58,0,0,0,22.93,50.94ZM12.8,16.44C11.36,13.34,10,10.2,8.79,7A35.48,35.48,0,0,1,7.42,2.56c0-.1-.06-.1-.14-.08-.44.11-.89.22-1.33.31-.16,0-.18.08-.15.22a31.6,31.6,0,0,0,.89,3.06c.86,2.53,1.87,5,2.94,7.44.54,1.25,1.1,2.49,1.67,3.72,0,.06,0,.14.16.07a5.92,5.92,0,0,1,1.3-.61l.1,0s0-.05,0-.07Zm5.69-8.68s0,0,0,0a5.75,5.75,0,0,0,.41-.56L19.05,7l.53-.62s0-.09.1-.1a5.25,5.25,0,0,1,1-.84c.06,0,.19,0,.15-.16-.1-.47-.21-.95-.31-1.42,0-.1,0-.12-.14-.08a5.63,5.63,0,0,0-1.88,1.36,6.78,6.78,0,0,0-1.16,1.46c0,.07-.09.1-.11.16l-.09.12a5.36,5.36,0,0,0-.65.93c-.28.46-.55.92-.79,1.4a.32.32,0,0,1-.34.19.27.27,0,0,1-.2-.31c0-.1,0-.21,0-.35-.18.13-.33.26-.5.36A1.66,1.66,0,0,0,14,10.3a19.4,19.4,0,0,0-.23,2.27l0,.48c0,.15,0,.31,0,.5l.06-.09a12,12,0,0,1,.89-1.65c.21-.33.45-.63.66-1l.55-.65h0l.09-.08a11.72,11.72,0,0,1,2-1.75A1.82,1.82,0,0,0,18.49,7.76Zm-.09.08Zm2.22,6.78.6-.71s.09-.07,0-.13-.1,0-.16,0c-.24.16-.48.3-.71.46a32.73,32.73,0,0,0-3.34,2.63l-.67.6c-.06.06-.11.12-.07.2s.11,0,.16,0a5.52,5.52,0,0,0,1.39-.6A10.54,10.54,0,0,0,20.62,14.62ZM9.35,17.74a1.7,1.7,0,0,0-.65-.57.43.43,0,0,1-.2-.11.9.9,0,0,0-.28-.2h0A.74.74,0,0,0,8,16.7a1.2,1.2,0,0,0-.28-.27l-.06-.06a.29.29,0,0,0-.1-.12c-.16-.2-.32-.4-.49-.59-.31-.38-.61-.76-.95-1.11h0s-.08-.06-.1-.11a3.24,3.24,0,0,0-.4-.43l-.05-.07a11.65,11.65,0,0,0-1.36-1.17,7.61,7.61,0,0,0-3.05-1.23c-.08,0-.1,0-.12.09Q1,12.33.8,13c0,.11,0,.15.11.17a6,6,0,0,1,1.39.41,8.32,8.32,0,0,1,.93.5l.13.1a1.29,1.29,0,0,0,.3.22l.18.16h0a.1.1,0,0,0,0,.05A21.49,21.49,0,0,1,6,16.93a6.5,6.5,0,0,0,.83.91,4.47,4.47,0,0,0,.52.44h0a2.76,2.76,0,0,0,.58.38,1.87,1.87,0,0,0,.31.17h0c.14.06.27.13.41.18a4.64,4.64,0,0,0,1.92.34,1.06,1.06,0,0,0,.3,0l-.7-.7ZM15,5.18a.67.67,0,0,0,.2-.4c0-.92-.08-1.85-.16-2.76A4.05,4.05,0,0,0,15,1.24a.15.15,0,0,0,0-.13C15,1,15,1,15,.9s0-.11-.12-.1l-1.45.25c-.06,0-.09,0-.08.1,0,.54.11,1.08.16,1.62v.17a.19.19,0,0,1,0,.18h0l0,.51a.29.29,0,0,0,0,.13V4c0,.67,0,1.33,0,2v.53a5.78,5.78,0,0,0,1-.84Q14.8,5.43,15,5.18Zm6.31,5.17c-.12.05-.17.17-.24.28l.17-.19Z"/><path class="cls-27" d="M23.19,10.56a6.91,6.91,0,0,0-1.77.57.25.25,0,0,1-.35-.06.29.29,0,0,1,0-.37,1.24,1.24,0,0,0,.19-.26c-.08,0-.11.11-.16.17a1.43,1.43,0,0,1,.23-.26c.09-.1.15-.21.23-.31s.05-.13,0-.17l-1-.53c-.1-.06-.2-.15-.3-.15s-.14.17-.22.26l-.1.12c-.56.75-1.16,1.47-1.75,2.19l-1.52,1.83a4.08,4.08,0,0,0-.54.63l-.1.15L14.59,16s-.08.07-.09.14a1.42,1.42,0,0,1,1.05.19l.06,0a.38.38,0,0,1,.18.15l0,0s.09.06.11.12.09.19.19.23.06-.07.11-.09l.15-.12,1.36-1.19,1-.8A18.2,18.2,0,0,1,22,12.68a4,4,0,0,1,1.79-.49c.07,0,.08,0,.1-.09.2-.46.39-.93.59-1.39,0-.09,0-.12-.07-.13A3.46,3.46,0,0,0,23.19,10.56ZM16.12,16.9Zm.79-.68s0,0,0,0h0ZM14.22,8.79c.25-.18.49-.38.74-.55a7.57,7.57,0,0,0,2.4-2.69,11.14,11.14,0,0,0,1.09-3.91c0-.1,0-.09-.1-.09l-1.41-.07c-.11,0-.14,0-.15.13a10.47,10.47,0,0,1-.46,2.21,5.62,5.62,0,0,1-1.64,2.54c-.4.36-.85.67-1.28,1a3.67,3.67,0,0,0-1.49,2.09,15.16,15.16,0,0,0-.38,2.75.25.25,0,0,0,0,.15L13,15.49A1,1,0,0,0,13.1,15c0-.74,0-1.49.06-2.24A18.15,18.15,0,0,1,13.47,10,2,2,0,0,1,14.22,8.79Zm10.29-3c-.44-.14-.87-.29-1.3-.45-.1,0-.14,0-.2.09a3.23,3.23,0,0,1-1.28,1.48,9.41,9.41,0,0,1-1,.53,15.94,15.94,0,0,0-3,1.75,10.17,10.17,0,0,0-1.52,1.41,4.51,4.51,0,0,1-.48.57,7.2,7.2,0,0,0-.69,1,12.94,12.94,0,0,0-1.69,4.11c0,.05,0,.12,0,.15s.1,0,.15,0l0,0a1.47,1.47,0,0,0,.31-.3l2.47-2.93a2.55,2.55,0,0,0,.28-.39,14.29,14.29,0,0,1,1.28-1.52,6.15,6.15,0,0,0,.65-.8l.21-.26a3.37,3.37,0,0,0,.43-.55h0a5.34,5.34,0,0,0,.5-.65c0-.06.08-.09.11-.15v0h0l0-.06a.23.23,0,0,1,.1-.12.21.21,0,0,1,.25,0c.06,0,.1.07.16.07s.41.21.61.34a.36.36,0,0,0,.45,0c.11-.07.23-.11.34-.17a7,7,0,0,0,1.39-.9,1.31,1.31,0,0,1,.11-.12,1.31,1.31,0,0,0,.12-.11h0a3.72,3.72,0,0,0,.7-.83c0-.06.08-.09.09-.14l.18-.32c.07-.12.13-.25.19-.37S24.61,5.84,24.51,5.8Zm-5.7,4.06v0h0Zm.05.06ZM7.7,11.87c.4.46.77.93,1.15,1.4,0,0,0,0,.05,0-.64-1.48-1.26-3-1.84-4.49a.41.41,0,0,0-.12-.17A17.44,17.44,0,0,0,4.79,6.83a11.41,11.41,0,0,0-2.1-1.18c-.08,0-.12-.05-.16,0-.18.46-.36.92-.55,1.37,0,.08,0,.12.06.15A10.22,10.22,0,0,1,4.29,8.56,21.79,21.79,0,0,1,7.7,11.87Zm2-9.1c0-.07-.05-.11-.14-.07l-1.27.54c-.08,0-.09.07-.06.14.08.29.16.58.25.86.64,2.06,1.42,4.06,2.25,6,.11.27.23.54.34.82h0c0-.27.07-.53.11-.8a.76.76,0,0,0,0-.26,39.82,39.82,0,0,0-.66-4.22A25.14,25.14,0,0,0,9.67,2.77ZM11.59,8.7a4.88,4.88,0,0,1,.49-.84c0-.11.16-.19.15-.32,0-.41-.06-.81-.1-1.21a7,7,0,0,1-.07-.79.53.53,0,0,1,0-.25V5.11A21.37,21.37,0,0,1,12.2,1c0-.09,0-.09-.09-.1L10.72.61c-.1,0-.13,0-.15.11a16.76,16.76,0,0,0-.18,2.34.4.4,0,0,0,0,.19A31.61,31.61,0,0,1,11.59,8.7ZM5.15,10.63A1.89,1.89,0,0,0,4.72,10c-.11-.12-.21-.24-.33-.35a3.72,3.72,0,0,0-1-.76c-.08,0-.13,0-.14.07C3.13,9.47,3,10,3,10.51a.18.18,0,0,0,.06.17,8.46,8.46,0,0,1,1,1.08,1.56,1.56,0,0,0,.36.41,11.14,11.14,0,0,1,2.11,1.88l.77.88s0,0,0,0A6.59,6.59,0,0,1,7,14.36,25.13,25.13,0,0,1,5.15,10.63Zm4,4a39.22,39.22,0,0,0-2.5-3.09l-.91-1c.58,1.7,2.9,5.72,3.51,6.14,0,0,0,0,0-.07,0-.57,0-1.13,0-1.69A.55.55,0,0,0,9.19,14.65ZM3.29,5.3A11.67,11.67,0,0,1,5.13,6.38c.31.22.62.44.92.69a0,0,0,0,0,0-.06A19.41,19.41,0,0,0,4.7,4.51,5.07,5.07,0,0,0,3.64,3.26c-.08-.06-.12-.07-.16.05-.17.51-.34,1-.52,1.51,0,0,0,.1,0,.15S3.13,5.23,3.29,5.3ZM9.9,15.45h0c0,.53,0,1.06,0,1.59,0,.05,0,.07.07.07.24,0,.48,0,.74,0C10.4,16.55,10.15,16,9.9,15.45ZM10,17.61l.68.75a1.66,1.66,0,0,1,.18-.53c0-.07.08-.2,0-.21C10.55,17.6,10.28,17.61,10,17.61Z"/><path class="cls-28" d="M24.11,6.8c0-.07.06-.1.09-.14A.31.31,0,0,1,24.11,6.8Z"/><path class="cls-29" d="M13.93,9l-.21.25h0L13.92,9Z"/></g></g></g></svg>