<svg id="flogo.svg" xmlns="http://www.w3.org/2000/svg" width="265.469" height="44.219" viewBox="0 0 265.469 44.219">
  <defs>
    <style>
      .cls-1 {
        fill: #fff;
      }

      .cls-1, .cls-2 {
        fill-rule: evenodd;
      }

      .cls-2 {
        fill: #fbd601;
      }
    </style>
  </defs>
  <path id="_22" data-name="22" class="cls-1" d="M539.877,64.99V54.73H510.916V67.687h11.416v1.891c0,1.926,1.3,2.872,3.748,2.872h11.451c2.241,0,4.552,0,5.112-6.759Zm-5.848-.7H527.9V62.574h6.129V64.29Zm-11.7,0h-5.743V62.574h5.743V64.29Zm0-4.517h-5.708V58.127h5.708v1.646Zm11.7,0H527.9V58.127h6.129v1.646Zm-5.463,9.035c-0.666,0-.666-0.56-0.666-1.121h9.035a1.439,1.439,0,0,1-1.716,1.121h-6.653ZM539.737,40.3h-28.47v3.957h11.486v1.086H509.516v7.669h5.392V48.5h7.845v5.5h5.112V48.5h8.055v4.517h5.673V45.345H527.865V44.259h11.872V40.3ZM515.854,52.138v1.716h5.883V52.138h-5.883Zm13.027,0v1.716h6.058V52.138h-6.058Zm-13.027-2.7v1.681h5.883V49.442h-5.883Zm13.027,0v1.681h6.058V49.442h-6.058Zm48.377-8.264H554.636c0.245-.42.35-0.6,0.77-1.436l-6.443-.7a20.339,20.339,0,0,1-5.743,6.478l3.117,5.463c0.945-.84,2-1.821,3.536-3.4v3.852h24.759v-4.1H550.119c0.28-.315.525-0.6,1.085-1.191h26.054V41.177ZM545.811,61.418a51.83,51.83,0,0,1,5.008,3.047,30.146,30.146,0,0,1-6.934,3.187l3.222,5.078a48.7,48.7,0,0,0,8.4-4.8,38.76,38.76,0,0,1,4.9,4.482l4.378-4.272a43.775,43.775,0,0,0-4.693-3.957,33.428,33.428,0,0,0,4.1-4.517l-4.272-2.346h6.689a28.072,28.072,0,0,0-.211,3.817c0,5.6.526,11.8,5.638,11.8,3.712,0,5.568-4.728,5.814-5.323l-2.242-5.778c-0.7,1.961-1.575,4.482-2.556,4.482-0.49,0-.7-0.385-0.7-3.922,0-2.626.245-7.144,0.56-9.735h-29v4.657h5.533Zm13.307-4.1A19.3,19.3,0,0,1,555.652,61a44.169,44.169,0,0,0-6.164-3.677h9.63ZM596.99,71.084a16.8,16.8,0,0,0,9.385-3.5c4.482-3.782,4.938-9.49,4.938-11.871,0-8.089-5.113-14.183-14.883-14.183-8.615,0-16.6,5.533-16.6,16,0,4.377,1.856,10.646,7.6,10.646,9.945,0,10.856-20.066,10.891-20.766,3.046,0.315,6.513,2.206,6.513,8.019,0,7.459-5.5,9.385-9.84,9.735Zm-4.517-23.358c-0.736,7.914-2.627,13.8-4.8,13.8-1.751,0-1.926-3.047-1.926-3.852C585.749,52.313,588.831,48.811,592.473,47.726ZM632.55,72.94a36.741,36.741,0,0,0,6.619-5.113,23.9,23.9,0,0,0,5.358,5.183l3.257-6.023a17.8,17.8,0,0,1-5.008-3.922c2.451-4.342,2.941-10.015,3.117-13.447h1.26V43.839h-7.844c0.315-1.576.49-2.872,0.63-4.027l-5.393-.42a28.366,28.366,0,0,1-2.136,9.21V44.224h-1.891l2.557-1.541a12.546,12.546,0,0,0-2.8-3.642l-3.887,2.136a15.84,15.84,0,0,1,2.276,3.047h-2.486V39.566h-5.358v4.658h-6.794v5.323h6.794V55.71a15.987,15.987,0,0,0-.735-1.751c-0.281-.63-1.821-3.327-2.1-3.887l-4.412,2.942a43.707,43.707,0,0,1,2.626,6.093l4.623-2.977v2.942a39.775,39.775,0,0,1-7.284,2.626l0.735,6.023c1.821-.735,4.378-2.066,6.549-3.187v1.716a1.008,1.008,0,0,1-.8,1.121h-4.063l1.261,5.5h5.638c0.665,0,3.327-.14,3.327-3.677v-7a28.918,28.918,0,0,1,3.432,4.482l3.957-3.5a14.906,14.906,0,0,0-1.856-2.381c-1.926-2.031-2.276-2.381-2.767-2.872l-2.766,2.767V56.2l4.2,2.556a17.041,17.041,0,0,0,1.3-2.556l1.4,2.591c0.525-.735.7-0.98,0.945-1.331a27.324,27.324,0,0,0,2.066,5.393,24.1,24.1,0,0,1-7.284,4.973Zm8.02-23.323a33.236,33.236,0,0,1-1.226,7.564,34.706,34.706,0,0,1-1.786-6.829c0.07-.175.21-0.6,0.245-0.735h2.767Zm-8.58-.07a18.323,18.323,0,0,1-1.051,2.031l-2.451-1.3a32.59,32.59,0,0,1-2.311,5.428V49.547h5.813Zm43.58,1.646c0.07,5.428-.245,11.8-0.456,13.692-0.175,1.611-.49,1.891-1.926,1.891h-2.836L671.4,72.8h3.047c4.938,0,5.988-1.716,6.373-7.214,0.526-7.774.526-15.9,0.526-20.136h-8.02V39.461H667.69V45.45h-3.116V40.477H650.181V64.99c-0.315.035-.49,0.07-1.751,0.21l0.77,5.6c3.467-.63,8.4-1.541,12.327-2.486a19.109,19.109,0,0,1-1.751,1.436l4.938,3.327c7.529-6.864,8.019-13.342,8.544-21.887h2.312Zm-16.249,1.961V55.78h-3.852V53.154h3.852Zm8.334-1.961c-0.28,7.074-1.33,9.7-1.786,10.891-0.175.035-1.085,0.245-1.3,0.315V51.193h3.081Zm-8.334,12.292c-0.525.1-3.257,0.56-3.852,0.665V60.578h3.852v2.907Zm0-17.615v2.521h-3.852V45.87h3.852Zm36.331-5.533H684.831V72.764h4.8V61.138l1.506,4.938h1.331a3.609,3.609,0,0,0,.7-0.07l2,4.342a29.157,29.157,0,0,0,3.362-1.611l0.736,4.027H703.6c5.323,0,5.568-5.568,5.568-7.459a21.587,21.587,0,0,0-4.938-14.218,7.571,7.571,0,0,0,2.1-2.346h0.7c0.455,7.284,2.451,16.284,6.478,22.272l4.238-4.8a25.424,25.424,0,0,1-4.308-7.284A33.906,33.906,0,0,0,717.5,54.94l-2.276-5.813a26.22,26.22,0,0,1-3.292,4.307c-0.42-2.346-.525-3.747-0.63-4.693h5.638V43.629h-3.572a30.42,30.42,0,0,0,1.541-3.222l-5.743-.946a19.375,19.375,0,0,1-1.506,4.167H704.9a32.808,32.808,0,0,0-1.716-4.167l-5.5,1.05a32.122,32.122,0,0,1,1.541,3.117h-3.467v5.113h4.762a14.369,14.369,0,0,1-6.093,2.942l2.1,4.1a24.576,24.576,0,0,0,4.062-2.031c0.491,0.7.631,0.91,0.771,1.121A31.682,31.682,0,0,1,696,57.951a17.7,17.7,0,0,0-2.066-5.393,57.11,57.11,0,0,0,1.716-7V40.337Zm-6.024,12.922a9.132,9.132,0,0,1,2.1,5.708c0,0.63,0,1.821-1.3,1.821h-0.806V53.259Zm7.845,8.825a36.7,36.7,0,0,0,5.638-3.642c0.14,0.385.245,0.77,0.42,1.4a30.6,30.6,0,0,1-8.755,5.253c1.226-1.261,1.541-3.712,1.4-5.743Zm-7.845-16.529h1.891a29.365,29.365,0,0,1-1.891,7.669V45.555ZM699.4,68.247a37.055,37.055,0,0,0,4.622-3.327c-0.1,1.436-.28,3.327-2.311,3.327H699.4Z" transform="translate(-452.281 -33)"/>
  <path id="シェイプ_690" data-name="シェイプ 690" class="cls-2" d="M460.57,45.062l7.2,7.23,3.112-2.992-7.265-7.293-0.888-3.945-6.482-3.946L454.469,35.9,452.69,37.68l3.94,6.492Zm21.883,11.779L493.1,67.471A5.029,5.029,0,1,1,486,74.588l-10.648-10.63Zm8.755-6.291c3.667-3.332,4.28-7.119,3.46-10.312a0.781,0.781,0,0,0-.306-0.626l-0.738-.605a0.6,0.6,0,0,0-.906.086l-4.244,5.526a0.607,0.607,0,0,1-.511.249l-1.54.113a0.607,0.607,0,0,1-.364-0.135l-2.975-2.525a0.6,0.6,0,0,1-.221-0.394l-0.185-1.4a0.608,0.608,0,0,1,.109-0.437l3.974-5.406a0.61,0.61,0,0,0-.078-0.8l-0.964-.755a0.713,0.713,0,0,0-.695-0.094c-2.744.541-7.43,3.2-8.619,6.882a12.973,12.973,0,0,0-.683,5.52,6.727,6.727,0,0,1-1.336,4.321l-20.7,19.905c-0.04.037-.079,0.075-0.118,0.114a4.333,4.333,0,1,0,6.124,6.131c0.079-.079.156-0.162,0.227-0.247L479.88,54.052C482.336,51.862,487.2,54.2,491.208,50.55Z" transform="translate(-452.281 -33)"/>
</svg>
