<svg xmlns="http://www.w3.org/2000/svg" viewBox="0 0 137.84 137.57"><defs><style>.cls-1{fill:#fff;}.cls-2{fill:#003562;}</style></defs><g id="レイヤー_2" data-name="レイヤー 2"><g id="レイヤー_1-2" data-name="レイヤー 1"><g id="iconC"><g id="S"><path id="fill" class="cls-1" d="M49.6,100.77l51.28-51.28a23.48,23.48,0,0,0,30.5-31.36L118.2,31.3l-9.31-2.5-2.5-9.31L119.51,6.36A23.48,23.48,0,0,0,88.34,37L37.17,88.13a23.48,23.48,0,0,0-30.6,31.48l13.17-13.18,9.32,2.5,2.5,9.31-13,13A23.49,23.49,0,0,0,49.6,100.77Z"/><path id="stroke" class="cls-2" d="M27.93,137.57a28.15,28.15,0,0,1-11.12-2.31,4.36,4.36,0,0,1-2.27-5.72,4.31,4.31,0,0,1,.92-1.35L26.7,117l-1.2-4.46L21,111.29l-11.4,11.4a4.35,4.35,0,0,1-6.15,0,4.28,4.28,0,0,1-.87-1.24A27.82,27.82,0,0,1,36.06,83.1L83.31,35.84a27.83,27.83,0,0,1,38-33.44,4.35,4.35,0,0,1,2.21,5.74,4.2,4.2,0,0,1-.9,1.31L111.24,20.8l1.2,4.46,4.46,1.2,11.4-11.4a4.35,4.35,0,0,1,6.15,0,4.39,4.39,0,0,1,.89,1.28A27.83,27.83,0,0,1,102,54.52l-47.4,47.4a27.89,27.89,0,0,1-26.67,35.65Zm-.82-8.73a19.16,19.16,0,0,0,18.47-26.42,4.33,4.33,0,0,1,.94-4.72L97.8,46.42a4.34,4.34,0,0,1,4.76-.93,19.12,19.12,0,0,0,26.52-18.9l-7.8,7.8a4.35,4.35,0,0,1-4.2,1.12L107.76,33a4.33,4.33,0,0,1-3.07-3.07l-2.5-9.32a4.32,4.32,0,0,1,1.12-4.2L111,8.72A19.15,19.15,0,0,0,92.35,35.29a4.35,4.35,0,0,1-.93,4.76L40.25,91.22a4.37,4.37,0,0,1-4.8.92,19.1,19.1,0,0,0-26.66,19.1l7.87-7.88a4.37,4.37,0,0,1,4.2-1.12l9.32,2.5a4.33,4.33,0,0,1,3.07,3.07l2.5,9.32a4.37,4.37,0,0,1-1.12,4.2Z"/></g><g id="D"><path id="fill-2" data-name="fill" class="cls-1" d="M130.07,115.47,90,75.38l3.67-3.67-8.13-8.13L79.16,70,34.8,25.59C33.9,19.66,25.26,11,25.26,11l-5.5-5.5L5.69,19.6l5.5,5.5s8.63,8.64,14.55,9.54L70.1,79l-6.36,6.36,8.13,8.14,3.67-3.67,40.09,40.08s5.64,5.65,12.86-1.58S130.07,115.47,130.07,115.47Z"/><path id="stroke-2" data-name="stroke" class="cls-2" d="M133.14,112.4l-37-37,.6-.6a4.35,4.35,0,0,0,0-6.15L88.6,60.51h0a4.35,4.35,0,0,0-6.15,0L79.16,63.8,38.76,23.4C36.9,16.77,29.83,9.44,28.33,8l-5.5-5.5a4.35,4.35,0,0,0-6.15,0L2.61,16.52a4.36,4.36,0,0,0,0,6.16l5.5,5.5c1.49,1.49,8.82,8.56,15.44,10.42L64,79l-3.28,3.29a4.35,4.35,0,0,0,0,6.15l8.13,8.13a4.36,4.36,0,0,0,6.15,0l.59-.59,37,37a12.43,12.43,0,0,0,5.86,3.09,12.13,12.13,0,0,0,2.61.28c3,0,6.67-1.08,10.54-5C139.12,123.86,136.64,115.9,133.14,112.4ZM28.82,31.56a4.35,4.35,0,0,0-2.42-1.22c-3.1-.47-9-5.15-12.14-8.31L11.84,19.6l7.92-7.92,2.42,2.43c3.08,3.07,7.85,9.06,8.32,12.14a4.36,4.36,0,0,0,1.22,2.41L73,70,71.55,71.4,70.1,72.85Zm96.59,93.7c-3.49,3.49-5.75,2.44-6.71,1.58L78.61,86.75a4.35,4.35,0,0,0-6.14,0l-.59.59-2-2,3-3c.08-.07.18-.13.27-.22l9.05-9h0c.08-.08.14-.18.22-.27l3-3,2,2-.6.59a4.36,4.36,0,0,0,0,6.15l40,40C127.86,119.51,128.9,121.77,125.41,125.26ZM86.27,82.42a2.61,2.61,0,1,0-3.7,3.69l36.09,36.08a2.61,2.61,0,0,0,1.85.77h0a2.61,2.61,0,0,0,1.84-4.46Z"/></g></g></g></g></svg>