<svg xmlns="http://www.w3.org/2000/svg" viewBox="0 0 239.46 150.8"><defs><style>.cls-1{fill:#00baff;}.cls-2{fill:#fff;}.cls-3{fill:#003562;}</style></defs><g id="レイヤー_2" data-name="レイヤー 2"><g id="レイヤー_1-2" data-name="レイヤー 1"><g id="iconA"><path id="drop" class="cls-1" d="M212.55,121a5.88,5.88,0,0,0,6-5.8c0-3.25-5.88-11.92-5.88-11.92s-5.88,8.67-5.88,11.92A5.88,5.88,0,0,0,212.55,121Zm-5.8,24a5.88,5.88,0,0,0,11.76,0c0-3.25-5.88-11.93-5.88-11.93S206.75,141.75,206.75,145Z"/><path id="fill" class="cls-2" d="M4.2,4.2V63a23.1,23.1,0,0,0,23.1,23.1H212.15A23.11,23.11,0,0,0,235.26,63V4.2Z"/><path id="stroke" class="cls-3" d="M235.26,0H4.2A4.2,4.2,0,0,0,0,4.2H0V63a27.34,27.34,0,0,0,27.31,27.3H212.15A27.34,27.34,0,0,0,239.46,63V4.2a4.2,4.2,0,0,0-4.2-4.2ZM212.15,81.92H27.31A18.94,18.94,0,0,1,8.87,67.22H230.58a18.93,18.93,0,0,1-18.43,14.7Zm18.91-23.11H8.4V8.4H231.06ZM26.83,77.09h185.8a2.52,2.52,0,1,0,0-5H26.83a2.52,2.52,0,1,0,0,5ZM216.35,52.86a5,5,0,1,0-5-5h0A5,5,0,0,0,216.35,52.86Zm-20.16,0a5,5,0,1,0-5-5h0a5,5,0,0,0,5,5Z"/></g></g></g></svg>