<svg xmlns="http://www.w3.org/2000/svg" viewBox="0 0 182.72 145.23"><defs><style>.cls-1{fill:#fff;}.cls-2{fill:#003562;}</style></defs><g id="レイヤー_2" data-name="レイヤー 2"><g id="レイヤー_1-2" data-name="レイヤー 1"><g id="iconB"><path id="fill" class="cls-1" d="M155.84,96.66V84.78H138.45V72a34,34,0,1,0-10.3,0V84.78H54.79V72A34,34,0,1,0,44.5,72V84.78H27.1V96.66H4.35v13.9H27.1v11.87H41.42v11.36H57.87V122.43H83.25v11.36H99.7V122.43h25.37v11.36h16.46V122.43h14.31V110.56h22.53V96.66Z"/><path id="stroke" class="cls-2" d="M91.47,92.55a11.06,11.06,0,1,0,11.06,11.06h0A11.06,11.06,0,0,0,91.47,92.55Zm0,16.9h0a5.84,5.84,0,1,1,5.84-5.84A5.85,5.85,0,0,1,91.47,109.45Zm86.9-17.14H160.2V84.78a4.36,4.36,0,0,0-4.35-4.35h-13V75.57a38.38,38.38,0,1,0-19,0v4.86H59.14V75.57a38.37,38.37,0,1,0-19,0v4.86h-13a4.35,4.35,0,0,0-4.35,4.35v7.53H4.35A4.35,4.35,0,0,0,0,96.66v13.9a4.35,4.35,0,0,0,4.35,4.35h18.4v7.52a4.35,4.35,0,0,0,4.35,4.35h10v7a4.32,4.32,0,0,0,3.08,4.14v3a4.35,4.35,0,0,0,4.35,4.35H54.8a4.35,4.35,0,0,0,4.35-4.35v-3a4.32,4.32,0,0,0,3.07-4.14v-7H78.9v7A4.32,4.32,0,0,0,82,137.92v3a4.34,4.34,0,0,0,4.34,4.35h10.3a4.36,4.36,0,0,0,4.36-4.35v-3a4.32,4.32,0,0,0,3.07-4.14v-7h16.68v7a4.32,4.32,0,0,0,3.07,4.14v3a4.36,4.36,0,0,0,4.36,4.35h10.3a4.36,4.36,0,0,0,4.35-4.35v-3a4.32,4.32,0,0,0,3.07-4.14v-7h10a4.35,4.35,0,0,0,4.35-4.35v-7.52h18.17a4.35,4.35,0,0,0,4.35-4.35V96.66A4.34,4.34,0,0,0,178.37,92.31ZM22.53,106.21H8.7V101H22.53Zm129-17.08V98.4a3.46,3.46,0,0,1-.32-.6,7.5,7.5,0,0,1-.15-1.63,7.8,7.8,0,0,0-1.17-4.59,7.45,7.45,0,0,0-3.77-2.45ZM103.62,38.38a29.68,29.68,0,1,1,59.36,0h0a29.68,29.68,0,1,1-59.36,0ZM134.1,76.74v3.69h-1.6V76.74l.8,0ZM20,38.38a29.68,29.68,0,1,1,59.36,0h0a29.68,29.68,0,0,1-59.36,0ZM50.45,76.74v3.69h-1.6V76.74l.8,0ZM36.86,89.13a7.41,7.41,0,0,0-3.77,2.45,7.73,7.73,0,0,0-1.17,4.59,7.44,7.44,0,0,1-.15,1.63,3.46,3.46,0,0,1-.32.6V89.13Zm-5.41,29v-9.27a3.41,3.41,0,0,1,.31.6,6.88,6.88,0,0,1,.16,1.63,7.74,7.74,0,0,0,1.17,4.59,7.47,7.47,0,0,0,3.77,2.45Zm22.06,11.35H45.77v-2.65h7.74Zm8.64-18.54h0a6.73,6.73,0,0,1-.18,1.67,5.92,5.92,0,0,1-1.56.7,8.38,8.38,0,0,0-4.9,3.56,6.13,6.13,0,0,1-1.12,1.26H54a9.9,9.9,0,0,1-1.3-.33,8.74,8.74,0,0,0-6.21,0,9.52,9.52,0,0,1-1.3.33h-.32a5.94,5.94,0,0,1-1.14-1.26,8.38,8.38,0,0,0-4.9-3.56A1.71,1.71,0,0,1,37,111.74a1.78,1.78,0,0,1,.14-.85,11.17,11.17,0,0,0-.41-3.09,10.45,10.45,0,0,0-1.46-2.66,1.78,1.78,0,0,1-.61-2.45,1.81,1.81,0,0,1,.61-.62,10.45,10.45,0,0,0,1.46-2.66,10.68,10.68,0,0,0,.4-3.08,6.63,6.63,0,0,1,.18-1.67,5.49,5.49,0,0,1,1.56-.7,10.93,10.93,0,0,0,2.8-1.34,10.12,10.12,0,0,0,2.1-2.23,6.45,6.45,0,0,1,1.13-1.26h.29a11.06,11.06,0,0,1,1.35.33,8.64,8.64,0,0,0,6.21,0c.42-.13.85-.24,1.28-.33h.35a6.45,6.45,0,0,1,1.13,1.26A8.4,8.4,0,0,0,60.41,94a1.69,1.69,0,0,1,1.86,1.51,1.64,1.64,0,0,1-.13.85,10.71,10.71,0,0,0,.41,3.09A10,10,0,0,0,64,102.07a1.8,1.8,0,0,1,.61,2.46,1.78,1.78,0,0,1-.61.61,10.15,10.15,0,0,0-1.46,2.66A10.79,10.79,0,0,0,62.15,110.89Zm33.2,18.54H87.6v-2.65h7.75ZM62.42,118.08a7.34,7.34,0,0,0,3.77-2.45A7.73,7.73,0,0,0,67.36,111a6.8,6.8,0,0,1,.16-1.62,6.79,6.79,0,0,1,.79-1.32,6.55,6.55,0,0,0,0-9,7,7,0,0,1-.79-1.31,7.51,7.51,0,0,1-.16-1.63,7.73,7.73,0,0,0-1.17-4.59,7.41,7.41,0,0,0-3.77-2.45h58.1a7.41,7.41,0,0,0-3.77,2.45,7.81,7.81,0,0,0-1.18,4.59,7.44,7.44,0,0,1-.15,1.63,7.6,7.6,0,0,1-.79,1.31,6.53,6.53,0,0,0,0,9,7.6,7.6,0,0,1,.79,1.31,7.44,7.44,0,0,1,.15,1.63,7.81,7.81,0,0,0,1.18,4.59,7.34,7.34,0,0,0,3.77,2.45Zm74.75,11.35h-7.75v-2.65h7.75Zm8.63-18.54h0a6.28,6.28,0,0,1-.17,1.67,5.92,5.92,0,0,1-1.56.7,8.38,8.38,0,0,0-4.9,3.56,6.18,6.18,0,0,1-1.13,1.26h-.33a9.52,9.52,0,0,1-1.3-.33,8.74,8.74,0,0,0-6.21,0,9.9,9.9,0,0,1-1.3.33h-.33a5.67,5.67,0,0,1-1.13-1.26,8.38,8.38,0,0,0-4.9-3.56,1.7,1.7,0,0,1-1.87-1.52,1.77,1.77,0,0,1,.13-.85,8.34,8.34,0,0,0-1.85-5.75,1.79,1.79,0,0,1-.62-2.45,1.73,1.73,0,0,1,.62-.61,10.48,10.48,0,0,0,1.45-2.67,10.35,10.35,0,0,0,.4-3.08,6.68,6.68,0,0,1,.18-1.67,5.61,5.61,0,0,1,1.56-.7,11.24,11.24,0,0,0,2.8-1.33,10.64,10.64,0,0,0,2.1-2.24,6.45,6.45,0,0,1,1.13-1.26h.29a11.06,11.06,0,0,1,1.35.33,8.64,8.64,0,0,0,6.21,0q.63-.19,1.29-.33h.34a6.45,6.45,0,0,1,1.13,1.26,8.4,8.4,0,0,0,4.9,3.57,5.83,5.83,0,0,1,1.55.69,5.9,5.9,0,0,1,.18,1.67,11.07,11.07,0,0,0,.41,3.09,10.05,10.05,0,0,0,1.46,2.67,1.79,1.79,0,0,1,0,3.06,10.15,10.15,0,0,0-1.46,2.66A10.81,10.81,0,0,0,145.8,110.89Zm5.69,7.19h-5.41a7.38,7.38,0,0,0,3.77-2.45A7.73,7.73,0,0,0,151,111a6.94,6.94,0,0,1,.16-1.63,3.41,3.41,0,0,1,.31-.6ZM174,106.2H160.2V101H174Zm-55.61-79a2.61,2.61,0,1,0,3.69-3.69l-4.1-4.1a2.61,2.61,0,0,0-3.69,3.69Zm30.75,11.21A2.61,2.61,0,0,0,151.76,41h5.8a2.61,2.61,0,0,0,0-5.22h-5.8A2.61,2.61,0,0,0,149.15,38.38ZM133.3,22.53a2.61,2.61,0,0,0,2.61-2.61v-5.8a2.61,2.61,0,0,0-5.22,0v5.8A2.61,2.61,0,0,0,133.3,22.53ZM117.45,38.38a2.61,2.61,0,0,0-2.61-2.61H109A2.61,2.61,0,0,0,109,41h5.8A2.61,2.61,0,0,0,117.45,38.38ZM148.2,27.17l4.1-4.1a2.62,2.62,0,0,0,0-3.69h0a2.62,2.62,0,0,0-3.69,0h0l-4.1,4.1a2.61,2.61,0,1,0,3.69,3.69Zm-113.46,0a2.61,2.61,0,1,0,3.7-3.69l-4.1-4.1a2.61,2.61,0,0,0-3.7,3.69Zm-1,11.21h0a2.61,2.61,0,0,0-2.61-2.61h-5.8a2.61,2.61,0,0,0,0,5.22h5.8A2.61,2.61,0,0,0,33.79,38.38ZM52.67,35.3a4.36,4.36,0,0,0-6.1,0h0l-14,14a4.35,4.35,0,0,0,6.15,6.15l14-14A4.35,4.35,0,0,0,52.67,35.3ZM65.5,38.38A2.61,2.61,0,0,0,68.11,41h5.8a2.61,2.61,0,0,0,0-5.22h-5.8A2.61,2.61,0,0,0,65.5,38.38Zm70.88-3.08a4.36,4.36,0,0,0-6.16,0h0l-14,14a4.35,4.35,0,0,0,6.15,6.15l14-14A4.36,4.36,0,0,0,136.38,35.3ZM64.54,27.17l4.1-4.1a2.61,2.61,0,0,0,0-3.69h0a2.62,2.62,0,0,0-3.69,0h0l-4.1,4.1a2.61,2.61,0,0,0,3.69,3.69Zm-14.9-4.64a2.61,2.61,0,0,0,2.61-2.61v-5.8a2.61,2.61,0,0,0-5.22,0v5.82A2.61,2.61,0,0,0,49.64,22.53Z"/></g></g></g></svg>