<?xml version="1.0" standalone="no"?>
<!DOCTYPE svg PUBLIC "-//W3C//DTD SVG 20010904//EN"
 "http://www.w3.org/TR/2001/REC-SVG-20010904/DTD/svg10.dtd">
<svg version="1.0" xmlns="http://www.w3.org/2000/svg"
 width="673.000000pt" height="288.000000pt" viewBox="0 0 673.000000 288.000000"
 preserveAspectRatio="xMidYMid meet">
<metadata>
Created by potrace 1.16, written by Peter Selinger 2001-2019
</metadata>
<g transform="translate(0.000000,288.000000) scale(0.100000,-0.100000)"
fill="#000000" stroke="none">
<path d="M1328 2729 c-25 -14 -23 -35 17 -186 19 -73 35 -135 35 -138 0 -14
-29 2 -137 73 -152 101 -140 95 -169 88 -17 -5 -24 -13 -24 -30 0 -20 29 -44
178 -142 97 -64 178 -118 180 -119 2 -2 18 -59 36 -126 18 -68 36 -134 40
-146 11 -36 -7 -34 -72 8 -66 42 -97 46 -116 16 -14 -23 11 -44 134 -117 80
-47 87 -53 97 -93 6 -23 32 -122 58 -220 26 -98 44 -181 41 -185 -4 -3 -15 -1
-24 5 -14 10 -101 64 -174 108 -213 129 -197 113 -229 236 -39 152 -54 173
-92 131 -16 -17 -16 -24 3 -97 11 -43 18 -80 16 -82 -4 -4 -148 82 -227 136
l-47 31 -36 150 c-64 260 -71 274 -117 250 -25 -14 -25 -19 17 -187 19 -80 33
-147 31 -149 -3 -3 -61 29 -131 70 -69 42 -132 76 -139 76 -18 0 -37 -21 -37
-41 0 -9 15 -28 33 -41 48 -36 203 -128 216 -128 23 0 10 -20 -16 -26 -16 -3
-39 -9 -53 -14 -14 -5 -70 -18 -125 -30 -108 -23 -131 -36 -120 -69 9 -29 29
-28 253 19 l192 39 125 -75 c122 -73 143 -92 108 -96 -32 -2 -38 -4 -60 -16
-12 -7 -30 -12 -40 -12 -11 0 -24 -5 -31 -12 -17 -17 -15 -55 3 -62 8 -3 70 8
138 25 l123 30 55 -33 c30 -18 117 -69 192 -113 75 -44 136 -83 137 -87 0 -3
-13 -9 -30 -13 -32 -7 -51 -25 -26 -25 9 0 16 -4 16 -9 0 -6 -11 -6 -29 0 -19
7 -36 7 -48 1 -22 -11 -93 -26 -110 -23 -7 1 -13 -2 -13 -7 0 -5 -21 -12 -47
-15 -27 -3 -69 -11 -96 -16 -46 -10 -49 -9 -125 35 -151 90 -174 96 -185 53
-6 -24 7 -38 85 -85 l62 -38 -59 -18 c-33 -10 -102 -28 -153 -40 -105 -24 -97
-26 -217 50 -164 103 -225 134 -251 128 -20 -5 -25 -12 -22 -34 3 -23 23 -39
136 -106 81 -49 129 -83 123 -89 -5 -5 -65 -24 -133 -42 -157 -42 -158 -43
-158 -71 0 -44 26 -44 178 -5 78 21 144 36 147 33 2 -2 -10 -25 -28 -51 -17
-25 -57 -89 -89 -141 -44 -73 -54 -98 -47 -112 12 -23 42 -23 65 -1 10 10 65
90 123 178 57 88 109 163 115 167 5 4 53 17 106 29 52 12 112 28 132 35 22 7
40 9 43 4 3 -5 -13 -39 -35 -74 -43 -68 -47 -91 -18 -110 32 -20 51 1 141 159
33 59 34 60 103 77 273 71 331 87 347 93 25 11 21 -10 -12 -59 -21 -30 -28
-50 -24 -66 4 -15 2 -21 -4 -17 -13 8 -47 -59 -38 -73 3 -5 0 -8 -7 -5 -13 5
-56 -70 -50 -88 1 -5 -1 -6 -6 -3 -5 3 -21 -17 -36 -43 l-26 -49 -113 -26
c-61 -14 -116 -26 -120 -26 -12 0 -37 -27 -37 -39 0 -5 9 -16 21 -24 18 -13
29 -12 96 5 41 10 78 17 80 14 3 -3 -5 -19 -17 -36 -21 -29 -71 -117 -107
-187 -9 -18 -21 -34 -27 -36 -30 -11 -456 40 -526 63 -14 4 -52 13 -85 20
-123 25 -293 83 -383 130 -51 27 -92 45 -90 40 12 -35 92 -124 149 -167 113
-85 326 -181 504 -227 239 -63 419 -96 639 -116 140 -13 526 -13 636 0 101 12
275 37 346 51 40 8 75 6 165 -11 356 -65 645 -65 1014 0 367 64 750 207 1030
383 59 38 394 263 515 347 209 145 463 230 689 230 35 0 62 2 60 4 -2 2 -57
14 -121 26 -146 26 -368 29 -508 6 -100 -16 -280 -61 -308 -76 -10 -5 -47 -19
-84 -31 -38 -13 -68 -26 -68 -30 0 -4 -10 -5 -22 -2 -19 4 -20 3 -8 -6 13 -9
13 -11 -2 -12 -27 -2 -30 -3 -65 -19 -18 -8 -33 -19 -33 -24 0 -4 -9 -6 -20
-3 -13 3 -18 1 -13 -6 4 -6 0 -8 -10 -4 -11 4 -14 2 -10 -9 3 -9 -1 -14 -14
-14 -10 0 -37 -13 -59 -29 -21 -16 -50 -32 -64 -36 -24 -8 -24 -8 -5 -16 17
-7 16 -8 -7 -8 -20 -1 -26 -5 -22 -16 4 -8 12 -15 20 -15 19 0 18 -26 -2 -34
-8 -3 -13 -10 -10 -14 3 -5 6 -62 7 -127 l1 -119 -32 -9 c-18 -4 -30 -10 -28
-12 9 -9 78 17 86 32 5 8 12 12 15 7 14 -24 -72 -80 -93 -60 -10 8 -12 7 -7
-6 5 -13 -6 -23 -46 -42 -244 -117 -473 -190 -717 -230 -173 -28 -172 -28
-165 -17 3 6 17 11 31 11 13 0 24 4 24 9 0 6 -8 8 -18 6 -20 -3 -72 37 -72 57
0 8 -19 33 -43 56 -43 42 -44 43 -88 33 -24 -5 -45 -8 -48 -6 -6 6 39 22 79
28 43 6 70 17 70 27 0 4 -17 4 -37 -1 -85 -18 -267 -48 -272 -43 -8 8 12 19
84 49 115 47 322 152 455 233 126 75 156 96 505 337 344 238 403 272 577 329
152 51 237 67 396 73 78 3 142 9 142 13 0 3 -30 12 -67 20 -315 60 -501 64
-758 14 -94 -18 -355 -83 -370 -92 -5 -4 -14 -7 -20 -9 -36 -7 -172 -60 -183
-70 -7 -7 -22 -13 -31 -13 -10 0 -29 -9 -43 -19 -13 -11 -72 -42 -131 -71 -59
-28 -109 -56 -112 -60 -3 -5 -13 -6 -22 -3 -11 4 -14 3 -9 -6 5 -7 0 -18 -10
-26 -18 -13 -18 -14 -1 -15 9 0 17 -3 17 -8 0 -11 -59 -35 -73 -29 -9 3 -11
-10 -9 -47 3 -49 1 -52 -32 -74 -19 -13 -39 -21 -44 -18 -6 3 -15 -1 -22 -9
-10 -12 -9 -15 6 -15 14 0 9 -9 -21 -40 -39 -40 -69 -51 -78 -27 -2 6 -8 8
-13 4 -5 -4 -2 -12 6 -17 12 -7 11 -12 -4 -29 -25 -28 -36 -26 -36 4 0 14 -4
25 -10 25 -5 0 -10 -18 -10 -40 l0 -40 -50 0 -50 0 0 -40 0 -40 -40 0 c-31 0
-47 -6 -65 -26 -23 -25 -27 -26 -99 -19 -67 6 -76 5 -76 -9 0 -15 -15 -16
-133 -14 -113 3 -131 5 -118 16 14 12 11 13 -18 8 -18 -3 -38 -6 -43 -6 -6 0
-8 -8 -4 -17 5 -16 4 -16 -6 -2 -12 17 -30 14 -105 -18 -17 -7 -45 -13 -61
-13 -17 0 -32 -4 -34 -8 -1 -5 -18 -12 -36 -15 -19 -4 -31 -3 -27 2 3 5 -5 11
-17 13 -14 2 -22 11 -23 25 -1 13 -4 24 -6 26 -17 13 -132 77 -137 77 -4 0 0
-5 8 -11 13 -9 13 -10 0 -6 -8 2 -14 10 -12 16 1 6 -13 21 -32 32 -19 11 -39
32 -45 47 -16 41 -112 424 -108 429 3 2 65 -32 138 -75 271 -159 262 -153 274
-196 7 -22 14 -35 18 -30 7 12 -2 50 -18 74 -5 9 -68 51 -140 94 -182 110
-177 107 -172 113 3 2 23 -7 46 -21 43 -28 51 -30 51 -18 0 7 -9 13 -75 45
-36 18 -108 80 -82 71 11 -4 17 -1 17 9 0 15 16 23 57 31 50 10 160 38 178 46
11 5 54 17 95 28 41 11 68 21 59 21 -9 1 -51 -8 -95 -19 -69 -18 -167 -42
-229 -55 -11 -3 -32 -8 -47 -11 -19 -4 -28 -2 -28 6 0 7 -6 10 -14 7 -8 -3
-19 5 -27 20 -14 27 -17 20 59 148 19 30 32 60 30 66 -2 6 -13 -7 -23 -30 -11
-22 -23 -41 -26 -41 -4 0 -10 -11 -13 -25 -4 -14 -11 -23 -16 -20 -6 3 -10 0
-10 -8 0 -8 -7 -21 -17 -28 -15 -13 -15 -12 -4 9 16 30 7 41 -11 13 -16 -26
-38 -28 -38 -3 0 9 -23 107 -51 217 l-50 200 64 108 c68 114 75 147 32 147
-28 0 -68 -47 -62 -72 3 -10 1 -21 -4 -24 -5 -3 -9 1 -9 8 0 7 -8 1 -18 -14
-19 -32 -42 -37 -42 -10 0 10 -14 72 -31 138 -17 65 -31 124 -32 129 0 6 44
90 97 187 103 188 113 221 65 226 -24 3 -31 -5 -74 -85 -66 -122 -108 -193
-116 -193 -3 0 -21 57 -38 126 -44 177 -58 200 -103 173z m362 -1566 c7 -32
17 -62 20 -68 4 -5 11 -28 14 -49 6 -31 10 -36 18 -25 8 11 9 10 4 -5 -4 -10
5 -66 19 -123 18 -72 24 -115 19 -137 -4 -17 -7 -38 -5 -46 1 -12 0 -12 -7 -2
-7 10 -15 4 -31 -23 -12 -20 -19 -41 -16 -46 4 -5 -1 -9 -9 -9 -14 0 -20 -12
-17 -32 0 -5 -3 -8 -9 -8 -5 0 -10 -7 -10 -15 0 -8 -3 -15 -8 -15 -4 0 -12 -9
-17 -20 -9 -19 -22 -21 -145 -25 -183 -7 -260 -8 -262 -4 -4 6 116 209 122
209 8 0 30 -63 30 -87 0 -44 21 -83 45 -83 53 0 54 30 9 193 -24 87 -24 88 -6
115 10 15 63 102 116 195 54 92 101 167 105 167 4 0 14 -26 21 -57z"/>
<path d="M2107 2618 c4 -18 2 -20 -6 -8 -25 36 -18 -11 31 -206 49 -193 53
-206 59 -164 3 25 7 33 7 19 2 -32 12 -42 28 -28 8 7 14 7 19 -1 3 -5 2 -10
-4 -10 -5 0 -15 -16 -21 -35 -6 -19 -16 -33 -21 -30 -5 4 -6 -2 -2 -11 4 -12
3 -15 -5 -10 -8 4 -12 1 -12 -10 0 -27 -50 -105 -62 -98 -8 5 -9 1 -5 -10 9
-24 -23 -72 -35 -54 -7 9 -8 8 -4 -6 4 -10 1 -25 -5 -32 -9 -11 -8 -18 1 -29
15 -18 45 -19 85 0 36 16 11 19 -34 4 -18 -6 -34 -9 -37 -6 -5 4 62 123 127
227 l28 45 193 59 c106 33 201 63 211 68 20 10 22 31 4 47 -11 8 -13 6 -13
-11 1 -15 -6 -24 -19 -26 l-20 -4 20 16 c11 8 15 16 8 16 -6 0 -18 -9 -26 -20
-17 -24 -138 -64 -148 -48 -4 7 -10 5 -15 -5 -5 -8 -22 -19 -39 -22 -29 -7
-29 -7 -10 9 20 17 20 17 -3 6 -13 -6 -28 -9 -35 -7 -8 3 -7 7 3 11 75 29 76
29 54 33 -12 2 -38 -3 -58 -11 -49 -20 -48 -5 7 81 24 37 59 96 77 130 29 52
32 64 21 77 -8 9 -21 16 -30 16 -11 0 -13 -3 -4 -8 9 -6 7 -13 -10 -27 -12
-10 -23 -18 -24 -17 -2 1 -6 2 -10 2 -5 0 -2 -4 6 -9 7 -5 10 -14 6 -21 -5 -8
-10 -9 -14 -1 -4 6 -14 -3 -25 -22 l-18 -32 21 25 c26 32 27 20 1 -27 -16 -30
-17 -40 -7 -52 10 -14 10 -14 -4 -4 -13 11 -19 6 -39 -30 -24 -44 -60 -94 -60
-84 0 3 9 22 21 41 11 20 19 41 16 48 -2 8 -10 2 -17 -14 -7 -16 -18 -28 -24
-28 -6 0 -20 39 -31 88 -34 160 -58 227 -82 230 -18 3 -21 -1 -16 -20z"/>
<path d="M2260 1887 c0 -8 -30 -20 -77 -31 -113 -26 -156 -38 -171 -50 -8 -5
-38 -52 -69 -104 -42 -71 -58 -91 -65 -81 -7 11 -8 9 -4 -4 6 -19 -42 -114
-85 -168 -13 -17 -19 -34 -15 -46 5 -17 15 -20 68 -19 34 0 54 2 44 4 -17 4
-17 4 1 18 23 17 4 18 -50 3 -22 -6 -41 -8 -44 -5 -3 2 35 71 84 153 49 81
101 169 116 195 19 33 36 50 55 54 81 19 215 55 223 60 12 7 12 34 -1 34 -5 0
-10 -6 -10 -13z"/>
</g>
</svg>
