<svg xmlns="http://www.w3.org/2000/svg" xmlns:xlink="http://www.w3.org/1999/xlink" width="799.99" height="153.798" viewBox="0 0 799.99 153.798"><defs><linearGradient id="a" x1="0.5" y1="1.129" x2="0.5" y2="0.002" gradientUnits="objectBoundingBox"><stop offset="0.06" stop-color="#fff"/><stop offset="0.2" stop-color="#e9f5fc"/><stop offset="0.23" stop-color="#b7e6f8"/><stop offset="0.26" stop-color="#8ad9f5"/><stop offset="0.29" stop-color="#65cef3"/><stop offset="0.32" stop-color="#49c6f1"/><stop offset="0.35" stop-color="#34c0ef"/><stop offset="0.38" stop-color="#28bcee"/><stop offset="0.41" stop-color="#24bbee"/><stop offset="0.42" stop-color="#26b9ed"/><stop offset="0.49" stop-color="#3da6de"/><stop offset="0.54" stop-color="#459fd9"/><stop offset="0.61" stop-color="#3f97d3"/><stop offset="0.75" stop-color="#378dcc"/><stop offset="0.91" stop-color="#358aca"/></linearGradient></defs><g transform="translate(0 0.031)"><path d="M260.32,26.22v4.14a5.225,5.225,0,0,0,0,.56l2.08,33.33a4.92,4.92,0,0,0,4.85,4.61c12.15.15,24.47.28,36.62.39h.05a4.91,4.91,0,0,0,4.9-5.18,4.348,4.348,0,0,0,0-.51,8860.45,8860.45,0,0,0,0-1.04,4.506,4.506,0,0,0,0-.52,4.354,4.354,0,0,0,0-.51,8860.58,8860.58,0,0,0,0-1.04,4.354,4.354,0,0,0,0-.51,4.506,4.506,0,0,0,0-.52,5.817,5.817,0,0,0,0-.59l-2.2-32.59a4.92,4.92,0,0,0-4.77-4.58c-12.12-.32-24.38-.7-36.45-1.13a4.93,4.93,0,0,0-5.08,5.17ZM87,95a4.9,4.9,0,0,0-5-4.81q-9.9.25-19.79.54l-.27-20c0-2.48,0-5.12-.26-7.82l18.92.64a4.92,4.92,0,0,0,5.08-5V53.38L84.86,12.5A4.91,4.91,0,0,0,80.4,7.77C55.69,5.45,30.71,2.85,6.16,0A4.92,4.92,0,0,0,.69,4.91v.52h0V6h0v.52h0V7h0v.5h0V8h0v.51h0v.51h0v.52h0v.52h0V55.93a4.91,4.91,0,0,0,4.72,4.91l19.92.8c.93,1.39,1.3,4,1.42,6.66a14.9,14.9,0,0,1-.06,1.69c-.06,1.46-.12,2.83-.1,4v5.17l.08,12.68-21.92.71A4.91,4.91,0,0,0,0,97.45v51.39a4.9,4.9,0,0,0,4.91,4.92,4.361,4.361,0,0,0,.51,0c25.86-2.7,52.09-5.19,78-7.4a4.91,4.91,0,0,0,4.49-5v-5.18Zm178.32,35.54a4.334,4.334,0,0,0,0-.51,4.506,4.506,0,0,0,0-.52,4.506,4.506,0,0,0,0-.52,4.334,4.334,0,0,0,0-.51,4.506,4.506,0,0,0,0-.52,4.506,4.506,0,0,0,0-.52,4.506,4.506,0,0,0,0-.52,4.334,4.334,0,0,0,0-.51,5,5,0,0,0,0-.55L261.61,64c-.05-1-.1-2.06-.15-3.14-.5-10.46-1.13-23.48-8-32.55-7.11-9.39-18.87-10.74-29.34-11.27-14.73-.74-29.62-1.59-44.28-2.5a4.91,4.91,0,0,0-5.21,5.13v3.76l-.23-5.5a4.92,4.92,0,0,0-4.58-4.69C143.65,11.48,117.21,9.38,91.24,7a4.93,4.93,0,0,0-5.36,5v5.22l.89,38.64a4.91,4.91,0,0,0,4.74,4.8l13.77.49V65.8l.63,22.47a4.06,4.06,0,0,1-.5,1.72,2.13,2.13,0,0,1-.84.06h-.43l-11.56.3a4.91,4.91,0,0,0-4.78,5v5.17l.94,41a4.9,4.9,0,0,0,4.91,4.8h.41c5.16-.43,10.4-.86,15.58-1.26,10.07-.53,18.4-5.4,24.09-14.08A49.24,49.24,0,0,0,141,109.64l4.93-.14a26.29,26.29,0,0,0,19.3-8.42c9.56-10.25,11-26.8,10.92-36.1V60.33c0-1.51,0-2.85-.08-3.95l-.2-4.65.49,10.87a4.92,4.92,0,0,0,4.8,4.69c14.75.31,29.73.59,44.52.84,0,.33.08.77.11,1.34l1,17.16c-14.63.2-29.4.43-44,.68a4.92,4.92,0,0,0-4.83,5.14h0v1.01h0v.47h0v.47h0v.98h0v.99h0v.98l1.71,37.61a4.91,4.91,0,0,0,4.9,4.69h.29c25.16-1.44,50.67-2.67,75.83-3.64a4.9,4.9,0,0,0,4.72-5.18q-.021-.131-.05-.26Zm87.85-63.28a8860.418,8860.418,0,0,1,0-1.04,4.354,4.354,0,0,0,0-.51,8860.483,8860.483,0,0,0,0-1.04,4.354,4.354,0,0,0,0-.51,8860.548,8860.548,0,0,0,0-1.04,4,4,0,0,0,0-.6L350.58,25.7A4.93,4.93,0,0,0,345,21.18c-11.69,1.54-20.1,7.27-25,17-4.31,8.6-5.42,19.2-6.13,28.46-1.08,14.19-7,19.26-23.56,20.06q-10.65.09-21.29.21a4.9,4.9,0,0,0-4.85,5.18,4.506,4.506,0,0,0,0,.52,4.334,4.334,0,0,0,0,.51,4.506,4.506,0,0,0,0,.52,4.506,4.506,0,0,0,0,.52,4.506,4.506,0,0,0,0,.52,4.335,4.335,0,0,0,0,.51,4.506,4.506,0,0,0,0,.52,4.506,4.506,0,0,0,0,.52,4.506,4.506,0,0,0,0,.52,5,5,0,0,0,0,.55l2.1,33.7a4.91,4.91,0,0,0,4.9,4.61h.17c8.78-.3,16.81-.55,24.49-.77,33.08-.57,52.73-22.43,53.93-60a8.269,8.269,0,0,1,.29-2.23,4.9,4.9,0,0,0,3.13-4.85,4.513,4.513,0,0,0,.03-.47ZM622,35.14a5.2,5.2,0,0,0-.22-1.24v-.26a1.905,1.905,0,0,0,0-.34v-.17a1.989,1.989,0,0,0,0-.34v-.18a1.934,1.934,0,0,0,0-.34v-.18a1.905,1.905,0,0,0,0-.34v-.18a1.817,1.817,0,0,0,0-.33v-.18a1.989,1.989,0,0,0,0-.34v-.18a1.905,1.905,0,0,0,0-.34l-.65-14.83a4.91,4.91,0,0,0-5.23-4.68c-7.29.47-14.71.94-22,1.39a4.91,4.91,0,0,0-4.61,5.14h0a4.166,4.166,0,0,0,0,.5h0a4.166,4.166,0,0,0,0,.5h0a4.166,4.166,0,0,0,0,.5h0a4.166,4.166,0,0,0,0,.5h0a4.166,4.166,0,0,0,0,.5h0a4.166,4.166,0,0,0,0,.5h0a4.166,4.166,0,0,0,0,.5h0a4.166,4.166,0,0,0,0,.5h0a4.166,4.166,0,0,0,0,.5h0a4.166,4.166,0,0,0,0,.5L590,36.71a4.6,4.6,0,0,0,.24,1.29h0v3.49l.42,8.47h-1.37a4.91,4.91,0,0,0-4.35,2.85,24,24,0,0,0-1.9,8.69,53.15,53.15,0,0,1-1.91,11.55l-.94-17.66a4.818,4.818,0,0,0-.25-1.31v-.4a3.1,3.1,0,0,0,0-.43v-.09a3.045,3.045,0,0,0,0-.43v.17a3.237,3.237,0,0,0,0-.44v-.08a3.1,3.1,0,0,0,0-.43v-.09a3.1,3.1,0,0,0,0-.43v-.08a3.237,3.237,0,0,0,0-.44l-1.58-29.64a4.91,4.91,0,0,0-5.15-4.64c-13.17.65-26.52,1.26-39.69,1.79A4.92,4.92,0,0,0,530,20a4.78,4.78,0,0,0-1.08,2,5,5,0,0,0-1.51-2,4.92,4.92,0,0,0-3.92-.95c-11.69,2.18-20.12,8.32-25.06,18.25-4.27,8.56-5.59,19.1-6.38,29.21-1.12,14.33-7.11,19.36-23.7,19.9l-21.41-.11h0a4.91,4.91,0,0,0-3,1.07.311.311,0,0,0,0-.1,4.506,4.506,0,0,0,0-.52,4.506,4.506,0,0,0,0-.52,4.341,4.341,0,0,0,0-.51,4.513,4.513,0,0,0,0-.52,4.513,4.513,0,0,0,0-.52,4.513,4.513,0,0,0,0-.52,4.341,4.341,0,0,0,0-.51,4.144,4.144,0,0,0,0-.61l-1-14a4.82,4.82,0,0,0,2.05.47h0c12.23-.07,24.68-.15,37-.25a4.9,4.9,0,0,0,4.87-5.17,8860.483,8860.483,0,0,0,0-1.04,4.341,4.341,0,0,0,0-.51,8860.45,8860.45,0,0,0,0-1.04,4.506,4.506,0,0,0,0-.52,4.341,4.341,0,0,0,0-.51,8860.45,8860.45,0,0,0,0-1.04,5.8,5.8,0,0,0,0-.59l-2.21-32.5a4.93,4.93,0,0,0-4.91-4.58h-.11c-12.31.29-24.77.52-37,.7a4.9,4.9,0,0,0-4.83,5.17,4.5,4.5,0,0,0,0,.52,4.5,4.5,0,0,0,0,.52,4.5,4.5,0,0,0,0,.52,4.341,4.341,0,0,0,0,.51,4.5,4.5,0,0,0,0,.52,4.5,4.5,0,0,0,0,.52,4.341,4.341,0,0,0,0,.51,4.5,4.5,0,0,0,0,.52,4.5,4.5,0,0,0,0,.52c0,.2,0,.4,0,.61l.78,10.86a4.81,4.81,0,0,0-2.3-.45c-15.1.72-26.58,10-33.2,27-3.29,8.41-6.56,12.49-11.1,13.51l-4.4-60.34a4.91,4.91,0,0,0-4.89-4.55c-7.91,0-16.09-.08-25-.17a4.91,4.91,0,0,0-5,5.17v4.66a4.157,4.157,0,0,0,0,.61l7.22,100a4.91,4.91,0,0,0,4.9,4.56h0c7.35-.06,14.8-.11,22.11-.15h.14c22.43,0,36.65-10.22,44.75-32.15l.06-.17c.9-2.71,3.08-7.33,7.63-7.84a5,5,0,0,0,2.51-1v.09a8860.353,8860.353,0,0,0,0,1.04,4.341,4.341,0,0,0,0,.51,8860.158,8860.158,0,0,0,0,1.04,4.341,4.341,0,0,0,0,.51,4.5,4.5,0,0,0,0,.52c0,.2,0,.41,0,.61l2.31,32.39a4.92,4.92,0,0,0,4.84,4.56c8.75.12,16.76.25,24.51.41h2.3c16.7,0,29.76-5.71,38.81-17,8.2-10.21,12.7-24.52,13.38-42.52a7.879,7.879,0,0,1,.38-2.58,4.87,4.87,0,0,0,2.66-2.48l1.27,21v.43a4.88,4.88,0,0,0-.62,2.65,4430.111,4430.111,0,0,1,0,1.04,4.506,4.506,0,0,0,0,.52,4.334,4.334,0,0,0,0,.51,4.506,4.506,0,0,0,0,.52,4.506,4.506,0,0,0,0,.52,4.506,4.506,0,0,0,0,.52,4.335,4.335,0,0,0,0,.51,4.506,4.506,0,0,0,0,.52,5.025,5.025,0,0,0,0,.55l2,32.5a4.9,4.9,0,0,0,4.72,4.61c7.91.31,15.94.63,23.89,1,1.63.1,3.23.14,4.8.14,17.6,0,31.18-5.84,39.47-17,9.89-13.35,11.76-31.44,12.74-47.34h0c.39-6.76,1.37-8.92,1.55-9.27A4.88,4.88,0,0,0,622.29,60v-.06a3.548,3.548,0,0,0,0-.46V59.4a3.549,3.549,0,0,0,0-.46v-.06a3.549,3.549,0,0,0,0-.46v-.06a3.548,3.548,0,0,0,0-.46v-.06a3.549,3.549,0,0,0,0-.46V57a5,5,0,0,0,.33-2V49.84Zm82.28,6.41a4.9,4.9,0,0,0-5.14-4.79c-12.12.56-24.36,1.09-36.46,1.6l-.14-2.27a4.91,4.91,0,0,0-5.14-4.62c-6.83.34-13.75.67-20.58,1a4.89,4.89,0,0,0-4.68,5.16h0a4.334,4.334,0,0,0,0,.51h0a4.334,4.334,0,0,0,0,.51h0a4.154,4.154,0,0,0,0,.5h0a2.269,2.269,0,0,0,0,.37h-1.07a4.92,4.92,0,0,0-4.73,5.11V49.8l1.22,29.72a4.91,4.91,0,0,0,4.91,4.71h2.23q1.7,26.55,3.38,53.12a4.92,4.92,0,0,0,4.58,4.59c6.67.44,13.43.91,20.1,1.39h.35a4.91,4.91,0,0,0,4.9-5.17,4.334,4.334,0,0,0,0-.51,4.506,4.506,0,0,0,0-.52,4.506,4.506,0,0,0,0-.52,4.506,4.506,0,0,0,0-.52,4.334,4.334,0,0,0,0-.51,4.506,4.506,0,0,0,0-.52,4.506,4.506,0,0,0,0-.52,4.506,4.506,0,0,0,0-.52,4.334,4.334,0,0,0,0-.51,4.859,4.859,0,0,0,0-.54c-.08-1.55-.17-3.11-.25-4.67l5.1.28h0c8.85.45,16-1.91,21.3-7,9.65-9.31,10.85-25.86,10.84-40V77c0-2.65,0-5.23-.07-7.67Zm94.23,1.17a4.9,4.9,0,0,0-3.62-1.36c-26,1.18-52.2,2.27-78,3.25a4.91,4.91,0,0,0-4.73,5v5.15L713,98.68a4.9,4.9,0,0,0,4.79,4.81c25.56.62,51.52,1.31,77.14,2.06h.15a4.9,4.9,0,0,0,4.91-4.91V46.27a4.9,4.9,0,0,0-1.51-3.55Z" fill="#231815"/><path d="M592.77,62.44c-1.66,24-13,36.2-33.76,36.2H557.7L542,98.41l1.38,22.77c6.51.26,13.06.52,19.52.8h.1c11.49.66,27-1,35.84-12.93,8.29-11.19,9.94-27.59,10.83-42.09a59.583,59.583,0,0,1,.84-7.41L593,60C592.93,60.63,592.84,61.44,592.77,62.44Zm-428-39.68c-23-1.59-46.1-3.42-68.92-5.46l.65,28.51c16.35.58,32.91,1.13,49.3,1.62a4.92,4.92,0,0,1,4.76,4.73l.1,2.8a11.58,11.58,0,0,1-2.94,8.7,7.75,7.75,0,0,1-5.7,2.42q-13.38-.26-26.76-.54l.52,18.74c.38,5.84-.74,10-3.43,12.69a10.34,10.34,0,0,1-8.14,2.93l-6.46.17.7,30.85,10.49-.84h.14c15.77-.8,21.93-17,22.42-30.56a4.92,4.92,0,0,1,4.77-4.74l9.37-.27h0A16.53,16.53,0,0,0,158,89.2c5.79-6.21,8.86-18.31,8.21-32.38Zm404,3.92c-9.93.49-20,.94-29.88,1.36L540,47c9.92-.2,19.91-.4,29.79-.63ZM695.06,68.06l-.52-21.25c-12.1.55-24.29,1.07-36.31,1.57a4.93,4.93,0,0,1-5.1-4.62L653,41.53,642.18,42l.1,2a4.91,4.91,0,0,1-4.72,5.17h-1.23l.82,20.06h2.13a4.92,4.92,0,0,1,4.9,4.6q1.71,26.73,3.41,53.44l10.27.71q-1.47-26.81-3-53.61a4.91,4.91,0,0,1,4.89-5.19l19.47-.06h0a4.92,4.92,0,0,1,4.91,4.77l.08,2.69c.38,5.45-.82,9.56-3.57,12.22a10.81,10.81,0,0,1-8.88,2.78h-2.82l.73,21.88,3.62.2c6.09.31,10.66-1.09,14-4.27,8.27-8,8-26.45,7.77-39.93Zm27-13.82.68,34.37c22.37.55,45,1.15,67.43,1.8v-39c-22.69,1.02-45.55,1.97-68.11,2.83ZM570.55,60.91c-9.88.18-19.83.35-29.69.5L542,80.24l29.59.23Zm41.17-35.16-.22-4.93-12.23.77.24,4.74ZM600.22,41l.23,4.62,12.13-.34-.21-4.8ZM501.84,67.33c-.81,10.3-4.09,17.59-10,22.3-5.32,4.21-12.7,6.33-23.24,6.66h-.18l-16.19-.09,1.61,22.6c7.06.1,13.67.22,20.09.35H476c33.45,0,41.56-27.09,42.42-50.07h0c.07-1.73.25-6.24,3.34-9.26l-1.83-29.6C506.92,35.05,503.4,47.38,501.84,67.33Zm-204.72-36c-8.88-.25-17.8-.53-26.65-.83l1.46,23.37c8.85.11,17.81.2,26.73.29ZM57.51,100.73a4.93,4.93,0,0,1-5.06-4.85l-.34-25v-.06c0-5.29-.18-11.36-2.11-16.48a4.91,4.91,0,0,1,4.77-6.64l21,.72-.63-31.31c-21.51-2-43.2-4.3-64.6-6.72V46l17,.67a4.88,4.88,0,0,1,2.53.83c7.18,4.79,6.73,15.66,6.44,22.85-.06,1.32-.11,2.57-.1,3.49l.16,22.67a4.91,4.91,0,0,1-4.76,5l-22,.7v36c22.64-2.33,45.5-4.5,68.12-6.46l-.64-31.59Zm271.31-58.1c-3.51,7-4.48,16.47-5.12,24.8-.77,10.2-4,17.47-10,22.22-5.27,4.22-12.59,6.42-23,6.91h-.18l-16.2.15,1.48,23.76c6.94-.23,13.47-.43,19.82-.6,14.47-.26,25.57-5,33.05-14.26,6.9-8.49,10.8-21,11.29-36.22h0c.06-1.7.21-6.07,3.23-9l-2-28.35a19.79,19.79,0,0,0-12.37,10.59Zm146.3-10.91c-9.06.2-18.18.37-27.23.52l1.59,22.27,27.18-.18Zm-63,42.18c-2.39,6.09-8,20.37-23.25,20h-1.55a4.9,4.9,0,0,1-4.9-4.55L378,28.75c-4.9,0-9.93-.06-15.2-.1l6.51,90.12c5.85,0,11.74-.08,17.57-.11H387c18.25,0,28.87-7.68,35.54-25.66,2.16-6.5,6.13-11.12,11.2-13.24l-1.86-26c-8.76,2.08-15.25,8.7-19.73,20.14ZM251.64,61.35c-.44-9.11-1-20.44-6-27.09-4.56-6-13.37-6.94-22-7.38-12.94-.66-26-1.39-38.94-2.17l1.26,27.67c13.28.28,26.71.53,40,.75,9.06.15,9.47,7.49,9.64,10.62l1.53,27.44a4.91,4.91,0,0,1-4.83,5.19c-14.7.2-29.58.43-44.31.67l1.25,27.59c21.93-1.23,44.1-2.29,66-3.17L251.8,64.59C251.74,63.52,251.69,62.45,251.64,61.35Z" fill="url(#a)"/><path d="M82.53,94.7a.63.63,0,0,0-.42-.16L58,95.21l-.34-24.37c0-5.51-.19-11.82-2.17-17.59,9.07.33,17.36.61,25.31.87a.65.65,0,0,0,.43-.17.61.61,0,0,0,.17-.43l-.82-40.87a.58.58,0,0,0-.53-.57C55.26,9.76,30.25,7.15,5.67,4.33a.55.55,0,0,0-.46.15.57.57,0,0,0-.2.43V50.76a.58.58,0,0,0,.56.58q10.79.45,21.57.86c4.47,3.17,4.1,12.06,3.86,18-.06,1.39-.11,2.71-.1,3.78L31.07,96,4.9,96.86a.59.59,0,0,0-.57.59v46.22a.6.6,0,0,0,.19.44.63.63,0,0,0,.39.15H5c25.89-2.7,52.15-5.19,78-7.4a.6.6,0,0,0,.54-.6L82.7,95.13a.56.56,0,0,0-.17-.43ZM5.5,143V98l26.18-.85a.58.58,0,0,0,.56-.59l-.15-22.64c0-1,0-2.34.09-3.72.28-6.6.65-15.64-4.51-19.09a.53.53,0,0,0-.3-.09L6.2,50.19V5.57C30.4,8.35,55,10.91,79.37,13.2l.8,39.73c-8-.27-16.38-.55-25.55-.88a.58.58,0,0,0-.57.79c2.18,5.8,2.38,12.33,2.39,18l.34,25a.6.6,0,0,0,.18.42.51.51,0,0,0,.42.16l24.17-.67.81,40C56.87,137.91,31,140.36,5.5,143ZM170.06,18.14a.58.58,0,0,0-.54-.56c-26.2-1.79-52.66-3.89-78.67-6.25a.54.54,0,0,0-.45.16.56.56,0,0,0-.19.44l.89,38.64a.59.59,0,0,0,.56.58c17.68.63,35.64,1.23,53.41,1.77l.08,2.28a6.064,6.064,0,0,1-1.36,4.6,2.35,2.35,0,0,1-1.68.78q-15.95-.31-31.9-.65a.62.62,0,0,0-.43.17.59.59,0,0,0-.17.43l.66,24c.29,4.17-.33,7-1.83,8.55a5.14,5.14,0,0,1-4.19,1.3l-11.56.3a.6.6,0,0,0-.57.6l.94,41a.62.62,0,0,0,.2.42.58.58,0,0,0,.39.15h0c5.22-.43,10.49-.86,15.65-1.26,8.67-.44,15.85-4.64,20.77-12.13,4-6.14,6.44-14.35,6.85-23.19l8.82-.25A22.09,22.09,0,0,0,162,93c9.77-10.47,10-28.94,9.68-36.38Zm-8.89,74a20.92,20.92,0,0,1-15.41,6.67h0l-9.38.28a.57.57,0,0,0-.56.56c-.56,15.43-7.84,33.79-26.55,34.73q-7.5.585-15,1.22l-.91-39.75,10.92-.29a6.25,6.25,0,0,0,5-1.65c1.76-1.78,2.47-4.87,2.17-9.43l-.65-23.37q15.65.33,31.29.63a3.49,3.49,0,0,0,2.54-1.13,7.37,7.37,0,0,0,1.7-5.5l-.11-2.8a.58.58,0,0,0-.57-.56c-17.75-.54-35.72-1.13-53.39-1.77L91.4,12.56c25.6,2.32,51.7,4.44,77.51,6.15l1.63,37.91c1.04,22.53-6.91,32.89-9.37,35.53Zm96-31.06c-.47-9.87-1.06-22.15-7.12-30.15s-16.62-9.07-26.11-9.55c-14.75-.75-29.67-1.6-44.34-2.51a.6.6,0,0,0-.62.61l1.71,37.74a.59.59,0,0,0,.57.56c14.78.31,29.79.59,44.62.84,3.28.06,4,1,4.24,5.43l1.49,26.71v.12c-16.19.22-32.59.47-48.77.75a.6.6,0,0,0-.42.18.61.61,0,0,0-.15.43l1.7,37.61a.63.63,0,0,0,.19.41.58.58,0,0,0,.39.15h0c25.19-1.45,50.73-2.67,75.92-3.65a.58.58,0,0,0,.56-.62l-3.75-61.89c-.04-1.02-.09-2.08-.15-3.16Zm-72,68.12-1.73-36.4c16.18-.27,32.59-.53,48.77-.75a.57.57,0,0,0,.57-.62L231.25,64c-.25-4.55-1.06-6.46-5.39-6.53-14.64-.25-29.46-.53-44.06-.83L180.14,20.1c14.47.9,29.16,1.73,43.7,2.47,9.65.49,19.55,1.59,25.23,9.09,5.85,7.71,6.43,19.79,6.89,29.49,0,1.09.1,2.16.16,3.18l3.71,61.3c-24.83.96-49.94,2.16-74.75,3.58ZM303.92,59.75a.57.57,0,0,0,.42-.19.54.54,0,0,0,.16-.44l-2.2-32.59a.57.57,0,0,0-.57-.54c-12.13-.33-24.4-.71-36.48-1.13a.56.56,0,0,0-.44.17.58.58,0,0,0-.17.45l2.08,33.33a.6.6,0,0,0,.58.55c12.09.15,24.41.28,36.61.39Zm-36.06-1.56-2-32.14c11.69.41,23.56.78,35.31,1.1l2.12,31.42c-11.81-.11-23.72-.24-35.43-.38ZM346.05,25.6a.61.61,0,0,0-.45-.13C323,28.45,319.69,47.62,318.22,67c-1.25,16.43-9,23.17-27.74,24l-21.38.22a.59.59,0,0,0-.43.19.56.56,0,0,0-.15.43l2.1,33.69a.58.58,0,0,0,.58.56h0c8.75-.3,16.79-.55,24.56-.76,16.11-.29,28.62-5.76,37.17-16.29,7.78-9.57,12-22.87,12.52-39.52.13-3.63,1-5.4,3-6.11a.62.62,0,0,0,.4-.6L346.26,26a.59.59,0,0,0-.21-.4Zm-1.76,43.93h0c-1.1,34.72-18.34,54.14-48.54,54.66-7.61.21-15.47.46-24,.75l-2-32.5q10.38-.12,20.78-.21c9.48-.45,16-2.35,20.52-6,5-4,7.68-10.23,8.36-19.17,1.48-19.5,4.58-37.26,25.74-40.38l2.56,35.79c-2.83,1.28-3.32,4.27-3.42,7.06Zm92.12-21.87C423,48.3,413.07,56.46,407,71.9c-3.26,8.31-7.92,16.75-18.08,16.51H387.9l-4.72-64.6a.58.58,0,0,0-.58-.55c-7.92,0-16.12-.07-25.05-.17a.56.56,0,0,0-.43.19.6.6,0,0,0-.16.44l7.22,100a.59.59,0,0,0,.59.55h0c7.36-.06,14.81-.11,22.16-.15h.14c20.64,0,33.19-9,40.68-29.33h0c1-3,4.05-10,11.27-10.79a.59.59,0,0,0,.52-.62L437,48.2a.61.61,0,0,0-.59-.54Zm-9.76,46.78c-7.3,19.74-19.51,28.55-39.59,28.55h-.13c-7.17,0-14.44.08-21.62.14l-7.13-98.86c8.48.09,16.3.14,23.87.17L386.76,89a.6.6,0,0,0,.59.55h2.07c10.51,0,15.35-8.71,18.7-17.26,5.77-14.75,15.11-22.64,27.77-23.46l2.45,34.06c-5.34.87-9.54,5.03-11.69,11.55Zm98.09-71a.6.6,0,0,0-.47-.11c-22.95,4.29-26.38,23.87-27.92,43.55-1.3,16.6-9.14,23.3-27.94,23.89l-21.49-.11a.52.52,0,0,0-.44.19.58.58,0,0,0-.15.44l2.31,32.39a.58.58,0,0,0,.58.54c8.76.12,16.8.25,24.56.41h2.12c29.6,0,46.59-19.58,47.93-55.36.16-3.8,1.06-5.66,3.13-6.44a.57.57,0,0,0,.38-.58L525,23.89a.6.6,0,0,0-.26-.43Zm-2.08,45.81h0c-.63,16.8-4.72,30-12.17,39.3-8.33,10.38-20.66,15.4-36.68,14.9-7.61-.15-15.48-.28-24-.4l-2.23-31.21,20.88.1c9.57-.3,16.14-2.12,20.69-5.72,4.95-3.92,7.71-10.22,8.41-19.25.75-9.56,2-19.47,5.82-27.19,4.1-8.23,10.81-13.2,20.49-15.17L526.15,62c-2.86,1.27-3.37,4.37-3.49,7.27Zm-40.32-9.66a.6.6,0,0,0,.16-.44l-2.21-32.51a.59.59,0,0,0-.6-.54c-12.32.28-24.8.52-37.08.7a.57.57,0,0,0-.42.19.52.52,0,0,0-.15.43l2.28,32.05a.59.59,0,0,0,.59.55h0c12.22-.07,24.67-.15,37-.25a.6.6,0,0,0,.43-.16Zm-36.88-.75L443.25,28c11.9-.17,24-.4,35.9-.68l2.14,31.32c-11.95.08-24,.16-35.83.22ZM594.84,32.05h0c7.28-.33,14.69-.68,22-1a.59.59,0,0,0,.56-.61l-.65-14.83a.62.62,0,0,0-.2-.41.58.58,0,0,0-.43-.15c-7.3.48-14.72.95-22.06,1.39a.6.6,0,0,0-.55.62l.71,14.49A.58.58,0,0,0,594.84,32.05Zm20.79-15.83.6,13.64c-6.94.34-13.94.68-20.84,1l-.65-13.32C601.69,17.11,608.71,16.67,615.63,16.22ZM535.38,52.59c13.18-.25,26.49-.53,39.59-.83a.55.55,0,0,0,.41-.19.56.56,0,0,0,.16-.43L574,21.5a.57.57,0,0,0-.61-.55c-13.18.65-26.55,1.26-39.74,1.8a.56.56,0,0,0-.41.19.6.6,0,0,0-.15.43L534.79,52a.58.58,0,0,0,.58.56Zm-1.12-28.7c12.8-.52,25.77-1.11,38.56-1.74l1.51,28.45c-12.71.29-25.62.56-38.41.8Zm83.1,30h0q-14,.33-28,.63a.61.61,0,0,0-.52.34,20.341,20.341,0,0,0-1.5,7.18c-1.49,21.65-10.85,31.52-29.46,31.08q-10.5-.16-21-.29a.55.55,0,0,0-.43.18.6.6,0,0,0-.16.44l2,32.5a.59.59,0,0,0,.56.55c8,.3,16,.63,23.94,1,1.45.08,3,.13,4.51.13,12.19,0,27-3,36.07-15.28s11-29.74,11.91-45h0c.51-8.81,2-11.24,2.62-11.88A.63.63,0,0,0,618,55v-.53a.58.58,0,0,0-.64-.57ZM614,67.23c-.93,15.12-2.68,32.26-11.67,44.4-10,13.44-27,15.4-39.58,14.68-7.75-.34-15.63-.66-23.42-1L537.43,94l20.37.28c10.25.24,17.71-2.55,22.83-8.54,4.53-5.31,7.09-13,7.82-23.63a19.6,19.6,0,0,1,1.25-6.43q13.42-.29,26.86-.6C615.24,57,614.36,61.16,614,67.23ZM537.37,85.71q19.7.14,39.4.3h0a.62.62,0,0,0,.43-.18.6.6,0,0,0,.16-.44l-1.57-29.52a.58.58,0,0,0-.59-.55h0c-13.15.24-26.45.47-39.55.67a.6.6,0,0,0-.58.62l1.73,28.55a.58.58,0,0,0,.57.55ZM574.65,56.5l1.5,28.33-38.22-.29-1.66-27.39C549,57,561.89,56.74,574.65,56.5Zm42.81-21.57a.62.62,0,0,0-.43-.16c-7.31.33-14.71.64-22,.94a.61.61,0,0,0-.41.19.57.57,0,0,0-.15.43l.7,14.36a.57.57,0,0,0,.58.55h0l21.93-.6a.6.6,0,0,0,.42-.18.61.61,0,0,0,.15-.43l-.64-14.7a.61.61,0,0,0-.15-.4ZM596.33,50.06l-.64-13.2c6.89-.28,13.88-.58,20.81-.89l.59,13.52Zm103.59-8.41a.59.59,0,0,0-.18-.41.62.62,0,0,0-.43-.16c-13.55.63-27.24,1.22-40.73,1.78l-.39-6.51a.59.59,0,0,0-.61-.55c-6.83.33-13.76.66-20.59,1a.61.61,0,0,0-.41.19.57.57,0,0,0-.15.43l.33,6.31-5.56.21a.61.61,0,0,0-.41.19.57.57,0,0,0-.15.42l1.21,29.72a.59.59,0,0,0,.59.56h6.29q1.83,28.59,3.64,57.18a.58.58,0,0,0,.55.55c6.67.44,13.44.91,20.12,1.39h0a.58.58,0,0,0,.58-.62q-1.6-29.28-3.23-58.56h18.28l.06,2.25c.2,2.61,0,6.11-1.89,8a5.6,5.6,0,0,1-4.72,1.24h0L663.93,86a.6.6,0,0,0-.43.18.609.609,0,0,0-.17.43l1,31.53a.59.59,0,0,0,.56.57l8.12.43h0c7.59.39,13.67-1.56,18.06-5.8,10-9.65,9.68-29.49,9.45-44Zm-9.6,70.86c-4.15,4-9.93,5.85-17.19,5.48l-7.59-.41-1-30.38,7.53.1a6.71,6.71,0,0,0,5.64-1.57c2.24-2.16,2.46-6,2.25-8.86l-.09-2.8a.58.58,0,0,0-.58-.57h0l-19.47.06a.57.57,0,0,0-.43.18.59.59,0,0,0-.16.44q1.62,29.25,3.23,58.51c-6.29-.45-12.65-.89-18.94-1.3q-1.82-28.62-3.65-57.23a.58.58,0,0,0-.58-.55h-6.27l-1.17-28.57,5.57-.2a.63.63,0,0,0,.41-.19.57.57,0,0,0,.15-.43l-.33-6.32,19.41-.9.39,6.5a.56.56,0,0,0,.61.55c13.47-.55,27.16-1.14,40.7-1.77L699.38,68v1.41c.25,14.26.56,33.81-9.06,43.1ZM795.49,45.85a.59.59,0,0,0-.43-.17c-26,1.19-52.22,2.28-78,3.25a.58.58,0,0,0-.56.6l.86,43.89a.6.6,0,0,0,.58.58c25.57.61,51.53,1.3,77.16,2h0a.64.64,0,0,0,.41-.16.59.59,0,0,0,.17-.42V46.27a.56.56,0,0,0-.19-.42Zm-1,49c-25.25-.73-50.81-1.42-76-2l-.85-42.75c25.42-1,51.27-2,76.85-3.2Z" fill="#faed00"/><path d="M82.48,94.75a.52.52,0,0,0-.37-.14l-24.23.67-.34-24.44c0-5.53-.19-11.88-2.2-17.66,9.11.32,17.43.61,25.41.87a.47.47,0,0,0,.38-.15.52.52,0,0,0,.15-.38l-.82-40.87a.5.5,0,0,0-.47-.5C55.25,9.83,30.24,7.22,5.66,4.4a.49.49,0,0,0-.4.13.53.53,0,0,0-.18.38V50.76a.52.52,0,0,0,.5.51q10.79.45,21.58.86c4.52,3.17,4.17,11.76,3.91,18C31,71.57,31,72.89,31,74l.16,22.14Q18,96.5,4.9,96.93a.52.52,0,0,0-.5.52v46.22a.52.52,0,0,0,.17.39.53.53,0,0,0,.34.13H5c25.9-2.71,52.15-5.2,78-7.41a.54.54,0,0,0,.48-.53l-.84-41.13a.52.52,0,0,0-.16-.37ZM5.43,143.1V98l26.24-.85a.52.52,0,0,0,.51-.52L32,73.94c0-1,0-2.35.09-3.73.27-6.58.65-15.59-4.48-19a.5.5,0,0,0-.27-.08L6.13,50.26V5.49C30.37,8.27,55,10.84,79.44,13.13L80.24,53c-8-.27-16.43-.55-25.62-.88a.51.51,0,0,0-.44.21.54.54,0,0,0-.07.49c2.19,5.8,2.39,12.34,2.4,18l.34,25a.52.52,0,0,0,.16.37.49.49,0,0,0,.37.14l24.24-.67.81,40.13C56.89,138,31,140.43,5.43,143.1ZM170,18.14a.51.51,0,0,0-.48-.49c-26.19-1.79-52.66-3.89-78.67-6.25a.52.52,0,0,0-.56.53l.89,38.64a.52.52,0,0,0,.5.51c17.69.63,35.68,1.23,53.47,1.77l.08,2.34c.1,2.72-.82,4.09-1.38,4.66a2.4,2.4,0,0,1-1.73.8q-15.95-.32-31.9-.65a.61.61,0,0,0-.38.15.54.54,0,0,0-.15.38l.66,24c.29,4.18-.34,7.08-1.85,8.59a5.17,5.17,0,0,1-4.24,1.33l-11.55.3a.52.52,0,0,0-.51.53l.94,41a.58.58,0,0,0,.17.37.56.56,0,0,0,.35.13h0c5.23-.43,10.5-.86,15.65-1.26,8.65-.44,15.81-4.63,20.72-12.1,4-6.14,6.45-14.37,6.84-23.22l8.89-.25a22,22,0,0,0,16.19-7c9.76-10.45,10-28.89,9.66-36.33ZM161.22,92.2a21,21,0,0,1-15.46,6.69h0l-9.37.27a.51.51,0,0,0-.5.5c-.56,15.46-7.86,33.85-26.61,34.8-5,.39-10.08.8-15.13,1.22l-.91-39.89,11-.29a6.21,6.21,0,0,0,5-1.63c1.75-1.76,2.45-4.83,2.15-9.37l-.65-23.45q15.67.33,31.36.63a3.42,3.42,0,0,0,2.49-1.11,7.3,7.3,0,0,0,1.68-5.45l-.11-2.79a.51.51,0,0,0-.5-.5c-17.78-.54-35.76-1.13-53.46-1.77l-.86-37.58c25.67,2.33,51.79,4.4,77.65,6.17l1.63,38C171.65,79.18,163.69,89.56,161.22,92.2Zm95.84-31.11C256.59,51.24,256,39,250,31s-16.58-9-26.06-9.52c-14.75-.75-29.66-1.6-44.33-2.51a.47.47,0,0,0-.39.15.48.48,0,0,0-.16.39l1.71,37.74a.52.52,0,0,0,.51.49c14.77.31,29.78.59,44.61.84,3.33.06,4.06,1,4.31,5.5l1.49,26.71V91c-16.21.22-32.63.47-48.84.75a.48.48,0,0,0-.36.16.49.49,0,0,0-.14.38l1.7,37.61a.51.51,0,0,0,.51.49h0c25.19-1.45,50.74-2.67,75.92-3.65a.5.5,0,0,0,.37-.17.51.51,0,0,0,.13-.37l-3.75-61.9c-.06-1.06-.11-2.12-.17-3.21Zm-72,68.2L183.4,92.73c16.21-.27,32.64-.53,48.85-.75a.5.5,0,0,0,.5-.54L231.18,64c-.25-4.51-1-6.4-5.33-6.47-14.66-.25-29.5-.53-44.12-.84L180.07,20c14.49.9,29.21,1.73,43.77,2.47,9.67.49,19.58,1.6,25.29,9.12,5.86,7.73,6.44,19.82,6.9,29.53.05,1.09.1,2.15.16,3.18l3.72,61.37c-24.85.98-50.04,2.19-74.91,3.62Zm118.9-69.61a.51.51,0,0,0,.37-.16.52.52,0,0,0,.14-.39l-2.2-32.59a.5.5,0,0,0-.5-.48c-12.13-.33-24.41-.71-36.48-1.13a.51.51,0,0,0-.39.15.54.54,0,0,0-.15.4l2.08,33.32a.52.52,0,0,0,.51.49c12.09.15,24.41.28,36.61.39Zm-36.13-1.42-2-32.28c11.74.41,23.66.78,35.45,1.1l2.13,31.56c-11.9-.11-23.86-.24-35.62-.38ZM346,25.65a.5.5,0,0,0-.39-.11c-10.3,1.36-17.38,6.15-21.65,14.65-3.95,7.89-5,18-5.67,26.82-1.25,16.48-9.06,23.24-27.81,24.12l-21.38.22a.55.55,0,0,0-.38.16.56.56,0,0,0-.13.39l2.1,33.69a.52.52,0,0,0,.51.49h0c8.75-.31,16.78-.56,24.56-.77,16.09-.28,28.58-5.75,37.11-16.26,7.77-9.56,12-22.85,12.51-39.48.13-3.67,1-5.46,3.08-6.18a.53.53,0,0,0,.35-.52L346.19,26a.54.54,0,0,0-.19-.35Zm-1.64,43.89h0c-1.1,34.77-18.36,54.21-48.6,54.73-7.64.21-15.52.46-24.07.75l-2-32.64c7-.08,13.89-.15,20.86-.21,9.46-.45,16-2.34,20.48-6,4.93-4,7.65-10.21,8.33-19.13,1.49-19.55,4.59-37.35,25.88-40.45l2.57,35.92C345,63.77,344.46,66.75,344.36,69.54Zm92.05-21.81c-13.43.64-23.29,8.78-29.32,24.19-3.21,8.21-7.82,16.57-17.7,16.57h-1.56l-4.72-64.67a.51.51,0,0,0-.51-.48c-7.92,0-16.12-.07-25.05-.17h0a.52.52,0,0,0-.38.17.5.5,0,0,0-.14.39l7.22,100a.52.52,0,0,0,.52.48h0c7.36-.06,14.81-.11,22.16-.15h.14c20.6,0,33.14-9,40.62-29.28h0c1-3,4.07-10,11.33-10.83a.54.54,0,0,0,.46-.56L437,48.21a.53.53,0,0,0-.59-.48Zm-9.69,46.73c-7.31,19.78-19.54,28.6-39.66,28.6h-.13c-7.19,0-14.48.08-21.68.14l-7.15-99c8.54.09,16.41.14,24,.17L386.83,89a.52.52,0,0,0,.52.48h2.07c10.47,0,15.29-8.69,18.63-17.22,5.79-14.8,15.18-22.71,27.9-23.51L438.41,83c-5.3.8-9.54,5-11.69,11.46Zm98-70.94a.53.53,0,0,0-.42-.1C501.38,27.7,498,47.25,496.42,66.9c-1.3,16.65-9.16,23.37-28,24l-21.5-.11h0a.55.55,0,0,0-.38.16.56.56,0,0,0-.13.39l2.31,32.39a.51.51,0,0,0,.51.48c8.76.12,16.8.25,24.56.41h2.12c29.55,0,46.53-19.56,47.86-55.3.16-3.83,1.08-5.71,3.18-6.49a.53.53,0,0,0,.34-.52L524.9,23.9a.5.5,0,0,0-.2-.38Zm-2,45.75h0c-.63,16.82-4.73,30.06-12.18,39.34C502.2,119,489.84,124,473.8,123.54c-7.62-.15-15.51-.28-24.09-.4l-2.24-31.35,20.95.1c9.55-.3,16.11-2.11,20.65-5.7C494,82.28,496.75,76,497.45,67c.75-9.56,2-19.48,5.83-27.21,4.12-8.27,10.87-13.26,20.62-15.22L526.22,62c-2.86,1.29-3.37,4.38-3.49,7.27Zm-40.44-9.71a.52.52,0,0,0,.14-.39l-2.21-32.5a.51.51,0,0,0-.53-.48c-12.32.28-24.79.52-37.08.7a.5.5,0,0,0-.5.55l2.28,32.05a.52.52,0,0,0,.52.48h0c12.22-.07,24.67-.15,37-.25a.51.51,0,0,0,.39-.16Zm-36.9-.63-2.21-31c11.94-.17,24.06-.4,36-.68l2.14,31.46c-11.94.08-24.04.16-35.92.22Zm172-24a.52.52,0,0,0-.37-.14c-7.32.33-14.72.64-22,.94a.53.53,0,0,0-.36.17.5.5,0,0,0-.13.37l.7,14.36a.51.51,0,0,0,.51.49h0l21.93-.6a.48.48,0,0,0,.36-.16.49.49,0,0,0,.14-.38l-.64-14.69a.53.53,0,0,0-.11-.29Zm-21.12,15.2-.65-13.34c6.94-.28,14-.58,21-.89l.6,13.65ZM617.35,54l-28,.63a.52.52,0,0,0-.46.3,19.93,19.93,0,0,0-1.5,7.15c-1.49,21.7-10.88,31.6-29.53,31.15q-10.5-.17-21-.29a.51.51,0,0,0-.52.54l2,32.5a.52.52,0,0,0,.5.49c8,.3,16,.63,23.93,1,1.45.08,3,.13,4.51.13,12.17,0,26.93-3,36-15.25s10.95-29.72,11.9-45h0c.51-8.83,2-11.28,2.64-11.92a.54.54,0,0,0,.15-.38v-.52a.51.51,0,0,0-.62-.53Zm-3.28,13.26c-.93,15.13-2.68,32.29-11.69,44.45-10,13.46-27,15.42-39.63,14.7-7.78-.34-15.68-.66-23.49-1L537.35,94l20.45.28c10.24.25,17.67-2.54,22.78-8.52,4.52-5.3,7.07-13,7.8-23.58a19.669,19.669,0,0,1,1.27-6.5q13.53-.29,27.05-.61c-1.36,1.78-2.27,5.98-2.63,12.16ZM594.84,32h0c7.28-.33,14.68-.68,22-1.05a.52.52,0,0,0,.49-.54l-.65-14.82a.51.51,0,0,0-.55-.5c-7.3.48-14.73.95-22.06,1.39a.53.53,0,0,0-.49.55l.71,14.48a.52.52,0,0,0,.55.49ZM615.7,16.14l.6,13.79q-10.5.51-21,1l-.66-13.46C601.67,17,608.73,16.6,615.7,16.14ZM535.38,52.52c13.17-.25,26.49-.53,39.58-.83a.48.48,0,0,0,.37-.17.49.49,0,0,0,.14-.38l-1.58-29.63a.5.5,0,0,0-.54-.49c-13.18.65-26.55,1.26-39.73,1.79a.58.58,0,0,0-.37.17.53.53,0,0,0-.13.38L534.86,52a.52.52,0,0,0,.51.49Zm-1.19-28.69c12.84-.53,25.85-1.12,38.7-1.75l1.52,28.59c-12.76.29-25.72.56-38.55.8Zm3.18,61.81q19.7.14,39.4.3h0a.55.55,0,0,0,.38-.16.53.53,0,0,0,.14-.38l-1.57-29.52a.53.53,0,0,0-.53-.49c-13.14.24-26.45.47-39.55.67a.51.51,0,0,0-.51.55l1.73,28.55a.51.51,0,0,0,.51.48Zm37.34-29.21,1.52,28.47-38.37-.29L536.2,57.09C549,56.89,561.91,56.67,574.71,56.43ZM699.85,41.65a.5.5,0,0,0-.16-.36.53.53,0,0,0-.38-.14c-13.57.63-27.29,1.22-40.79,1.78l-.4-6.58a.51.51,0,0,0-.54-.48c-6.83.33-13.76.66-20.59,1a.53.53,0,0,0-.36.17.5.5,0,0,0-.13.37l.33,6.39-5.63.2a.49.49,0,0,0-.36.17.5.5,0,0,0-.13.37l1.21,29.72a.52.52,0,0,0,.52.49h6.35q1.83,28.62,3.65,57.25a.51.51,0,0,0,.48.48c6.68.44,13.45.91,20.12,1.39h0a.51.51,0,0,0,.36-.15.48.48,0,0,0,.15-.39Q662,104,660.35,74.66h18.42l.07,2.31c.2,2.63,0,6.15-1.91,8a5.72,5.72,0,0,1-4.82,1.26l-8.19-.11a.53.53,0,0,0-.52.54l1.05,31.53a.52.52,0,0,0,.49.5l8.13.43h0c7.58.39,13.64-1.56,18-5.78,10-9.62,9.66-29.45,9.43-43.93Zm-9.48,70.91c-4.17,4-10,5.87-17.25,5.5l-7.65-.41-1-30.52,7.59.1a6.67,6.67,0,0,0,5.61-1.55c2.22-2.14,2.44-6,2.23-8.81l-.09-2.8a.5.5,0,0,0-.51-.5h0l-19.47.06a.51.51,0,0,0-.52.54q1.63,29.3,3.24,58.6c-6.34-.46-12.75-.9-19.09-1.32q-1.82-28.63-3.65-57.29a.51.51,0,0,0-.51-.48h-6.34L631.76,45l5.64-.2a.56.56,0,0,0,.36-.17.52.52,0,0,0,.13-.38l-.33-6.39,19.56-.92.4,6.57a.5.5,0,0,0,.53.48c13.5-.55,27.21-1.15,40.78-1.77L699.45,68v1.41c.25,14.28.55,33.84-9.08,43.15ZM795.44,45.9a.54.54,0,0,0-.38-.15c-26,1.19-52.22,2.28-78,3.25a.51.51,0,0,0-.5.53l.86,43.89a.53.53,0,0,0,.51.51c25.57.61,51.53,1.3,77.16,2h0a.54.54,0,0,0,.36-.14.51.51,0,0,0,.15-.37V46.27A.47.47,0,0,0,795.44,45.9Zm-.87,49c-25.3-.73-50.91-1.42-76.14-2L717.58,50c25.47-1,51.36-2,77-3.2Z" fill="#f7b52c"/><path d="M82.26,95a.17.17,0,0,0-.14-.06q-12.28.33-24.56.69l-.34-24.78c0-5.65-.2-12.15-2.34-18,9.29.33,17.76.62,25.88.89a.15.15,0,0,0,.14-.06.18.18,0,0,0,.06-.14l-.82-40.87a.19.19,0,0,0-.18-.19C55.22,10.15,30.21,7.54,5.62,4.72a.17.17,0,0,0-.15,0,.19.19,0,0,0-.07.14v45.9a.2.2,0,0,0,.2.24l21.68.87C32,55,31.67,63.79,31.4,70.18c-.06,1.4-.11,2.71-.1,3.76l.16,22.46q-13.28.41-26.55.85a.2.2,0,0,0-.19.2v46.22a.2.2,0,0,0,.06.15.24.24,0,0,0,.13.05h0c25.91-2.71,52.16-5.2,78-7.41a.19.19,0,0,0,.18-.2l-.83-41.14A.16.16,0,0,0,82.26,95ZM5.11,143.45V97.64q13.28-.45,26.55-.86a.19.19,0,0,0,.19-.19L31.7,73.94c0-1,0-2.35.09-3.74.27-6.51.64-15.42-4.34-18.74a.17.17,0,0,0-.1,0L5.8,50.57V5.13c24.46,2.81,49.34,5.4,74,7.71l.82,40.49c-8.14-.27-16.64-.56-26-.89a.175.175,0,0,0-.16.27c2.21,5.85,2.41,12.43,2.42,18.13l.34,25a.2.2,0,0,0,.06.14.19.19,0,0,0,.14.05l24.57-.68.82,40.75C57,138.28,30.88,140.76,5.11,143.45ZM169.67,18.15a.18.18,0,0,0-.18-.18c-26.2-1.79-52.67-3.89-78.68-6.25a.21.21,0,0,0-.15,0,.2.2,0,0,0-.06.15l.89,38.64a.18.18,0,0,0,.19.19c17.79.65,35.88,1.24,53.77,1.78l.1,2.65a6.58,6.58,0,0,1-1.48,4.89,2.78,2.78,0,0,1-2,.9q-16-.31-31.91-.65a.18.18,0,0,0-.14.06.2.2,0,0,0-.06.14l.67,24c.29,4.35-.35,7.24-2,8.85a5.51,5.51,0,0,1-4.46,1.42l-11.56.3a.2.2,0,0,0-.19.2l.94,41a.27.27,0,0,0,.07.14.19.19,0,0,0,.13.05h0l15.66-1.27c19.15-1,26.64-19.58,27.26-35.3l9.19-.26a21.69,21.69,0,0,0,16-6.93c3.22-3.45,10.6-13.88,9.57-36.1Zm-8.21,74.27a21.3,21.3,0,0,1-15.69,6.79h0l-9.37.28a.18.18,0,0,0-.19.18c-.56,15.6-8,34.15-26.91,35.11-5.1.4-10.3.82-15.46,1.25l-.93-40.55,11.34-.3A5.87,5.87,0,0,0,109,93.65c1.68-1.7,2.36-4.69,2.06-9.14l-.66-23.79q15.84.33,31.7.64h.05a3.14,3.14,0,0,0,2.2-1,7,7,0,0,0,1.59-5.21l-.11-2.8a.18.18,0,0,0-.19-.19c-17.88-.54-36-1.14-53.76-1.78L91,12.13c25.88,2.35,52.22,4.44,78.29,6.22l1.64,38.25c1.07,22.07-6.28,32.4-9.47,35.82Zm95.28-31.31c-.47-9.81-1.05-22-7.05-29.93s-16.41-8.93-25.81-9.4c-14.75-.75-29.67-1.6-44.34-2.51a.205.205,0,0,0-.21.2L181,57.21a.2.2,0,0,0,.19.19c14.78.31,29.79.59,44.61.84,3.51.06,4.37,1.14,4.63,5.8L232,91.27c-16.31.23-32.86.48-49.17.76a.2.2,0,0,0-.14.06.16.16,0,0,0-.05.14l1.7,37.61a.25.25,0,0,0,.06.14.24.24,0,0,0,.13.05h0c25.19-1.45,50.73-2.67,75.92-3.65a.2.2,0,0,0,.14-.06.24.24,0,0,0,0-.14l-3.75-61.9C256.85,63.25,256.8,62.19,256.74,61.11Zm-72,68.52L183,92.42c16.31-.28,32.86-.54,49.17-.76a.2.2,0,0,0,.14-.06.16.16,0,0,0,0-.14L230.86,64c-.25-4.57-1-6.1-5-6.17-14.76-.25-29.71-.53-44.43-.84l-1.69-37.34c14.61.91,29.45,1.75,44.13,2.5,9.31.47,19.74,1.61,25.52,9.24,5.92,7.81,6.5,20,7,29.72,0,1.08.11,2.14.16,3.17l3.74,61.7c-25.11,1.02-50.52,2.21-75.58,3.65ZM303.92,59.36a.2.2,0,0,0,.14-.06.17.17,0,0,0,.05-.15l-2.2-32.59a.19.19,0,0,0-.19-.18c-12.13-.32-24.41-.7-36.48-1.13a.17.17,0,0,0-.15.06.2.2,0,0,0-.06.15l2.08,33.32a.2.2,0,0,0,.19.19c12.1.14,24.41.28,36.62.39Zm-36.43-.78-2.05-32.93c11.95.42,24.09.79,36.1,1.11L303.71,59c-12.07-.15-24.26-.28-36.22-.42ZM345.8,25.9a.2.2,0,0,0-.15,0c-10.19,1.34-17.19,6.08-21.4,14.47-3.93,7.84-5,17.9-5.64,26.71-1.27,16.67-9.16,23.52-28.13,24.42q-10.69.09-21.38.21a.2.2,0,0,0-.14.06.17.17,0,0,0,0,.15l2.1,33.69a.19.19,0,0,0,.19.18h0c8.75-.3,16.78-.55,24.56-.77,16-.27,28.4-5.7,36.88-16.14,7.72-9.5,11.9-22.72,12.42-39.28.14-3.82,1.1-5.7,3.3-6.47a.2.2,0,0,0,.14-.2L345.87,26a.21.21,0,0,0-.07-.1Zm-1.12,43.65h0C344.16,86,340,99.16,332.34,108.6c-8.4,10.34-20.7,15.72-36.58,16-7.72.22-15.7.47-24.37.77l-2.08-33.3q10.59-.12,21.18-.21c9.4-.45,15.85-2.32,20.3-5.88,4.85-3.89,7.54-10.08,8.21-18.9,1.5-19.8,4.67-37.81,26.5-40.79l2.6,36.49C345.27,63.85,344.78,66.8,344.68,69.55Zm91.74-21.5c-13.28.64-23.05,8.71-29,24-3.3,8.43-8.09,17-18.44,16.76h-1.42l-4.74-65a.18.18,0,0,0-.19-.18c-7.93,0-16.12-.08-25.05-.18h0a.17.17,0,0,0-.14.07.2.2,0,0,0-.06.14l7.22,100.05a.2.2,0,0,0,.2.18h0c7.35-.07,14.81-.11,22.16-.15h.14c20.45,0,32.89-9,40.32-29.07h0c2.13-6.44,6.35-10.47,11.59-11a.21.21,0,0,0,.18-.21l-2.53-35.2a.21.21,0,0,0-.24-.21ZM427,94.57c-7.36,19.92-19.69,28.81-40,28.81h-.13c-7.29,0-14.69.08-22,.14l-7.19-99.64c8.78.09,16.85.14,24.66.17l4.73,65a.21.21,0,0,0,.2.19h2.06c10.28,0,15-8.58,18.34-17,5.89-15.05,15.48-23,28.5-23.73l2.5,34.82C433.44,83.94,429.17,88.05,427,94.57Zm97.48-70.8a.24.24,0,0,0-.16,0c-22.68,4.25-26.07,23.67-27.6,43.2-1.32,16.85-9.26,23.65-28.33,24.25l-21.5-.11h0a.2.2,0,0,0-.14.06.17.17,0,0,0,0,.15L449,123.67a.19.19,0,0,0,.19.18c8.77.12,16.81.25,24.57.41h2.11c29.35,0,46.21-19.45,47.54-55,.16-4,1.14-5.95,3.39-6.78a.19.19,0,0,0,.12-.2l-2.38-38.41a.21.21,0,0,0-.04-.1Zm-1.45,45.52h0c-.63,16.88-4.75,30.18-12.25,39.52-8.42,10.49-20.86,15.55-37,15-7.71-.15-15.69-.28-24.39-.4l-2.29-32,21.29.11c9.48-.3,16-2.09,20.46-5.63,4.86-3.86,7.56-10.06,8.26-19,.75-9.6,2-19.55,5.86-27.33,4.22-8.48,11.16-13.54,21.21-15.47l2.35,38c-2.85,1.28-3.36,4.34-3.48,7.2Zm-41-10a.25.25,0,0,0,.05-.15l-2.21-32.5a.22.22,0,0,0-.2-.18c-12.32.28-24.8.52-37.08.7a.18.18,0,0,0-.14.06.17.17,0,0,0-.05.15l2.28,32a.2.2,0,0,0,.2.18h0c12.22-.06,24.67-.14,37-.24a.2.2,0,0,0,.18.03Zm-37-.09-2.2-31.6c12.16-.18,24.5-.41,36.69-.7L481.71,59c-12.21.11-24.53.19-36.62.25ZM594.84,31.66h0c7.27-.33,14.68-.69,22-1.05a.19.19,0,0,0,.19-.2l-.65-14.83a.27.27,0,0,0-.07-.14.24.24,0,0,0-.14,0c-7.3.48-14.73.95-22.06,1.4a.19.19,0,0,0-.19.2l.71,14.49a.2.2,0,0,0,.21.13ZM616,15.8l.64,14.43c-7.2.36-14.47.7-21.62,1l-.69-14.1C601.54,16.73,608.83,16.27,616,15.8Zm1.35,38.49q-14,.33-28,.63a.21.21,0,0,0-.17.12,19.77,19.77,0,0,0-1.47,7c-1.51,21.9-11,31.89-29.85,31.44q-10.52-.17-21-.29a.16.16,0,0,0-.15.06.25.25,0,0,0,0,.15l2,32.49a.21.21,0,0,0,.19.19c8,.3,16,.63,23.94,1,1.45.08,2.95.13,4.49.13,12.09,0,26.75-3,35.76-15.12s10.89-29.59,11.83-44.83h0c.5-8.62,1.92-11.29,2.73-12.12a.2.2,0,0,0,.06-.15v-.52C617.55,54.37,617.48,54.3,617.35,54.29Zm-3,13c-.93,15.18-2.69,32.39-11.75,44.62-10,13.57-27.25,15.56-39.91,14.83-7.87-.34-15.86-.67-23.77-1l-2-32.11,20.8.29c10.1.24,17.48-2.51,22.52-8.41,4.48-5.24,7-12.89,7.73-23.4a19.242,19.242,0,0,1,1.38-6.79q13.88-.29,27.73-.62v.25c-1.33,1.54-2.31,5.91-2.69,12.3Zm2.8-32a.24.24,0,0,0-.14-.05c-7.32.33-14.71.64-22,.94a.17.17,0,0,0-.13.07.14.14,0,0,0,0,.14l.7,14.36a.19.19,0,0,0,.19.18h0l21.93-.6a.2.2,0,0,0,.14-.06.239.239,0,0,0,0-.14l-.65-14.7a.2.2,0,0,0,0-.22ZM596,50.46l-.68-14c7.14-.29,14.41-.6,21.59-.92l.63,14.31ZM537.37,85.32q19.71.14,39.4.3h0a.17.17,0,0,0,.14-.06.2.2,0,0,0,.06-.15L575.4,55.89a.2.2,0,0,0-.2-.18h0c-13.15.25-26.46.47-39.55.67a.17.17,0,0,0-.14.06.22.22,0,0,0-.06.15l1.73,28.55A.19.19,0,0,0,537.37,85.32ZM575,56.1l1.55,29.13-39-.3-1.7-28.16C548.83,56.57,562,56.35,575,56.1Zm.08-4.79a.27.27,0,0,0,0-.15L573.5,21.52a.2.2,0,0,0-.2-.18c-13.19.66-26.56,1.26-39.74,1.8a.2.2,0,0,0-.14.06.24.24,0,0,0,0,.14L535.18,52a.19.19,0,0,0,.19.18h0c13.17-.24,26.48-.52,39.58-.82a.25.25,0,0,0,.15-.05Zm-39.54.49-1.71-28.28c13-.53,26.29-1.13,39.34-1.78L574.75,51c-12.97.28-26.15.55-39.19.8Zm164-10.14a.2.2,0,0,0-.06-.14.24.24,0,0,0-.14-.05c-13.68.63-27.51,1.23-41.11,1.79l-.42-6.89a.19.19,0,0,0-.2-.18c-6.83.33-13.76.66-20.59,1a.137.137,0,0,0-.14.21l.35,6.71-5.95.22a.22.22,0,0,0-.14.06.19.19,0,0,0-.05.14l1.21,29.72a.19.19,0,0,0,.2.19h6.65Q641,103.22,642.82,132a.19.19,0,0,0,.18.18c6.68.44,13.45.91,20.12,1.39h0a.16.16,0,0,0,.13-.06.17.17,0,0,0,.06-.15q-1.62-29.49-3.26-59l19.08-.06.07,2.62c.2,2.69,0,6.32-2,8.27a6,6,0,0,1-5,1.35l-8.18-.11a.17.17,0,0,0-.14.06.2.2,0,0,0-.06.15l1,31.53a.21.21,0,0,0,.19.19l8.12.43h0c7.48.39,13.46-1.53,17.77-5.69,9.87-9.53,9.56-29.28,9.33-43.69Zm-8.94,71.13c-4.23,4.09-10.12,6-17.48,5.59l-8-.42-1-31.15,8,.1a6.37,6.37,0,0,0,5.35-1.46c2.13-2.06,2.33-5.8,2.12-8.57l-.08-2.8a.2.2,0,0,0-.19-.19h0L659.81,74a.2.2,0,0,0-.15.06.241.241,0,0,0,0,.14q1.64,29.49,3.26,59c-6.55-.47-13.18-.92-19.73-1.36q-1.83-28.78-3.67-57.56a.2.2,0,0,0-.19-.19h-6.66l-1.19-29.34,6-.22a.17.17,0,0,0,.14-.06.16.16,0,0,0,.05-.14l-.35-6.72c6.7-.3,13.5-.62,20.2-.95l.42,6.89a.19.19,0,0,0,.19.18h0c13.6-.56,27.43-1.16,41.11-1.79L699.78,68v1.4c.22,14.34.55,33.99-9.19,43.39ZM795.22,46.13a.25.25,0,0,0-.14-.06c-26,1.19-52.23,2.28-78,3.25a.19.19,0,0,0-.19.2l.86,43.89a.2.2,0,0,0,.2.19c25.57.62,51.53,1.31,77.16,2.06h0a.19.19,0,0,0,.13,0,.2.2,0,0,0,.06-.14V46.27a.2.2,0,0,0-.08-.14Zm-.33,49.14c-25.5-.75-51.33-1.44-76.78-2l-.86-43.52c25.68-1,51.8-2.05,77.64-3.23Z" fill="#fff"/></g></svg>