<svg xmlns="http://www.w3.org/2000/svg" xmlns:xlink="http://www.w3.org/1999/xlink" width="376" height="354" viewBox="0 0 376 354">
  <defs>
    <clipPath id="clip-path">
      <rect id="長方形_173" data-name="長方形 173" width="375" height="353" rx="14" transform="translate(1243.35 2006.872)" fill="none"/>
    </clipPath>
    <radialGradient id="radial-gradient" cx="0.5" cy="0.5" r="0.504" gradientTransform="translate(0.008) scale(0.985 1)" gradientUnits="objectBoundingBox">
      <stop offset="0" stop-color="#f7931e"/>
      <stop offset="1" stop-color="#ede839"/>
    </radialGradient>
  </defs>
  <g id="グループ_576" data-name="グループ 576" transform="translate(-1242.85 -2006.372)">
    <rect id="長方形_172" data-name="長方形 172" width="375" height="353" rx="14" transform="translate(1243.35 2006.872)" fill="#fff52a"/>
    <g id="グループ_565" data-name="グループ 565" opacity="0.4">
      <g id="グループ_564" data-name="グループ 564" clip-path="url(#clip-path)">
        <path id="パス_4886" data-name="パス 4886" d="M1387.777,1939.2l43.077,244.168,43.03-244.168Zm167.026,29.435-123.949,214.733,189.911-159.385Zm109.03,129.911-232.979,84.822,247.931-.024ZM1620.8,2342.717l43.054-74.571-232.995-84.778Zm-65.951,55.361-123.99-214.71,43.076,244.16Zm-167.021,29.466,43.031-244.176-123.945,214.726Zm-146.886-84.786,189.917-159.39-232.97,84.819Zm-58.021-159.366,247.938-.024-232.986-84.775Zm57.991-159.378,189.947,159.354-123.985-214.7Z" fill="url(#radial-gradient)"/>
      </g>
    </g>
    <rect id="長方形_174" data-name="長方形 174" width="371" height="349" rx="12" transform="translate(1245.35 2008.872)" fill="none" stroke="#003562" stroke-width="5"/>
    <rect id="長方形_175" data-name="長方形 175" width="32.73" height="69.509" transform="translate(1260.155 2233.819)" fill="#003562"/>
    <rect id="長方形_50" data-name="長方形 50" width="302.444" height="86.947" transform="translate(1279.628 2072.262)" fill="#003562"/>
    <g id="グループ_566" data-name="グループ 566">
      <path id="パス_4887" data-name="パス 4887" d="M1297.24,2078.979l5.358-.875c.113.761.227,2.052.417,2.964.076.533.3,1.786.608,3.5,3.23-.532,6.117-.988,7.485-1.253,1.216-.229,2.66-.533,3.572-.8l.911,4.976c-.835.076-2.356.3-3.495.456-1.558.267-4.446.722-7.6,1.216.38,1.9.76,3.989,1.178,6.079,3.42-.569,6.535-1.1,8.245-1.443,1.481-.305,2.887-.609,3.875-.912l1.026,5.015c-1.026.076-2.584.342-4.028.57-1.823.3-4.9.8-8.244,1.33.607,3.115,1.139,5.661,1.367,6.839.267,1.139.647,2.507.988,3.723l-5.471.988c-.19-1.406-.3-2.736-.532-3.837-.19-1.1-.684-3.724-1.292-6.915-3.875.645-7.447,1.254-9.081,1.557s-2.924.571-3.8.8l-1.064-5.091c1.026-.038,2.736-.266,3.952-.418,1.747-.228,5.281-.8,9.118-1.406-.38-2.052-.8-4.179-1.139-6.117-3.344.532-6.27,1.026-7.448,1.216-1.215.266-2.2.456-3.495.8l-1.026-5.244c1.216-.038,2.356-.113,3.534-.265,1.329-.153,4.255-.571,7.523-1.1-.3-1.595-.57-2.849-.684-3.458C1297.771,2080.765,1297.506,2079.891,1297.24,2078.979Z" fill="#fff"/>
      <path id="パス_4888" data-name="パス 4888" d="M1335.506,2087.756c.265.911.608,2.2,1.025,3.685,4.826-.912,10.145-1.938,11.627-2.28a7.276,7.276,0,0,0,1.938-.607l3.04,2.165a59.819,59.819,0,0,1-8.094,11.892l-4.179-2.09a33.751,33.751,0,0,0,5.623-6.838c-.912.152-4.711.95-8.814,1.786,1.443,5.243,3.077,11.094,3.647,13.069.228.647.722,2.357,1.026,3.116l-5.167,1.291a21.876,21.876,0,0,0-.684-3.342c-.57-2.052-2.128-7.98-3.5-13.147-3.191.684-5.965,1.254-7.1,1.52l-1.178-4.559c1.216-.114,2.241-.229,3.5-.456.532-.076,1.9-.3,3.647-.647-.379-1.481-.721-2.7-.988-3.533a13.323,13.323,0,0,0-1.063-2.7l5.09-1.216C1335.05,2085.742,1335.278,2086.768,1335.506,2087.756Z" fill="#fff"/>
      <path id="パス_4889" data-name="パス 4889" d="M1367.883,2097.1l-4.636,1.747a76.726,76.726,0,0,0-3.457-8.777l4.559-1.634C1365.3,2090.377,1367.123,2094.975,1367.883,2097.1Zm18.388-5.13a30.6,30.6,0,0,1-5.167,11.132,29.667,29.667,0,0,1-12.728,9.423l-3.989-4.065a25.569,25.569,0,0,0,12.614-7.942,25.978,25.978,0,0,0,4.863-13.032l5.32,1.71C1386.728,2090.415,1386.5,2091.213,1386.271,2091.973Zm-9.992,2.773-4.559,1.6a63.391,63.391,0,0,0-3.077-8.435l4.521-1.481C1373.886,2088.06,1375.747,2093,1376.279,2094.746Z" fill="#fff"/>
      <path id="パス_4890" data-name="パス 4890" d="M1406,2092.923l-2.773,4.255c-2.166-1.482-6.118-4.066-8.663-5.4l2.773-4.218C1399.879,2088.934,1404.059,2091.555,1406,2092.923Zm3.077,8.7a38.728,38.728,0,0,0,14.781-14.247l2.925,5.167a45.1,45.1,0,0,1-27.812,18.352l-2.85-5.016A41.144,41.144,0,0,0,1409.073,2101.623Zm2.775-17.287-2.85,4.218c-2.128-1.483-6.079-4.066-8.587-5.472l2.774-4.18C1405.692,2080.271,1409.872,2082.968,1411.848,2084.336Z" fill="#fff"/>
      <path id="パス_4891" data-name="パス 4891" d="M1455.851,2092.467c-.3,2.241-1.292,8.776-1.863,12.386h2.432c.988,0,2.736-.038,3.724-.152v4.9c-.76-.039-2.622-.115-3.648-.115h-19.985c-1.367,0-2.318.038-3.761.115v-4.94a36.483,36.483,0,0,0,3.761.19h12.31c.533-3.23,1.368-8.624,1.482-10.752h-10.258c-1.216,0-2.7.114-3.8.19v-5.016c.988.115,2.735.228,3.762.228h9.726a8.574,8.574,0,0,0,2.812-.418l3.685,1.786A10.586,10.586,0,0,0,1455.851,2092.467Z" fill="#fff"/>
      <path id="パス_4892" data-name="パス 4892" d="M1475.765,2082.74l5.547,1.14c-.342,1.1-.76,2.964-.912,3.8a88.63,88.63,0,0,1-3.229,11.436,52.2,52.2,0,0,1-5.623,10.866l-5.319-2.242a45.8,45.8,0,0,0,5.926-10.562A54.743,54.743,0,0,0,1475.765,2082.74Zm9.65,1.14,5.054-1.634c1.557,2.926,4.178,8.777,5.623,12.462,1.33,3.42,3.344,9.5,4.407,13.261l-5.623,1.823a117.4,117.4,0,0,0-3.951-13.412A106.7,106.7,0,0,0,1485.415,2083.88Zm12.082,0-3.039,1.33a47.827,47.827,0,0,0-2.964-5.281l3-1.254C1495.446,2080.081,1496.775,2082.475,1497.5,2083.88Zm4.56-1.747-3.039,1.291a39.572,39.572,0,0,0-3.04-5.205l3-1.254A59.381,59.381,0,0,1,1502.057,2082.133Z" fill="#fff"/>
      <path id="パス_4893" data-name="パス 4893" d="M1516.008,2097.1l-4.636,1.747a76.726,76.726,0,0,0-3.457-8.777l4.559-1.634C1513.424,2090.377,1515.248,2094.975,1516.008,2097.1Zm18.388-5.13a30.6,30.6,0,0,1-5.167,11.132,29.667,29.667,0,0,1-12.728,9.423l-3.989-4.065a25.569,25.569,0,0,0,12.614-7.942,25.978,25.978,0,0,0,4.863-13.032l5.32,1.71C1534.853,2090.415,1534.625,2091.213,1534.4,2091.973Zm-9.992,2.773-4.559,1.6a63.391,63.391,0,0,0-3.077-8.435l4.521-1.481C1522.011,2088.06,1523.872,2093,1524.4,2094.746Z" fill="#fff"/>
      <path id="パス_4894" data-name="パス 4894" d="M1558.567,2083.234c-.038.077-.076.115-.114.19h7.637a12.19,12.19,0,0,0,3.306-.456l3.875,2.394a15.188,15.188,0,0,0-1.253,2.736,39.657,39.657,0,0,1-6.612,12.689c-3.609,4.408-8.207,7.9-15.349,10.715l-4.484-4.027c7.789-2.318,12.006-5.623,15.312-9.385a27.012,27.012,0,0,0,5.4-10.372H1555.6a43.307,43.307,0,0,1-9.575,9.194l-4.256-3.153a33.445,33.445,0,0,0,11.855-12.235,18.277,18.277,0,0,0,1.71-3.989l5.547,1.823C1560.011,2080.688,1559.023,2082.4,1558.567,2083.234Z" fill="#fff"/>
      <path id="パス_4895" data-name="パス 4895" d="M1310.54,2119.979l5.357-.875c.114.761.228,2.052.418,2.964.076.533.3,1.786.608,3.5,3.229-.532,6.117-.988,7.485-1.253,1.216-.229,2.659-.533,3.571-.8l.912,4.976c-.835.076-2.356.3-3.495.456-1.558.267-4.446.722-7.6,1.216.38,1.9.76,3.989,1.178,6.079,3.419-.569,6.535-1.1,8.245-1.443,1.481-.305,2.886-.609,3.875-.912l1.025,5.015c-1.025.076-2.583.342-4.027.57-1.823.3-4.9.8-8.244,1.33.607,3.115,1.139,5.661,1.367,6.839.266,1.139.646,2.507.988,3.723l-5.472.988c-.189-1.406-.3-2.736-.531-3.837-.19-1.1-.684-3.724-1.292-6.915-3.875.645-7.447,1.254-9.081,1.557s-2.925.571-3.8.8l-1.064-5.091c1.026-.038,2.736-.266,3.952-.418,1.747-.228,5.281-.8,9.118-1.406-.38-2.052-.8-4.179-1.139-6.117-3.344.532-6.27,1.026-7.448,1.216-1.216.266-2.2.456-3.495.8l-1.026-5.244c1.216-.038,2.356-.113,3.534-.265,1.329-.153,4.255-.571,7.522-1.1-.3-1.595-.569-2.849-.683-3.458C1311.071,2121.765,1310.806,2120.891,1310.54,2119.979Z" fill="#fff"/>
      <path id="パス_4896" data-name="パス 4896" d="M1348.806,2128.756c.265.911.607,2.2,1.025,3.685,4.826-.912,10.145-1.938,11.627-2.28a7.277,7.277,0,0,0,1.938-.607l3.039,2.165a59.777,59.777,0,0,1-8.093,11.892l-4.179-2.09a33.752,33.752,0,0,0,5.623-6.838c-.912.152-4.711.95-8.814,1.786,1.443,5.243,3.077,11.094,3.647,13.069.228.647.722,2.357,1.026,3.116l-5.167,1.291a21.862,21.862,0,0,0-.684-3.342c-.57-2.052-2.128-7.98-3.5-13.147-3.192.684-5.965,1.254-7.1,1.52l-1.177-4.559c1.215-.114,2.241-.229,3.495-.456.532-.076,1.9-.3,3.647-.647-.38-1.481-.721-2.7-.988-3.533a13.317,13.317,0,0,0-1.064-2.7l5.092-1.216C1348.35,2126.742,1348.578,2127.768,1348.806,2128.756Z" fill="#fff"/>
      <path id="パス_4897" data-name="パス 4897" d="M1387.869,2141.445a35.771,35.771,0,0,0,13.83-14.779l2.964,5.357a40.4,40.4,0,0,1-14.059,14.058,41.153,41.153,0,0,1-14.095,5.357l-3.192-5.015A39.155,39.155,0,0,0,1387.869,2141.445Zm0-12.271-3.875,3.951a78.829,78.829,0,0,0-9.5-8.207l3.571-3.8A76.52,76.52,0,0,1,1387.869,2129.174Z" fill="#fff"/>
      <path id="パス_4898" data-name="パス 4898" d="M1412.078,2136.278c1.71-1.748,4.673-5.47,7.3-8.587,2.241-2.659,4.483-3.077,7.447-.3,2.545,2.393,5.471,5.433,7.75,7.9,2.546,2.7,6.422,6.914,9.347,10.03l-4.179,4.484c-2.546-3.155-5.775-7.068-8.017-9.689-2.2-2.622-5.585-6.307-6.952-7.713-1.216-1.215-2.014-1.14-3.117.228-1.481,1.9-4.178,5.661-5.7,7.713-.873,1.216-1.785,2.546-2.47,3.533l-4.558-4.711C1410.064,2138.254,1410.9,2137.418,1412.078,2136.278Zm25.38-14.475a4.921,4.921,0,1,1,0,9.841,4.921,4.921,0,0,1,0-9.841Zm0,7.333a2.417,2.417,0,0,0,2.432-2.394,2.448,2.448,0,0,0-2.432-2.431,2.416,2.416,0,0,0-2.394,2.431A2.385,2.385,0,0,0,1437.458,2129.136Z" fill="#fff"/>
      <path id="パス_4899" data-name="パス 4899" d="M1457.106,2132.631h20.4c1.786,0,3.457-.152,4.445-.228v5.965c-.912-.038-2.85-.19-4.445-.19h-20.4c-2.165,0-4.71.076-6.117.19V2132.4C1452.357,2132.517,1455.131,2132.631,1457.106,2132.631Z" fill="#fff"/>
      <path id="パス_4900" data-name="パス 4900" d="M1502.82,2141.445a35.771,35.771,0,0,0,13.83-14.779l2.964,5.357a40.4,40.4,0,0,1-14.058,14.058,41.166,41.166,0,0,1-14.1,5.357l-3.191-5.015A39.154,39.154,0,0,0,1502.82,2141.445Zm0-12.271-3.875,3.951a78.837,78.837,0,0,0-9.5-8.207l3.572-3.8A76.578,76.578,0,0,1,1502.82,2129.174Z" fill="#fff"/>
      <path id="パス_4901" data-name="パス 4901" d="M1557.614,2124.386v18.96h-4.749v-1.9h-8.587V2153.3h-4.787v-11.855h-8.549v2.09h-4.558v-19.149h13.107v-6.573h4.787v6.573ZM1539.491,2137v-8.169h-8.549V2137Zm13.374,0v-8.169h-8.587V2137Z" fill="#fff"/>
    </g>
    <g id="期間限定" style="isolation: isolate">
      <path id="パス_4902" data-name="パス 4902" d="M1374.467,2023.753h-18.239v3.816h-2.808v9.744h2.808v7.354h-3.24v9.743h1.73c-.271.248-.544.478-.818.683l-3.59,2.691,3.86,2.289a21.4,21.4,0,0,1,2.877,2.145l2.019,1.929,2.069-1.876a27.237,27.237,0,0,0,4.1-4.812,22.544,22.544,0,0,1,1.688,2.59l1.426,2.785,3.533-2c.106.071.218.148.329.229l1.018,1.671.269-.579,2.6,2.872,2.082-3.471c.015-.026.031-.051.047-.077l.174,1.355,2.6.035c3.192.043,5.4-.126,7.231-1.119,3.225-1.75,3.225-5.121,3.225-6.561v-30.284h-16.989Zm6.849,28.5v.615l-.11,0C1381.244,2052.661,1381.281,2052.458,1381.316,2052.251Zm12.1,10.69h10.248v-1.511h7.774v-1.836h3.745a6.227,6.227,0,0,1,.139.7l.316,2.644h2.663c3.227,0,5.862-.085,7.875-1.118,3.621-1.719,3.621-5.524,3.621-6.957v-30.177h-36.381Zm111.941-10.749c-.375.017-.839.032-1.365.043v-9.548H1501.8v-.731h5.508v-15H1494.13v-3.6h-10.536v3.6h-13.067v15h4.691l-.1.969c-.586,5.561-2.1,9.31-4.6,11.472l-2.106-.939a10.317,10.317,0,0,1-2.563-1.633c.862-.747,1.75-1.554,2.62-2.384l2.635-2.511-3.4-2.41v-19.615h-22.482l-.788-.457-1.434.421h-11.064v38.072h10v-5.236l1.755,5.176,2.629-.588c1.258-.281,2.661-.582,4.139-.9,2.449-.526,5.224-1.122,7.844-1.736l.6-.139a18.345,18.345,0,0,0,4.116,2.964l2.714,1.44,1.375-2.747a12.434,12.434,0,0,1,1.676-2.314l1.4.9a23.65,23.65,0,0,1,2.979,2.464l1.966,2.062,2.161-1.858a19.466,19.466,0,0,0,3.425-3.872c4.059,3.424,9.2,3.985,14.272,3.985h11.529l.428-2.493a13.259,13.259,0,0,1,1.143-3.347l2.788-4.761Z" fill="#003562"/>
      <g id="グループ_568" data-name="グループ 568">
        <g id="グループ_567" data-name="グループ 567" style="isolation: isolate">
          <path id="パス_4903" data-name="パス 4903" d="M1364.447,2052.85a25.305,25.305,0,0,1-5.328,7.2,24.1,24.1,0,0,0-3.419-2.556,16.64,16.64,0,0,0,4.751-5.831Zm9.215-1.44h-17.674v-3.743h3.24v-13.354h-2.808v-3.744h2.808v-3.816h3.851v3.816h4.464v-3.816h3.924v3.816h2.447v3.744h-2.447v13.354h2.195Zm-10.583-17.1v2.087h4.464v-2.087Zm0,7.63h4.464v-2.267h-4.464Zm0,5.724h4.464v-2.448h-4.464Zm25.377,7.522c0,2.124-.4,3.241-1.655,3.924s-3.1.792-5.76.756a15.542,15.542,0,0,0-1.224-4.067c1.548.108,3.276.072,3.78.072.54,0,.719-.181.719-.756v-7.092h-5.47c-.4,4.248-1.3,8.747-3.241,11.987a12.356,12.356,0,0,0-3.382-2.411c.107-.216.252-.4.359-.613l-2.988,1.693a35.619,35.619,0,0,0-3.852-5.436l3.24-1.764a39.079,39.079,0,0,1,3.888,4.9c2.087-4.5,2.268-10.583,2.268-15.263v-13.21h13.318Zm-4.14-10.978v-4.427h-5.183v1.331c0,.937,0,1.981-.035,3.1Zm-5.183-12.418V2036h5.183v-4.211Z" fill="#fff"/>
          <path id="パス_4904" data-name="パス 4904" d="M1400.664,2040.684v19.257h-4.248v-32.252H1410.2v12.995Zm0-9.9v1.907h5.543v-1.907Zm5.543,6.839v-2.052h-5.543v2.052Zm20.59,17.242c0,2.3-.469,3.564-1.908,4.247-1.405.72-3.493.828-6.588.828a15.83,15.83,0,0,0-.936-3.347h-8.927v1.836h-3.887v-15.551h1.763v-.035l12.1.035v12.743c1.4.035,2.736.035,3.2,0,.648,0,.864-.217.864-.792v-14.074h-9.791v-13.067H1426.8Zm-12.419-8.855h-5.94v2.16h5.94Zm0,7.451v-2.232h-5.94v2.232Zm2.376-22.677v1.907h5.723v-1.907Zm5.723,6.911v-2.124h-5.723v2.124Z" fill="#fff"/>
          <path id="パス_4905" data-name="パス 4905" d="M1446.959,2029.381c-1.008,3.132-2.232,7.091-3.348,9.9a10.719,10.719,0,0,1,2.772,7.344c.035,2.376-.5,3.888-1.656,4.68a4.624,4.624,0,0,1-2.123.827,18.148,18.148,0,0,1-2.485.072,9.338,9.338,0,0,0-.972-3.815c.684.036,1.224.036,1.693.036a1.8,1.8,0,0,0,1.043-.324,2.457,2.457,0,0,0,.648-2.016,9.466,9.466,0,0,0-2.664-6.335c.756-2.3,1.584-5.544,2.233-8.063h-3.168v28.256h-4v-32.072h8.495l.612-.18Zm19.437,17.89a63.5,63.5,0,0,1-4.859,4.211,13.622,13.622,0,0,0,5.651,4.715,15.239,15.239,0,0,0-2.772,3.636c-5.291-2.808-8.1-8.171-9.719-15.189H1452.1v9.286c1.692-.288,3.456-.612,5.184-.936l.324,3.743c-4.139.972-8.567,1.872-11.951,2.628l-1.4-4.139c1.079-.144,2.339-.36,3.743-.577v-26.744h16.7v16.739h-6.263a25.3,25.3,0,0,0,1.368,3.815,32.1,32.1,0,0,0,3.24-3.563Zm-14.291-15.659v2.844h8.352v-2.844Zm0,9.36h8.352v-3.024H1452.1Z" fill="#fff"/>
          <path id="パス_4906" data-name="パス 4906" d="M1491.094,2055.082a37.183,37.183,0,0,0,4.1.216c1.944,0,7.883,0,10.295-.109a16.045,16.045,0,0,0-1.512,4.356h-9c-6.623,0-11.554-1.079-14.866-6.191a18.039,18.039,0,0,1-4.787,6.8,26.33,26.33,0,0,0-3.527-2.916c3.887-2.879,5.65-7.846,6.3-14l4.463.432c-.215,1.62-.467,3.132-.792,4.571a9.7,9.7,0,0,0,4.9,5.652v-12.706H1479v-4.068h19.8v4.068h-7.7v4.5h9.9v4.032h-9.9Zm-13.354-16.126h-4.213v-9h13.067v-3.6h4.536v3.6h13.175v9h-4.428v-4.932H1477.74Z" fill="#fff"/>
        </g>
      </g>
    </g>
    <g id="グループ_571" data-name="グループ 571">
      <path id="パス_4907" data-name="パス 4907" d="M1527.233,2232.783c-4.866,0-18.567,1.669-23.777,19.405-5.194-17.736-18.852-19.405-23.7-19.405-4.867,0-18.568,1.669-23.778,19.407-5.194-17.738-18.853-19.407-23.7-19.407-6.059,0-25.83,2.564-25.83,35.549a60.678,60.678,0,0,0,1.522,14.1,12.481,12.481,0,0,0-10.115-4.538,13.541,13.541,0,0,0-9.244,3.441,62.362,62.362,0,0,0,1.279-13c0-32.985-19.708-35.549-25.748-35.549-6.06,0-25.83,2.564-25.83,35.549a60.41,60.41,0,0,0,1.573,14.342h-6.847v-48.758h-15.888l-1.329.819a33.725,33.725,0,0,1-12.064,4.3l-4.479.847v17.429h10.854v25.365h-12.878v20.639h47.042v-9.982c.179.282.339.585.526.857a23.282,23.282,0,0,0,38.606-.012c.473-.7.91-1.43,1.331-2.182a12.147,12.147,0,0,0,6,9.21,14.161,14.161,0,0,1-4.054,2.227l-5.226,1.944,6.416,16.553,4.965-1.642c11.948-3.95,19.081-13.35,19.081-25.145a25.638,25.638,0,0,0-.167-2.885c.381.661.765,1.317,1.186,1.932a23.282,23.282,0,0,0,38.606-.012,33.9,33.9,0,0,0,4.421-9.776,33.838,33.838,0,0,0,4.455,9.788,23.281,23.281,0,0,0,38.6-.012,33.836,33.836,0,0,0,4.42-9.774,33.876,33.876,0,0,0,4.455,9.786,23.282,23.282,0,0,0,38.606-.012c4.288-6.3,6.461-14.991,6.461-25.844C1552.981,2235.347,1533.273,2232.783,1527.233,2232.783Zm-163.1,51.35c-1.436,0-3.572-4.208-3.572-15.8,0-10.523,1.794-15.234,3.572-15.234,1.737,0,3.49,4.711,3.49,15.234C1367.625,2279.925,1365.538,2284.133,1364.135,2284.133Zm68.136,0c-1.435,0-3.571-4.208-3.571-15.8,0-10.523,1.794-15.234,3.571-15.234,1.738,0,3.491,4.711,3.491,15.234C1435.762,2279.925,1433.675,2284.133,1432.271,2284.133Zm47.482,0c-1.436,0-3.571-4.208-3.571-15.8,0-10.523,1.794-15.234,3.571-15.234,1.737,0,3.49,4.711,3.49,15.234C1483.243,2279.925,1481.156,2284.133,1479.753,2284.133Zm47.48,0c-1.435,0-3.571-4.208-3.571-15.8,0-10.523,1.794-15.234,3.571-15.234,1.738,0,3.491,4.711,3.491,15.234C1530.724,2279.925,1528.637,2284.133,1527.233,2284.133Z" fill="#003562"/>
      <g id="グループ_569" data-name="グループ 569">
        <path id="パス_4908" data-name="パス 4908" d="M1340.789,2299.813h-40.042v-13.639h12.878v-32.365h-10.854V2242.78l1.629-.307a37.032,37.032,0,0,0,13.253-4.759l.483-.3h11.4v48.758h11.258Z" fill="#fff"/>
        <path id="パス_4909" data-name="パス 4909" d="M1364.135,2300.947c-13.983,0-22.33-12.192-22.33-32.615,0-20.068,8.347-32.049,22.33-32.049,13.93,0,22.248,11.981,22.248,32.049C1386.383,2288.755,1378.065,2300.947,1364.135,2300.947Zm0-51.349c-1.749,0-7.072,0-7.072,18.734,0,12.807,2.379,19.3,7.072,19.3,4.638,0,6.99-6.494,6.99-19.3C1371.125,2249.6,1365.863,2249.6,1364.135,2249.6Z" fill="#fff"/>
        <path id="パス_4910" data-name="パス 4910" d="M1389.947,2317.561l-3.93-10.143,1.9-.707c4.444-1.652,7.369-4.311,8.185-7.329-4.157-.591-7.949-3.636-7.949-8.939,0-5.157,4.168-9.047,9.7-9.047,6.628,0,10.585,5.138,10.585,13.745,0,10.363-6.079,18.317-16.68,21.822Z" fill="#fff"/>
        <path id="パス_4911" data-name="パス 4911" d="M1432.271,2300.947c-13.982,0-22.33-12.192-22.33-32.615,0-20.068,8.348-32.049,22.33-32.049,13.931,0,22.249,11.981,22.249,32.049C1454.52,2288.755,1446.2,2300.947,1432.271,2300.947Zm0-51.349c-1.749,0-7.071,0-7.071,18.734,0,12.807,2.379,19.3,7.071,19.3,4.639,0,6.991-6.494,6.991-19.3C1439.262,2249.6,1434,2249.6,1432.271,2249.6Z" fill="#fff"/>
        <path id="パス_4912" data-name="パス 4912" d="M1479.753,2300.947c-13.982,0-22.33-12.192-22.33-32.615,0-20.068,8.348-32.049,22.33-32.049,13.931,0,22.248,11.981,22.248,32.049C1502,2288.755,1493.684,2300.947,1479.753,2300.947Zm0-51.349c-1.749,0-7.071,0-7.071,18.734,0,12.807,2.379,19.3,7.071,19.3,4.639,0,6.99-6.494,6.99-19.3C1486.743,2249.6,1481.481,2249.6,1479.753,2249.6Z" fill="#fff"/>
        <path id="パス_4913" data-name="パス 4913" d="M1527.233,2300.947c-13.982,0-22.33-12.192-22.33-32.615,0-20.068,8.348-32.049,22.33-32.049,13.931,0,22.248,11.981,22.248,32.049C1549.481,2288.755,1541.164,2300.947,1527.233,2300.947Zm0-51.349c-1.749,0-7.071,0-7.071,18.734,0,12.807,2.379,19.3,7.071,19.3,4.639,0,6.991-6.494,6.991-19.3C1534.224,2249.6,1528.962,2249.6,1527.233,2249.6Z" fill="#fff"/>
      </g>
      <g id="グループ_570" data-name="グループ 570">
        <path id="パス_4914" data-name="パス 4914" d="M1302.747,2288.174h12.878v-36.365h-10.854v-7.371a38.834,38.834,0,0,0,13.932-5.022h8.828v48.758h11.258v9.639h-36.042Z" fill="#d11339"/>
        <path id="パス_4915" data-name="パス 4915" d="M1343.805,2268.332c0-19.764,8.018-30.049,20.33-30.049s20.248,10.367,20.248,30.049c0,19.842-7.938,30.615-20.248,30.615S1343.805,2288.174,1343.805,2268.332Zm29.32,0c0-16.2-3.807-20.734-8.99-20.734s-9.072,4.535-9.072,20.734c0,16.279,3.888,21.3,9.072,21.3S1373.125,2284.611,1373.125,2268.332Z" fill="#d11339"/>
        <path id="パス_4916" data-name="パス 4916" d="M1388.614,2308.586c6.318-2.35,9.8-6.561,9.719-11.1h-.729c-3.887,0-7.451-2.509-7.451-7.045,0-4.293,3.483-7.047,7.7-7.047,5.506,0,8.585,4.374,8.585,11.745,0,9.476-5.508,16.683-15.308,19.923Z" fill="#d11339"/>
        <path id="パス_4917" data-name="パス 4917" d="M1411.941,2268.332c0-19.764,8.019-30.049,20.33-30.049s20.249,10.367,20.249,30.049c0,19.842-7.938,30.615-20.249,30.615S1411.941,2288.174,1411.941,2268.332Zm29.321,0c0-16.2-3.807-20.734-8.991-20.734s-9.071,4.535-9.071,20.734c0,16.279,3.888,21.3,9.071,21.3S1441.262,2284.611,1441.262,2268.332Z" fill="#d11339"/>
        <path id="パス_4918" data-name="パス 4918" d="M1459.423,2268.332c0-19.764,8.018-30.049,20.33-30.049S1500,2248.65,1500,2268.332c0,19.842-7.938,30.615-20.248,30.615S1459.423,2288.174,1459.423,2268.332Zm29.32,0c0-16.2-3.806-20.734-8.99-20.734s-9.071,4.535-9.071,20.734c0,16.279,3.887,21.3,9.071,21.3S1488.743,2284.611,1488.743,2268.332Z" fill="#d11339"/>
        <path id="パス_4919" data-name="パス 4919" d="M1506.9,2268.332c0-19.764,8.019-30.049,20.33-30.049s20.248,10.367,20.248,30.049c0,19.842-7.937,30.615-20.248,30.615S1506.9,2288.174,1506.9,2268.332Zm29.321,0c0-16.2-3.807-20.734-8.991-20.734s-9.071,4.535-9.071,20.734c0,16.279,3.888,21.3,9.071,21.3S1536.224,2284.611,1536.224,2268.332Z" fill="#d11339"/>
      </g>
    </g>
    <g id="グループ_572" data-name="グループ 572">
      <path id="パス_4920" data-name="パス 4920" d="M1298.406,2170.133h17.623c.972,0,2.106-.1,3.045-.2v4.439c-.971-.065-2.1-.13-3.045-.13h-6.836v13.217h8.585a19.881,19.881,0,0,0,3.045-.259v4.7a25.868,25.868,0,0,0-3.045-.162h-21.347a26.957,26.957,0,0,0-3.175.162v-4.7a20.987,20.987,0,0,0,3.175.259h8.227v-13.217h-6.252c-.874,0-2.267.065-3.077.13v-4.439C1296.171,2170.036,1297.5,2170.133,1298.406,2170.133Z" fill="#003562"/>
      <path id="パス_4921" data-name="パス 4921" d="M1330.839,2169.744h16.327c.939,0,2.3-.032,2.851-.064-.033.745-.1,2.04-.1,2.979v16.78c0,1.135.065,2.852.13,3.824h-4.7c.032-.519.032-1.07.032-1.685h-14.772c-1.263,0-3.11.1-4.178.194v-4.632c1.133.1,2.591.194,4.048.194h14.934v-13.411h-14.545c-1.36,0-3.109.065-4.017.13v-4.5C1328.053,2169.68,1329.737,2169.744,1330.839,2169.744Z" fill="#003562"/>
      <path id="パス_4922" data-name="パス 4922" d="M1366.121,2173.664a34.165,34.165,0,0,1-2.818,4.081v17.591h-3.725v-13.444a30.431,30.431,0,0,1-2.916,2.624,28.746,28.746,0,0,0-1.847-3.985,29.062,29.062,0,0,0,7.938-8.325Zm-.551-7.029a34.3,34.3,0,0,1-8.487,8.131,24.007,24.007,0,0,0-1.911-3.273,23.112,23.112,0,0,0,6.738-6.348Zm19.7,20.31h-4.439v4.6c0,1.781-.323,2.688-1.587,3.239-1.2.551-2.818.551-5.021.551a13.454,13.454,0,0,0-1.2-3.434c1.361.065,2.883.065,3.305.065.453-.032.583-.162.583-.519v-4.5h-6.8a34.188,34.188,0,0,1,3.693,4.05l-2.883,2.041a27.31,27.31,0,0,0-3.726-4.5l2.4-1.588h-4.535v-3.271h11.856v-1.847H1365.83v-3.142h18.756v3.142h-3.758v1.847h4.406Zm-1.749-9.685h-16.036v-11.209h16.036Zm-3.888-8.52h-8.423v1.619h8.423Zm0,4.147h-8.423v1.684h8.423Z" fill="#003562"/>
      <path id="パス_4923" data-name="パス 4923" d="M1390.715,2170.165c2.721-.227,8.066-.713,13.994-1.2,3.337-.292,6.867-.487,9.168-.583l.032,4.146a33.8,33.8,0,0,0-6.252.453,9.847,9.847,0,0,0-6.868,9.071c0,5.345,4.989,7.257,10.5,7.548l-1.522,4.438c-6.8-.454-13.217-4.082-13.217-11.111a12.963,12.963,0,0,1,4.826-10.01c-3.045.324-9.653,1.036-13.411,1.847l-.421-4.439C1388.836,2170.295,1390.1,2170.23,1390.715,2170.165Zm21.153,9.945-2.462,1.1a24.918,24.918,0,0,0-2.527-4.5l2.4-1A40.094,40.094,0,0,1,1411.868,2180.11Zm3.758-1.587-2.43,1.166a28.522,28.522,0,0,0-2.656-4.373l2.364-1.1A48.479,48.479,0,0,1,1415.626,2178.523Z" fill="#003562"/>
      <path id="パス_4924" data-name="パス 4924" d="M1432.931,2170c-1.588,2.333-3.856,6.479-5.475,9.33a7.524,7.524,0,0,1,3.725-.972c2.429,0,3.887,1.523,4.017,4.211.065,1.458-.032,4.05.129,5.41a1.884,1.884,0,0,0,2.107,1.749c2.818,0,4.535-3.627,5.474-7.645l3.5,2.852c-1.684,5.539-4.7,9.232-9.653,9.232-3.6,0-5.28-2.139-5.41-4.5-.129-1.717-.1-4.374-.2-5.7a1.777,1.777,0,0,0-1.911-1.814c-2.2,0-4.016,2.268-5.182,4.892a67.755,67.755,0,0,0-2.462,7.224l-4.569-1.555c2.4-6.48,9.039-19.7,10.755-22.774.422-.875,1.037-1.943,1.588-3.3l4.6,1.845C1433.643,2168.935,1433.287,2169.485,1432.931,2170Z" fill="#003562"/>
      <path id="パス_4925" data-name="パス 4925" d="M1462.252,2176.353c-.162-.389-.292-.778-.421-1.134-.26-.745-.454-1.361-.648-1.911a75.879,75.879,0,0,1-10.917-.292l-.227-3.725a67.339,67.339,0,0,0,10.14.485c-.325-1.036-.648-2.073-1.037-3.207l4.341-.485q.243,1.749.583,3.4a37.261,37.261,0,0,0,6.381-1.393l.519,3.725a46.886,46.886,0,0,1-5.96,1.2c.161.518.323,1.037.485,1.522.162.454.357.94.551,1.458a41.659,41.659,0,0,0,6.187-1.3l.648,3.823a43.086,43.086,0,0,1-5.183,1,29.591,29.591,0,0,0,1.685,2.883,9.87,9.87,0,0,0,1.458,1.653l-1.977,2.98c-1.814-.356-5.312-.777-7.677-1.037l.324-3.077c1.36.13,3.11.292,4.082.388a38.1,38.1,0,0,1-1.815-3.369,120.174,120.174,0,0,1-14.091-.032l-.227-3.822A83.149,83.149,0,0,0,1462.252,2176.353Zm-8,10.852c0,2.4,2.268,3.369,6.543,3.369a42.684,42.684,0,0,0,8.131-.713l-.227,4.115a49.841,49.841,0,0,1-7.872.615c-6.478,0-10.495-1.911-10.56-6.544a10.761,10.761,0,0,1,1.393-5.216l4.017.778A6.077,6.077,0,0,0,1454.251,2187.205Z" fill="#003562"/>
      <path id="パス_4926" data-name="パス 4926" d="M1484.41,2177.382a54.731,54.731,0,0,0,6.114-.626l-.021,2.506a64.523,64.523,0,0,1-7.044.54,15.065,15.065,0,0,1-1.231,2.2,7.3,7.3,0,0,1,2.441-.432,2.928,2.928,0,0,1,2.874,1.663c1.123-.518,2.031-.885,2.917-1.274.843-.367,1.6-.713,2.4-1.124l1.081,2.507c-.691.194-1.836.626-2.571.907-.972.389-2.2.864-3.521,1.47.021,1.209.064,2.808.086,3.8h-2.593c.064-.648.087-1.685.108-2.636-1.621.929-2.485,1.771-2.485,2.852,0,1.189,1.016,1.513,3.133,1.513a35.254,35.254,0,0,0,6.136-.606l-.086,2.788a54.193,54.193,0,0,1-6.115.367c-3.392,0-5.9-.821-5.9-3.609,0-2.765,2.593-4.494,5.056-5.768a1.665,1.665,0,0,0-1.513-.735,5.264,5.264,0,0,0-3.37,1.491,24.615,24.615,0,0,0-2.01,2.377l-2.312-1.729a21.193,21.193,0,0,0,4.775-5.963h-.28c-.886,0-2.463-.044-3.652-.13v-2.528a28.067,28.067,0,0,0,3.8.26h1.037a12.051,12.051,0,0,0,.432-2.486l2.852.239A20.853,20.853,0,0,1,1484.41,2177.382Z" fill="#003562"/>
      <path id="パス_4927" data-name="パス 4927" d="M1520.349,2191.2c0,1.674-.352,2.565-1.377,3.1s-2.537.62-4.778.62a10.914,10.914,0,0,0-1.107-3.185c1.431.081,3,.081,3.455.054s.648-.189.648-.621v-17.167h-16.6V2194.9h-3.132v-23.943h22.891Zm-4.751-12.6h-13.47v-2.7h13.47Zm-9.232,11.093v1.782h-2.97v-10.8h10.987v9.015Zm0-6.37v3.725h5.048v-3.725Z" fill="#003562"/>
      <path id="パス_4928" data-name="パス 4928" d="M1532.583,2189.688H1527.1v2.375h-2.969v-20.73h8.448Zm-5.479-15.494v4.751h2.483v-4.751Zm2.483,12.633v-5.074H1527.1v5.074Zm16.088-6.316v2.321h2.591v2.78h-2.591v5.885c0,1.539-.3,2.349-1.35,2.834a11.951,11.951,0,0,1-4.508.54,10.793,10.793,0,0,0-1.026-3.023c1.3.054,2.808.054,3.213.054.432,0,.566-.108.566-.486v-5.8H1533.1v-2.78h9.474v-2.321h-9.528V2177.7h6.1v-2.376h-5.183v-2.807h5.183v-2.834h3.158v2.834h5.4v2.807h-5.4v2.376h6.154v2.807Zm-8.935,5.426a18.645,18.645,0,0,1,3.266,4.426l-2.753,1.593a18.993,18.993,0,0,0-3.077-4.535Z" fill="#003562"/>
      <path id="パス_4929" data-name="パス 4929" d="M1555.1,2177.922a57.293,57.293,0,0,0-1.037,7.93,10.535,10.535,0,0,0,.086,1.4c.325-.735.67-1.49.973-2.2l1.34,1.058c-.606,1.793-1.319,4.149-1.557,5.293a6.613,6.613,0,0,0-.107,1.016c0,.238.021.584.043.886l-2.506.173a27.579,27.579,0,0,1-.843-7.065,60.371,60.371,0,0,1,.907-8.557c.065-.6.195-1.425.216-2.117l3.026.259C1555.473,2176.453,1555.191,2177.533,1555.1,2177.922Zm5.336,10.566c0,.95.822,1.533,3.026,1.533a25.526,25.526,0,0,0,5.423-.561l.044,2.917a30.549,30.549,0,0,1-5.576.41c-3.715,0-5.508-1.317-5.508-3.543a13.157,13.157,0,0,1,.367-2.808l2.484.237A7.321,7.321,0,0,0,1560.441,2188.488Zm7.823-11.062v2.787a58.093,58.093,0,0,1-9.291,0v-2.766A44.517,44.517,0,0,0,1568.264,2177.426Z" fill="#003562"/>
      <path id="パス_4930" data-name="パス 4930" d="M1321.822,2204.98c-.027.594-.054,1.242-.081,1.916a32.93,32.93,0,0,0,4.966-.971l.081,3.346c-1.538.352-3.4.622-5.155.837-.028.81-.028,1.647-.028,2.43v1a22.36,22.36,0,0,1,5.183-.7c4.157,0,7.424,2.159,7.424,5.885,0,3.184-1.674,5.587-5.966,6.667a24.845,24.845,0,0,1-3.536.431l-1.241-3.482a20.638,20.638,0,0,0,3.319-.189c2.187-.405,3.914-1.484,3.914-3.455,0-1.836-1.619-2.915-3.968-2.915a18.2,18.2,0,0,0-5.074.756c.054,2.132.108,4.238.108,5.155,0,3.348-1.188,4.239-2.969,4.239-2.618,0-6.317-2.268-6.317-5.129,0-2.349,2.7-4.805,6.02-6.235-.027-.648-.027-1.3-.027-1.917v-2.267c-.513.026-1,.054-1.431.054a33.334,33.334,0,0,1-3.779-.135l-.054-3.267a29.757,29.757,0,0,0,3.726.216c.485,0,1.025-.026,1.565-.054.026-.944.026-1.727.026-2.186a21.678,21.678,0,0,0-.188-2.375h3.724C1321.983,2203.117,1321.876,2204.278,1321.822,2204.98Zm-4.05,17.249c.487,0,.865-.216.865-1.134,0-.675-.028-1.916-.081-3.374-1.647.89-2.753,2-2.753,2.942C1315.8,2221.5,1317.071,2222.229,1317.772,2222.229Zm18.625-12.876-1.619,2.753a42.982,42.982,0,0,0-6.505-3.941l1.485-2.618A56.233,56.233,0,0,1,1336.4,2209.353Z" fill="#003562"/>
      <path id="パス_4931" data-name="パス 4931" d="M1361.184,2205.277v15.98h-3.347v-1.3h-5.992v6.91h-3.374v-6.91h-5.858v1.431H1339.4v-16.115h9.071v-3.617h3.374v3.617Zm-18.571,3.077v2.726h5.858v-2.726Zm5.858,8.53v-2.862h-5.858v2.862Zm3.374-8.53v2.726h5.992v-2.726Zm5.992,8.53v-2.862h-5.992v2.862Z" fill="#003562"/>
      <path id="パス_4932" data-name="パス 4932" d="M1371.232,2220.636c1.107,1.808,3.131,2.537,5.939,2.645,3.158.135,9.231.054,12.821-.216a16.82,16.82,0,0,0-1,3.24c-3.239.161-8.665.216-11.877.081-3.32-.136-5.534-.892-7.288-3-1.187,1.052-2.376,2.1-3.86,3.239l-1.566-3.347a35.467,35.467,0,0,0,3.7-2.483v-5.7H1365v-2.943h6.235Zm-1.862-12.12a20.422,20.422,0,0,0-4.346-4.265l2.375-1.943a21.551,21.551,0,0,1,4.508,4.076Zm10.284.054c-.108-.89-.216-1.808-.3-2.726h-4.7v-3.024h7.424c.4,7.64,2.024,14.145,7.639,16.952a14.356,14.356,0,0,0-2.511,2.457c-3.319-1.971-5.29-5.076-6.478-8.854a17.337,17.337,0,0,1-6.343,8.881,17.725,17.725,0,0,0-2.484-2.43c3.78-2.24,5.858-6.263,6.7-11.418Z" fill="#003562"/>
      <path id="パス_4933" data-name="パス 4933" d="M1398.745,2204.251c1.539,0,4.4-.135,5.669-.243a5.826,5.826,0,0,0,1.835-.377l2.16,1.673a6.514,6.514,0,0,0-.918,1.134,57.517,57.517,0,0,0-2.7,5.8,24.274,24.274,0,0,1,5.857,1.728c.027-.324.054-.621.081-.918a17.562,17.562,0,0,0,0-2.943l3.537.406a44.055,44.055,0,0,1-.514,4.993c1.134.648,2.1,1.268,2.889,1.808l-1.566,3.752a28.149,28.149,0,0,0-2.321-1.888,13.488,13.488,0,0,1-6.857,7.314l-2.861-2.348c4.076-1.754,5.966-4.319,6.857-6.775a18.7,18.7,0,0,0-6.4-2.186,53.007,53.007,0,0,1-3.05,6.477,4.706,4.706,0,0,1-4.211,2.376,4.041,4.041,0,0,1-4.157-4.373c0-4.184,3.806-7.369,9.232-7.612.755-1.781,1.539-3.616,2.159-4.886-1.079.055-3.4.136-4.643.217-.54.026-1.484.107-2.186.216l-.135-3.483C1397.233,2204.2,1398.151,2204.251,1398.745,2204.251Zm-2.375,16.25c.54,0,.918-.271,1.4-.945a30.107,30.107,0,0,0,2.187-4.4c-3.023.459-4.724,2.295-4.724,3.995C1395.236,2220.042,1395.749,2220.5,1396.37,2220.5Z" fill="#003562"/>
      <path id="パス_4934" data-name="パス 4934" d="M1422.467,2211.737c-.022,1.405,0,3.025.13,4.58.3,3.112.95,5.251,2.311,5.251,1.016,0,1.88-2.528,2.29-4.256l2.161,2.635c-1.425,3.76-2.787,5.078-4.515,5.078-2.377,0-4.43-2.139-5.034-7.929-.217-1.989-.239-4.516-.239-5.834a13.1,13.1,0,0,0-.173-2.2l3.329.044A17.354,17.354,0,0,0,1422.467,2211.737Zm14.995,9.053-2.831,1.1c-.346-3.479-1.49-8.73-3.846-11.409l2.744-.886C1435.582,2212.083,1437.224,2217.484,1437.462,2220.79Z" fill="#003562"/>
      <path id="パス_4935" data-name="パス 4935" d="M1447.849,2209.339c-.044.237-.109.518-.173.821,1.21-.173,2.42-.411,3.607-.691v2.7a39.917,39.917,0,0,1-4.213.714c-.194.929-.41,1.879-.648,2.765a66.885,66.885,0,0,1-3.436,10l-3-1.014a46.8,46.8,0,0,0,3.739-9.724c.151-.583.324-1.188.453-1.814-.5.021-.972.043-1.426.043-1.037,0-1.858-.043-2.614-.087l-.065-2.7a21.335,21.335,0,0,0,2.722.173q.94,0,1.945-.064c.086-.476.152-.887.195-1.233a11.071,11.071,0,0,0,.064-2.181l3.306.259C1448.129,2207.892,1447.935,2208.863,1447.849,2209.339Zm2.592,11.732c0,.95.648,1.663,2.96,1.663a25.26,25.26,0,0,0,4.495-.453l-.109,2.766a34.736,34.736,0,0,1-4.407.3c-3.63,0-5.6-1.254-5.6-3.436a15.169,15.169,0,0,1,.389-2.9l2.571.258A7.4,7.4,0,0,0,1450.441,2221.071Zm3.285-7.454a37.849,37.849,0,0,1,3.8.2l-.065,2.592a31.578,31.578,0,0,0-3.716-.259,37.138,37.138,0,0,0-4.17.216v-2.528C1450.787,2213.725,1452.343,2213.617,1453.726,2213.617Z" fill="#003562"/>
      <path id="パス_4936" data-name="パス 4936" d="M1468.5,2209.6c-.044.238-.108.519-.173.8,1.21-.172,2.442-.41,3.63-.691v2.7a39.989,39.989,0,0,1-4.214.713c-.194.929-.41,1.9-.647,2.787a69.754,69.754,0,0,1-3.436,10l-3-1.015a47.291,47.291,0,0,0,3.739-9.723c.151-.584.3-1.21.454-1.816-.5.022-.973.043-1.427.043-1.059,0-1.857-.043-2.614-.086l-.065-2.7a21.108,21.108,0,0,0,2.723.173q.939,0,1.944-.064c.086-.476.152-.886.2-1.232a11.281,11.281,0,0,0,.064-2.2l3.307.26C1468.8,2208.15,1468.583,2209.123,1468.5,2209.6Zm2.614,11.711c0,.951.649,1.664,2.96,1.664a25.252,25.252,0,0,0,4.494-.433l-.108,2.744a30.965,30.965,0,0,1-4.407.324c-3.63,0-5.6-1.253-5.6-3.435a14.693,14.693,0,0,1,.368-2.9l2.593.239A7.574,7.574,0,0,0,1471.111,2221.309Zm3.285-7.433c1.231,0,2.528.065,3.8.194l-.065,2.593a31.525,31.525,0,0,0-3.716-.28,32.292,32.292,0,0,0-4.17.237v-2.528A41.339,41.339,0,0,1,1474.4,2213.876Zm3.2-2.744-1.729.757a24.1,24.1,0,0,0-1.684-3l1.707-.713A29.839,29.839,0,0,1,1477.593,2211.132Zm2.593-.993-1.707.734a22.877,22.877,0,0,0-1.75-2.981l1.707-.692A23.8,23.8,0,0,1,1480.186,2210.139Z" fill="#003562"/>
      <path id="パス_4937" data-name="パス 4937" d="M1491.871,2210.463c-1.4,1.123-4.257,3.327-5.7,4.558-1.146,1-1.124,1.232.043,2.248,1.62,1.361,5.726,4.6,7.93,6.741l-2.529,2.311c-.6-.67-1.231-1.361-1.879-2.008-1.318-1.362-4.494-4.063-6.461-5.749-2.16-1.835-1.987-2.981.173-4.795,1.707-1.383,4.667-3.782,6.115-5.186a15.022,15.022,0,0,0,1.664-1.837l2.528,2.226C1493.081,2209.49,1492.368,2210.052,1491.871,2210.463Z" fill="#003562"/>
      <path id="パス_4938" data-name="パス 4938" d="M1500.595,2220.186c0,1.382,1.317,2.377,4.428,2.377a29.62,29.62,0,0,0,7.584-.866l.022,3.047a33.273,33.273,0,0,1-7.5.735c-4.948,0-7.433-1.664-7.433-4.624a13.968,13.968,0,0,1,.432-3.111l2.831.259A7.965,7.965,0,0,0,1500.595,2220.186Zm4.428-11.084c2.14,0,4.6-.13,6.266-.3v2.873c-1.512.13-4.191.26-6.244.26-2.269,0-4.149-.086-5.9-.238v-2.852A56.683,56.683,0,0,0,1505.023,2209.1Z" fill="#003562"/>
      <path id="パス_4939" data-name="パス 4939" d="M1522.715,2213.314c1.771-1.037,3.651-1.965,4.667-2.549a13.567,13.567,0,0,0,2.009-1.318l1.491,2.506c-.649.389-1.34.756-2.139,1.167a64.073,64.073,0,0,0-6.028,3.2c-1.793,1.189-3,2.42-3,3.933,0,1.556,1.491,2.377,4.494,2.377a33.31,33.31,0,0,0,7.066-.8l-.043,3.111a40.039,40.039,0,0,1-6.936.541c-4.3,0-7.563-1.188-7.563-4.905,0-2.377,1.513-4.17,3.587-5.7-.994-1.837-2.031-4.148-3-6.438l2.7-1.1A51.386,51.386,0,0,0,1522.715,2213.314Z" fill="#003562"/>
      <path id="パス_4940" data-name="パス 4940" d="M1534.161,2209.62c1.815-.151,5.38-.475,9.334-.8,2.226-.194,4.58-.324,6.114-.388l.022,2.765a22.469,22.469,0,0,0-4.17.3,6.566,6.566,0,0,0-4.58,6.049c0,3.565,3.327,4.84,7,5.035l-1.016,2.96c-4.537-.3-8.815-2.723-8.815-7.411a8.647,8.647,0,0,1,3.22-6.677c-2.032.216-6.439.691-8.946,1.232l-.28-2.96C1532.908,2209.706,1533.75,2209.663,1534.161,2209.62Zm14.109,6.633-1.642.734a16.669,16.669,0,0,0-1.686-3l1.6-.67A26.759,26.759,0,0,1,1548.27,2216.253Zm2.506-1.059-1.62.778a19.157,19.157,0,0,0-1.772-2.917l1.577-.735A32.39,32.39,0,0,1,1550.776,2215.194Z" fill="#003562"/>
    </g>
    <g id="グループ_573" data-name="グループ 573">
      <path id="パス_4941" data-name="パス 4941" d="M1291.3,2340.794c1.053,1.809,2.942,2.564,5.7,2.673,3.238.135,9.609.054,13.334-.243a14.624,14.624,0,0,0-1,3.13c-3.347.163-9.069.216-12.362.082-3.212-.135-5.372-.918-6.991-3-1.081,1.053-2.187,2.079-3.564,3.24l-1.511-3.186a32.319,32.319,0,0,0,3.347-2.483v-5.884h-3.023v-2.942h6.073Zm-1.916-12.093a21.057,21.057,0,0,0-4.049-4.48l2.456-1.836a23.489,23.489,0,0,1,4.238,4.292Zm2.375,0h18.058v2.214h-18.058Zm7.18,14.279v-3.67a25.482,25.482,0,0,1-5.209,2.888,14.533,14.533,0,0,0-1.836-2.348,20.546,20.546,0,0,0,6.128-3.131h-4.13v-4.967h13.874v4.292l1.62,1.106c-1.108.756-2.241,1.512-3.267,2.132a19.218,19.218,0,0,0,3.726,1,9.809,9.809,0,0,0-1.755,2.4,15.292,15.292,0,0,1-6.1-2.915v3.211Zm9.664-15.116h-15.495v-5.452H1308.6Zm-11.149-3.643h-1.646v1.862h1.646Zm-.594,10.716h7.721v-1.4h-7.721Zm4.751-10.716h-1.727v1.862h1.727Zm.54,12.5a9.221,9.221,0,0,0,1.836,1.484,22.368,22.368,0,0,0,1.944-1.484Zm3.59-12.5h-1.727v1.862h1.727Z" fill="#003562"/>
      <path id="パス_4942" data-name="パス 4942" d="M1333.037,2343.467c.891,0,1.053-.7,1.188-4.589a9.017,9.017,0,0,0,2.969,1.35c-.324,4.832-1.133,6.235-3.886,6.235h-3.24c-3.05,0-3.833-1.026-3.833-4.184v-8.259h-4.048c-.487,5.614-1.728,10.229-8.179,12.847a9.292,9.292,0,0,0-2-2.618c5.614-2.1,6.37-5.749,6.694-10.229h-6.1v-3.132h24.078v3.132h-7.126v8.259c0,1.026.161,1.188,1.052,1.188Zm1.161-16.763h-19.165v-3.1H1334.2Z" fill="#003562"/>
      <path id="パス_4943" data-name="パス 4943" d="M1346.973,2323.249l3.806-.621c.081.54.162,1.458.3,2.1.054.378.216,1.269.432,2.484,2.294-.378,4.346-.7,5.317-.891.864-.162,1.89-.378,2.537-.567l.649,3.536c-.594.055-1.674.217-2.484.324-1.106.19-3.158.513-5.4.864.269,1.35.54,2.834.837,4.319,2.429-.406,4.642-.782,5.857-1.026,1.053-.215,2.051-.431,2.753-.648l.729,3.563c-.729.054-1.835.244-2.862.406-1.3.216-3.481.566-5.857.944.433,2.214.81,4.022.972,4.858.189.811.459,1.783.7,2.646l-3.887.7c-.135-1-.216-1.943-.378-2.726-.135-.784-.486-2.646-.918-4.914-2.753.459-5.291.892-6.451,1.108s-2.078.4-2.7.566l-.756-3.617c.728-.026,1.943-.188,2.808-.3,1.241-.162,3.751-.566,6.477-1-.269-1.458-.566-2.97-.81-4.347-2.375.378-4.454.73-5.29.865-.864.188-1.566.324-2.483.566l-.729-3.724c.864-.028,1.673-.082,2.51-.19.945-.107,3.024-.4,5.345-.782-.216-1.134-.405-2.025-.486-2.456C1347.351,2324.518,1347.162,2323.9,1346.973,2323.249Z" fill="#003562"/>
      <path id="パス_4944" data-name="パス 4944" d="M1372.271,2329.484c.19.648.433,1.566.73,2.619,3.428-.648,7.207-1.377,8.26-1.62a5.133,5.133,0,0,0,1.376-.432l2.16,1.539a42.48,42.48,0,0,1-5.75,8.448l-2.969-1.484a23.931,23.931,0,0,0,3.995-4.859c-.648.108-3.347.675-6.262,1.269,1.025,3.724,2.186,7.882,2.591,9.285.161.459.513,1.674.729,2.214l-3.671.918a15.566,15.566,0,0,0-.486-2.376c-.405-1.457-1.512-5.668-2.484-9.339-2.267.485-4.237.891-5.048,1.079l-.836-3.239c.864-.081,1.592-.161,2.484-.323.377-.055,1.349-.216,2.591-.459-.27-1.053-.513-1.917-.7-2.511a9.442,9.442,0,0,0-.756-1.916l3.617-.864C1371.948,2328.054,1372.11,2328.782,1372.271,2329.484Z" fill="#003562"/>
      <path id="パス_4945" data-name="パス 4945" d="M1398.138,2338.5a25.427,25.427,0,0,0,9.825-10.5l2.1,3.806a28.7,28.7,0,0,1-9.987,9.987,29.262,29.262,0,0,1-10.015,3.806l-2.267-3.563A27.836,27.836,0,0,0,1398.138,2338.5Zm0-8.719-2.754,2.808a56.172,56.172,0,0,0-6.748-5.831l2.537-2.7A54.485,54.485,0,0,1,1398.138,2329.781Z" fill="#003562"/>
      <path id="パス_4946" data-name="パス 4946" d="M1413.45,2334.829c1.214-1.242,3.32-3.888,5.183-6.1,1.592-1.89,3.184-2.187,5.29-.216,1.808,1.7,3.887,3.859,5.507,5.614,1.808,1.917,4.561,4.913,6.639,7.126l-2.968,3.185c-1.809-2.24-4.1-5.02-5.7-6.883-1.565-1.863-3.967-4.481-4.939-5.48-.864-.863-1.431-.809-2.214.162-1.053,1.35-2.969,4.023-4.049,5.48-.621.864-1.268,1.808-1.755,2.511l-3.239-3.348A30.162,30.162,0,0,0,1413.45,2334.829Zm18.031-10.284a3.5,3.5,0,1,1,0,6.991,3.5,3.5,0,0,1,0-6.991Zm0,5.209a1.717,1.717,0,0,0,1.728-1.7,1.74,1.74,0,0,0-1.728-1.728,1.717,1.717,0,0,0-1.7,1.728A1.694,1.694,0,0,0,1431.481,2329.754Z" fill="#003562"/>
      <path id="パス_4947" data-name="パス 4947" d="M1443.554,2332.237h14.495c1.268,0,2.456-.107,3.158-.162v4.238c-.647-.027-2.024-.134-3.158-.134h-14.495c-1.538,0-3.347.053-4.346.134v-4.238C1440.18,2332.156,1442.15,2332.237,1443.554,2332.237Z" fill="#003562"/>
      <path id="パス_4948" data-name="パス 4948" d="M1474.144,2338.5a25.428,25.428,0,0,0,9.825-10.5l2.1,3.806a28.709,28.709,0,0,1-9.987,9.987,29.261,29.261,0,0,1-10.015,3.806l-2.267-3.563A27.844,27.844,0,0,0,1474.144,2338.5Zm0-8.719-2.754,2.808a56.162,56.162,0,0,0-6.748-5.831l2.537-2.7A54.562,54.562,0,0,1,1474.144,2329.781Z" fill="#003562"/>
      <path id="パス_4949" data-name="パス 4949" d="M1503.086,2340.309c1.917,2.159,4.939,3.4,9.2,3.859a12.492,12.492,0,0,0-1.89,2.808c-5.129-.81-8.34-2.727-10.473-6.074-1.593,2.4-4.589,4.535-10.095,6.02a13.1,13.1,0,0,0-2-2.592c4.535-1.025,7.126-2.429,8.61-4.021h-8.124v-2.781h9.691a12.342,12.342,0,0,0,.269-1.7h-6.91v-2.591h6.938v-1.62h-7.37v-1.781h-2.4v-5.749h9.853v-2.349h3.293v2.349h9.879v5.749h-2.16v1.781h-7.881v1.62h7.341v2.591h-7.369a9.074,9.074,0,0,1-.216,1.7h10.662v2.781Zm-4.777-11.284v-1.539h3.212v1.539h6.72v-2.132h-16.519v2.132Z" fill="#003562"/>
      <path id="パス_4950" data-name="パス 4950" d="M1535.755,2344.168c1.053,0,1.268-.458,1.431-2.834a8.792,8.792,0,0,0,2.59,1.106c-.35,3.374-1.161,4.4-3.779,4.4h-4.724c-3.184,0-4.048-.864-4.048-3.942v-5.182l-1.107.512-1.106-2.618c-.109,6.614-.3,9.2-.918,10.069a2.424,2.424,0,0,1-1.728,1.107,14.193,14.193,0,0,1-2.78.135,7.531,7.531,0,0,0-.783-2.861,15.225,15.225,0,0,0,1.943.107.784.784,0,0,0,.783-.432c.351-.54.513-2.806.621-9.15h-2.1c-.378,4.858-1.242,9.231-3.482,12.309a9.539,9.539,0,0,0-2.294-2.241c2.671-3.7,2.915-9.636,3-15.872h-2.592v-2.969h4.13v-4.076h3.077v4.076h4.211v2.025a19.468,19.468,0,0,0,2.4-6.128l3.158.594c-.215.945-.512,1.889-.809,2.807h8.475v2.915h-9.69a17.607,17.607,0,0,1-1.538,2.619h1.97v2.591l1.458-.674V2328.7h2.671v2.618l1.945-.89.107-.081.487-.351,2,.7-.109.432c-.026,3.833-.026,6.586-.107,7.395a1.894,1.894,0,0,1-1.161,1.864,6.19,6.19,0,0,1-2.241.3,7.279,7.279,0,0,0-.566-2.349c.323.027.7.027.918.027s.351-.054.378-.405c.054-.243.054-1.728.08-4.292l-1.728.81v7.531h-2.671v-6.289l-1.458.675v6.5c0,1.108.189,1.269,1.539,1.269Zm-8.53-9.609v-2.807l-.244.269a17.5,17.5,0,0,0-2.4-2.267,9.93,9.93,0,0,0,.864-.972h-5.155c-.027.972-.055,1.944-.081,2.889h4.858v1.215l-.053,2.7Z" fill="#003562"/>
      <path id="パス_4951" data-name="パス 4951" d="M1565.184,2326.38v13.47h-3.374v-1.35h-6.1v8.422h-3.4V2338.5h-6.074v1.484H1543v-13.6h9.313v-4.67h3.4v4.67Zm-12.875,8.962v-5.8h-6.074v5.8Zm9.5,0v-5.8h-6.1v5.8Z" fill="#003562"/>
    </g>
    <g id="グループ_574" data-name="グループ 574">
      <path id="パス_4952" data-name="パス 4952" d="M1287.719,2254.819a16.091,16.091,0,0,1-3.4,6.343,15.1,15.1,0,0,0,4.751,2,13.294,13.294,0,0,0-1.889,2.51,15.106,15.106,0,0,1-5.021-2.51,17.59,17.59,0,0,1-4.589,2.51,11.894,11.894,0,0,0-1.43-2.159v2.186h-3.077v-2.186c-3.1.3-6.181.566-8.557.782l-.243-2.753c.7-.054,1.511-.081,2.348-.162v-8.206h-2.1v-2.537h24v2.537h-12.363v9.88a13.853,13.853,0,0,0,3.833-1.944,16.493,16.493,0,0,1-2.456-3.995l1.781-.486h-2.484v-2.456h8.4l.539-.108Zm-2.322-5.182h-17.734v-8.287H1285.4Zm-15.844,3.535v1.08h3.509v-1.08Zm0,4.454h3.509v-1.134h-3.509Zm0,3.536c1.134-.081,2.321-.162,3.509-.269v-1.053h-3.509Zm12.633-17.761H1270.74v1.107h11.446Zm0,3.05H1270.74v1.134h11.446Zm-1.971,10.176a10.434,10.434,0,0,0,1.808,2.645,11.254,11.254,0,0,0,1.836-2.645Z" fill="#fff"/>
      <path id="パス_4953" data-name="パス 4953" d="M1279,2280.74c1.782,5.264,5.048,9.5,10.1,11.553a12.921,12.921,0,0,0-2.376,3.023c-4.885-2.295-8.017-6.235-10.122-11.445a18.578,18.578,0,0,1-10.095,11.472,9.535,9.535,0,0,0-2.4-2.726,16.182,16.182,0,0,0,9.8-11.877h-9.285v-3.32h9.825c.27-2.537.244-4.993.27-7.207h3.51c-.028,2.214-.055,4.7-.324,7.207H1288.5v3.32Z" fill="#fff"/>
    </g>
    <g id="グループ_575" data-name="グループ 575">
      <path id="パス_4954" data-name="パス 4954" d="M1578.533,2296.383c0,1.755-.378,2.645-1.512,3.158-1.079.54-2.7.594-5.1.594a13.11,13.11,0,0,0-1.16-3.212c1.538.107,3.293.081,3.833.081.512-.027.7-.19.7-.649v-6.532h-16.3v10.312h-3.238v-23.484h22.781Zm-19.543-9.744h6.371v-6.8h-6.371Zm16.3,0v-6.8h-6.748v6.8Z" fill="#003562"/>
      <path id="パス_4955" data-name="パス 4955" d="M1592.313,2298.829l-1.62-2.571a16.709,16.709,0,0,0,2.01-.346c2.766-.648,4.926-2.636,4.926-5.79,0-2.982-1.62-5.208-4.537-5.705a43.689,43.689,0,0,1-1.3,5.855c-1.3,4.366-3.154,7.044-5.51,7.044-2.4,0-4.386-2.635-4.386-6.287,0-4.991,4.322-9.248,9.917-9.248,5.359,0,8.73,3.717,8.73,8.427C1600.546,2294.767,1597.759,2297.986,1592.313,2298.829Zm-5.941-4.84c.907,0,1.75-1.361,2.636-4.278a32.47,32.47,0,0,0,1.145-5.229,6.8,6.8,0,0,0-5.488,6.266C1584.665,2292.931,1585.529,2293.989,1586.372,2293.989Z" fill="#003562"/>
    </g>
  </g>
</svg>
