<svg xmlns="http://www.w3.org/2000/svg" width="375" height="74" viewBox="0 0 375 74">
  <g id="グループ_538" data-name="グループ 538" transform="translate(-1258.32 -535.022)">
    <rect id="長方形_167" data-name="長方形 167" width="375" height="74" transform="translate(1258.32 535.022)" fill="#fff52a"/>
    <rect id="長方形_168" data-name="長方形 168" width="83.67" height="18.074" rx="9.037" transform="translate(1538.016 578.942)" fill="#fff" stroke="#003562" stroke-width="2"/>
    <rect id="長方形_169" data-name="長方形 169" width="372" height="71" transform="translate(1259.82 536.522)" fill="none" stroke="#003562" stroke-width="3"/>
    <g id="グループ_526" data-name="グループ 526" style="isolation: isolate">
      <path id="パス_4708" data-name="パス 4708" d="M1548.646,584.616h1.5l.589,3.618c.11.78.231,1.56.34,2.359h.04c.15-.8.31-1.589.47-2.359l.859-3.618h1.27l.85,3.618c.16.76.309,1.56.468,2.359h.051c.109-.8.22-1.589.33-2.359l.59-3.618h1.4l-1.369,7.406h-1.839l-.829-3.658c-.12-.579-.23-1.149-.32-1.718H1553c-.1.569-.2,1.139-.319,1.718l-.811,3.658h-1.809Z" fill="#003562"/>
      <path id="パス_4709" data-name="パス 4709" d="M1558.814,584.616h4.538v1.239h-3.058v1.709h2.6V588.8h-2.6v1.978h3.169v1.239h-4.649Z" fill="#003562"/>
      <path id="パス_4710" data-name="パス 4710" d="M1565.266,584.616h2.448c1.518,0,2.679.45,2.679,1.829a1.68,1.68,0,0,1-1.01,1.6v.05a1.68,1.68,0,0,1,1.388,1.749c0,1.489-1.238,2.178-2.868,2.178h-2.637Zm2.338,3.019c.939,0,1.349-.38,1.349-.97,0-.649-.439-.909-1.33-.909h-.879v1.879Zm.169,3.248c1.01,0,1.559-.36,1.559-1.129,0-.72-.539-1.029-1.559-1.029h-1.029v2.158Z" fill="#003562"/>
      <path id="パス_4711" data-name="パス 4711" d="M1572.685,585.116c.839-.07,2.489-.22,4.317-.37,1.029-.09,2.119-.149,2.828-.18l.011,1.28a10.284,10.284,0,0,0-1.929.139,3.04,3.04,0,0,0-2.119,2.8c0,1.65,1.539,2.239,3.238,2.329l-.469,1.369c-2.1-.139-4.078-1.259-4.078-3.428a4,4,0,0,1,1.489-3.088c-.94.1-2.979.319-4.138.569l-.13-1.369C1572.1,585.156,1572.494,585.137,1572.685,585.116Zm6.526,3.069-.76.339a7.741,7.741,0,0,0-.779-1.389l.74-.31A12.5,12.5,0,0,1,1579.211,588.185Zm1.16-.49-.75.36a8.764,8.764,0,0,0-.82-1.35l.73-.34A15.326,15.326,0,0,1,1580.371,587.7Z" fill="#003562"/>
      <path id="パス_4712" data-name="パス 4712" d="M1589.891,584.887V590.8h-1.24v-.48h-2.218v2.559h-1.249v-2.559h-2.17v.531h-1.19v-5.967h3.36v-1.34h1.249v1.34Zm-6.877,1.138v1.01h2.17v-1.01Zm2.17,3.159v-1.059h-2.17v1.059Zm1.249-3.159v1.01h2.218v-1.01Zm2.218,3.159v-1.059h-2.218v1.059Z" fill="#003562"/>
      <path id="パス_4713" data-name="パス 4713" d="M1593.914,590.573a2.46,2.46,0,0,0,2.2.98c1.169.05,3.418.019,4.747-.08a6.289,6.289,0,0,0-.37,1.2c-1.2.06-3.208.08-4.4.03a3.324,3.324,0,0,1-2.7-1.109c-.44.389-.879.779-1.43,1.2l-.579-1.239a13.342,13.342,0,0,0,1.369-.92v-2.109h-1.15v-1.089h2.309Zm-.689-4.487a7.566,7.566,0,0,0-1.61-1.579l.88-.72a8,8,0,0,1,1.669,1.509Zm3.808.019c-.041-.329-.08-.668-.111-1.008h-1.738v-1.12h2.748c.15,2.829.75,5.237,2.828,6.277a5.277,5.277,0,0,0-.929.909,5.52,5.52,0,0,1-2.4-3.278,6.421,6.421,0,0,1-2.348,3.288,6.611,6.611,0,0,0-.92-.9,5.649,5.649,0,0,0,2.479-4.227Z" fill="#003562"/>
      <path id="パス_4714" data-name="パス 4714" d="M1604.4,584.507c.57,0,1.629-.05,2.1-.09a2.153,2.153,0,0,0,.68-.141l.8.62a2.408,2.408,0,0,0-.339.42,21.076,21.076,0,0,0-1,2.149,9.048,9.048,0,0,1,2.169.639c.009-.12.02-.229.03-.339a6.817,6.817,0,0,0,0-1.089l1.308.149a16.028,16.028,0,0,1-.189,1.849c.42.24.779.47,1.069.67l-.579,1.389a10.794,10.794,0,0,0-.86-.7,5,5,0,0,1-2.538,2.709l-1.06-.87a4.3,4.3,0,0,0,2.538-2.508,6.921,6.921,0,0,0-2.368-.809,19.668,19.668,0,0,1-1.13,2.4,1.74,1.74,0,0,1-1.558.88,1.5,1.5,0,0,1-1.539-1.619c0-1.55,1.409-2.729,3.418-2.819.279-.66.569-1.339.8-1.809-.4.02-1.258.05-1.718.08-.2.01-.549.04-.809.08l-.051-1.289C1603.844,584.486,1604.184,584.507,1604.4,584.507Zm-.88,6.016c.2,0,.34-.1.52-.349a11.09,11.09,0,0,0,.81-1.63c-1.12.17-1.75.85-1.75,1.479C1603.1,590.354,1603.3,590.523,1603.524,590.523Z" fill="#003562"/>
    </g>
    <rect id="長方形_48" data-name="長方形 48" width="19" height="32" transform="translate(1267.32 569.022)" fill="#003562"/>
    <g id="グループ_532" data-name="グループ 532" style="isolation: isolate">
      <g id="グループ_530" data-name="グループ 530">
        <g id="グループ_527" data-name="グループ 527">
          <path id="パス_4715" data-name="パス 4715" d="M1313.889,599.949H1290.87V588.666h5.724V579.5h-4.824v-9.676l2.849-.539a13.852,13.852,0,0,0,5-1.771l.845-.522h8.417v21.67h5Z" fill="#003562"/>
          <path id="パス_4716" data-name="パス 4716" d="M1323.6,600.453c-6.06,0-12.535-4.494-12.535-17.106,0-12.427,6.475-16.855,12.535-16.855,6.042,0,12.5,4.428,12.5,16.855C1336.1,595.959,1329.643,600.453,1323.6,600.453Zm-.009-22.179a18.208,18.208,0,0,0-.523,5.073,19.334,19.334,0,0,0,.519,5.156,19.789,19.789,0,0,0,.508-5.156A18.744,18.744,0,0,0,1323.592,578.274Z" fill="#003562"/>
          <path id="パス_4717" data-name="パス 4717" d="M1335.509,608.483l-3.6-9.291,3.326-1.236q.15-.055.288-.114a6.529,6.529,0,0,1-1.883-4.668,6.631,6.631,0,0,1,6.919-6.632c3.375,0,7.316,2.283,7.316,8.72,0,5.72-3.441,10.272-9.205,12.177Z" fill="#003562"/>
          <path id="パス_4718" data-name="パス 4718" d="M1357.225,600.453c-6.06,0-12.536-4.494-12.536-17.106,0-12.427,6.476-16.855,12.536-16.855,6.042,0,12.5,4.428,12.5,16.855C1369.723,595.959,1363.267,600.453,1357.225,600.453Zm-.009-22.179a18.214,18.214,0,0,0-.523,5.073,19.291,19.291,0,0,0,.519,5.156,19.789,19.789,0,0,0,.508-5.156A18.731,18.731,0,0,0,1357.216,578.274Z" fill="#003562"/>
          <path id="パス_4719" data-name="パス 4719" d="M1378.788,600.453c-6.059,0-12.534-4.494-12.534-17.106,0-12.427,6.475-16.855,12.534-16.855,6.042,0,12.5,4.428,12.5,16.855C1391.287,595.959,1384.83,600.453,1378.788,600.453Zm-.009-22.179a18.221,18.221,0,0,0-.522,5.073,19.348,19.348,0,0,0,.518,5.156,19.744,19.744,0,0,0,.508-5.156A18.7,18.7,0,0,0,1378.779,578.274Z" fill="#003562"/>
          <path id="パス_4720" data-name="パス 4720" d="M1400.352,600.453c-6.06,0-12.536-4.494-12.536-17.106,0-12.427,6.476-16.855,12.536-16.855,6.042,0,12.5,4.428,12.5,16.855C1412.851,595.959,1406.394,600.453,1400.352,600.453Zm-.009-22.181a18.272,18.272,0,0,0-.523,5.075,19.353,19.353,0,0,0,.519,5.158,19.735,19.735,0,0,0,.509-5.158A18.688,18.688,0,0,0,1400.343,578.272Z" fill="#003562"/>
        </g>
        <g id="グループ_528" data-name="グループ 528">
          <path id="パス_4721" data-name="パス 4721" d="M1311.889,597.949H1292.87v-7.283h5.724V577.5h-4.824v-6.019l1.221-.23a15.894,15.894,0,0,0,5.682-2.035l.362-.224h5.85v21.67h5Z" fill="#fff"/>
          <path id="パス_4722" data-name="パス 4722" d="M1323.6,598.453c-6.6,0-10.535-5.647-10.535-15.106,0-9.3,3.939-14.855,10.535-14.855,6.574,0,10.5,5.553,10.5,14.855C1334.1,592.806,1330.175,598.453,1323.6,598.453Zm0-22.821c-1.68,0-2.532,2.6-2.532,7.715,0,2.975.329,7.966,2.532,7.966,2.17,0,2.495-4.991,2.495-7.966C1326.1,578.228,1325.256,575.632,1323.6,575.632Z" fill="#fff"/>
          <path id="パス_4723" data-name="パス 4723" d="M1336.687,605.988l-2.182-5.628,1.426-.53a5.545,5.545,0,0,0,3.012-2.238,4.53,4.53,0,0,1-3.305-4.418,4.676,4.676,0,0,1,4.919-4.632c2.57,0,5.316,1.766,5.316,6.72,0,4.886-2.855,8.634-7.833,10.278Z" fill="#fff"/>
          <path id="パス_4724" data-name="パス 4724" d="M1357.225,598.453c-6.6,0-10.536-5.647-10.536-15.106,0-9.3,3.939-14.855,10.536-14.855,6.573,0,10.5,5.553,10.5,14.855C1367.723,592.806,1363.8,598.453,1357.225,598.453Zm0-22.821c-1.68,0-2.532,2.6-2.532,7.715,0,2.975.329,7.966,2.532,7.966,2.171,0,2.495-4.991,2.495-7.966C1359.72,578.228,1358.88,575.632,1357.225,575.632Z" fill="#fff"/>
          <path id="パス_4725" data-name="パス 4725" d="M1378.788,598.453c-6.6,0-10.534-5.647-10.534-15.106,0-9.3,3.938-14.855,10.534-14.855,6.574,0,10.5,5.553,10.5,14.855C1389.287,592.806,1385.362,598.453,1378.788,598.453Zm0-22.821c-1.68,0-2.531,2.6-2.531,7.715,0,2.975.329,7.966,2.531,7.966,2.171,0,2.495-4.991,2.495-7.966C1381.283,578.228,1380.443,575.632,1378.788,575.632Z" fill="#fff"/>
          <path id="パス_4726" data-name="パス 4726" d="M1400.352,598.453c-6.6,0-10.536-5.647-10.536-15.106,0-9.3,3.939-14.855,10.536-14.855,6.574,0,10.5,5.553,10.5,14.855C1410.851,592.806,1406.926,598.453,1400.352,598.453Zm0-22.821c-1.68,0-2.532,2.6-2.532,7.715,0,2.975.329,7.966,2.532,7.966,2.171,0,2.5-4.991,2.5-7.966C1402.848,578.228,1402.008,575.632,1400.352,575.632Z" fill="#fff"/>
        </g>
        <g id="グループ_529" data-name="グループ 529">
          <path id="パス_4727" data-name="パス 4727" d="M1294.37,592.166h5.724V576h-4.824v-3.275a17.268,17.268,0,0,0,6.191-2.233h3.924v21.67h5v4.283H1294.37Z" fill="#d11339"/>
          <path id="パス_4728" data-name="パス 4728" d="M1314.566,583.347c0-8.783,3.563-13.355,9.035-13.355s9,4.608,9,13.355c0,8.819-3.528,13.606-9,13.606S1314.566,592.166,1314.566,583.347Zm13.03,0c0-7.2-1.692-9.215-3.995-9.215s-4.032,2.015-4.032,9.215c0,7.235,1.728,9.466,4.032,9.466S1327.6,590.582,1327.6,583.347Z" fill="#d11339"/>
          <path id="パス_4729" data-name="パス 4729" d="M1336.453,601.236c2.809-1.044,4.356-2.915,4.32-4.93h-.324a3.108,3.108,0,0,1-3.311-3.132,3.184,3.184,0,0,1,3.419-3.132c2.448,0,3.816,1.943,3.816,5.22,0,4.211-2.448,7.415-6.8,8.854Z" fill="#d11339"/>
          <path id="パス_4730" data-name="パス 4730" d="M1348.189,583.347c0-8.783,3.564-13.355,9.036-13.355s9,4.608,9,13.355c0,8.819-3.528,13.606-9,13.606S1348.189,592.166,1348.189,583.347Zm13.031,0c0-7.2-1.693-9.215-3.995-9.215s-4.032,2.015-4.032,9.215c0,7.235,1.727,9.466,4.032,9.466S1361.22,590.582,1361.22,583.347Z" fill="#d11339"/>
          <path id="パス_4731" data-name="パス 4731" d="M1369.754,583.347c0-8.783,3.562-13.355,9.034-13.355s9,4.608,9,13.355c0,8.819-3.527,13.606-9,13.606S1369.754,592.166,1369.754,583.347Zm13.029,0c0-7.2-1.691-9.215-3.995-9.215s-4.031,2.015-4.031,9.215c0,7.235,1.727,9.466,4.031,9.466S1382.783,590.582,1382.783,583.347Z" fill="#d11339"/>
          <path id="パス_4732" data-name="パス 4732" d="M1391.316,583.347c0-8.783,3.565-13.355,9.036-13.355s9,4.608,9,13.355c0,8.819-3.529,13.606-9,13.606S1391.316,592.166,1391.316,583.347Zm13.032,0c0-7.2-1.693-9.215-4-9.215s-4.032,2.015-4.032,9.215c0,7.235,1.728,9.466,4.032,9.466S1404.348,590.582,1404.348,583.347Z" fill="#d11339"/>
        </g>
      </g>
      <g id="グループ_531" data-name="グループ 531">
        <path id="パス_4733" data-name="パス 4733" d="M1429.67,595.495c0,1.17-.252,1.765-1.008,2.107a8.325,8.325,0,0,1-3.4.4,8.706,8.706,0,0,0-.775-2.143c1.027.072,2.2.054,2.557.054.342-.018.468-.126.468-.432v-4.358h-10.875V598h-2.16V582.333h15.2Zm-13.036-6.5h4.249v-4.537h-4.249Zm10.875,0v-4.537h-4.5v4.537Z" fill="#003562"/>
        <path id="パス_4734" data-name="パス 4734" d="M1436.687,593.929c.7,1.206,1.962,1.71,3.8,1.782,2.16.09,6.41.036,8.894-.162a9.81,9.81,0,0,0-.666,2.089c-2.232.108-6.05.143-8.246.053-2.143-.089-3.584-.612-4.664-2-.72.7-1.459,1.386-2.377,2.161l-1.007-2.125a21.662,21.662,0,0,0,2.232-1.657v-3.925h-2.017v-1.962h4.052Zm-1.279-8.067a14.012,14.012,0,0,0-2.7-2.989l1.638-1.225a15.623,15.623,0,0,1,2.827,2.864Zm1.585,0h12.046v1.477h-12.046Zm4.789,9.525v-2.449a16.942,16.942,0,0,1-3.476,1.927,9.674,9.674,0,0,0-1.223-1.567,13.676,13.676,0,0,0,4.087-2.088h-2.754V587.9h9.254v2.864l1.08.738c-.739.5-1.495,1.008-2.178,1.422a12.839,12.839,0,0,0,2.484.666,6.574,6.574,0,0,0-1.17,1.6,10.169,10.169,0,0,1-4.07-1.944v2.143Zm6.446-10.083h-10.336v-3.637h10.336Zm-7.436-2.431h-1.1v1.242h1.1Zm-.4,7.148h5.149v-.936H1440.4Zm3.168-7.148h-1.152v1.242h1.152Zm.361,8.337a6.166,6.166,0,0,0,1.224.99,14.846,14.846,0,0,0,1.3-.99Zm2.395-8.337h-1.152v1.242h1.152Z" fill="#003562"/>
        <path id="パス_4735" data-name="パス 4735" d="M1465.418,595.711c.593,0,.7-.468.792-3.061a6,6,0,0,0,1.98.9c-.216,3.222-.757,4.159-2.593,4.159h-2.16c-2.035,0-2.557-.685-2.557-2.791v-5.51h-2.7c-.324,3.745-1.152,6.824-5.455,8.57a6.2,6.2,0,0,0-1.333-1.746c3.745-1.4,4.249-3.835,4.466-6.824h-4.07V587.32h16.061v2.089h-4.753v5.51c0,.684.108.792.7.792Zm.773-11.182h-12.783v-2.07h12.783Z" fill="#003562"/>
        <path id="パス_4736" data-name="パス 4736" d="M1480.716,593.6c1.28,1.441,3.3,2.269,6.141,2.575a8.335,8.335,0,0,0-1.261,1.873c-3.421-.54-5.563-1.819-6.986-4.052-1.062,1.6-3.062,3.025-6.733,4.016a8.782,8.782,0,0,0-1.333-1.729c3.024-.684,4.752-1.62,5.743-2.683h-5.419V591.75h6.464a8.267,8.267,0,0,0,.179-1.135H1472.9v-1.728h4.628v-1.08h-4.915v-1.189h-1.6v-3.835h6.573v-1.566h2.2v1.566h6.59v3.835h-1.442v1.189h-5.257v1.08h4.9v1.728h-4.916a6.13,6.13,0,0,1-.144,1.135h7.113V593.6Zm-3.186-7.526v-1.026h2.142v1.026h4.484v-1.423h-11.02v1.423Z" fill="#003562"/>
        <path id="パス_4737" data-name="パス 4737" d="M1503.4,596.179c.7,0,.846-.306.954-1.89a5.9,5.9,0,0,0,1.729.737c-.235,2.251-.775,2.936-2.521,2.936h-3.151c-2.124,0-2.7-.576-2.7-2.629v-3.457l-.739.342-.738-1.746c-.072,4.411-.2,6.139-.613,6.716a1.615,1.615,0,0,1-1.153.738,9.471,9.471,0,0,1-1.853.09,5.031,5.031,0,0,0-.523-1.909,10.051,10.051,0,0,0,1.3.072.524.524,0,0,0,.523-.288c.233-.36.343-1.872.414-6.1h-1.4c-.252,3.241-.829,6.158-2.324,8.211a6.334,6.334,0,0,0-1.529-1.495c1.781-2.467,1.943-6.428,2-10.587h-1.728v-1.98h2.754v-2.719h2.052v2.719h2.81v1.35a13.015,13.015,0,0,0,1.6-4.088l2.107.4c-.144.63-.342,1.26-.54,1.873h5.654v1.944h-6.465a11.761,11.761,0,0,1-1.025,1.746h1.314v1.729l.972-.45v-2.575h1.782v1.746l1.3-.593.072-.055.324-.233,1.333.467-.073.288c-.017,2.557-.017,4.394-.072,4.934a1.261,1.261,0,0,1-.773,1.242,4.105,4.105,0,0,1-1.5.2,4.907,4.907,0,0,0-.377-1.566c.215.018.468.018.612.018s.233-.037.252-.27c.036-.162.036-1.152.053-2.863l-1.152.54v5.023h-1.782v-4.195l-.972.45v4.34c0,.738.125.846,1.026.846Zm-5.689-6.409V587.9l-.163.181a11.692,11.692,0,0,0-1.6-1.513,6.589,6.589,0,0,0,.576-.648h-3.438c-.019.648-.036,1.3-.054,1.927h3.24v.81l-.035,1.8Z" fill="#003562"/>
        <path id="パス_4738" data-name="パス 4738" d="M1523.918,584.313V593.3h-2.25v-.9h-4.07v5.618h-2.268V592.4h-4.051v.991h-2.161v-9.076h6.212V581.2h2.268v3.115Zm-8.588,5.978V586.42h-4.051v3.871Zm6.338,0V586.42h-4.07v3.871Z" fill="#003562"/>
        <path id="パス_4739" data-name="パス 4739" d="M1528.089,594.973a1.649,1.649,0,1,1,3.3,0,1.649,1.649,0,1,1-3.3,0Zm.4-9.705-.09-2.5h2.664l-.09,2.5-.378,6.644h-1.728Z" fill="#003562"/>
      </g>
    </g>
    <g id="グループ_533" data-name="グループ 533" style="isolation: isolate">
      <path id="パス_4740" data-name="パス 4740" d="M1282.164,579.628a7.138,7.138,0,0,1-1.512,2.818,6.685,6.685,0,0,0,2.112.888,5.825,5.825,0,0,0-.84,1.115,6.706,6.706,0,0,1-2.231-1.115,7.8,7.8,0,0,1-2.039,1.115,5.351,5.351,0,0,0-.636-.959v.971h-1.368v-.971c-1.379.132-2.746.252-3.8.348l-.109-1.224c.312-.023.671-.036,1.044-.072V578.9h-.935V577.77h10.662V578.9h-5.494v4.39a6.164,6.164,0,0,0,1.7-.863,7.344,7.344,0,0,1-1.091-1.776l.792-.215h-1.1V579.34h3.73l.24-.048Zm-1.032-2.3h-7.88v-3.681h7.88Zm-7.04,1.571v.48h1.558v-.48Zm0,1.979h1.558v-.5h-1.558Zm0,1.571c.5-.036,1.031-.071,1.558-.12v-.468h-1.558Zm5.613-7.891h-5.086v.492h5.086Zm0,1.355h-5.086v.5h5.086Zm-.876,4.522a4.656,4.656,0,0,0,.8,1.175,5.035,5.035,0,0,0,.815-1.175Z" fill="#fff52a"/>
    </g>
    <g id="グループ_534" data-name="グループ 534" style="isolation: isolate">
      <path id="パス_4741" data-name="パス 4741" d="M1278.289,590.949a8,8,0,0,0,4.486,5.133,5.716,5.716,0,0,0-1.055,1.344,8.945,8.945,0,0,1-4.5-5.086,8.263,8.263,0,0,1-4.487,5.1,4.191,4.191,0,0,0-1.067-1.211,7.191,7.191,0,0,0,4.354-5.278H1271.9v-1.475h4.367c.12-1.127.108-2.219.12-3.2h1.558c-.011.984-.023,2.087-.143,3.2h4.714v1.475Z" fill="#fff52a"/>
    </g>
    <rect id="長方形_162" data-name="長方形 162" width="263" height="24" transform="translate(1308.32 542.522)" fill="#003562"/>
    <g id="グループ_535" data-name="グループ 535" style="isolation: isolate">
      <path id="パス_4742" data-name="パス 4742" d="M1320.48,545.8l2.821-.46c.06.4.12,1.08.22,1.56.04.281.16.941.32,1.841,1.7-.28,3.221-.52,3.94-.66.641-.12,1.4-.28,1.881-.421l.481,2.621c-.441.04-1.241.16-1.841.241-.821.139-2.341.379-4,.639.2,1,.4,2.1.62,3.2,1.8-.3,3.44-.58,4.341-.76.78-.161,1.52-.321,2.041-.48l.539,2.641c-.539.04-1.36.179-2.119.3-.961.16-2.581.419-4.342.7.32,1.639.6,2.98.721,3.6.139.6.339,1.321.519,1.96l-2.881.521c-.1-.74-.16-1.441-.279-2.021-.1-.58-.36-1.96-.68-3.64-2.041.339-3.922.66-4.781.82s-1.541.3-2,.42l-.56-2.681c.54-.019,1.44-.139,2.081-.22.919-.12,2.781-.419,4.8-.74-.2-1.08-.42-2.2-.6-3.22-1.761.28-3.3.54-3.922.639-.64.141-1.16.24-1.84.421l-.54-2.761c.64-.02,1.24-.06,1.86-.14.7-.08,2.241-.3,3.961-.58-.16-.84-.3-1.5-.359-1.821C1320.76,546.739,1320.62,546.279,1320.48,545.8Z" fill="#fff52a"/>
      <path id="パス_4743" data-name="パス 4743" d="M1339.221,550.42c.14.48.32,1.16.54,1.94,2.54-.479,5.341-1.019,6.122-1.2a3.782,3.782,0,0,0,1.019-.32l1.6,1.14a31.448,31.448,0,0,1-4.26,6.262l-2.2-1.1a17.731,17.731,0,0,0,2.961-3.6c-.481.08-2.481.5-4.641.94.76,2.76,1.62,5.841,1.92,6.881.12.34.381,1.241.54,1.641l-2.719.68a11.571,11.571,0,0,0-.362-1.76c-.3-1.08-1.119-4.2-1.84-6.922-1.679.36-3.14.66-3.74.8l-.621-2.4c.641-.059,1.181-.12,1.841-.239.28-.04,1-.16,1.921-.341-.2-.78-.381-1.42-.521-1.86a7.064,7.064,0,0,0-.559-1.42l2.679-.641C1338.98,549.36,1339.1,549.9,1339.221,550.42Z" fill="#fff52a"/>
      <path id="パス_4744" data-name="パス 4744" d="M1354.861,555.341l-2.441.921a40.434,40.434,0,0,0-1.82-4.621l2.4-.861C1353.5,551.8,1354.461,554.221,1354.861,555.341Zm9.682-2.7a16.141,16.141,0,0,1-2.721,5.861,15.624,15.624,0,0,1-6.7,4.961l-2.1-2.141a13.459,13.459,0,0,0,6.642-4.18,13.709,13.709,0,0,0,2.561-6.862l2.8.9C1364.783,551.82,1364.662,552.24,1364.543,552.641Zm-5.262,1.46-2.4.84a33.322,33.322,0,0,0-1.62-4.441l2.38-.78C1358.021,550.58,1359,553.181,1359.281,554.1Z" fill="#fff52a"/>
      <path id="パス_4745" data-name="パス 4745" d="M1373.521,553.141l-1.46,2.24c-1.141-.78-3.221-2.14-4.562-2.84l1.46-2.221C1370.3,551.04,1372.5,552.421,1373.521,553.141Zm1.62,4.581a20.4,20.4,0,0,0,7.781-7.5l1.541,2.72a23.746,23.746,0,0,1-14.643,9.663l-1.5-2.641A21.664,21.664,0,0,0,1375.141,557.722Zm1.461-9.1-1.5,2.22c-1.122-.779-3.2-2.14-4.522-2.88l1.46-2.2C1373.36,546.479,1375.561,547.9,1376.6,548.62Z" fill="#fff52a"/>
      <path id="パス_4746" data-name="パス 4746" d="M1398.363,552.9c-.16,1.181-.68,4.621-.98,6.522h1.279c.521,0,1.442-.02,1.961-.08v2.581c-.4-.021-1.381-.061-1.92-.061H1388.18c-.719,0-1.22.021-1.98.061v-2.6a19.216,19.216,0,0,0,1.98.1h6.482c.279-1.7.72-4.541.779-5.661h-5.4c-.641,0-1.42.06-2,.1v-2.64c.52.059,1.439.12,1.98.12h5.122a4.488,4.488,0,0,0,1.479-.221l1.941.941A5.415,5.415,0,0,0,1398.363,552.9Z" fill="#fff52a"/>
      <path id="パス_4747" data-name="パス 4747" d="M1407.44,547.779l2.921.6c-.179.58-.4,1.56-.48,2a46.41,46.41,0,0,1-1.7,6.021,27.558,27.558,0,0,1-2.96,5.722l-2.8-1.181a24.119,24.119,0,0,0,3.12-5.561A28.826,28.826,0,0,0,1407.44,547.779Zm5.081.6,2.661-.86c.82,1.54,2.2,4.621,2.961,6.561.7,1.8,1.76,5,2.32,6.982l-2.961.959a61.716,61.716,0,0,0-2.08-7.061A55.974,55.974,0,0,0,1412.521,548.38Zm6.362,0-1.6.7a25.734,25.734,0,0,0-1.56-2.781l1.58-.66C1417.8,546.379,1418.5,547.64,1418.883,548.38Zm2.4-.92-1.6.68a20.865,20.865,0,0,0-1.6-2.741l1.581-.66A30.8,30.8,0,0,1,1421.283,547.46Z" fill="#fff52a"/>
      <path id="パス_4748" data-name="パス 4748" d="M1427.221,555.341l-2.441.921a40.615,40.615,0,0,0-1.82-4.621l2.4-.861C1425.861,551.8,1426.82,554.221,1427.221,555.341Zm9.681-2.7a16.118,16.118,0,0,1-2.719,5.861,15.623,15.623,0,0,1-6.7,4.961l-2.1-2.141a13.458,13.458,0,0,0,6.64-4.18,13.671,13.671,0,0,0,2.561-6.862l2.8.9C1437.143,551.82,1437.023,552.24,1436.9,552.641Zm-5.259,1.46-2.4.84a33.186,33.186,0,0,0-1.62-4.441l2.381-.78C1430.382,550.58,1431.361,553.181,1431.643,554.1Z" fill="#fff52a"/>
      <path id="パス_4749" data-name="パス 4749" d="M1448.223,548.04c-.021.04-.041.06-.061.1h4.022a6.383,6.383,0,0,0,1.74-.241l2.04,1.261a7.99,7.99,0,0,0-.66,1.441,20.855,20.855,0,0,1-3.482,6.68,18.667,18.667,0,0,1-8.081,5.642l-2.36-2.12a15.945,15.945,0,0,0,8.061-4.942,14.21,14.21,0,0,0,2.841-5.461h-5.621a22.782,22.782,0,0,1-5.041,4.841l-2.24-1.66a17.626,17.626,0,0,0,6.24-6.441,9.532,9.532,0,0,0,.9-2.1l2.921.96C1448.982,546.7,1448.463,547.6,1448.223,548.04Z" fill="#fff52a"/>
      <path id="パス_4750" data-name="パス 4750" d="M1463.041,545.8l2.821-.46c.06.4.12,1.08.22,1.56.04.281.16.941.32,1.841,1.7-.28,3.221-.52,3.942-.66.639-.12,1.4-.28,1.88-.421l.479,2.621c-.439.04-1.24.16-1.84.241-.82.139-2.34.379-4,.639.2,1,.4,2.1.62,3.2,1.8-.3,3.442-.58,4.342-.76.78-.161,1.52-.321,2.039-.48l.541,2.641c-.541.04-1.36.179-2.121.3-.96.16-2.58.419-4.34.7.32,1.639.6,2.98.719,3.6.141.6.341,1.321.522,1.96l-2.881.521c-.1-.74-.16-1.441-.281-2.021-.1-.58-.36-1.96-.68-3.64-2.04.339-3.92.66-4.781.82s-1.54.3-2,.42l-.561-2.681c.541-.019,1.441-.139,2.081-.22.92-.12,2.78-.419,4.8-.74-.2-1.08-.42-2.2-.6-3.22-1.76.28-3.3.54-3.92.639-.64.141-1.16.24-1.84.421l-.541-2.761c.641-.02,1.241-.06,1.861-.14.7-.08,2.241-.3,3.961-.58-.16-.84-.3-1.5-.361-1.821C1463.322,546.739,1463.182,546.279,1463.041,545.8Z" fill="#fff52a"/>
      <path id="パス_4751" data-name="パス 4751" d="M1481.782,550.42c.14.48.32,1.16.54,1.94,2.541-.479,5.342-1.019,6.121-1.2a3.774,3.774,0,0,0,1.021-.32l1.6,1.14a31.453,31.453,0,0,1-4.261,6.262l-2.2-1.1a17.788,17.788,0,0,0,2.959-3.6c-.479.08-2.48.5-4.641.94.761,2.76,1.621,5.841,1.921,6.881.12.34.38,1.241.54,1.641l-2.721.68a11.309,11.309,0,0,0-.359-1.76c-.3-1.08-1.121-4.2-1.841-6.922-1.681.36-3.141.66-3.741.8l-.619-2.4c.639-.059,1.179-.12,1.839-.239.281-.04,1-.16,1.92-.341-.2-.78-.379-1.42-.519-1.86a7.009,7.009,0,0,0-.561-1.42l2.682-.641C1481.542,549.36,1481.662,549.9,1481.782,550.42Z" fill="#fff52a"/>
      <path id="パス_4752" data-name="パス 4752" d="M1500.942,557.1a18.845,18.845,0,0,0,7.283-7.782l1.56,2.821a21.276,21.276,0,0,1-7.4,7.4,21.638,21.638,0,0,1-7.422,2.82l-1.68-2.64A20.613,20.613,0,0,0,1500.942,557.1Zm0-6.461-2.04,2.08a41.715,41.715,0,0,0-5-4.322l1.881-2A40.354,40.354,0,0,1,1500.942,550.641Z" fill="#fff52a"/>
      <path id="パス_4753" data-name="パス 4753" d="M1512.281,554.381c.9-.92,2.46-2.881,3.84-4.521,1.181-1.4,2.361-1.621,3.922-.16,1.34,1.26,2.881,2.861,4.08,4.161,1.341,1.42,3.381,3.641,4.922,5.281l-2.2,2.361c-1.34-1.661-3.041-3.722-4.221-5.1-1.16-1.38-2.94-3.32-3.66-4.06-.641-.641-1.061-.6-1.641.12-.78,1-2.2,2.98-3,4.06-.46.64-.94,1.34-1.3,1.861l-2.4-2.481C1511.221,555.421,1511.66,554.981,1512.281,554.381Zm13.363-7.621a2.59,2.59,0,1,1,0,5.18,2.59,2.59,0,0,1,0-5.18Zm0,3.86a1.271,1.271,0,0,0,1.28-1.26,1.289,1.289,0,0,0-1.28-1.28,1.272,1.272,0,0,0-1.261,1.28A1.254,1.254,0,0,0,1525.644,550.62Z" fill="#fff52a"/>
      <path id="パス_4754" data-name="パス 4754" d="M1534.582,552.461h10.742c.94,0,1.821-.08,2.34-.12v3.14c-.48-.02-1.5-.1-2.34-.1h-10.742c-1.141,0-2.48.04-3.221.1v-3.14C1532.081,552.4,1533.541,552.461,1534.582,552.461Z" fill="#fff52a"/>
      <path id="パス_4755" data-name="パス 4755" d="M1557.243,557.1a18.836,18.836,0,0,0,7.282-7.782l1.561,2.821a21.293,21.293,0,0,1-7.4,7.4,21.637,21.637,0,0,1-7.422,2.82l-1.68-2.64A20.613,20.613,0,0,0,1557.243,557.1Zm0-6.461-2.04,2.08a41.715,41.715,0,0,0-5-4.322l1.881-2A40.422,40.422,0,0,1,1557.243,550.641Z" fill="#fff52a"/>
    </g>
    <g id="グループ_536" data-name="グループ 536" style="isolation: isolate">
      <path id="パス_4756" data-name="パス 4756" d="M1274.47,550.229a15.039,15.039,0,0,0,5.551,4.772,7.357,7.357,0,0,0-1.014,1.353,18.62,18.62,0,0,1-2.457-1.743v1.079h-5.513v-1.04a17.555,17.555,0,0,1-2.4,1.729,6.046,6.046,0,0,0-.976-1.234,15.476,15.476,0,0,0,5.265-4.916Zm2.522,6.631,1.235.365c-.637,1.6-1.573,3.613-2.379,5.264l-1.639-.455c.572-1.118,1.236-2.509,1.742-3.639h-6.681v-1.457h7.449Zm-.858-2.6a15.5,15.5,0,0,1-2.366-2.522,14.728,14.728,0,0,1-2.289,2.522Z" fill="#003562"/>
      <path id="パス_4757" data-name="パス 4757" d="M1285.987,552.635a15.881,15.881,0,0,0,1.755-.416l.053,1.509a22.879,22.879,0,0,1-2.275.454,23.919,23.919,0,0,1-2.783,5.564l-1.573-.806a20.479,20.479,0,0,0,2.652-4.589c-.234.013-.455.013-.675.013-.534,0-1.067-.013-1.625-.051l-.118-1.509a16.438,16.438,0,0,0,1.729.092c.391,0,.78-.014,1.184-.053a11.012,11.012,0,0,0,.351-2.171l1.793.182C1286.352,551.27,1286.183,551.933,1285.987,552.635Zm3.511,3.927c.013.376.052,1,.078,1.65a8.513,8.513,0,0,1,2.691,1.664l-.871,1.392a11.125,11.125,0,0,0-1.755-1.392v.13c0,1.21-.663,2.145-2.509,2.145-1.612,0-2.886-.714-2.886-2.145,0-1.274,1.066-2.249,2.873-2.249.312,0,.6.026.9.053-.052-.963-.118-2.12-.143-2.913h1.625C1289.459,555.443,1289.484,555.989,1289.5,556.562Zm-2.6,4.094c.9,0,1.17-.494,1.17-1.209v-.259a4.606,4.606,0,0,0-1.052-.13c-.754,0-1.236.338-1.236.793C1285.779,560.331,1286.183,560.656,1286.9,560.656Zm1.716-6.916.832-1.287a22.285,22.285,0,0,1,3.211,1.768l-.922,1.365A18.838,18.838,0,0,0,1288.613,553.74Z" fill="#003562"/>
      <path id="パス_4758" data-name="パス 4758" d="M1296.128,556.509a6.364,6.364,0,0,1,3.835-1.235c2.275,0,3.6,1.4,3.6,2.977,0,2.366-1.873,4.187-7.281,3.731l-.493-1.7c3.9.534,5.967-.416,5.967-2.067,0-.845-.806-1.469-1.937-1.469a4.629,4.629,0,0,0-3.614,1.534,3.152,3.152,0,0,0-.481.754l-1.5-.377a47.739,47.739,0,0,0,.651-5.434l1.742.247C1296.453,554.182,1296.219,555.769,1296.128,556.509Zm5.616-4.641-.39,1.586c-1.313-.169-4.212-.78-5.226-1.04l.416-1.56A39.793,39.793,0,0,0,1301.744,551.868Z" fill="#003562"/>
    </g>
    <g id="グループ_537" data-name="グループ 537" style="isolation: isolate">
      <path id="パス_4759" data-name="パス 4759" d="M1582.18,559.265a6.606,6.606,0,0,0,4.433,1.858,6.019,6.019,0,0,0-.91,1.353c-2.471-.391-4.017-1.314-5.045-2.925-.766,1.156-2.209,2.183-4.861,2.9a6.28,6.28,0,0,0-.963-1.248,7.9,7.9,0,0,0,4.148-1.936h-3.914v-1.34h4.668a5.8,5.8,0,0,0,.129-.819h-3.328v-1.248h3.342v-.78h-3.549v-.858h-1.157v-2.769h4.745V550.32h1.586v1.131h4.758v2.769h-1.039v.858h-3.8v.78h3.536v1.248h-3.549a4.4,4.4,0,0,1-.1.819h5.135v1.34Zm-2.3-5.435v-.741h1.547v.741h3.237V552.8h-7.956v1.027Z" fill="#003562"/>
      <path id="パス_4760" data-name="パス 4760" d="M1597.91,561.123c.507,0,.611-.221.69-1.365a4.247,4.247,0,0,0,1.248.533c-.17,1.625-.56,2.119-1.821,2.119h-2.275c-1.534,0-1.95-.416-1.95-1.9v-2.5l-.532.247-.534-1.262c-.052,3.186-.143,4.434-.442,4.85a1.17,1.17,0,0,1-.832.533,6.807,6.807,0,0,1-1.339.064,3.653,3.653,0,0,0-.377-1.378,7.253,7.253,0,0,0,.936.052.378.378,0,0,0,.377-.208c.169-.26.247-1.352.3-4.407h-1.013a11.68,11.68,0,0,1-1.678,5.929,4.57,4.57,0,0,0-1.1-1.08c1.287-1.781,1.4-4.641,1.443-7.644h-1.248v-1.43h1.989V550.32h1.482v1.963h2.028v.975a9.391,9.391,0,0,0,1.157-2.951l1.521.286c-.1.455-.246.91-.39,1.352h4.082v1.4h-4.667a8.55,8.55,0,0,1-.741,1.261h.949v1.248l.7-.325v-1.859h1.287v1.262l.936-.43.053-.039.233-.169.962.338-.052.208c-.013,1.846-.013,3.173-.052,3.562a.915.915,0,0,1-.558.9,2.979,2.979,0,0,1-1.08.142,3.532,3.532,0,0,0-.273-1.131c.155.013.338.013.443.013s.168-.025.181-.2c.026-.116.026-.832.039-2.067l-.832.39v3.627h-1.287v-3.028l-.7.324v3.134c0,.532.091.61.741.61Zm-4.108-4.628v-1.351l-.116.129a8.5,8.5,0,0,0-1.159-1.092,4.591,4.591,0,0,0,.416-.468h-2.482c-.014.468-.026.936-.039,1.391h2.34v.585l-.026,1.3Z" fill="#003562"/>
      <path id="パス_4761" data-name="パス 4761" d="M1612.08,552.556v6.487h-1.625v-.649h-2.937v4.055h-1.639v-4.055h-2.926v.714h-1.559v-6.552h4.485v-2.249h1.639v2.249Zm-6.2,4.316v-2.795h-2.926v2.795Zm4.576,0v-2.795h-2.937v2.795Z" fill="#003562"/>
      <path id="パス_4762" data-name="パス 4762" d="M1615.33,560.291a1.144,1.144,0,1,1,1.144,1.145A1.109,1.109,0,0,1,1615.33,560.291Zm.13-6.76-.065-1.937h2.158l-.065,1.937-.351,4.447h-1.326Z" fill="#003562"/>
    </g>
  </g>
</svg>
