<svg xmlns="http://www.w3.org/2000/svg" width="235.817" height="235.817" viewBox="0 0 235.817 235.817">
  <g id="グループ_467" data-name="グループ 467" transform="translate(-2343.901 -483.212)">
    <g id="グループ_109" data-name="グループ 109">
      <g id="パス_543" data-name="パス 543">
        <path id="パス_4654" data-name="パス 4654" d="M2461.81,717.029h0c-.053,0-.549-.036-1.61-1.291a37.385,37.385,0,0,1-2.813-4.152c-2.186-3.533-4.25-6.87-7.223-7.2a4.6,4.6,0,0,0-.485-.026c-2.856,0-5.5,2.684-8.29,5.526a41.955,41.955,0,0,1-3.359,3.186c-1.258,1-1.824,1.082-1.968,1.082a.222.222,0,0,1-.048,0c-.02-.005-.5-.13-1.264-1.6a37.351,37.351,0,0,1-1.814-4.66c-1.347-3.942-2.621-7.666-5.455-8.658a4.674,4.674,0,0,0-1.542-.252c-2.5,0-5.275,1.768-8.208,3.64-2.089,1.333-4.688,2.991-6,2.991a.578.578,0,0,1-.223-.032c-.019-.009-.455-.236-.864-1.834a37.408,37.408,0,0,1-.722-4.935c-.433-4.154-.842-8.078-3.393-9.684a5.258,5.258,0,0,0-2.848-.738c-2.172,0-4.707.906-7.39,1.865-2.24.8-4.556,1.628-6.028,1.628a1.363,1.363,0,0,1-.723-.132c-.016-.012-.387-.327-.43-1.969a37.43,37.43,0,0,1,.391-4.963c.5-4.155.974-8.079-1.164-10.217-1.423-1.423-3.6-1.588-5.109-1.588a44.76,44.76,0,0,0-5.107.424,41.8,41.8,0,0,1-4.631.4c-1.933,0-2.288-.417-2.3-.435s-.3-.4.019-2.006a37.313,37.313,0,0,1,1.478-4.744c1.41-3.947,2.742-7.674,1.127-10.239s-5.529-2.96-9.683-3.392a37.235,37.235,0,0,1-4.935-.723c-1.6-.409-1.826-.846-1.835-.864s-.2-.451.465-1.936a37.341,37.341,0,0,1,2.494-4.286c2.258-3.54,4.392-6.882,3.388-9.752-.992-2.834-4.715-4.107-8.656-5.454a37.367,37.367,0,0,1-4.661-1.813c-1.473-.761-1.6-1.245-1.6-1.265s-.094-.477.883-1.767a37.382,37.382,0,0,1,3.381-3.609c3-2.951,5.837-5.739,5.5-8.773-.331-2.973-3.669-5.037-7.2-7.223a37.381,37.381,0,0,1-4.152-2.814c-1.255-1.061-1.291-1.557-1.291-1.61s.036-.55,1.291-1.61a37.454,37.454,0,0,1,4.151-2.814c3.534-2.186,6.872-4.25,7.2-7.224.338-3.034-2.5-5.822-5.5-8.773a37.389,37.389,0,0,1-3.381-3.609c-.977-1.29-.887-1.748-.883-1.767s.13-.5,1.6-1.264a37.351,37.351,0,0,1,4.661-1.814c3.941-1.347,7.664-2.62,8.657-5.455,1-2.869-1.13-6.212-3.388-9.751a37.431,37.431,0,0,1-2.494-4.287c-.666-1.486-.473-1.919-.465-1.937s.236-.455,1.834-.864a37.441,37.441,0,0,1,4.935-.722c4.155-.433,8.079-.842,9.685-3.394s.282-6.291-1.128-10.237a37.446,37.446,0,0,1-1.478-4.745c-.32-1.6-.031-1.99-.018-2.006s.369-.434,2.3-.434a42.059,42.059,0,0,1,4.631.4,44.5,44.5,0,0,0,5.107.424c1.512,0,3.687-.164,5.11-1.588,2.138-2.138,1.665-6.062,1.164-10.216a37.264,37.264,0,0,1-.391-4.963c.043-1.643.414-1.958.43-1.97a1.25,1.25,0,0,1,.722-.131c1.472,0,3.788.828,6.028,1.628,2.684.959,5.219,1.865,7.391,1.865a5.26,5.26,0,0,0,2.848-.738c2.551-1.6,2.96-5.529,3.393-9.683a37.432,37.432,0,0,1,.722-4.935c.409-1.6.845-1.825.864-1.834a.561.561,0,0,1,.224-.032c1.313,0,3.912,1.658,6,2.991,2.933,1.872,5.7,3.64,8.207,3.64a4.66,4.66,0,0,0,1.541-.252c2.835-.992,4.108-4.715,5.455-8.656a37.278,37.278,0,0,1,1.813-4.661c.761-1.474,1.245-1.6,1.265-1.6a.242.242,0,0,1,.049,0c.144,0,.71.078,1.968,1.082a41.771,41.771,0,0,1,3.358,3.186c2.8,2.841,5.434,5.525,8.29,5.525a4.563,4.563,0,0,0,.484-.026c2.973-.331,5.037-3.668,7.223-7.2a37.243,37.243,0,0,1,2.814-4.151c1.061-1.256,1.557-1.292,1.61-1.292s.55.036,1.61,1.291a37.356,37.356,0,0,1,2.814,4.152c2.186,3.533,4.25,6.871,7.224,7.2a4.54,4.54,0,0,0,.483.026c2.857,0,5.5-2.684,8.29-5.525a41.734,41.734,0,0,1,3.359-3.186c1.258-1,1.824-1.082,1.967-1.082a.235.235,0,0,1,.05,0c.02.005.5.13,1.264,1.6a37.226,37.226,0,0,1,1.813,4.661c1.348,3.942,2.621,7.665,5.456,8.657a4.676,4.676,0,0,0,1.543.252c2.5,0,5.275-1.768,8.208-3.64,2.088-1.332,4.687-2.991,6-2.991a.53.53,0,0,1,.223.033c.018.008.454.235.864,1.833a37.45,37.45,0,0,1,.722,4.936c.433,4.154.842,8.078,3.394,9.684a5.259,5.259,0,0,0,2.847.737c2.172,0,4.706-.906,7.389-1.864,2.24-.8,4.557-1.629,6.029-1.629a1.365,1.365,0,0,1,.723.132c.016.012.386.327.43,1.97a37.548,37.548,0,0,1-.391,4.962c-.5,4.155-.975,8.079,1.164,10.217,1.423,1.423,3.6,1.588,5.109,1.588a44.49,44.49,0,0,0,5.107-.424,42.037,42.037,0,0,1,4.631-.395c1.933,0,2.288.416,2.3.434s.3.4-.019,2.006a37.535,37.535,0,0,1-1.478,4.745c-1.41,3.946-2.742,7.673-1.128,10.238s5.53,2.96,9.684,3.393a37.4,37.4,0,0,1,4.935.722c1.6.41,1.826.846,1.835.864s.2.451-.466,1.937a37.3,37.3,0,0,1-2.493,4.287c-2.259,3.539-4.392,6.881-3.388,9.75.992,2.834,4.714,4.107,8.656,5.454a37.329,37.329,0,0,1,4.66,1.814c1.474.761,1.6,1.244,1.6,1.264s.093.477-.883,1.767a37.353,37.353,0,0,1-3.381,3.609c-3,2.951-5.837,5.739-5.5,8.774.331,2.973,3.669,5.037,7.2,7.223a37.358,37.358,0,0,1,4.152,2.814c1.255,1.06,1.291,1.556,1.291,1.609s-.036.55-1.291,1.61a37.349,37.349,0,0,1-4.152,2.814c-3.533,2.186-6.871,4.25-7.2,7.224-.338,3.034,2.5,5.822,5.5,8.773a37.346,37.346,0,0,1,3.381,3.609c.976,1.29.887,1.748.883,1.767s-.13.5-1.6,1.265a37.261,37.261,0,0,1-4.661,1.814c-3.941,1.347-7.664,2.62-8.656,5.454-1,2.87,1.13,6.212,3.388,9.751a37.151,37.151,0,0,1,2.493,4.287c.667,1.486.474,1.92.465,1.937s-.235.455-1.833.864a37.446,37.446,0,0,1-4.936.722c-4.154.433-8.078.842-9.684,3.394s-.283,6.291,1.127,10.237a37.164,37.164,0,0,1,1.478,4.745c.321,1.6.031,1.99.019,2.006s-.369.434-2.3.434a42.043,42.043,0,0,1-4.63-.4,44.539,44.539,0,0,0-5.107-.424c-1.512,0-3.687.164-5.11,1.588-2.138,2.138-1.665,6.062-1.164,10.216a37.346,37.346,0,0,1,.391,4.963c-.044,1.643-.414,1.958-.43,1.97a1.258,1.258,0,0,1-.723.131c-1.471,0-3.788-.827-6.028-1.628-2.683-.959-5.218-1.865-7.39-1.865a5.256,5.256,0,0,0-2.848.738c-2.551,1.605-2.96,5.529-3.393,9.684a37.474,37.474,0,0,1-.722,4.935c-.41,1.6-.846,1.825-.864,1.834a.6.6,0,0,1-.224.032c-1.313,0-3.911-1.658-6-2.991-2.932-1.872-5.7-3.64-8.207-3.64a4.676,4.676,0,0,0-1.543.252c-2.834.992-4.107,4.715-5.455,8.656a37.226,37.226,0,0,1-1.813,4.661c-.761,1.474-1.244,1.6-1.265,1.6a.211.211,0,0,1-.048,0c-.144,0-.71-.078-1.967-1.082a41.567,41.567,0,0,1-3.359-3.186c-2.795-2.842-5.434-5.526-8.291-5.526a4.58,4.58,0,0,0-.484.026c-2.972.332-5.037,3.669-7.222,7.2a37.35,37.35,0,0,1-2.814,4.152C2462.359,716.993,2461.863,717.029,2461.81,717.029Z" fill="#fff52a"/>
        <path id="パス_4655" data-name="パス 4655" d="M2461.809,714.543c.163-.187.357-.427.584-.733.685-.924,1.392-2.067,2.14-3.276a43.43,43.43,0,0,1,3.131-4.617c.647-.789,2.615-3.191,5.57-3.52a6.389,6.389,0,0,1,.706-.039c1.178,0,3.058.25,5.774,2.412a45.95,45.95,0,0,1,3.943,3.712c.978.995,1.9,1.935,2.755,2.671.253.218.469.392.652.529.11-.209.236-.469.377-.791.459-1.048.892-2.314,1.35-3.655a43.45,43.45,0,0,1,2.031-5.213c.456-.915,1.844-3.7,4.656-4.683a6.645,6.645,0,0,1,2.2-.365c3.088,0,6.1,1.921,9.283,3.954,1.181.754,2.3,1.466,3.3,1.994.3.159.553.28.764.374.06-.227.124-.507.188-.849.212-1.12.35-2.447.5-3.851.463-4.447.943-9.045,4.316-11.169a7.227,7.227,0,0,1,3.914-1.045c2.519,0,5.338,1.008,8.064,1.982a36.81,36.81,0,0,0,4.506,1.411c.007-.235.008-.521-.005-.869-.043-1.136-.2-2.457-.371-3.856-.536-4.446-1.09-9.043,1.735-11.869,1.949-1.949,4.657-2.174,6.525-2.174a46.185,46.185,0,0,1,5.346.438,40.548,40.548,0,0,0,4.391.381c.12,0,.23,0,.33-.005-.044-.229-.107-.506-.2-.838-.292-1.1-.739-2.346-1.212-3.669-1.509-4.223-3.069-8.589-.936-11.976s6.722-3.854,11.169-4.317c1.4-.146,2.73-.285,3.851-.5.342-.065.622-.129.849-.189-.094-.211-.216-.464-.374-.764-.529-1-1.241-2.115-1.994-3.3-2.416-3.785-4.914-7.7-3.59-11.487.985-2.811,3.769-4.2,4.684-4.655a43.663,43.663,0,0,1,5.213-2.031c1.34-.458,2.606-.891,3.655-1.35.322-.141.582-.268.792-.378-.138-.183-.311-.4-.53-.652-.736-.853-1.676-1.777-2.671-2.756-3.211-3.156-6.53-6.421-6.085-10.42.329-2.956,2.731-4.926,3.521-5.573a43.45,43.45,0,0,1,4.617-3.131c1.21-.748,2.352-1.455,3.276-2.139.306-.227.545-.421.732-.583-.187-.163-.426-.357-.732-.583-.924-.685-2.066-1.392-3.276-2.14a43.468,43.468,0,0,1-4.617-3.131c-.79-.647-3.192-2.616-3.521-5.572-.445-4,2.874-7.264,6.085-10.421,1-.979,1.935-1.9,2.671-2.755.219-.253.392-.47.53-.653-.21-.11-.47-.236-.792-.377-1.048-.459-2.314-.892-3.654-1.35a43.488,43.488,0,0,1-5.213-2.031c-.915-.456-3.7-1.844-4.684-4.655-1.325-3.786,1.174-7.7,3.59-11.487.753-1.181,1.465-2.3,1.994-3.3.158-.3.28-.553.374-.764-.228-.06-.507-.124-.849-.188-1.121-.212-2.447-.35-3.851-.5-4.447-.463-9.045-.943-11.169-4.316-2.133-3.388-.573-7.754.936-11.977.473-1.324.92-2.573,1.213-3.67.088-.332.151-.609.2-.837-.1,0-.21-.005-.33-.005a40.541,40.541,0,0,0-4.392.381,46.154,46.154,0,0,1-5.346.438c-1.867,0-4.575-.225-6.524-2.173-2.826-2.826-2.271-7.425-1.735-11.871.169-1.4.328-2.719.37-3.856.013-.347.013-.634.006-.868a36.9,36.9,0,0,0-4.508,1.411c-2.725.974-5.544,1.981-8.062,1.981a7.22,7.22,0,0,1-3.913-1.045c-3.374-2.124-3.854-6.722-4.317-11.169-.147-1.4-.285-2.73-.5-3.851-.064-.342-.128-.622-.188-.849-.211.094-.464.216-.764.374-1,.529-2.115,1.24-3.3,1.994-3.187,2.034-6.2,3.954-9.284,3.954a6.671,6.671,0,0,1-2.2-.364c-2.813-.985-4.2-3.769-4.657-4.684a43.533,43.533,0,0,1-2.031-5.214c-.458-1.34-.891-2.606-1.35-3.654-.141-.322-.267-.582-.377-.792-.183.138-.4.311-.653.53-.852.736-1.776,1.676-2.755,2.671a45.783,45.783,0,0,1-3.942,3.711,9.515,9.515,0,0,1-5.774,2.412,6.6,6.6,0,0,1-.7-.038c-2.956-.329-4.925-2.731-5.572-3.521a43.43,43.43,0,0,1-3.131-4.617c-.748-1.21-1.455-2.352-2.14-3.276-.226-.306-.42-.545-.583-.732-.162.187-.356.426-.583.732-.685.924-1.392,2.067-2.14,3.277a43.672,43.672,0,0,1-3.131,4.617c-.647.789-2.616,3.19-5.57,3.519a6.387,6.387,0,0,1-.707.039c-1.177,0-3.057-.25-5.773-2.412a45.953,45.953,0,0,1-3.943-3.711c-.978-.995-1.9-1.935-2.755-2.671-.253-.219-.469-.392-.652-.53-.11.21-.236.47-.377.792-.459,1.049-.892,2.314-1.35,3.655a43.492,43.492,0,0,1-2.031,5.213c-.456.915-1.844,3.7-4.656,4.684a6.672,6.672,0,0,1-2.2.364c-3.088,0-6.1-1.921-9.283-3.954-1.181-.754-2.3-1.466-3.3-1.994-.3-.159-.553-.281-.764-.374-.06.227-.124.507-.189.849-.211,1.12-.35,2.447-.5,3.851-.463,4.446-.943,9.044-4.317,11.168a7.225,7.225,0,0,1-3.913,1.045c-2.519,0-5.338-1.007-8.064-1.982a37.228,37.228,0,0,0-4.506-1.411c-.008.235-.008.522,0,.869.043,1.137.2,2.457.37,3.856.536,4.446,1.091,9.043-1.735,11.87-1.948,1.948-4.657,2.173-6.524,2.173a45.96,45.96,0,0,1-5.347-.438,40.8,40.8,0,0,0-4.391-.381c-.12,0-.229,0-.33.005.045.229.108.506.2.838.293,1.1.74,2.346,1.213,3.669,1.508,4.223,3.069,8.589.936,11.976s-6.722,3.854-11.169,4.317c-1.4.147-2.731.285-3.851.5-.342.064-.622.128-.849.188.094.211.216.464.374.764.528,1,1.24,2.115,1.994,3.3,2.416,3.786,4.914,7.7,3.589,11.487-.984,2.813-3.769,4.2-4.684,4.657a43.468,43.468,0,0,1-5.213,2.031c-1.34.458-2.606.891-3.655,1.35-.321.141-.582.267-.791.377.138.183.311.4.53.653.736.852,1.676,1.776,2.671,2.755,3.21,3.157,6.53,6.421,6.084,10.421-.329,2.956-2.731,4.925-3.52,5.572a43.568,43.568,0,0,1-4.617,3.131c-1.21.748-2.352,1.455-3.276,2.14-.306.226-.546.42-.732.583.186.162.426.356.732.583.924.685,2.067,1.392,3.276,2.14a43.443,43.443,0,0,1,4.617,3.131c.79.647,3.191,2.616,3.52,5.571.446,4-2.874,7.265-6.084,10.421-.995.979-1.935,1.9-2.671,2.756-.219.253-.392.469-.53.652.209.11.47.236.792.377,1.048.459,2.314.892,3.654,1.35a43.468,43.468,0,0,1,5.213,2.031c.915.456,3.7,1.844,4.683,4.656,1.325,3.786-1.173,7.7-3.589,11.487-.754,1.181-1.466,2.3-1.994,3.3-.158.3-.28.553-.374.764.227.059.507.123.849.188,1.121.212,2.447.35,3.852.5,4.446.464,9.044.943,11.168,4.317s.572,7.754-.937,11.977c-.473,1.323-.919,2.573-1.212,3.669-.089.332-.152.609-.2.838.1,0,.21.005.33.005a40.791,40.791,0,0,0,4.392-.381,45.966,45.966,0,0,1,5.346-.439c1.867,0,4.574.226,6.523,2.174,2.826,2.826,2.272,7.424,1.736,11.87-.169,1.4-.328,2.719-.371,3.856-.013.347-.013.634-.005.868a36.821,36.821,0,0,0,4.507-1.411c2.726-.974,5.544-1.981,8.063-1.981a7.225,7.225,0,0,1,3.913,1.045c3.374,2.125,3.853,6.723,4.317,11.169.146,1.4.285,2.731.5,3.851.065.342.129.622.189.849.211-.093.464-.215.764-.374,1-.528,2.116-1.24,3.3-1.994,3.186-2.033,6.2-3.954,9.284-3.954a6.648,6.648,0,0,1,2.2.365c2.812.984,4.2,3.769,4.657,4.684a43.606,43.606,0,0,1,2.031,5.214c.458,1.34.891,2.606,1.35,3.654.141.322.267.582.377.791.183-.137.4-.311.651-.529.853-.736,1.777-1.676,2.756-2.672a45.939,45.939,0,0,1,3.943-3.711,9.519,9.519,0,0,1,5.773-2.412,6.356,6.356,0,0,1,.706.039c2.956.329,4.924,2.731,5.571,3.52a43.524,43.524,0,0,1,3.131,4.617c.749,1.21,1.455,2.352,2.14,3.276.227.306.421.546.583.733m0,4.486h0c-4.236,0-7.753-12.2-11.868-12.657a2.287,2.287,0,0,0-.263-.014c-4.019,0-9.664,9.793-13.616,9.794a2.188,2.188,0,0,1-.492-.054c-4.111-.935-4.825-13.61-8.751-14.984a2.672,2.672,0,0,0-.881-.14c-3.833,0-10.407,6.631-14.209,6.631a2.487,2.487,0,0,1-1.093-.231c-3.783-1.825-1.644-14.338-5.176-16.562a3.3,3.3,0,0,0-1.782-.43c-3.648,0-9.779,3.492-13.418,3.493a3.083,3.083,0,0,1-1.971-.569c-3.273-2.614,1.59-14.339-1.369-17.3-.757-.757-2.089-1-3.695-1-2.939,0-6.8.82-9.738.82-1.731,0-3.144-.284-3.865-1.187-2.607-3.266,4.73-13.622,2.495-17.171-2.223-3.532-14.736-1.392-16.562-5.176-1.81-3.752,7.65-12.21,6.26-16.182-1.373-3.925-14.048-4.639-14.982-8.75-.92-4.047,10.193-10.171,9.725-14.371-.458-4.114-12.657-7.632-12.657-11.868h0c0-4.236,12.2-7.753,12.657-11.868.468-4.2-10.645-10.324-9.725-14.371.934-4.111,13.609-4.825,14.983-8.751,1.39-3.972-8.07-12.43-6.26-16.183,1.825-3.783,14.339-1.644,16.562-5.176,2.235-3.549-5.1-13.9-2.494-17.171.72-.9,2.134-1.186,3.864-1.186,2.941,0,6.8.819,9.738.819,1.607,0,2.938-.244,3.7-1,2.958-2.959-1.9-14.684,1.369-17.3a3.079,3.079,0,0,1,1.97-.568c3.639,0,9.77,3.493,13.419,3.493a3.3,3.3,0,0,0,1.782-.43c3.532-2.223,1.393-14.736,5.176-16.561a2.487,2.487,0,0,1,1.093-.231c3.8,0,10.375,6.631,14.208,6.631a2.648,2.648,0,0,0,.881-.14c3.925-1.374,4.639-14.049,8.75-14.983a2.246,2.246,0,0,1,.492-.054c3.952,0,9.6,9.793,13.616,9.793a2.287,2.287,0,0,0,.263-.014c4.114-.458,7.632-12.657,11.868-12.657h0c4.236,0,7.753,12.2,11.868,12.657a2.285,2.285,0,0,0,.262.014c4.02,0,9.664-9.793,13.616-9.793a2.191,2.191,0,0,1,.493.054c4.111.934,4.825,13.609,8.751,14.983a2.647,2.647,0,0,0,.882.14c3.833,0,10.406-6.631,14.209-6.631a2.483,2.483,0,0,1,1.092.231c3.783,1.825,1.644,14.339,5.176,16.562a3.3,3.3,0,0,0,1.782.43c3.648,0,9.778-3.493,13.418-3.493a3.084,3.084,0,0,1,1.971.569c3.273,2.614-1.59,14.339,1.369,17.3.757.757,2.089,1,3.7,1,2.939,0,6.8-.819,9.738-.819,1.731,0,3.144.284,3.865,1.186,2.607,3.266-4.73,13.622-2.5,17.171,2.223,3.532,14.736,1.393,16.562,5.176,1.81,3.753-7.65,12.211-6.26,16.182,1.373,3.925,14.048,4.639,14.982,8.75.92,4.047-10.193,10.171-9.725,14.371.458,4.115,12.657,7.632,12.657,11.868h0c0,4.236-12.2,7.753-12.657,11.868-.468,4.2,10.645,10.324,9.725,14.371-.934,4.112-13.609,4.826-14.983,8.751-1.389,3.972,8.07,12.43,6.26,16.183-1.825,3.783-14.339,1.644-16.562,5.176-2.235,3.549,5.1,13.905,2.494,17.171-.721.9-2.134,1.186-3.865,1.186-2.94,0-6.8-.819-9.737-.819-1.607,0-2.939.244-3.7,1-2.958,2.959,1.9,14.684-1.369,17.3a3.082,3.082,0,0,1-1.971.568c-3.638,0-9.769-3.493-13.418-3.493a3.3,3.3,0,0,0-1.782.43c-3.532,2.223-1.393,14.737-5.176,16.562a2.485,2.485,0,0,1-1.092.231c-3.8,0-10.374-6.631-14.208-6.631a2.646,2.646,0,0,0-.882.14c-3.925,1.373-4.639,14.048-8.75,14.983a2.19,2.19,0,0,1-.492.054c-3.952,0-9.6-9.794-13.617-9.794a2.285,2.285,0,0,0-.262.014C2469.564,706.831,2466.046,719.029,2461.81,719.029Z" fill="#003562"/>
      </g>
      <rect id="長方形_49" data-name="長方形 49" width="158.565" height="25" transform="translate(2382.618 536.602)" fill="#003562"/>
      <rect id="長方形_48" data-name="長方形 48" width="19" height="37" transform="translate(2366.61 592.022)" fill="#003562"/>
      <g id="グループ_518" data-name="グループ 518" style="isolation: isolate">
        <path id="パス_4656" data-name="パス 4656" d="M2428.865,590.336c-10.907,0-14.794,10.432-14.794,20.194a34.685,34.685,0,0,0,.757,7.525h-4.781V590.966h-9.4l-.845.521a18.378,18.378,0,0,1-6.553,2.33l-2.849.539v10.495h6.03v13.2h-7.155v12.354H2416.3v-7.891c2.79,6.109,7.785,8.521,12.564,8.521,10.875,0,14.75-10.594,14.75-20.509C2443.615,600.768,2439.74,590.336,2428.865,590.336Zm.094,28.521-.161.013c-.015-.01-1.472-1.177-1.472-8.34,0-6.89,1.369-8,1.367-8a.658.658,0,0,1,.172-.015,1.084,1.084,0,0,1,.146.007c.1.09,1.349,1.392,1.349,8.012C2430.36,617.623,2428.949,618.852,2428.959,618.857ZM2523,590.336c-7.139,0-11.27,4.469-13.272,10.294-2-5.825-6.115-10.294-13.232-10.294-7.14,0-11.271,4.469-13.273,10.294-2-5.825-6.115-10.294-13.232-10.294-10.907,0-14.794,10.432-14.794,20.194a33.61,33.61,0,0,0,.945,8.3,7.767,7.767,0,0,0-6.535-3.429,7.435,7.435,0,0,0-7.775,7.415,7.239,7.239,0,0,0,3.043,6,8.293,8.293,0,0,1-1.618.795l-3.326,1.237,3.88,10.011,3.16-1.044c6.829-2.257,10.906-7.638,10.906-14.393a15.621,15.621,0,0,0-.171-2.319c2.837,5.677,7.662,7.934,12.285,7.934,7.085,0,11.2-4.5,13.2-10.374,2.571,7.48,8.066,10.374,13.3,10.374,7.084,0,11.2-4.5,13.2-10.374,2.57,7.48,8.066,10.374,13.3,10.374,10.875,0,14.75-10.594,14.75-20.509C2537.754,600.768,2533.879,590.336,2523,590.336Zm-52.916,28.521-.161.013c-.015-.01-1.472-1.177-1.472-8.34,0-6.891,1.369-8,1.367-8a.685.685,0,0,1,.173-.015.818.818,0,0,1,.145.007c.1.09,1.35,1.393,1.35,8.012C2471.49,617.623,2470.078,618.852,2470.088,618.857Zm26.505,0-.161.013c-.015-.01-1.472-1.177-1.472-8.34,0-6.89,1.369-8,1.367-8a.675.675,0,0,1,.173-.015.918.918,0,0,1,.145.007c.1.091,1.349,1.4,1.349,8.012C2497.994,617.622,2496.583,618.852,2496.593,618.857Zm26.5,0-.161.013c-.015-.01-1.472-1.177-1.472-8.34,0-6.89,1.369-8,1.367-8a.658.658,0,0,1,.172-.015,1.163,1.163,0,0,1,.145.007c.1.09,1.35,1.392,1.35,8.012C2524.5,617.623,2523.088,618.852,2523.1,618.857Z" fill="#003562"/>
        <g id="グループ_516" data-name="グループ 516">
          <path id="パス_4657" data-name="パス 4657" d="M2414.3,628.409h-23.024v-8.354h7.155v-17.2h-6.03v-6.837l1.221-.232a20.231,20.231,0,0,0,7.231-2.593l.362-.223h6.831v27.089h6.254Z" fill="#fff"/>
          <path id="パス_4658" data-name="パス 4658" d="M2428.865,629.039c-8.011,0-12.794-6.919-12.794-18.509,0-11.392,4.783-18.194,12.794-18.194,7.984,0,12.75,6.8,12.75,18.194C2441.615,622.12,2436.849,629.039,2428.865,629.039Zm0-28.528c-2.348,0-3.539,3.371-3.539,10.019,0,4.714.614,10.334,3.539,10.334,2.889,0,3.5-5.62,3.5-10.334C2432.36,600.511,2429.729,600.511,2428.865,600.511Z" fill="#fff"/>
          <path id="パス_4659" data-name="パス 4659" d="M2444.993,638.366l-2.461-6.348,1.426-.531a6.824,6.824,0,0,0,4.169-3.394,5.248,5.248,0,0,1-4.291-5.279,5.481,5.481,0,0,1,5.775-5.415c3.032,0,6.27,2.109,6.27,8.025,0,5.937-3.475,10.491-9.534,12.494Z" fill="#fff"/>
          <path id="パス_4660" data-name="パス 4660" d="M2470,629.039c-8.011,0-12.794-6.919-12.794-18.509,0-11.392,4.783-18.194,12.794-18.194,7.984,0,12.749,6.8,12.749,18.194C2482.744,622.12,2477.979,629.039,2470,629.039Zm0-28.528c-2.349,0-3.54,3.371-3.54,10.019,0,4.714.614,10.334,3.54,10.334,2.889,0,3.495-5.62,3.495-10.334C2473.49,600.511,2470.859,600.511,2470,600.511Z" fill="#fff"/>
          <path id="パス_4661" data-name="パス 4661" d="M2496.5,629.039c-8.012,0-12.795-6.919-12.795-18.509,0-11.392,4.783-18.194,12.795-18.194,7.983,0,12.749,6.8,12.749,18.194C2509.249,622.12,2504.483,629.039,2496.5,629.039Zm0-28.528c-2.349,0-3.54,3.371-3.54,10.019,0,4.714.614,10.334,3.54,10.334,2.888,0,3.494-5.62,3.494-10.334C2499.994,600.511,2497.364,600.511,2496.5,600.511Z" fill="#fff"/>
          <path id="パス_4662" data-name="パス 4662" d="M2523,629.039c-8.011,0-12.794-6.919-12.794-18.509,0-11.392,4.783-18.194,12.794-18.194,7.983,0,12.75,6.8,12.75,18.194C2535.754,622.12,2530.987,629.039,2523,629.039Zm0-28.528c-2.349,0-3.539,3.371-3.539,10.019,0,4.714.614,10.334,3.539,10.334,2.889,0,3.5-5.62,3.5-10.334C2526.5,600.511,2523.868,600.511,2523,600.511Z" fill="#fff"/>
        </g>
        <g id="グループ_517" data-name="グループ 517">
          <path id="パス_4663" data-name="パス 4663" d="M2392.777,621.555h7.155v-20.2h-6.03v-4.1a21.636,21.636,0,0,0,7.74-2.79h4.905v27.089h6.254v5.354h-20.024Z" fill="#d11339"/>
          <path id="パス_4664" data-name="パス 4664" d="M2417.571,610.53c0-10.98,4.454-16.694,11.294-16.694s11.25,5.76,11.25,16.694c0,11.025-4.41,17.009-11.25,17.009S2417.571,621.555,2417.571,610.53Zm16.289,0c0-9-2.114-11.519-5-11.519s-5.039,2.519-5.039,11.519c0,9.044,2.16,11.834,5.039,11.834S2433.86,619.574,2433.86,610.53Z" fill="#d11339"/>
          <path id="パス_4665" data-name="パス 4665" d="M2444.48,632.894c3.51-1.3,5.446-3.645,5.4-6.165h-.4a3.885,3.885,0,0,1-4.141-3.915,3.981,3.981,0,0,1,4.275-3.915c3.06,0,4.77,2.43,4.77,6.525,0,5.265-3.061,9.27-8.505,11.07Z" fill="#d11339"/>
          <path id="パス_4666" data-name="パス 4666" d="M2458.7,610.53c0-10.98,4.454-16.694,11.294-16.694s11.249,5.76,11.249,16.694c0,11.025-4.409,17.009-11.249,17.009S2458.7,621.555,2458.7,610.53Zm16.289,0c0-9-2.115-11.519-4.995-11.519s-5.04,2.519-5.04,11.519c0,9.044,2.16,11.834,5.04,11.834S2474.99,619.574,2474.99,610.53Z" fill="#d11339"/>
          <path id="パス_4667" data-name="パス 4667" d="M2485.205,610.53c0-10.98,4.455-16.694,11.295-16.694s11.249,5.76,11.249,16.694c0,11.025-4.409,17.009-11.249,17.009S2485.205,621.555,2485.205,610.53Zm16.289,0c0-9-2.115-11.519-4.994-11.519s-5.04,2.519-5.04,11.519c0,9.044,2.159,11.834,5.04,11.834S2501.494,619.574,2501.494,610.53Z" fill="#d11339"/>
          <path id="パス_4668" data-name="パス 4668" d="M2511.71,610.53c0-10.98,4.454-16.694,11.294-16.694s11.25,5.76,11.25,16.694c0,11.025-4.41,17.009-11.25,17.009S2511.71,621.555,2511.71,610.53Zm16.289,0c0-9-2.114-11.519-5-11.519s-5.039,2.519-5.039,11.519c0,9.044,2.16,11.834,5.039,11.834S2528,619.574,2528,610.53Z" fill="#d11339"/>
        </g>
      </g>
      <g id="グループ_519" data-name="グループ 519" style="isolation: isolate">
        <path id="パス_4669" data-name="パス 4669" d="M2555,623.17c0,1.17-.252,1.765-1.009,2.106a8.3,8.3,0,0,1-3.4.4,8.744,8.744,0,0,0-.775-2.143c1.027.072,2.2.054,2.557.054.343-.019.468-.126.468-.433v-4.357h-10.875v6.879h-2.16V610.008H2555Zm-13.036-6.5h4.25v-4.537h-4.25Zm10.875,0v-4.537h-4.5v4.537Z" fill="#003562"/>
      </g>
      <g id="キャッシュバック" style="isolation: isolate">
        <g id="グループ_520" data-name="グループ 520" style="isolation: isolate">
          <path id="パス_4670" data-name="パス 4670" d="M2391.581,540.422l2.821-.46c.06.4.119,1.08.22,1.56.04.281.159.941.319,1.841,1.7-.28,3.221-.52,3.942-.66.64-.12,1.4-.28,1.881-.421l.479,2.621c-.44.04-1.24.16-1.841.241-.82.139-2.339.379-4,.639.2,1,.4,2.1.619,3.2,1.8-.3,3.442-.58,4.342-.76.78-.161,1.52-.321,2.04-.48l.54,2.641c-.54.04-1.359.179-2.12.3-.96.16-2.581.419-4.341.7.321,1.639.6,2.98.72,3.6.14.6.341,1.321.521,1.96l-2.881.521c-.1-.74-.16-1.441-.279-2.021-.1-.58-.362-1.96-.681-3.64-2.04.34-3.921.66-4.781.82s-1.54.3-2,.42l-.56-2.681c.54-.019,1.44-.139,2.081-.219.92-.121,2.78-.42,4.8-.741-.2-1.08-.42-2.2-.6-3.22-1.76.28-3.3.54-3.921.639-.64.141-1.16.24-1.839.421l-.541-2.761c.64-.02,1.24-.06,1.861-.14.7-.08,2.24-.3,3.961-.58-.16-.84-.3-1.5-.361-1.821C2391.861,541.362,2391.721,540.9,2391.581,540.422Z" fill="#ede839"/>
          <path id="パス_4671" data-name="パス 4671" d="M2411.922,545.043c.141.48.32,1.16.54,1.94,2.54-.479,5.341-1.019,6.122-1.2a3.764,3.764,0,0,0,1.02-.32l1.6,1.141a31.528,31.528,0,0,1-4.261,6.261l-2.2-1.1a17.7,17.7,0,0,0,2.961-3.6c-.48.08-2.48.5-4.64.94.759,2.76,1.62,5.841,1.919,6.881.121.34.381,1.241.54,1.641l-2.719.68a11.436,11.436,0,0,0-.362-1.76c-.3-1.08-1.119-4.2-1.839-6.922-1.68.36-3.141.66-3.741.8l-.621-2.4c.641-.059,1.181-.12,1.841-.239.28-.04,1-.16,1.921-.341-.2-.78-.381-1.42-.521-1.86a7,7,0,0,0-.559-1.42l2.68-.641C2411.682,543.983,2411.8,544.523,2411.922,545.043Z" fill="#ede839"/>
          <path id="パス_4672" data-name="パス 4672" d="M2429.162,549.964l-2.441.921a40.166,40.166,0,0,0-1.821-4.621l2.4-.861C2427.8,546.424,2428.762,548.844,2429.162,549.964Zm9.682-2.7a16.127,16.127,0,0,1-2.721,5.861,15.614,15.614,0,0,1-6.7,4.961l-2.1-2.141a13.462,13.462,0,0,0,6.642-4.18,13.688,13.688,0,0,0,2.56-6.862l2.8.9C2439.084,546.443,2438.964,546.863,2438.844,547.264Zm-5.261,1.46-2.4.84a33.313,33.313,0,0,0-1.619-4.441l2.379-.78C2432.322,545.2,2433.3,547.8,2433.583,548.724Z" fill="#ede839"/>
          <path id="パス_4673" data-name="パス 4673" d="M2449.422,547.764l-1.461,2.24c-1.14-.78-3.221-2.14-4.561-2.84l1.461-2.221C2446.2,545.663,2448.4,547.044,2449.422,547.764Zm1.62,4.581a20.389,20.389,0,0,0,7.782-7.5l1.54,2.72a23.746,23.746,0,0,1-14.643,9.663l-1.5-2.641A21.684,21.684,0,0,0,2451.042,552.345Zm1.46-9.1-1.5,2.22c-1.12-.779-3.2-2.14-4.521-2.88l1.46-2.2C2449.262,541.1,2451.463,542.522,2452.5,543.243Z" fill="#ede839"/>
          <path id="パス_4674" data-name="パス 4674" d="M2475.863,547.523c-.16,1.181-.679,4.622-.98,6.522h1.281c.52,0,1.44-.02,1.96-.08v2.581c-.4-.021-1.38-.061-1.921-.061h-10.521c-.721,0-1.221.021-1.981.061v-2.6a19.221,19.221,0,0,0,1.981.1h6.48c.281-1.7.721-4.541.781-5.661h-5.4c-.64,0-1.421.06-2,.1v-2.64c.521.059,1.44.12,1.98.12h5.122a4.5,4.5,0,0,0,1.48-.221l1.94.941A5.647,5.647,0,0,0,2475.863,547.523Z" fill="#ede839"/>
          <path id="パス_4675" data-name="パス 4675" d="M2486.541,542.4l2.921.6c-.18.58-.4,1.56-.48,2a46.447,46.447,0,0,1-1.7,6.021,27.462,27.462,0,0,1-2.96,5.722l-2.8-1.181a24.089,24.089,0,0,0,3.12-5.561A28.827,28.827,0,0,0,2486.541,542.4Zm5.082.6,2.66-.86c.821,1.54,2.2,4.621,2.961,6.561.7,1.8,1.76,5,2.32,6.982l-2.96.96a62.094,62.094,0,0,0-2.081-7.062A55.838,55.838,0,0,0,2491.623,543Zm6.361,0-1.6.7a25.6,25.6,0,0,0-1.561-2.781l1.581-.66C2496.9,541,2497.6,542.263,2497.984,543Zm2.4-.92-1.6.68a20.627,20.627,0,0,0-1.6-2.741l1.58-.66A31.585,31.585,0,0,1,2500.385,542.083Z" fill="#ede839"/>
          <path id="パス_4676" data-name="パス 4676" d="M2507.922,549.964l-2.441.921a40.165,40.165,0,0,0-1.82-4.621l2.4-.861C2506.563,546.424,2507.521,548.844,2507.922,549.964Zm9.682-2.7a16.141,16.141,0,0,1-2.72,5.861,15.632,15.632,0,0,1-6.7,4.961l-2.1-2.141a13.46,13.46,0,0,0,6.641-4.18,13.679,13.679,0,0,0,2.56-6.862l2.8.9C2517.844,546.443,2517.725,546.863,2517.6,547.264Zm-5.26,1.46-2.4.84a33.186,33.186,0,0,0-1.62-4.441l2.381-.78C2511.083,545.2,2512.063,547.8,2512.344,548.724Z" fill="#ede839"/>
          <path id="パス_4677" data-name="パス 4677" d="M2530.523,542.663c-.02.04-.041.06-.06.1h4.021a6.385,6.385,0,0,0,1.741-.241l2.04,1.261a8.051,8.051,0,0,0-.661,1.441,20.852,20.852,0,0,1-3.481,6.68,18.668,18.668,0,0,1-8.081,5.642l-2.36-2.12a15.944,15.944,0,0,0,8.061-4.942,14.21,14.21,0,0,0,2.841-5.461h-5.621a22.781,22.781,0,0,1-5.041,4.841l-2.24-1.66a17.627,17.627,0,0,0,6.24-6.441,9.543,9.543,0,0,0,.9-2.1l2.921.96C2531.283,541.322,2530.764,542.223,2530.523,542.663Z" fill="#ede839"/>
        </g>
      </g>
      <g id="グループ_521" data-name="グループ 521">
        <path id="パス_4678" data-name="パス 4678" d="M2437.844,509.446a28.936,28.936,0,0,0,10.672,9.173,14.091,14.091,0,0,0-1.95,2.6,35.516,35.516,0,0,1-4.723-3.349v2.074h-10.6v-2a33.952,33.952,0,0,1-4.624,3.324,11.674,11.674,0,0,0-1.875-2.374,29.752,29.752,0,0,0,10.123-9.448Zm4.848,12.747,2.374.7c-1.224,3.074-3.024,6.948-4.573,10.122l-3.149-.875c1.1-2.149,2.374-4.824,3.348-7h-12.846v-2.8h14.321Zm-1.649-5a29.839,29.839,0,0,1-4.55-4.849,28.321,28.321,0,0,1-4.4,4.849Z" fill="#003562"/>
        <path id="パス_4679" data-name="パス 4679" d="M2461.994,514.07a30.573,30.573,0,0,0,3.374-.8l.1,2.9a43.372,43.372,0,0,1-4.373.875,46.006,46.006,0,0,1-5.35,10.7l-3.023-1.549a39.39,39.39,0,0,0,5.1-8.823c-.45.025-.875.025-1.3.025-1.026,0-2.05-.025-3.125-.1l-.225-2.9a31.556,31.556,0,0,0,3.324.174c.75,0,1.5-.025,2.275-.1a20.945,20.945,0,0,0,.674-4.175l3.45.351C2462.694,511.445,2462.369,512.72,2461.994,514.07Zm6.748,7.548c.026.725.1,1.924.151,3.174a16.363,16.363,0,0,1,5.173,3.2l-1.674,2.675a21.224,21.224,0,0,0-3.374-2.675v.25c0,2.324-1.276,4.124-4.825,4.124-3.1,0-5.548-1.374-5.548-4.124,0-2.449,2.049-4.324,5.524-4.324.6,0,1.149.05,1.725.1-.1-1.849-.226-4.074-.276-5.6h3.124C2468.667,519.468,2468.718,520.518,2468.742,521.618Zm-5,7.873c1.725,0,2.25-.95,2.25-2.324v-.5a8.98,8.98,0,0,0-2.024-.25c-1.45,0-2.375.649-2.375,1.524C2461.594,528.866,2462.369,529.491,2463.743,529.491Zm3.3-13.3,1.6-2.474a43.024,43.024,0,0,1,6.172,3.4l-1.774,2.624A36.131,36.131,0,0,0,2467.043,516.194Z" fill="#003562"/>
        <path id="パス_4680" data-name="パス 4680" d="M2483.5,521.518a12.232,12.232,0,0,1,7.373-2.374c4.374,0,6.924,2.7,6.924,5.723,0,4.549-3.6,8.048-14,7.174l-.949-3.275c7.5,1.025,11.471-.8,11.471-3.974,0-1.625-1.548-2.824-3.723-2.824a8.9,8.9,0,0,0-6.948,2.949,6,6,0,0,0-.925,1.45l-2.874-.725a92.241,92.241,0,0,0,1.249-10.448l3.349.475C2484.12,517.044,2483.67,520.093,2483.5,521.518Zm10.8-8.923-.75,3.05c-2.524-.326-8.1-1.5-10.048-2l.8-3A76.483,76.483,0,0,0,2494.293,512.595Z" fill="#003562"/>
      </g>
      <g id="グループ_522" data-name="グループ 522">
        <path id="パス_4681" data-name="パス 4681" d="M2374.217,566.831l2.961-.483c.062.42.125,1.133.23,1.637.042.294.168.988.336,1.932,1.785-.294,3.381-.546,4.137-.692.672-.126,1.469-.294,1.973-.442l.5,2.751c-.461.042-1.3.168-1.931.252-.861.147-2.456.4-4.2.672.211,1.05.419,2.2.651,3.359,1.89-.315,3.611-.609,4.556-.8.819-.168,1.595-.336,2.142-.5l.567,2.771c-.567.042-1.428.189-2.226.315-1.008.168-2.708.441-4.556.735.336,1.722.629,3.128.756,3.779.147.63.357,1.386.545,2.058l-3.023.546c-.1-.778-.168-1.512-.293-2.121-.106-.609-.379-2.058-.715-3.822-2.141.358-4.115.694-5.018.862s-1.617.314-2.1.44l-.588-2.813c.566-.021,1.512-.147,2.183-.231.966-.126,2.918-.441,5.039-.777-.21-1.134-.441-2.31-.629-3.38-1.848.294-3.464.566-4.116.672-.672.146-1.217.252-1.931.44l-.568-2.9c.672-.021,1.3-.063,1.953-.147.735-.084,2.352-.315,4.158-.609-.168-.882-.316-1.574-.378-1.91C2374.511,567.817,2374.363,567.335,2374.217,566.831Z" fill="#003562"/>
        <path id="パス_4682" data-name="パス 4682" d="M2393.9,571.681c.146.5.335,1.217.566,2.037,2.667-.5,5.606-1.072,6.426-1.26a4.008,4.008,0,0,0,1.07-.336l1.68,1.2a33.045,33.045,0,0,1-4.473,6.573l-2.309-1.156a18.6,18.6,0,0,0,3.108-3.779c-.5.084-2.6.525-4.871.987.8,2.9,1.7,6.131,2.015,7.223.125.356.4,1.3.567,1.722l-2.856.714a11.9,11.9,0,0,0-.378-1.848c-.315-1.134-1.175-4.409-1.931-7.265-1.764.378-3.3.693-3.927.84l-.65-2.519c.672-.064,1.238-.126,1.931-.252.294-.042,1.05-.168,2.016-.358-.21-.818-.4-1.49-.546-1.952a7.3,7.3,0,0,0-.588-1.491l2.814-.672C2393.643,570.568,2393.769,571.135,2393.9,571.681Z" fill="#003562"/>
        <path id="パス_4683" data-name="パス 4683" d="M2414.012,578.693a19.757,19.757,0,0,0,7.642-8.167l1.639,2.96a22.319,22.319,0,0,1-7.77,7.769,22.722,22.722,0,0,1-7.789,2.961l-1.763-2.772A21.631,21.631,0,0,0,2414.012,578.693Zm0-6.781-2.141,2.184a43.575,43.575,0,0,0-5.25-4.535l1.975-2.1A42.375,42.375,0,0,1,2414.012,571.912Z" fill="#003562"/>
        <path id="パス_4684" data-name="パス 4684" d="M2425.921,575.838c.944-.966,2.583-3.024,4.031-4.745,1.239-1.47,2.478-1.7,4.115-.168,1.408,1.323,3.024,3,4.284,4.367,1.407,1.491,3.547,3.821,5.165,5.543l-2.31,2.478c-1.407-1.743-3.191-3.906-4.431-5.354-1.216-1.449-3.086-3.485-3.841-4.263-.672-.672-1.114-.63-1.722.126-.819,1.05-2.31,3.129-3.149,4.263-.483.672-.987,1.406-1.366,1.952l-2.519-2.6A23.393,23.393,0,0,0,2425.921,575.838Zm14.025-8a2.719,2.719,0,1,1,0,5.437,2.719,2.719,0,0,1,0-5.437Zm0,4.052a1.335,1.335,0,0,0,1.344-1.323,1.352,1.352,0,0,0-1.344-1.343,1.335,1.335,0,0,0-1.323,1.343A1.317,1.317,0,0,0,2439.946,571.891Z" fill="#003562"/>
        <path id="パス_4685" data-name="パス 4685" d="M2449.334,573.822h11.275c.987,0,1.911-.084,2.457-.126v3.3c-.5-.021-1.575-.1-2.457-.1h-11.275c-1.2,0-2.6.042-3.38.1v-3.3C2446.71,573.76,2448.242,573.822,2449.334,573.822Z" fill="#003562"/>
        <path id="パス_4686" data-name="パス 4686" d="M2473.127,578.693a19.767,19.767,0,0,0,7.643-8.167l1.638,2.96a22.307,22.307,0,0,1-7.769,7.769,22.722,22.722,0,0,1-7.789,2.961l-1.764-2.772A21.631,21.631,0,0,0,2473.127,578.693Zm0-6.781-2.141,2.184a43.424,43.424,0,0,0-5.25-4.535l1.975-2.1A42.308,42.308,0,0,1,2473.127,571.912Z" fill="#003562"/>
        <path id="パス_4687" data-name="パス 4687" d="M2495.639,580.1c1.49,1.679,3.841,2.645,7.16,3a9.747,9.747,0,0,0-1.471,2.183c-3.988-.63-6.487-2.12-8.146-4.723-1.239,1.868-3.569,3.527-7.852,4.681a10.2,10.2,0,0,0-1.555-2.015c3.528-.8,5.543-1.89,6.7-3.128h-6.32v-2.163h7.537a9.442,9.442,0,0,0,.21-1.323h-5.375V574.6h5.4v-1.26h-5.732v-1.386h-1.868v-4.473h7.663v-1.826h2.562v1.826h7.684v4.473h-1.679v1.386h-6.131v1.26h5.711v2.015H2494.4a7.13,7.13,0,0,1-.168,1.323h8.293V580.1Zm-3.717-8.777v-1.2h2.5v1.2h5.227v-1.659H2486.8v1.659Z" fill="#003562"/>
        <path id="パス_4688" data-name="パス 4688" d="M2521.048,583.1c.819,0,.987-.357,1.112-2.205a6.879,6.879,0,0,0,2.016.861c-.273,2.625-.9,3.423-2.94,3.423h-3.673c-2.478,0-3.15-.672-3.15-3.066v-4.031l-.86.4-.862-2.036c-.084,5.144-.23,7.159-.713,7.831a1.885,1.885,0,0,1-1.344.862,10.991,10.991,0,0,1-2.163.1,5.847,5.847,0,0,0-.609-2.225,11.738,11.738,0,0,0,1.512.084.609.609,0,0,0,.608-.336c.274-.42.4-2.184.484-7.118h-1.638c-.294,3.78-.966,7.181-2.709,9.575a7.426,7.426,0,0,0-1.784-1.744c2.079-2.876,2.268-7.495,2.331-12.345h-2.016v-2.31h3.212v-3.17h2.394v3.17h3.275V570.4a15.169,15.169,0,0,0,1.869-4.766l2.456.462c-.168.735-.4,1.469-.629,2.183h6.592v2.268h-7.538a13.675,13.675,0,0,1-1.2,2.037h1.532V574.6l1.135-.526v-3h2.078v2.036l1.512-.692.084-.063.378-.273,1.553.546-.084.336c-.021,2.981-.021,5.123-.084,5.753a1.47,1.47,0,0,1-.9,1.448,4.8,4.8,0,0,1-1.743.232,5.713,5.713,0,0,0-.44-1.828c.251.022.544.022.712.022s.274-.042.3-.316c.041-.188.041-1.343.063-3.337l-1.344.629v5.858h-2.078v-4.892l-1.135.525v5.06c0,.861.148.987,1.2.987Zm-6.635-7.475v-2.184l-.188.21a13.7,13.7,0,0,0-1.87-1.763,7.864,7.864,0,0,0,.672-.756h-4.009c-.022.756-.043,1.511-.064,2.247h3.779v.944l-.042,2.1Z" fill="#003562"/>
        <path id="パス_4689" data-name="パス 4689" d="M2543.938,569.267v10.476h-2.625v-1.05h-4.745v6.551h-2.646v-6.551H2529.2v1.156h-2.519V569.267h7.243v-3.633h2.646v3.633Zm-10.016,6.97v-4.514H2529.2v4.514Zm7.391,0v-4.514h-4.745v4.514Z" fill="#003562"/>
        <path id="パス_4690" data-name="パス 4690" d="M2549.189,581.759a1.848,1.848,0,1,1,1.848,1.847A1.792,1.792,0,0,1,2549.189,581.759Zm.21-10.918-.1-3.128h3.484l-.1,3.128-.568,7.18h-2.14Z" fill="#003562"/>
      </g>
      <g id="グループ_460" data-name="グループ 460">
        <g id="長方形_1" data-name="長方形 1">
          <path id="パス_4691" data-name="パス 4691" d="M2423.321,662.53h74a12,12,0,0,1,12,12h0a12,12,0,0,1-12,12h-74a12,12,0,0,1-12-12h0A12,12,0,0,1,2423.321,662.53Z" fill="#fff"/>
          <path id="パス_4692" data-name="パス 4692" d="M2497.321,686.53h-74a12,12,0,0,1,0-24h74a12,12,0,0,1,0,24Zm-74-22a10,10,0,0,0,0,20h74a10,10,0,0,0,0-20Z" fill="#003562"/>
        </g>
        <g id="グループ_523" data-name="グループ 523">
          <path id="パス_4693" data-name="パス 4693" d="M2422.875,669.961h1.8l.707,4.341c.132.935.276,1.871.408,2.831h.048c.18-.96.372-1.907.563-2.831l1.032-4.341h1.523l1.02,4.341c.191.912.372,1.871.563,2.831h.06c.132-.96.264-1.907.4-2.831l.707-4.341h1.68l-1.644,8.887h-2.207l-1-4.39c-.143-.7-.275-1.379-.384-2.062h-.048c-.12.683-.24,1.367-.383,2.062l-.972,4.39h-2.171Z" fill="#003562"/>
          <path id="パス_4694" data-name="パス 4694" d="M2435.079,669.961h5.444v1.486h-3.669V673.5h3.118v1.486h-3.118v2.375h3.8v1.488h-5.576Z" fill="#003562"/>
          <path id="パス_4695" data-name="パス 4695" d="M2442.819,669.961h2.939c1.822,0,3.214.539,3.214,2.194a2.012,2.012,0,0,1-1.212,1.919v.06a2.019,2.019,0,0,1,1.668,2.1c0,1.788-1.488,2.615-3.443,2.615h-3.166Zm2.806,3.622c1.128,0,1.619-.456,1.619-1.164,0-.779-.527-1.091-1.595-1.091h-1.055v2.255Zm.2,3.9c1.212,0,1.871-.431,1.871-1.355,0-.863-.647-1.235-1.871-1.235h-1.235v2.59Z" fill="#003562"/>
          <path id="パス_4696" data-name="パス 4696" d="M2451.723,670.561c1.007-.084,2.986-.265,5.18-.445,1.236-.107,2.543-.179,3.4-.216l.012,1.536a12.292,12.292,0,0,0-2.315.168,3.643,3.643,0,0,0-2.543,3.358c0,1.978,1.848,2.686,3.887,2.794l-.565,1.643c-2.518-.168-4.892-1.511-4.892-4.114a4.8,4.8,0,0,1,1.786-3.7c-1.127.119-3.573.384-4.965.684l-.156-1.644C2451.027,670.608,2451.5,670.584,2451.723,670.561Zm7.832,3.681-.912.408a9.258,9.258,0,0,0-.936-1.668l.888-.371A15.033,15.033,0,0,1,2459.555,674.242Zm1.39-.588-.9.432a10.538,10.538,0,0,0-.983-1.619l.875-.407A17.889,17.889,0,0,1,2460.945,673.654Z" fill="#003562"/>
          <path id="パス_4697" data-name="パス 4697" d="M2472.369,670.284v7.1h-1.487v-.576h-2.663v3.07h-1.5v-3.07h-2.6v.635h-1.427v-7.16h4.03v-1.607h1.5v1.607Zm-8.252,1.367v1.212h2.6v-1.212Zm2.6,3.79V674.17h-2.6v1.271Zm1.5-3.79v1.212h2.663v-1.212Zm2.663,3.79V674.17h-2.663v1.271Z" fill="#003562"/>
          <path id="パス_4698" data-name="パス 4698" d="M2477.2,677.108a2.951,2.951,0,0,0,2.639,1.176c1.4.06,4.1.024,5.7-.1a7.447,7.447,0,0,0-.444,1.439c-1.439.072-3.85.1-5.276.036a3.986,3.986,0,0,1-3.239-1.331c-.528.468-1.055.936-1.716,1.439l-.695-1.487a16,16,0,0,0,1.644-1.1V674.65h-1.38v-1.307h2.77Zm-.827-5.384a9.05,9.05,0,0,0-1.931-1.9l1.055-.864a9.568,9.568,0,0,1,2,1.811Zm4.569.023c-.047-.4-.095-.8-.131-1.211h-2.087v-1.343h3.3c.179,3.394.9,6.285,3.394,7.532a6.412,6.412,0,0,0-1.115,1.091,6.621,6.621,0,0,1-2.879-3.933,7.7,7.7,0,0,1-2.818,3.945,7.931,7.931,0,0,0-1.1-1.079,6.779,6.779,0,0,0,2.975-5.073Z" fill="#003562"/>
          <path id="パス_4699" data-name="パス 4699" d="M2489.786,669.829c.684,0,1.954-.06,2.519-.108a2.578,2.578,0,0,0,.815-.168l.959.743a2.908,2.908,0,0,0-.407.5,25,25,0,0,0-1.2,2.579,10.8,10.8,0,0,1,2.6.767c.012-.144.024-.276.035-.408a7.9,7.9,0,0,0,0-1.306l1.572.179a19.468,19.468,0,0,1-.228,2.219c.5.288.936.564,1.283.8l-.7,1.667a12.662,12.662,0,0,0-1.032-.84,6,6,0,0,1-3.046,3.25l-1.272-1.043a5.166,5.166,0,0,0,3.047-3.011,8.309,8.309,0,0,0-2.843-.971,23.476,23.476,0,0,1-1.355,2.878,2.089,2.089,0,0,1-1.871,1.056,1.8,1.8,0,0,1-1.847-1.943c0-1.86,1.692-3.275,4.1-3.382.336-.792.683-1.607.96-2.171-.481.023-1.512.06-2.064.1-.239.011-.659.048-.97.1l-.061-1.546C2489.114,669.8,2489.521,669.829,2489.786,669.829Zm-1.056,7.22c.24,0,.408-.12.624-.42a13.375,13.375,0,0,0,.971-1.955c-1.343.2-2.1,1.019-2.1,1.775C2488.227,676.845,2488.454,677.049,2488.73,677.049Z" fill="#003562"/>
        </g>
      </g>
      <g id="還元実施中_" data-name="還元実施中 " style="isolation: isolate">
        <g id="グループ_524" data-name="グループ 524" style="isolation: isolate">
          <path id="パス_4700" data-name="パス 4700" d="M2410.48,655.331c.78,1.341,2.18,1.9,4.221,1.981,2.4.1,7.121.04,9.883-.18a10.708,10.708,0,0,0-.74,2.32c-2.481.12-6.723.16-9.162.06-2.381-.1-3.982-.68-5.182-2.22-.8.78-1.62,1.54-2.641,2.4l-1.12-2.36a23.749,23.749,0,0,0,2.481-1.841V651.13h-2.241v-2.18h4.5Zm-1.419-8.962a15.621,15.621,0,0,0-3-3.32l1.82-1.361a17.415,17.415,0,0,1,3.141,3.181Zm1.759,0H2424.2v1.641H2410.82Zm5.322,10.582v-2.72a18.872,18.872,0,0,1-3.861,2.14,10.814,10.814,0,0,0-1.361-1.74,15.19,15.19,0,0,0,4.541-2.32H2412.4V648.63h10.284v3.181l1.2.82c-.82.559-1.66,1.12-2.42,1.58a14.292,14.292,0,0,0,2.76.74,7.318,7.318,0,0,0-1.3,1.78,11.31,11.31,0,0,1-4.521-2.16v2.38Zm7.161-11.2H2411.82v-4.041H2423.3Zm-8.262-2.7h-1.221v1.38h1.221Zm-.439,7.941h5.72v-1.04h-5.72Zm3.52-7.941h-1.28v1.38h1.28Zm.4,9.262a6.829,6.829,0,0,0,1.362,1.1,16.443,16.443,0,0,0,1.439-1.1Zm2.662-9.262H2419.9v1.38h1.281Z" fill="#003562"/>
          <path id="パス_4701" data-name="パス 4701" d="M2442.4,657.312c.661,0,.781-.52.881-3.4a6.664,6.664,0,0,0,2.2,1c-.24,3.581-.84,4.621-2.88,4.621h-2.4c-2.261,0-2.841-.76-2.841-3.1v-6.121h-3c-.36,4.16-1.281,7.581-6.061,9.521a6.866,6.866,0,0,0-1.481-1.94c4.161-1.561,4.722-4.261,4.961-7.581h-4.52v-2.322H2445.1v2.322h-5.282v6.121c0,.759.119.88.78.88Zm.861-12.423h-14.2v-2.3h14.2Z" fill="#003562"/>
          <path id="パス_4702" data-name="パス 4702" d="M2459.4,654.971c1.42,1.6,3.661,2.52,6.821,2.861a9.292,9.292,0,0,0-1.4,2.08c-3.8-.6-6.18-2.02-7.76-4.5-1.181,1.78-3.4,3.361-7.482,4.461a9.782,9.782,0,0,0-1.48-1.92c3.36-.761,5.281-1.8,6.38-2.981h-6.021v-2.06h7.182a9.234,9.234,0,0,0,.2-1.261h-5.121v-1.92h5.141v-1.2H2450.4v-1.32h-1.781v-4.262h7.3v-1.74h2.44v1.74h7.323v4.262h-1.6v1.32h-5.841v1.2h5.441v1.92h-5.461a6.889,6.889,0,0,1-.16,1.261h7.9v2.06Zm-3.541-8.362v-1.14h2.381v1.14h4.981v-1.58H2450.98v1.58Z" fill="#003562"/>
          <path id="パス_4703" data-name="パス 4703" d="M2484.6,657.832c.78,0,.94-.341,1.06-2.1a6.585,6.585,0,0,0,1.921.821c-.261,2.5-.861,3.261-2.8,3.261h-3.5c-2.36,0-3-.641-3-2.921v-3.841l-.82.38-.82-1.941c-.08,4.9-.22,6.822-.68,7.462a1.791,1.791,0,0,1-1.28.82,10.384,10.384,0,0,1-2.061.1,5.606,5.606,0,0,0-.58-2.12,11.183,11.183,0,0,0,1.44.08.585.585,0,0,0,.581-.32c.259-.4.379-2.08.46-6.782h-1.561c-.28,3.6-.92,6.841-2.58,9.123a7.063,7.063,0,0,0-1.7-1.662c1.98-2.74,2.16-7.14,2.22-11.761h-1.921v-2.2h3.061v-3.021h2.28v3.021h3.121v1.5a14.449,14.449,0,0,0,1.781-4.541l2.341.44c-.161.7-.381,1.4-.6,2.081h6.281v2.16h-7.181a13.1,13.1,0,0,1-1.14,1.941h1.46v1.92l1.08-.5v-2.86h1.98v1.941l1.441-.661.08-.059.359-.261,1.481.521-.08.32c-.02,2.841-.02,4.881-.08,5.481a1.4,1.4,0,0,1-.86,1.38,4.574,4.574,0,0,1-1.66.22,5.463,5.463,0,0,0-.42-1.74c.239.02.52.02.68.02s.26-.04.279-.3c.041-.179.041-1.28.061-3.18l-1.281.6v5.581h-1.98V651.57l-1.08.5v4.822c0,.82.139.94,1.139.94Zm-6.322-7.122v-2.08l-.179.2a13.063,13.063,0,0,0-1.782-1.681,7.191,7.191,0,0,0,.641-.719h-3.82c-.021.719-.041,1.44-.061,2.139h3.6v.9l-.041,2Z" fill="#003562"/>
          <path id="パス_4704" data-name="パス 4704" d="M2507.4,644.649v9.982h-2.5v-1h-4.521v6.241h-2.52v-6.241h-4.5v1.1h-2.4V644.649h6.9v-3.461h2.52v3.461Zm-9.542,6.641v-4.3h-4.5v4.3Zm7.041,0v-4.3h-4.521v4.3Z" fill="#003562"/>
          <path id="パス_4705" data-name="パス 4705" d="M2512.039,656.491a1.833,1.833,0,1,1,3.661,0,1.833,1.833,0,1,1-3.661,0Zm.44-10.782-.1-2.78h2.96l-.1,2.78-.42,7.382h-1.92Z" fill="#003562"/>
        </g>
      </g>
      <g id="グループ_525" data-name="グループ 525">
        <path id="パス_4706" data-name="パス 4706" d="M2382.334,603.008a8.945,8.945,0,0,1-1.89,3.525,8.385,8.385,0,0,0,2.64,1.11,7.348,7.348,0,0,0-1.05,1.4,8.406,8.406,0,0,1-2.79-1.4,9.743,9.743,0,0,1-2.55,1.4,6.63,6.63,0,0,0-.8-1.2v1.215h-1.71v-1.215c-1.725.165-3.435.315-4.754.435l-.135-1.53c.389-.03.84-.045,1.3-.09v-4.559h-1.169v-1.41h13.334v1.41h-6.87v5.489a7.7,7.7,0,0,0,2.13-1.08,9.182,9.182,0,0,1-1.365-2.22l.99-.269h-1.38v-1.366h4.664l.3-.06Zm-1.29-2.88h-9.855v-4.6h9.855Zm-8.8,1.966v.6h1.95v-.6Zm0,2.474h1.95v-.63h-1.95Zm0,1.965c.63-.045,1.29-.09,1.95-.15V605.8h-1.95Zm7.02-9.87h-6.36v.615h6.36Zm0,1.695h-6.36v.63h6.36Zm-1.095,5.656a5.815,5.815,0,0,0,1,1.469,6.262,6.262,0,0,0,1.019-1.469Z" fill="#fff52a"/>
        <path id="パス_4707" data-name="パス 4707" d="M2377.489,617.709a10.009,10.009,0,0,0,5.61,6.42,7.121,7.121,0,0,0-1.32,1.68,11.185,11.185,0,0,1-5.625-6.36,10.321,10.321,0,0,1-5.61,6.375,5.27,5.27,0,0,0-1.335-1.515,8.99,8.99,0,0,0,5.445-6.6h-5.16v-1.845h5.46c.15-1.41.135-2.775.15-4.005h1.95c-.015,1.23-.03,2.61-.18,4.005h5.9v1.845Z" fill="#fff52a"/>
      </g>
    </g>
  </g>
</svg>
