<svg xmlns="http://www.w3.org/2000/svg" width="427.816" height="80.083" viewBox="0 0 427.816 80.083">
  <g id="グループ_550" data-name="グループ 550" transform="translate(-1187.014 -867.672)">
    <rect id="長方形_170" data-name="長方形 170" width="100.734" height="21.76" rx="10.88" transform="translate(1513.096 913.784)" fill="#fff" stroke="#003562" stroke-width="2"/>
    <g id="グループ_539" data-name="グループ 539" style="isolation: isolate">
      <path id="パス_4763" data-name="パス 4763" d="M1522.9,919.9h1.95l.766,4.707c.144,1.014.3,2.028.443,3.068h.051c.2-1.04.4-2.067.612-3.068l1.118-4.707h1.65l1.106,4.707c.208.988.4,2.028.611,3.068h.065c.143-1.04.286-2.067.428-3.068l.768-4.707h1.82l-1.781,9.634h-2.393l-1.079-4.758c-.155-.753-.3-1.495-.416-2.236h-.052c-.129.741-.259,1.483-.416,2.236l-1.052,4.758h-2.354Z" fill="#003562"/>
      <path id="パス_4764" data-name="パス 4764" d="M1536.116,919.9h5.9v1.613h-3.978v2.223h3.38v1.612h-3.38v2.574h4.121v1.612h-6.046Z" fill="#003562"/>
      <path id="パス_4765" data-name="パス 4765" d="M1544.5,919.9h3.186c1.976,0,3.484.585,3.484,2.38a2.182,2.182,0,0,1-1.314,2.08v.065a2.188,2.188,0,0,1,1.808,2.275c0,1.937-1.612,2.834-3.731,2.834H1544.5Zm3.043,3.927c1.222,0,1.755-.494,1.755-1.261,0-.845-.572-1.183-1.73-1.183h-1.143v2.444Zm.221,4.225c1.312,0,2.028-.468,2.028-1.469,0-.935-.7-1.339-2.028-1.339h-1.339v2.808Z" fill="#003562"/>
      <path id="パス_4766" data-name="パス 4766" d="M1554.147,920.548c1.092-.091,3.238-.286,5.617-.482,1.339-.116,2.756-.194,3.679-.233l.013,1.664a13.5,13.5,0,0,0-2.509.182,3.951,3.951,0,0,0-2.757,3.64c0,2.145,2,2.912,4.213,3.03l-.611,1.78c-2.73-.182-5.3-1.638-5.3-4.459a5.2,5.2,0,0,1,1.938-4.017c-1.222.13-3.874.416-5.382.741l-.169-1.781C1553.394,920.6,1553.9,920.574,1554.147,920.548Zm8.49,3.991-.988.442a10.032,10.032,0,0,0-1.014-1.807l.962-.4A16.135,16.135,0,0,1,1562.637,924.539Zm1.509-.637-.976.468a11.491,11.491,0,0,0-1.066-1.755l.949-.442A19.688,19.688,0,0,1,1564.146,923.9Z" fill="#003562"/>
      <path id="パス_4767" data-name="パス 4767" d="M1576.521,920.249v7.7h-1.613v-.624h-2.886v3.328H1570.4v-3.328h-2.821v.689h-1.547v-7.761h4.368v-1.742h1.625v1.742Zm-8.945,1.481v1.314h2.821V921.73Zm2.821,4.109v-1.378h-2.821v1.378Zm1.625-4.109v1.314h2.886V921.73Zm2.886,4.109v-1.378h-2.886v1.378Z" fill="#003562"/>
      <path id="パス_4768" data-name="パス 4768" d="M1581.747,927.646a3.2,3.2,0,0,0,2.86,1.274c1.521.065,4.447.026,6.175-.1a8.076,8.076,0,0,0-.48,1.56c-1.561.078-4.174.1-5.721.039a4.324,4.324,0,0,1-3.51-1.442c-.572.506-1.144,1.013-1.859,1.559l-.754-1.612a17.055,17.055,0,0,0,1.781-1.2v-2.744h-1.495v-1.417h3Zm-.9-5.837a9.86,9.86,0,0,0-2.093-2.054l1.144-.937a10.441,10.441,0,0,1,2.171,1.964Zm4.953.026c-.052-.429-.1-.871-.143-1.314H1583.4v-1.456h3.576c.194,3.68.974,6.813,3.678,8.165a6.927,6.927,0,0,0-1.209,1.183,7.183,7.183,0,0,1-3.12-4.264,8.347,8.347,0,0,1-3.055,4.277,8.525,8.525,0,0,0-1.2-1.17c1.82-1.079,2.822-3.016,3.224-5.5Z" fill="#003562"/>
      <path id="パス_4769" data-name="パス 4769" d="M1595.384,919.755c.741,0,2.119-.066,2.729-.117a2.806,2.806,0,0,0,.885-.182l1.04.806a3.087,3.087,0,0,0-.442.546,27.66,27.66,0,0,0-1.3,2.8,11.619,11.619,0,0,1,2.821.832c.013-.157.026-.3.039-.443a8.8,8.8,0,0,0,0-1.417l1.7.2a20.93,20.93,0,0,1-.246,2.405c.546.312,1.014.611,1.391.871l-.754,1.807a13.545,13.545,0,0,0-1.118-.91,6.5,6.5,0,0,1-3.3,3.523l-1.379-1.131a5.6,5.6,0,0,0,3.3-3.263,8.992,8.992,0,0,0-3.081-1.052,25.7,25.7,0,0,1-1.47,3.12,2.264,2.264,0,0,1-2.027,1.143,1.946,1.946,0,0,1-2-2.106c0-2.015,1.833-3.549,4.445-3.666.364-.858.741-1.742,1.041-2.353-.52.026-1.638.065-2.236.1-.26.013-.715.051-1.054.1l-.064-1.678A10.8,10.8,0,0,0,1595.384,919.755Zm-1.145,7.826c.261,0,.443-.13.677-.455a14.607,14.607,0,0,0,1.053-2.119c-1.456.222-2.276,1.1-2.276,1.925C1593.693,927.36,1593.94,927.581,1594.239,927.581Z" fill="#003562"/>
    </g>
    <rect id="長方形_48" data-name="長方形 48" width="22.875" height="38.527" transform="translate(1187.014 899.576)" fill="#003562"/>
    <g id="グループ_544" data-name="グループ 544" style="isolation: isolate">
      <g id="グループ_542" data-name="グループ 542">
        <path id="パス_4770" data-name="パス 4770" d="M1254.514,898.169c-10.724,0-14.545,10.241-14.545,19.826a34.121,34.121,0,0,0,.723,7.282h-4.941V898.785h-9.29l-.845.522a17.884,17.884,0,0,1-6.381,2.268l-2.849.539v10.4h5.9v12.759h-7v12.237h26.583v-8.429c2.675,6.5,7.774,9.045,12.646,9.045,10.692,0,14.5-10.4,14.5-20.135C1269.016,908.41,1265.206,898.169,1254.514,898.169Zm-.023,27.92c-.013-.01-1.406-1.205-1.406-8.094,0-6.591,1.3-7.754,1.283-7.754a.6.6,0,0,1,.146-.012c.055,0,.1,0,.106,0,.154.154,1.278,1.49,1.278,7.764C1255.9,924.977,1254.532,926.086,1254.491,926.089Zm93.829-27.92c-7.2,0-11.289,4.623-13.2,10.563-1.9-5.94-5.976-10.563-13.158-10.563-7.2,0-11.289,4.623-13.2,10.563-1.9-5.94-5.976-10.563-13.159-10.563-10.723,0-14.545,10.241-14.545,19.826a31.713,31.713,0,0,0,1.172,8.99,7.671,7.671,0,0,0-7-4.3,7.345,7.345,0,0,0-7.68,7.328,7.156,7.156,0,0,0,2.911,5.865,8.015,8.015,0,0,1-1.467.712l-3.326,1.236,3.848,9.932,3.161-1.044c6.712-2.218,10.718-7.507,10.718-14.148a14.4,14.4,0,0,0-.356-3.269c2.7,6.348,7.744,8.837,12.564,8.837,7.145,0,11.214-4.647,13.129-10.633,2.458,7.678,7.976,10.633,13.227,10.633,7.145,0,11.213-4.647,13.128-10.633,2.459,7.678,7.976,10.633,13.227,10.633,10.693,0,14.5-10.4,14.5-20.135C1362.822,908.41,1359.013,898.169,1348.32,898.169Zm-52.733,27.92c-.014-.01-1.406-1.205-1.406-8.094,0-6.591,1.3-7.754,1.283-7.754a.6.6,0,0,1,.145-.012c.057,0,.1,0,.107,0,.154.154,1.278,1.49,1.278,7.764C1296.994,924.977,1295.628,926.086,1295.587,926.089Zm26.355,0c-.013-.01-1.406-1.205-1.406-8.094,0-6.591,1.3-7.754,1.283-7.754a.6.6,0,0,1,.146-.012c.056,0,.1,0,.106,0,.155.154,1.279,1.49,1.279,7.764C1323.35,924.977,1321.983,926.086,1321.942,926.089Zm26.356,0c-.014-.01-1.406-1.205-1.406-8.094,0-6.591,1.3-7.754,1.283-7.754a.6.6,0,0,1,.145-.012c.056,0,.1,0,.107,0,.154.154,1.278,1.49,1.278,7.764C1349.7,924.977,1348.339,926.086,1348.3,926.089Z" fill="#003562"/>
        <g id="グループ_540" data-name="グループ 540">
          <path id="パス_4771" data-name="パス 4771" d="M1239.868,935.514h-22.583v-8.237h7V910.518h-5.9v-6.747l1.22-.231a19.743,19.743,0,0,0,7.06-2.531l.362-.224h6.723v26.492h6.117Z" fill="#fff"/>
          <path id="パス_4772" data-name="パス 4772" d="M1254.514,936.13c-7.856,0-12.545-6.779-12.545-18.135,0-11.162,4.689-17.826,12.545-17.826,7.828,0,12.5,6.664,12.5,17.826C1267.016,929.351,1262.342,936.13,1254.514,936.13Zm0-27.9c-2.276,0-3.429,3.286-3.429,9.766,0,4.6.6,10.074,3.429,10.074,2.8,0,3.384-5.478,3.384-10.074C1257.9,908.229,1255.351,908.229,1254.514,908.229Z" fill="#fff"/>
          <path id="パス_4773" data-name="パス 4773" d="M1270.7,945.259l-2.429-6.269,1.426-.53a6.683,6.683,0,0,0,4.042-3.265,5.161,5.161,0,0,1-4.183-5.186,5.392,5.392,0,0,1,5.68-5.328c2.981,0,6.165,2.07,6.165,7.881s-3.407,10.286-9.346,12.249Z" fill="#fff"/>
          <path id="パス_4774" data-name="パス 4774" d="M1295.609,936.13c-7.855,0-12.545-6.779-12.545-18.135,0-11.162,4.69-17.826,12.545-17.826,7.829,0,12.5,6.664,12.5,17.826C1308.111,929.351,1303.438,936.13,1295.609,936.13Zm0-27.9c-2.275,0-3.428,3.286-3.428,9.766,0,4.6.594,10.074,3.428,10.074,2.8,0,3.385-5.478,3.385-10.074C1298.994,908.229,1296.446,908.229,1295.609,908.229Z" fill="#fff"/>
          <path id="パス_4775" data-name="パス 4775" d="M1321.965,936.13c-7.856,0-12.545-6.779-12.545-18.135,0-11.162,4.689-17.826,12.545-17.826,7.828,0,12.5,6.664,12.5,17.826C1334.467,929.351,1329.793,936.13,1321.965,936.13Zm0-27.9c-2.276,0-3.429,3.286-3.429,9.766,0,4.6.595,10.074,3.429,10.074,2.8,0,3.385-5.478,3.385-10.074C1325.35,908.229,1322.8,908.229,1321.965,908.229Z" fill="#fff"/>
          <path id="パス_4776" data-name="パス 4776" d="M1348.32,936.13c-7.855,0-12.545-6.779-12.545-18.135,0-11.162,4.69-17.826,12.545-17.826,7.828,0,12.5,6.664,12.5,17.826C1360.822,929.351,1356.148,936.13,1348.32,936.13Zm0-27.9c-2.275,0-3.428,3.286-3.428,9.766,0,4.6.594,10.074,3.428,10.074,2.8,0,3.385-5.478,3.385-10.074C1351.7,908.229,1349.157,908.229,1348.32,908.229Z" fill="#fff"/>
        </g>
        <g id="グループ_541" data-name="グループ 541">
          <path id="パス_4777" data-name="パス 4777" d="M1218.785,928.777h7V909.018h-5.9v-4a21.119,21.119,0,0,0,7.568-2.729h4.8v26.492h6.117v5.237h-19.583Z" fill="#d11339"/>
          <path id="パス_4778" data-name="パス 4778" d="M1243.469,917.995c0-10.737,4.356-16.326,11.045-16.326s11,5.633,11,16.326c0,10.782-4.313,16.635-11,16.635S1243.469,928.777,1243.469,917.995Zm15.929,0c0-8.8-2.068-11.266-4.884-11.266s-4.929,2.465-4.929,11.266c0,8.846,2.112,11.574,4.929,11.574S1259.4,926.841,1259.4,917.995Z" fill="#d11339"/>
          <path id="パス_4779" data-name="パス 4779" d="M1270.22,939.866c3.432-1.276,5.325-3.564,5.281-6.028h-.4a3.8,3.8,0,0,1-4.048-3.829,3.891,3.891,0,0,1,4.18-3.828c2.993,0,4.665,2.376,4.665,6.381,0,5.148-2.992,9.065-8.317,10.825Z" fill="#d11339"/>
          <path id="パス_4780" data-name="パス 4780" d="M1284.564,917.995c0-10.737,4.357-16.326,11.045-16.326s11,5.633,11,16.326c0,10.782-4.312,16.635-11,16.635S1284.564,928.777,1284.564,917.995Zm15.93,0c0-8.8-2.068-11.266-4.885-11.266s-4.928,2.465-4.928,11.266c0,8.846,2.112,11.574,4.928,11.574S1300.494,926.841,1300.494,917.995Z" fill="#d11339"/>
          <path id="パス_4781" data-name="パス 4781" d="M1310.92,917.995c0-10.737,4.356-16.326,11.045-16.326s11,5.633,11,16.326c0,10.782-4.313,16.635-11,16.635S1310.92,928.777,1310.92,917.995Zm15.93,0c0-8.8-2.069-11.266-4.885-11.266s-4.929,2.465-4.929,11.266c0,8.846,2.112,11.574,4.929,11.574S1326.85,926.841,1326.85,917.995Z" fill="#d11339"/>
          <path id="パス_4782" data-name="パス 4782" d="M1337.275,917.995c0-10.737,4.357-16.326,11.045-16.326s11,5.633,11,16.326c0,10.782-4.312,16.635-11,16.635S1337.275,928.777,1337.275,917.995Zm15.93,0c0-8.8-2.068-11.266-4.885-11.266s-4.928,2.465-4.928,11.266c0,8.846,2.112,11.574,4.928,11.574S1353.2,926.841,1353.2,917.995Z" fill="#d11339"/>
        </g>
      </g>
      <g id="グループ_543" data-name="グループ 543">
        <path id="パス_4783" data-name="パス 4783" d="M1383.77,932.848c0,1.429-.308,2.156-1.232,2.574a10.167,10.167,0,0,1-4.159.484,10.672,10.672,0,0,0-.946-2.619c1.254.089,2.685.067,3.124.067.418-.022.572-.155.572-.529V927.5h-13.29v8.405H1365.2V916.764h18.57Zm-15.931-7.944h5.194v-5.545h-5.194Zm13.29,0v-5.545h-5.5V924.9Z" fill="#003562"/>
        <path id="パス_4784" data-name="パス 4784" d="M1392.347,930.934c.859,1.473,2.4,2.089,4.643,2.177,2.64.111,7.834.044,10.87-.2a11.826,11.826,0,0,0-.814,2.553c-2.729.132-7.393.176-10.078.066-2.618-.11-4.379-.748-5.7-2.442-.88.857-1.782,1.694-2.9,2.639l-1.233-2.6a26.422,26.422,0,0,0,2.729-2.025v-4.8H1387.4v-2.4h4.95Zm-1.561-9.858a17.152,17.152,0,0,0-3.3-3.653l2-1.5a19.1,19.1,0,0,1,3.455,3.5Zm1.935,0h14.721v1.8h-14.721Zm5.854,11.64v-2.993a20.754,20.754,0,0,1-4.247,2.354,11.894,11.894,0,0,0-1.5-1.914,16.729,16.729,0,0,0,4.995-2.553h-3.367v-4.047h11.309v3.5l1.32.9c-.9.616-1.826,1.232-2.662,1.738a15.794,15.794,0,0,0,3.036.815,7.968,7.968,0,0,0-1.429,1.958,12.45,12.45,0,0,1-4.973-2.377v2.619Zm7.877-12.322h-12.63v-4.445h12.63Zm-9.088-2.971h-1.342v1.518h1.342Zm-.484,8.735h6.293v-1.143h-6.293Zm3.873-8.735h-1.409v1.518h1.409Zm.44,10.187a7.459,7.459,0,0,0,1.5,1.211,17.688,17.688,0,0,0,1.584-1.211Zm2.927-10.187h-1.408v1.518h1.408Z" fill="#003562"/>
        <path id="パス_4785" data-name="パス 4785" d="M1427.462,933.111c.726,0,.858-.572.968-3.74a7.347,7.347,0,0,0,2.42,1.1c-.263,3.939-.924,5.083-3.168,5.083h-2.64c-2.487,0-3.125-.836-3.125-3.41V925.41h-3.3c-.4,4.577-1.408,8.34-6.667,10.474a7.562,7.562,0,0,0-1.628-2.134c4.576-1.717,5.192-4.687,5.456-8.34h-4.973v-2.552h19.627v2.552h-5.808v6.734c0,.835.131.967.858.967Zm.946-13.664h-15.622v-2.53h15.622Z" fill="#003562"/>
        <path id="パス_4786" data-name="パス 4786" d="M1446.161,930.537c1.562,1.761,4.026,2.773,7.5,3.147a10.155,10.155,0,0,0-1.54,2.288c-4.181-.66-6.8-2.222-8.537-4.951-1.3,1.958-3.741,3.7-8.23,4.907a10.656,10.656,0,0,0-1.628-2.113c3.7-.836,5.809-1.98,7.019-3.278h-6.622v-2.266h7.9a10.25,10.25,0,0,0,.221-1.386h-5.633v-2.113h5.654v-1.32h-6.007V922H1434.3v-4.687h8.032V915.4h2.683v1.914h8.054V922h-1.761v1.452h-6.425v1.32h5.986v2.113h-6.007a7.648,7.648,0,0,1-.176,1.386h8.691v2.266Zm-3.9-9.2v-1.254h2.618v1.254h5.48V919.6H1436.9v1.738Z" fill="#003562"/>
        <path id="パス_4787" data-name="パス 4787" d="M1473.882,933.684c.858,0,1.035-.374,1.166-2.311a7.213,7.213,0,0,0,2.113.9c-.286,2.75-.947,3.587-3.081,3.587h-3.851c-2.6,0-3.3-.7-3.3-3.213v-4.224l-.9.418-.9-2.134c-.088,5.391-.243,7.5-.748,8.207a1.97,1.97,0,0,1-1.409.9,11.49,11.49,0,0,1-2.266.11,6.121,6.121,0,0,0-.638-2.332,12.3,12.3,0,0,0,1.584.088.643.643,0,0,0,.639-.352c.286-.44.418-2.289.506-7.46h-1.716c-.309,3.961-1.013,7.525-2.839,10.034a7.784,7.784,0,0,0-1.87-1.826c2.178-3.015,2.376-7.855,2.442-12.938H1456.7v-2.42h3.366V915.4h2.509v3.323H1466v1.65a15.876,15.876,0,0,0,1.959-4.995l2.575.484c-.176.77-.418,1.54-.66,2.288h6.909v2.376h-7.9a14.346,14.346,0,0,1-1.254,2.135h1.607v2.112l1.187-.549v-3.147h2.179v2.134l1.584-.726.088-.066.4-.286,1.628.572-.088.352c-.022,3.125-.022,5.369-.087,6.029a1.546,1.546,0,0,1-.947,1.519,5.051,5.051,0,0,1-1.826.242,5.954,5.954,0,0,0-.462-1.915c.264.022.572.022.748.022s.286-.044.308-.33c.044-.2.044-1.408.066-3.5l-1.408.66v6.14h-2.179V926.8l-1.187.55v5.3c0,.9.153,1.035,1.254,1.035Zm-6.953-7.833v-2.288l-.2.219a14.263,14.263,0,0,0-1.958-1.848,8.476,8.476,0,0,0,.7-.792h-4.2c-.021.792-.044,1.584-.065,2.354h3.96v.99l-.044,2.2Z" fill="#003562"/>
        <path id="パス_4788" data-name="パス 4788" d="M1498.962,919.184v10.979h-2.75v-1.1h-4.973v6.865h-2.773v-6.865h-4.95v1.21h-2.64V919.184h7.59v-3.807h2.773v3.807Zm-10.5,7.3v-4.73h-4.95v4.73Zm7.746,0v-4.73h-4.973v4.73Z" fill="#003562"/>
        <path id="パス_4789" data-name="パス 4789" d="M1504.063,932.209a2.015,2.015,0,1,1,4.026,0,2.015,2.015,0,1,1-4.026,0Zm.484-11.859-.11-3.059h3.257l-.11,3.059-.462,8.119h-2.113Z" fill="#003562"/>
      </g>
    </g>
    <rect id="長方形_162" data-name="長方形 162" width="316.64" height="28.895" transform="translate(1236.376 867.672)" fill="#003562"/>
    <g id="グループ_545" data-name="グループ 545" style="isolation: isolate">
      <path id="パス_4790" data-name="パス 4790" d="M1250.989,871.681l3.384-.552c.072.48.145,1.3.265,1.872.048.336.191,1.128.383,2.208,2.041-.336,3.865-.624,4.729-.792.768-.144,1.68-.336,2.256-.5l.576,3.145c-.528.047-1.488.191-2.208.288-.984.168-2.809.456-4.8.767.24,1.2.481,2.521.744,3.841,2.161-.36,4.129-.7,5.209-.912.936-.192,1.825-.385,2.449-.576l.647,3.168c-.647.048-1.632.216-2.544.36-1.152.192-3.1.5-5.208.84.384,1.968.72,3.576.863,4.32.168.72.409,1.584.624,2.353l-3.456.624c-.12-.889-.192-1.729-.336-2.425-.12-.7-.431-2.352-.816-4.368-2.448.408-4.7.792-5.736.984s-1.848.361-2.4.5l-.672-3.216c.649-.024,1.729-.168,2.5-.264,1.1-.144,3.336-.5,5.76-.888-.24-1.3-.5-2.641-.719-3.864-2.113.336-3.961.647-4.706.767-.767.168-1.391.288-2.208.5l-.647-3.311c.768-.025,1.487-.073,2.231-.168.841-.1,2.689-.361,4.753-.7-.192-1.007-.36-1.8-.432-2.184C1251.325,872.809,1251.157,872.257,1250.989,871.681Z" fill="#fff52a"/>
      <path id="パス_4791" data-name="パス 4791" d="M1273.479,877.226c.167.576.383,1.391.647,2.328,3.049-.576,6.408-1.225,7.345-1.441a4.6,4.6,0,0,0,1.224-.384l1.92,1.369a37.8,37.8,0,0,1-5.112,7.512l-2.641-1.32a21.314,21.314,0,0,0,3.553-4.32c-.576.1-2.977.6-5.569,1.128.912,3.312,1.944,7.008,2.3,8.256.144.409.456,1.489.649,1.968l-3.265.817a13.9,13.9,0,0,0-.431-2.113c-.361-1.3-1.345-5.04-2.209-8.3-2.016.432-3.768.792-4.489.96l-.744-2.88c.769-.073,1.416-.145,2.208-.288.337-.048,1.2-.193,2.3-.409-.24-.935-.456-1.7-.624-2.232a8.439,8.439,0,0,0-.672-1.7l3.216-.768C1273.19,875.953,1273.334,876.6,1273.479,877.226Z" fill="#fff52a"/>
      <path id="パス_4792" data-name="パス 4792" d="M1292.246,883.13l-2.929,1.1a48.566,48.566,0,0,0-2.184-5.545l2.881-1.032C1290.613,878.882,1291.766,881.786,1292.246,883.13Zm11.616-3.24a19.367,19.367,0,0,1-3.263,7.032,18.754,18.754,0,0,1-8.041,5.953l-2.521-2.568a16.156,16.156,0,0,0,7.969-5.017,16.4,16.4,0,0,0,3.072-8.232l3.36,1.08C1304.15,878.905,1304.007,879.409,1303.862,879.89Zm-6.312,1.752-2.88,1.007a40.025,40.025,0,0,0-1.944-5.328l2.856-.935C1296.038,877.417,1297.214,880.538,1297.55,881.642Z" fill="#fff52a"/>
      <path id="パス_4793" data-name="パス 4793" d="M1314.638,880.489l-1.752,2.689c-1.368-.936-3.865-2.569-5.473-3.408l1.753-2.665C1310.773,877.97,1313.414,879.626,1314.638,880.489Zm1.944,5.5a24.456,24.456,0,0,0,9.337-9l1.849,3.265a28.493,28.493,0,0,1-17.571,11.593l-1.8-3.168A25.98,25.98,0,0,0,1316.582,885.986Zm1.752-10.921-1.8,2.664c-1.344-.936-3.84-2.568-5.425-3.456l1.753-2.64C1314.446,872.5,1317.086,874.2,1318.334,875.065Z" fill="#fff52a"/>
      <path id="パス_4794" data-name="パス 4794" d="M1344.446,880.2c-.192,1.416-.816,5.544-1.175,7.824h1.536c.624,0,1.727-.024,2.351-.095v3.095c-.479-.023-1.656-.071-2.3-.071h-12.625c-.864,0-1.464.024-2.375.071v-3.12a22.758,22.758,0,0,0,2.375.12h7.777c.336-2.04.864-5.448.936-6.793h-6.48c-.769,0-1.705.073-2.4.121v-3.168c.624.072,1.727.143,2.376.143h6.144a5.434,5.434,0,0,0,1.776-.264l2.329,1.128A6.619,6.619,0,0,0,1344.446,880.2Z" fill="#fff52a"/>
      <path id="パス_4795" data-name="パス 4795" d="M1355.342,874.058l3.5.719c-.216.7-.48,1.872-.576,2.4a55.8,55.8,0,0,1-2.041,7.224,33.055,33.055,0,0,1-3.551,6.865l-3.361-1.416a28.966,28.966,0,0,0,3.745-6.673A34.606,34.606,0,0,0,1355.342,874.058Zm6.1.719,3.193-1.032c.983,1.849,2.64,5.545,3.552,7.873.839,2.16,2.112,6,2.784,8.376l-3.552,1.152a74.2,74.2,0,0,0-2.5-8.472A67.236,67.236,0,0,0,1361.438,874.777Zm7.633,0-1.921.84a30.194,30.194,0,0,0-1.872-3.336l1.9-.792C1367.774,872.377,1368.615,873.889,1369.071,874.777Zm2.88-1.1-1.92.816a24.9,24.9,0,0,0-1.921-3.288l1.9-.792A37.3,37.3,0,0,1,1371.951,873.673Z" fill="#fff52a"/>
      <path id="パス_4796" data-name="パス 4796" d="M1379.079,883.13l-2.929,1.1a48.567,48.567,0,0,0-2.184-5.545l2.881-1.032C1377.446,878.882,1378.6,881.786,1379.079,883.13Zm11.616-3.24a19.365,19.365,0,0,1-3.263,7.032,18.754,18.754,0,0,1-8.041,5.953l-2.521-2.568a16.156,16.156,0,0,0,7.969-5.017,16.4,16.4,0,0,0,3.072-8.232l3.36,1.08C1390.983,878.905,1390.84,879.409,1390.695,879.89Zm-6.312,1.752-2.88,1.007a40.025,40.025,0,0,0-1.944-5.328l2.856-.935C1382.871,877.417,1384.047,880.538,1384.383,881.642Z" fill="#fff52a"/>
      <path id="パス_4797" data-name="パス 4797" d="M1404.279,874.369c-.024.048-.048.072-.072.12h4.824a7.708,7.708,0,0,0,2.089-.288l2.448,1.512a9.639,9.639,0,0,0-.792,1.728,25.043,25.043,0,0,1-4.176,8.017,22.426,22.426,0,0,1-9.7,6.769l-2.832-2.544a19.127,19.127,0,0,0,9.673-5.929,17.031,17.031,0,0,0,3.408-6.553h-6.744a27.344,27.344,0,0,1-6.049,5.809l-2.688-1.992a21.131,21.131,0,0,0,7.489-7.729,11.5,11.5,0,0,0,1.08-2.52l3.5,1.152C1405.191,872.761,1404.567,873.841,1404.279,874.369Z" fill="#fff52a"/>
      <path id="パス_4798" data-name="パス 4798" d="M1422.063,871.681l3.383-.552c.073.48.145,1.3.265,1.872.048.336.191,1.128.384,2.208,2.04-.336,3.864-.624,4.728-.792.768-.144,1.68-.336,2.256-.5l.576,3.145c-.528.047-1.488.191-2.208.288-.984.168-2.808.456-4.8.767.241,1.2.481,2.521.745,3.841,2.16-.36,4.129-.7,5.209-.912.935-.192,1.824-.385,2.448-.576l.647,3.168c-.647.048-1.632.216-2.544.36-1.152.192-3.1.5-5.208.84.384,1.968.72,3.576.864,4.32.168.72.408,1.584.624,2.353l-3.456.624c-.121-.889-.193-1.729-.336-2.425-.12-.7-.432-2.352-.817-4.368-2.448.408-4.7.792-5.736.984s-1.848.361-2.4.5l-.672-3.216c.648-.024,1.728-.168,2.5-.264,1.1-.144,3.337-.5,5.761-.888-.241-1.3-.5-2.641-.72-3.864-2.113.336-3.961.647-4.705.767-.768.168-1.392.288-2.208.5l-.648-3.311c.768-.025,1.488-.073,2.232-.168.841-.1,2.688-.361,4.753-.7-.193-1.007-.361-1.8-.433-2.184C1422.4,872.809,1422.23,872.257,1422.063,871.681Z" fill="#fff52a"/>
      <path id="パス_4799" data-name="パス 4799" d="M1444.551,877.226c.169.576.385,1.391.648,2.328,3.049-.576,6.408-1.225,7.345-1.441a4.574,4.574,0,0,0,1.224-.384l1.92,1.369a37.748,37.748,0,0,1-5.112,7.512l-2.64-1.32a21.308,21.308,0,0,0,3.552-4.32c-.576.1-2.976.6-5.569,1.128.912,3.312,1.944,7.008,2.305,8.256.143.409.456,1.489.648,1.968l-3.265.817a13.9,13.9,0,0,0-.431-2.113c-.361-1.3-1.345-5.04-2.209-8.3-2.016.432-3.768.792-4.488.96l-.745-2.88c.769-.073,1.416-.145,2.209-.288.336-.048,1.2-.193,2.3-.409-.24-.935-.456-1.7-.624-2.232a8.439,8.439,0,0,0-.672-1.7l3.216-.768C1444.264,875.953,1444.407,876.6,1444.551,877.226Z" fill="#fff52a"/>
      <path id="パス_4800" data-name="パス 4800" d="M1467.543,885.242a22.6,22.6,0,0,0,8.737-9.337l1.872,3.385a25.515,25.515,0,0,1-8.881,8.88,25.963,25.963,0,0,1-8.9,3.385l-2.016-3.168A24.755,24.755,0,0,0,1467.543,885.242Zm0-7.753-2.447,2.5a50.071,50.071,0,0,0-6-5.184l2.256-2.4A48.467,48.467,0,0,1,1467.543,877.489Z" fill="#fff52a"/>
      <path id="パス_4801" data-name="パス 4801" d="M1481.15,881.978c1.08-1.1,2.953-3.457,4.609-5.424,1.416-1.681,2.832-1.945,4.7-.193,1.607,1.512,3.456,3.433,4.9,4.993,1.609,1.7,4.057,4.368,5.906,6.336l-2.641,2.832c-1.608-1.992-3.648-4.463-5.064-6.12-1.392-1.656-3.529-3.984-4.393-4.873-.768-.767-1.271-.719-1.968.145-.936,1.2-2.64,3.576-3.6,4.872-.552.768-1.128,1.608-1.56,2.232l-2.881-2.976A26.8,26.8,0,0,0,1481.15,881.978Zm16.034-9.145a3.109,3.109,0,1,1,0,6.217,3.109,3.109,0,0,1,0-6.217Zm0,4.633a1.527,1.527,0,0,0,1.536-1.513,1.547,1.547,0,0,0-1.536-1.536,1.526,1.526,0,0,0-1.512,1.536A1.507,1.507,0,0,0,1497.184,877.466Z" fill="#fff52a"/>
      <path id="パス_4802" data-name="パス 4802" d="M1507.911,879.674h12.89c1.128,0,2.183-.1,2.807-.145V883.3c-.576-.024-1.8-.12-2.807-.12h-12.89c-1.368,0-2.975.048-3.864.12v-3.769C1504.911,879.6,1506.663,879.674,1507.911,879.674Z" fill="#fff52a"/>
      <path id="パス_4803" data-name="パス 4803" d="M1535.1,885.242a22.6,22.6,0,0,0,8.737-9.337l1.872,3.385a25.523,25.523,0,0,1-8.881,8.88,25.971,25.971,0,0,1-8.9,3.385l-2.017-3.168A24.767,24.767,0,0,0,1535.1,885.242Zm0-7.753-2.448,2.5a50.09,50.09,0,0,0-6-5.184l2.256-2.4A48.408,48.408,0,0,1,1535.1,877.489Z" fill="#fff52a"/>
    </g>
    <g id="グループ_546" data-name="グループ 546" style="isolation: isolate">
      <path id="パス_4804" data-name="パス 4804" d="M1195.816,876.648a18.524,18.524,0,0,0,6.835,5.874,9.112,9.112,0,0,0-1.249,1.666,23.051,23.051,0,0,1-3.025-2.146v1.329h-6.786v-1.28a21.8,21.8,0,0,1-2.962,2.129,7.449,7.449,0,0,0-1.2-1.522,19.034,19.034,0,0,0,6.482-6.05Zm3.106,8.164,1.52.448c-.784,1.969-1.937,4.45-2.929,6.482l-2.017-.56c.7-1.376,1.521-3.089,2.145-4.482h-8.227v-1.793h9.171Zm-1.057-3.2a19.038,19.038,0,0,1-2.913-3.1,18.182,18.182,0,0,1-2.817,3.1Z" fill="#003562"/>
      <path id="パス_4805" data-name="パス 4805" d="M1209.991,879.609a19.651,19.651,0,0,0,2.161-.511l.065,1.856a28.121,28.121,0,0,1-2.8.561,29.539,29.539,0,0,1-3.425,6.85l-1.937-.992a25.245,25.245,0,0,0,3.265-5.65c-.288.015-.56.015-.832.015-.656,0-1.312-.015-2-.064l-.144-1.857a20.26,20.26,0,0,0,2.129.113c.48,0,.961-.017,1.457-.065a13.46,13.46,0,0,0,.431-2.673l2.209.225C1210.439,877.929,1210.231,878.745,1209.991,879.609Zm4.322,4.834c.016.464.064,1.233.1,2.034a10.456,10.456,0,0,1,3.314,2.048l-1.073,1.712a13.648,13.648,0,0,0-2.161-1.712v.161c0,1.488-.816,2.64-3.089,2.64-1.985,0-3.553-.88-3.553-2.64,0-1.57,1.312-2.77,3.537-2.77.385,0,.736.032,1.1.064-.063-1.184-.143-2.609-.175-3.585h2C1214.266,883.066,1214.3,883.739,1214.313,884.443Zm-3.2,5.042c1.1,0,1.441-.608,1.441-1.488v-.32a5.756,5.756,0,0,0-1.3-.16c-.928,0-1.521.416-1.521.976C1209.735,889.085,1210.231,889.485,1211.112,889.485Zm2.113-8.515,1.024-1.584a27.5,27.5,0,0,1,3.954,2.177l-1.137,1.68A23.116,23.116,0,0,0,1213.225,880.97Z" fill="#003562"/>
      <path id="パス_4806" data-name="パス 4806" d="M1222.471,884.379a7.838,7.838,0,0,1,4.721-1.521c2.8,0,4.434,1.73,4.434,3.666,0,2.914-2.3,5.155-8.963,4.594l-.608-2.1c4.8.657,7.346-.512,7.346-2.544,0-1.041-.992-1.81-2.384-1.81a5.7,5.7,0,0,0-4.451,1.89,3.816,3.816,0,0,0-.591.927l-1.841-.463a59.11,59.11,0,0,0,.8-6.691l2.145.3C1222.871,881.515,1222.583,883.467,1222.471,884.379Zm6.915-5.714-.481,1.953c-1.616-.208-5.186-.961-6.434-1.281l.511-1.92A49.221,49.221,0,0,0,1229.386,878.665Z" fill="#003562"/>
    </g>
    <g id="グループ_547" data-name="グループ 547" style="isolation: isolate">
      <path id="パス_4807" data-name="パス 4807" d="M1566.308,887.771c1.136,1.282,2.929,2.017,5.458,2.29a7.386,7.386,0,0,0-1.12,1.665c-3.042-.481-4.947-1.618-6.211-3.6-.945,1.425-2.721,2.689-5.987,3.569a7.723,7.723,0,0,0-1.184-1.537c2.689-.607,4.225-1.44,5.106-2.385h-4.818v-1.648h5.747a7.309,7.309,0,0,0,.16-1.009h-4.1v-1.536h4.114v-.96H1559.1v-1.056h-1.423v-3.41h5.841V876.76h1.954v1.392h5.858v3.41h-1.281v1.056h-4.674v.96h4.354v1.536h-4.37a5.354,5.354,0,0,1-.128,1.009h6.323v1.648Zm-2.833-6.69v-.912h1.9v.912h3.986v-1.265h-9.8v1.265Z" fill="#003562"/>
      <path id="パス_4808" data-name="パス 4808" d="M1585.669,890.061c.624,0,.752-.273.849-1.681a5.231,5.231,0,0,0,1.536.656c-.208,2-.689,2.61-2.241,2.61h-2.8c-1.889,0-2.4-.513-2.4-2.337v-3.074l-.656.3-.656-1.553c-.065,3.922-.177,5.459-.545,5.971a1.433,1.433,0,0,1-1.025.656,8.353,8.353,0,0,1-1.648.08,4.468,4.468,0,0,0-.464-1.7,8.957,8.957,0,0,0,1.153.064.463.463,0,0,0,.463-.256c.208-.321.3-1.665.369-5.427h-1.248c-.225,2.882-.737,5.475-2.066,7.3a5.632,5.632,0,0,0-1.36-1.329c1.585-2.193,1.728-5.714,1.777-9.412h-1.537v-1.76h2.449V876.76h1.824v2.417h2.5v1.2a11.549,11.549,0,0,0,1.425-3.634l1.873.353c-.128.559-.3,1.12-.48,1.664h5.026v1.729h-5.747a10.339,10.339,0,0,1-.912,1.552h1.169v1.537l.864-.4v-2.289h1.584v1.552l1.154-.528.063-.048.288-.208,1.185.416-.065.256c-.015,2.274-.015,3.906-.063,4.387a1.119,1.119,0,0,1-.689,1.1,3.657,3.657,0,0,1-1.328.177,4.319,4.319,0,0,0-.336-1.392c.192.015.416.015.544.015s.208-.032.224-.24c.032-.144.032-1.025.048-2.545l-1.025.48v4.466h-1.584v-3.729l-.864.4v3.858c0,.656.111.752.912.752Zm-5.058-5.7V882.7l-.144.16a10.389,10.389,0,0,0-1.425-1.343,5.861,5.861,0,0,0,.513-.577H1576.5c-.016.577-.032,1.153-.048,1.712h2.881v.721l-.031,1.6Z" fill="#003562"/>
      <path id="パス_4809" data-name="パス 4809" d="M1603.109,879.513V887.5h-2v-.8h-3.617v4.994h-2.016V886.7h-3.6v.881h-1.921v-8.067h5.523v-2.77h2.016v2.77Zm-7.634,5.313v-3.441h-3.6v3.441Zm5.633,0v-3.441h-3.617v3.441Z" fill="#003562"/>
      <path id="パス_4810" data-name="パス 4810" d="M1607.359,889.911a1.549,1.549,0,1,1,1.549,1.548A1.5,1.5,0,0,1,1607.359,889.911Zm.177-9.148-.088-2.622h2.92l-.088,2.622-.474,6.016h-1.8Z" fill="#003562"/>
    </g>
    <g id="グループ_549" data-name="グループ 549">
      <g id="グループ_548" data-name="グループ 548">
        <path id="パス_4811" data-name="パス 4811" d="M1205.1,911.462a9.532,9.532,0,0,1-2.017,3.761,8.961,8.961,0,0,0,2.817,1.184,7.929,7.929,0,0,0-1.12,1.489,8.971,8.971,0,0,1-2.977-1.489,10.448,10.448,0,0,1-2.721,1.489,7.12,7.12,0,0,0-.849-1.281v1.3h-1.825v-1.3c-1.841.177-3.665.337-5.074.465l-.144-1.633c.416-.032.9-.048,1.393-.1v-4.866h-1.249V908.98h14.231v1.505h-7.332v5.859a8.209,8.209,0,0,0,2.273-1.153,9.8,9.8,0,0,1-1.456-2.369l1.056-.288h-1.472v-1.457h4.977l.321-.063Zm-1.376-3.073H1193.2v-4.914h10.517Zm-9.4,2.1v.64h2.08v-.64Zm0,2.641h2.08v-.672h-2.08Zm0,2.1c.672-.048,1.376-.1,2.08-.16v-.625h-2.08Zm7.49-10.533h-6.786v.657h6.786Zm0,1.809h-6.786v.673h6.786Zm-1.168,6.035a6.182,6.182,0,0,0,1.073,1.569,6.743,6.743,0,0,0,1.089-1.569Z" fill="#fff52a"/>
        <path id="パス_4812" data-name="パス 4812" d="M1199.928,926.021a10.68,10.68,0,0,0,5.986,6.85,7.694,7.694,0,0,0-1.408,1.793,11.935,11.935,0,0,1-6-6.787,11.018,11.018,0,0,1-5.986,6.8,5.656,5.656,0,0,0-1.424-1.617,9.593,9.593,0,0,0,5.809-7.042H1191.4v-1.969h5.827c.16-1.505.144-2.961.16-4.274h2.081c-.016,1.313-.032,2.785-.193,4.274h6.292v1.969Z" fill="#fff52a"/>
      </g>
    </g>
  </g>
</svg>
